<svg width="85" height="85" viewBox="0 0 85 85" fill="none" xmlns="http://www.w3.org/2000/svg">
<path d="M82.0143 56.8012C76.9843 71.4612 64.2843 82.4312 48.7843 84.3412C43.5643 84.9812 38.3576 84.8878 33.1643 84.0612C31.0543 83.7212 29.1243 82.9412 27.1343 82.1912C22.4277 80.5045 18.2177 78.0645 14.5043 74.8712C4.09767 65.9378 -0.709042 54.3145 0.084291 40.0012C0.564291 31.2545 3.75764 23.4478 9.66431 16.5812C15.5043 9.80117 21.3043 4.78118 29.5843 2.09118C47.4143 -3.69882 66.7443 2.76117 76.9843 18.6612C84.5776 30.4612 86.2543 43.1745 82.0143 56.8012ZM49.8043 26.7912C53.8643 27.3112 58.3543 26.0812 60.2143 22.2612C61.0076 20.6412 61.111 18.9578 60.5243 17.2112C59.4643 14.0445 57.001 11.5178 53.1343 9.63117C49.601 6.75784 45.3976 5.10117 40.5243 4.66117C36.3843 4.28117 32.3276 5.00118 28.3543 6.82118C20.801 10.2745 14.9043 15.5178 10.6643 22.5512C4.21098 33.2778 3.31765 44.8878 7.98432 57.3812C8.79765 59.5612 9.98766 61.4178 11.5543 62.9512C11.6107 63.0071 11.6778 63.051 11.7515 63.0803C11.8253 63.1097 11.9042 63.1239 11.9836 63.122C12.0629 63.1201 12.1411 63.1023 12.2134 63.0695C12.2857 63.0367 12.3506 62.9897 12.4043 62.9312C13.651 61.5912 15.281 60.6245 17.2943 60.0312C24.8876 57.7979 31.1677 59.7145 36.1343 65.7812C37.401 67.3345 38.021 69.1745 37.9943 71.3012C37.9643 74.7312 35.5443 76.6912 32.4643 77.3312C32.3342 77.3583 32.2171 77.4273 32.1307 77.5276C32.0444 77.628 31.9934 77.7544 31.9855 77.8876C31.9776 78.0208 32.0132 78.1537 32.0869 78.2662C32.1607 78.3787 32.2686 78.4647 32.3943 78.5112C36.6643 80.0012 43.0143 79.8112 47.7243 79.3012C57.0976 78.2945 64.7176 74.2512 70.5843 67.1712C78.711 57.3512 81.251 45.7578 78.2043 32.3912C78.1905 32.3268 78.1598 32.2674 78.1154 32.2188C78.0709 32.1702 78.0142 32.1341 77.9507 32.1139C77.8872 32.0938 77.8191 32.0903 77.7532 32.1038C77.6872 32.1174 77.6256 32.1475 77.5743 32.1912C74.0643 35.2312 70.9243 36.6212 67.0043 35.0612C62.8743 33.4112 58.9243 30.8712 54.5443 28.9312C52.971 28.2378 51.391 27.5245 49.8043 26.7912Z" fill="#94DBDD"/>
<path d="M53.1343 9.6312C50.1076 8.6912 47.2777 8.58787 44.6443 9.3212C40.3043 10.5312 37.3343 14.6012 39.1243 19.0112C40.9043 23.3912 44.4643 25.9845 49.8043 26.7912C51.391 27.5245 52.9709 28.2379 54.5443 28.9312C58.9243 30.8712 62.8743 33.4112 67.0043 35.0612C70.9243 36.6212 74.0643 35.2312 77.5743 32.1912C77.6256 32.1475 77.6872 32.1174 77.7531 32.1039C77.8191 32.0903 77.8872 32.0938 77.9507 32.114C78.0141 32.1341 78.0709 32.1703 78.1153 32.2188C78.1598 32.2674 78.1905 32.3268 78.2043 32.3912C81.251 45.7579 78.7109 57.3512 70.5843 67.1712C64.7176 74.2512 57.0976 78.2945 47.7243 79.3012C43.0143 79.8112 36.6643 80.0012 32.3943 78.5112C32.2686 78.4647 32.1606 78.3787 32.0869 78.2662C32.0131 78.1537 31.9775 78.0209 31.9854 77.8876C31.9933 77.7544 32.0443 77.628 32.1307 77.5277C32.2171 77.4273 32.3342 77.3583 32.4643 77.3312C35.5443 76.6912 37.9643 74.7312 37.9943 71.3012C38.021 69.1745 37.401 67.3345 36.1343 65.7812C31.1676 59.7145 24.8876 57.7979 17.2943 60.0312C15.2809 60.6245 13.6509 61.5912 12.4043 62.9312C12.3506 62.9897 12.2856 63.0367 12.2133 63.0695C12.1411 63.1023 12.0629 63.1202 11.9836 63.122C11.9042 63.1239 11.8253 63.1097 11.7515 63.0804C11.6777 63.051 11.6107 63.0071 11.5543 62.9512C9.98762 61.4179 8.79762 59.5612 7.98428 57.3812C3.31762 44.8879 4.21094 33.2779 10.6643 22.5512C14.9043 15.5179 20.8009 10.2745 28.3543 6.8212C32.3276 5.0012 36.3843 4.2812 40.5243 4.6612C45.3976 5.1012 49.601 6.75787 53.1343 9.6312Z" fill="#56BECA"/>
<path d="M53.1343 9.63118C57.0009 11.5178 59.4642 14.0445 60.5242 17.2112C61.1109 18.9579 61.0075 20.6412 60.2142 22.2612C58.3542 26.0812 53.8642 27.3112 49.8042 26.7912C44.4642 25.9845 40.9042 23.3912 39.1242 19.0112C37.3342 14.6012 40.3043 10.5312 44.6443 9.32118C47.2776 8.58785 50.1076 8.69118 53.1343 9.63118Z" fill="#DEF5EC"/>
</svg>
