<svg width="806" height="696" viewBox="0 0 806 696" fill="none" xmlns="http://www.w3.org/2000/svg">
<path d="M438.693 423.617C438.693 423.617 397.243 384.441 364.397 384.441C334.072 384.441 320.177 395.67 302.23 416.083C290.035 429.955 279.56 439.907 281.003 458.272C282.894 482.345 328.007 497.447 328.007 497.447C328.007 497.447 359.732 508.941 382.592 507.994C418.982 506.488 444.758 473.339 444.758 473.339C444.758 473.339 438.654 469.242 434.305 464.299C433.019 462.838 431.888 461.303 431.112 459.778C430.851 459.266 430.605 458.764 430.374 458.272C428.87 455.065 427.999 452.249 427.718 449.221C427.504 446.923 427.631 444.503 428.08 441.697C428.483 439.175 429.67 436.464 431.112 433.928C434.286 428.348 438.693 423.617 438.693 423.617Z" fill="#6DC0EF"/>
<path d="M364.397 598.399L323.458 580.318C323.458 580.318 320.245 578.624 315.173 575.798C309.513 572.645 301.538 568.082 293.133 562.896C286.671 558.909 279.955 554.552 273.842 550.183C248.617 561.504 233.018 564.454 203.271 565.251C277.889 613.921 364.397 598.399 364.397 598.399Z" fill="#6DC0EF"/>
<path d="M176.382 440.191C176.382 440.191 146.646 516.312 176.382 544.157C177.887 545.566 179.404 546.942 180.93 548.284C188.184 554.663 195.666 560.29 203.271 565.251C233.018 564.454 248.617 561.504 273.842 550.183C271.018 548.165 268.323 546.145 265.84 544.157C256.217 536.449 245.486 525.716 236.008 515.528C227.841 506.751 220.603 498.379 215.804 492.697C212.009 488.204 209.739 485.393 209.739 485.393L176.382 440.191Z" fill="#6DC0EF"/>
<path d="M11.1098 215.685C-26.7966 242.507 46.8962 317.322 44.4674 384.441C42.413 441.211 -7.08516 516.724 11.1098 526.076C52.8477 547.529 128.739 440.013 150.605 429.035L146.056 423.617C146.056 423.617 139.506 416.61 133.926 408.539C132.222 406.074 130.608 403.509 129.3 401.015C128.764 399.995 128.28 398.987 127.861 398.002C124.636 390.414 122.626 384.038 121.478 377.51C120.687 373.01 120.306 368.438 120.219 363.347C120.179 360.964 120.203 358.468 120.28 355.813C120.31 354.781 120.344 353.778 120.385 352.799C120.669 346.005 121.271 340.395 122.899 334.718C124.005 330.862 125.585 326.975 127.861 322.664C128.281 321.87 128.765 321.069 129.3 320.268C129.392 320.13 129.486 319.991 129.581 319.853C135.27 311.592 146.056 303.464 146.056 303.464C113.148 280.198 35.9604 198.101 11.1098 215.685Z" fill="#6DC0EF"/>
<path d="M617.611 105.693C617.611 105.693 493.279 -14.321 400.787 1.72707C347.718 10.9349 325.348 62.4791 281.003 105.693C231.603 153.832 173.255 198.856 162.735 236.78C152.216 274.703 164.251 284.996 176.382 297.05C186.23 281.616 195.842 266.712 205.19 252.823C212.959 241.28 220.546 230.438 227.934 220.576C234.142 212.29 240.21 204.695 246.129 197.959C251.83 191.471 257.393 185.778 262.808 181.03C266.003 178.228 269.554 175.239 273.422 172.118C281.302 165.76 290.503 158.854 300.714 151.868C314.775 142.249 330.752 132.477 347.839 123.774C358.072 118.561 368.703 113.732 379.559 109.547C383.076 108.192 386.616 106.904 390.173 105.693C400.962 102.02 412.73 99.2897 425.047 97.3214C439.196 95.0605 454.07 93.8044 469.018 93.2778C483.291 92.7751 497.631 92.9373 511.474 93.5249C525.871 94.1361 539.73 95.2075 552.412 96.4693C590.243 100.233 617.611 105.693 617.611 105.693Z" fill="#6DC0EF"/>
<path d="M414.433 607.44C414.433 607.44 353.783 654.149 350.751 685.791C349.307 700.858 414.433 684.284 446.275 661.683C478.116 639.081 500.86 607.44 500.86 607.44C500.86 607.44 509.725 589.261 503.892 580.318C496.163 568.468 485.697 572.785 467.502 580.318C449.307 587.852 414.433 607.44 414.433 607.44Z" fill="#6DC0EF"/>
<path d="M523.604 607.44C523.604 607.44 478.116 690.311 500.86 694.831C523.604 699.351 556.961 666.203 569.091 646.615C583.441 623.444 584.254 598.399 584.254 598.399C561.103 604.582 547.878 606.821 523.604 607.44Z" fill="#6DC0EF"/>
<path fill-rule="evenodd" clip-rule="evenodd" d="M153.638 428.137C163.704 428.137 176.382 440.191 176.382 440.191L209.739 485.393C209.739 485.393 212.009 488.204 215.804 492.697C220.603 498.379 227.841 506.751 236.008 515.528C245.486 525.716 256.217 536.449 265.84 544.157C268.323 546.145 271.018 548.165 273.842 550.183C279.955 554.552 286.671 558.909 293.133 562.896C301.538 568.082 309.513 572.645 315.173 575.798C320.245 578.624 323.458 580.318 323.458 580.318L364.397 598.399L414.433 607.44C414.433 607.44 449.307 587.852 467.502 580.318C485.697 572.785 496.163 568.468 503.892 580.318C509.725 589.261 500.86 607.44 500.86 607.44H523.604C547.878 606.821 561.103 604.582 584.254 598.399C584.254 598.399 629.51 589.766 672.196 572.222C672.196 572.222 634.621 567.683 611.546 560.731C574.801 549.659 552.199 542.5 523.604 517.035C496.575 492.964 485.486 474.257 473.567 440.191C459.172 399.048 469.018 328.691 469.018 328.691C469.018 328.691 479.431 271.096 490.246 235.273C499.344 205.138 513.987 172.068 538.766 149.388C571.726 119.221 617.611 105.693 617.611 105.693C617.611 105.693 590.243 100.233 552.412 96.4693C539.73 95.2075 525.871 94.1361 511.474 93.5249C497.631 92.9373 483.291 92.7751 469.018 93.2778C454.07 93.8044 439.196 95.0605 425.047 97.3214C412.73 99.2897 400.962 102.02 390.173 105.693C386.616 106.904 383.076 108.192 379.559 109.547C368.703 113.732 358.072 118.561 347.839 123.774C330.752 132.477 314.775 142.249 300.714 151.868C290.503 158.854 281.302 165.76 273.422 172.118C269.554 175.239 266.003 178.228 262.808 181.03C257.393 185.778 251.83 191.471 246.129 197.959C240.21 204.695 234.142 212.29 227.934 220.576C220.546 230.438 212.959 241.28 205.19 252.823C195.842 266.712 186.23 281.616 176.382 297.05C176.382 297.05 166.673 305.094 159.703 309.104C157.432 310.41 152.626 308.11 146.056 303.464C146.056 303.464 135.27 311.592 129.581 319.853C129.581 320.043 129.49 320.183 129.3 320.268C128.765 321.069 128.281 321.87 127.861 322.664C125.585 326.975 124.005 330.862 122.899 334.718C121.271 340.395 120.669 346.005 120.385 352.799C120.344 353.778 120.31 354.781 120.28 355.813C120.203 358.468 120.179 360.964 120.219 363.347C120.306 368.438 120.687 373.01 121.478 377.51C122.626 384.038 124.636 390.414 127.861 398.002C128.28 398.987 128.764 399.995 129.3 401.015C130.608 403.509 132.222 406.074 133.926 408.539C139.506 416.61 146.056 423.617 146.056 423.617L150.605 429.035C151.775 428.448 152.791 428.137 153.638 428.137ZM364.397 384.441C397.243 384.441 438.693 423.617 438.693 423.617C438.693 423.617 434.286 428.348 431.112 433.928C429.67 436.464 428.483 439.175 428.08 441.697C427.631 444.503 427.504 446.923 427.718 449.221C427.999 452.249 428.87 455.065 430.374 458.272C430.605 458.764 430.851 459.266 431.112 459.778C431.888 461.303 433.019 462.838 434.305 464.299C438.654 469.242 444.758 473.339 444.758 473.339C444.758 473.339 418.982 506.488 382.592 507.994C359.732 508.941 328.007 497.447 328.007 497.447C328.007 497.447 282.894 482.345 281.003 458.272C279.56 439.907 290.035 429.955 302.23 416.083C320.177 395.67 334.072 384.441 364.397 384.441Z" fill="#3571CC"/>
<path fill-rule="evenodd" clip-rule="evenodd" d="M634.29 390.468C626.346 398.363 618.194 401.604 606.997 402.522C594.382 403.556 586.392 402.289 575.156 396.495C559.068 388.199 552.696 377.204 546.347 360.333C539.707 342.688 538.829 329.987 544.831 312.117C550.193 296.154 556.175 286.268 570.607 277.462C584.463 269.007 596.004 265.181 611.546 269.928C625.562 274.209 631.342 283.009 639.143 294.887C639.541 295.494 639.945 296.108 640.355 296.73C650.273 311.776 653.903 322.759 654.001 340.745C654.122 362.715 643.388 381.428 634.29 390.468ZM588.802 378.414C596.671 383.138 602.354 384.441 611.546 384.441C620.739 384.441 626.554 383.347 634.29 378.414C640.995 374.139 644.378 370.429 647.936 363.347C652.349 354.564 651.819 348.106 651.031 338.491L650.969 337.732C650.121 327.339 648.817 321.039 643.388 312.117C637.534 302.498 632.617 296.819 622.16 292.529C612.293 288.482 604.963 287.576 594.867 291.023C580.525 295.92 575.357 306.845 570.607 321.158C566.342 334.011 565.697 343.189 570.607 355.813C574.709 366.356 579.067 372.569 588.802 378.414Z" fill="white"/>
<path fill-rule="evenodd" clip-rule="evenodd" d="M611.546 384.441C602.354 384.441 596.671 383.138 588.802 378.414C579.067 372.569 574.709 366.356 570.607 355.813C565.697 343.189 566.342 334.011 570.607 321.158C575.357 306.845 580.525 295.92 594.867 291.023C604.963 287.576 612.293 288.482 622.16 292.529C632.617 296.819 637.534 302.498 643.388 312.117C648.817 321.039 650.121 327.339 650.969 337.732L651.031 338.491C651.819 348.106 652.349 354.564 647.936 363.347C644.378 370.429 640.995 374.139 634.29 378.414C626.554 383.347 620.739 384.441 611.546 384.441ZM611.546 324.171C611.546 324.171 603.248 317.948 602.449 312.117C601.963 308.571 601.909 306.015 603.965 303.077C605.936 300.26 608.176 299.301 611.546 298.556C616.313 297.504 619.619 298.87 623.676 301.57C627.909 304.386 629.982 307.217 631.258 312.117C632.147 315.535 632.746 317.952 631.258 321.158C629.669 324.579 627.323 326.154 623.676 327.185C618.98 328.512 611.546 324.171 611.546 324.171Z" fill="#0D0D0D"/>
<path d="M602.449 312.117C603.248 317.948 611.546 324.171 611.546 324.171C611.546 324.171 618.98 328.512 623.676 327.185C627.323 326.154 629.669 324.579 631.258 321.158C632.746 317.952 632.147 315.535 631.258 312.117C629.982 307.217 627.909 304.386 623.676 301.57C619.619 298.87 616.313 297.504 611.546 298.556C608.176 299.301 605.936 300.26 603.965 303.077C601.909 306.015 601.963 308.571 602.449 312.117Z" fill="white"/>
<path fill-rule="evenodd" clip-rule="evenodd" d="M719.2 318.144C716.851 337.564 719.841 351.678 732.847 366.36C732.847 366.36 753.802 372.381 757.107 366.36C760.412 360.339 764.688 358.826 766.204 349.786L766.235 349.604C767.738 340.639 769.054 332.797 766.204 322.664L766.089 322.254C763.138 311.759 760.841 303.586 751.042 298.556C745.676 295.803 741.862 294.73 735.879 295.543C729.602 296.396 721.535 303.077 721.535 303.077C720.499 308.104 719.785 313.314 719.2 318.144ZM735.879 306.09C737.04 302.504 739.708 300.606 743.46 300.063C749.689 299.162 754.828 305.907 754.074 312.117C753.661 315.524 752.723 318.356 749.525 319.651C746.057 321.055 743.287 319.041 740.428 316.637C736.985 313.743 734.498 310.356 735.879 306.09Z" fill="black"/>
<path d="M770.753 296.73C770.753 296.73 755.59 277.462 740.428 277.462C729.387 277.462 724.31 289.611 721.535 303.077C721.535 303.077 729.602 296.396 735.879 295.543C741.862 294.73 745.676 295.803 751.042 298.556C760.841 303.586 763.138 311.759 766.089 322.254L766.204 322.664C769.054 332.797 767.738 340.639 766.235 349.604L766.204 349.786C764.688 358.826 760.412 360.339 757.107 366.36C753.802 372.381 732.847 366.36 732.847 366.36C741.972 376.662 763.172 384.441 763.172 384.441C763.172 384.441 768.158 378.25 770.753 373.894C775.613 365.736 778.334 349.786 778.334 349.786C779.85 331.705 770.753 296.73 770.753 296.73Z" fill="white"/>
<path d="M743.46 300.063C739.708 300.606 737.04 302.504 735.879 306.09C734.498 310.356 736.985 313.743 740.428 316.637C743.287 319.041 746.057 321.055 749.525 319.651C752.723 318.356 753.661 315.524 754.074 312.117C754.828 305.907 749.689 299.162 743.46 300.063Z" fill="white"/>
<path fill-rule="evenodd" clip-rule="evenodd" d="M802.594 440.191C788.441 489.417 761.338 514.174 720.717 545.663C707.288 556.073 689.965 564.919 672.196 572.222C672.196 572.222 634.621 567.683 611.546 560.731C574.801 549.659 552.199 542.5 523.604 517.035C496.575 492.964 485.486 474.257 473.567 440.191C459.172 399.048 469.018 328.691 469.018 328.691C469.018 328.691 479.431 271.096 490.246 235.273C499.344 205.138 513.987 172.068 538.766 149.388C571.726 119.221 617.611 105.693 617.611 105.693C617.611 105.693 714.652 150.895 749.525 226.233C750.718 228.809 751.952 231.878 753.199 235.273C761.702 258.434 770.753 296.73 770.753 296.73C770.753 296.73 755.59 277.462 740.428 277.462C729.387 277.462 724.31 289.611 721.535 303.077C720.499 308.104 719.785 313.314 719.2 318.144C716.851 337.564 719.841 351.678 732.847 366.36C741.972 376.662 763.172 384.441 763.172 384.441C763.172 384.441 768.158 378.25 770.753 373.894C775.613 365.736 778.334 349.786 778.334 349.786C779.506 359.143 781.367 366.36 781.367 366.36C781.367 366.36 814.724 398.002 802.594 440.191ZM634.29 390.468C626.346 398.363 618.194 401.604 606.997 402.522C594.382 403.556 586.392 402.289 575.156 396.495C559.068 388.199 552.696 377.204 546.347 360.333C539.707 342.688 538.829 329.987 544.831 312.117C550.193 296.154 556.175 286.268 570.607 277.462C584.463 269.007 596.004 265.181 611.546 269.928C625.562 274.209 631.342 283.009 639.143 294.887C639.541 295.494 639.945 296.108 640.355 296.73C650.273 311.776 653.903 322.759 654.001 340.745C654.122 362.715 643.388 381.428 634.29 390.468ZM535.488 428.166C546.437 425.07 555.714 431.819 561.264 441.697C567.38 452.585 567.331 466.318 556.961 473.339C545.33 481.215 528.872 472.748 523.604 459.778C518.64 447.558 522.732 431.773 535.488 428.166Z" fill="#6DC0EF"/>
<path d="M561.264 441.697C555.714 431.819 546.437 425.07 535.488 428.166C522.732 431.773 518.64 447.558 523.604 459.778C528.872 472.748 545.33 481.215 556.961 473.339C567.331 466.318 567.38 452.585 561.264 441.697Z" fill="#FEB3E0"/>
<path d="M176.382 440.191C176.382 440.191 163.704 428.137 153.638 428.137C152.791 428.137 151.775 428.448 150.605 429.035M176.382 440.191C176.382 440.191 146.646 516.312 176.382 544.157C177.887 545.566 179.404 546.942 180.93 548.284M176.382 440.191L209.739 485.393C209.739 485.393 212.009 488.204 215.804 492.697M364.397 598.4L414.433 607.44M364.397 598.4L323.458 580.318C323.458 580.318 320.245 578.624 315.173 575.798M364.397 598.4C364.397 598.4 277.889 613.921 203.271 565.251M414.433 607.44C414.433 607.44 353.783 654.149 350.751 685.791C349.307 700.858 414.433 684.284 446.275 661.683C478.116 639.081 500.86 607.44 500.86 607.44M414.433 607.44C414.433 607.44 449.307 587.852 467.502 580.318C485.697 572.785 496.163 568.468 503.892 580.318C509.725 589.261 500.86 607.44 500.86 607.44M500.86 607.44H523.604M523.604 607.44C523.604 607.44 478.116 690.311 500.86 694.831C523.604 699.351 556.961 666.203 569.091 646.615C583.441 623.444 584.254 598.4 584.254 598.4M523.604 607.44C547.878 606.821 561.103 604.582 584.254 598.4M584.254 598.4C584.254 598.4 629.51 589.766 672.196 572.222M617.611 105.693C617.611 105.693 714.652 150.895 749.525 226.233C750.718 228.809 751.952 231.878 753.199 235.273M617.611 105.693C617.611 105.693 493.279 -14.321 400.787 1.72707C347.718 10.9349 325.348 62.4791 281.003 105.693C231.603 153.832 173.255 198.856 162.735 236.78C152.216 274.703 164.251 284.996 176.382 297.05M617.611 105.693C617.611 105.693 571.726 119.221 538.766 149.388C513.987 172.068 499.343 205.138 490.246 235.273C479.431 271.096 469.018 328.691 469.018 328.691C469.018 328.691 459.172 399.048 473.567 440.191C485.486 474.257 496.575 492.964 523.604 517.035C552.199 542.5 574.801 549.659 611.546 560.731C634.621 567.683 672.196 572.222 672.196 572.222M617.611 105.693C617.611 105.693 590.243 100.233 552.412 96.4693M176.382 297.05C176.382 297.05 166.673 305.094 159.703 309.104C157.432 310.41 152.626 308.11 146.056 303.464M176.382 297.05C186.23 281.616 195.842 266.712 205.19 252.823M672.196 572.222C689.965 564.919 707.288 556.073 720.717 545.663C761.338 514.174 788.441 489.417 802.594 440.191C814.724 398.002 781.367 366.36 781.367 366.36C781.367 366.36 779.506 359.143 778.334 349.786M619.128 444.711C619.128 444.711 626.52 440.579 631.258 437.931M643.388 431.15C638.651 433.798 635.995 435.283 631.258 437.931M631.258 437.931C639.683 445.951 645.182 449.879 655.518 455.258C673.839 464.793 686.444 468.822 707.07 467.312C731.116 465.552 750.244 461.922 763.172 441.697C772.202 427.57 775.302 422.11 770.753 399.509C769.347 392.521 763.172 384.441 763.172 384.441M732.847 366.36C719.841 351.678 716.851 337.564 719.2 318.144C719.785 313.314 720.499 308.104 721.535 303.077M732.847 366.36C741.972 376.662 763.172 384.441 763.172 384.441M732.847 366.36C732.847 366.36 753.802 372.381 757.107 366.36C760.412 360.339 764.688 358.826 766.204 349.786M770.753 296.73C770.753 296.73 755.59 277.462 740.428 277.462C729.387 277.462 724.31 289.611 721.535 303.077M770.753 296.73C770.753 296.73 779.85 331.705 778.334 349.786M770.753 296.73C770.753 296.73 761.702 258.434 753.199 235.273M778.334 349.786C778.334 349.786 775.613 365.736 770.753 373.894C768.158 378.25 763.172 384.441 763.172 384.441M570.607 223.219C570.607 223.219 582.561 199.233 596.384 199.111C605.652 199.029 617.611 209.658 617.611 209.658M716.168 226.233C716.168 226.233 717.684 218.699 725.265 217.192C732.847 215.685 753.199 235.273 753.199 235.273M650.969 337.732C650.121 327.339 648.817 321.039 643.388 312.117C637.534 302.498 632.617 296.819 622.16 292.529C612.293 288.482 604.963 287.576 594.867 291.023C580.525 295.92 575.357 306.845 570.607 321.158C566.342 334.011 565.697 343.189 570.607 355.813C574.709 366.356 579.067 372.569 588.802 378.414C596.671 383.138 602.354 384.441 611.546 384.441C620.739 384.441 626.554 383.347 634.29 378.414C640.995 374.139 644.378 370.429 647.936 363.347C652.349 354.564 651.819 348.106 651.031 338.491M650.969 337.732L651.031 338.491M650.969 337.732C650.99 337.987 651.01 338.24 651.031 338.491M721.535 303.077C721.535 303.077 729.602 296.396 735.879 295.543C741.862 294.73 745.676 295.803 751.042 298.556C760.841 303.586 763.138 311.759 766.089 322.254M766.204 322.664C769.054 332.797 767.738 340.639 766.235 349.604M766.204 322.664L766.089 322.254M766.204 322.664C766.166 322.527 766.127 322.39 766.089 322.254M766.204 349.786L766.235 349.604M766.204 349.786C766.214 349.725 766.225 349.664 766.235 349.604M150.605 429.035C128.739 440.013 52.8477 547.529 11.1098 526.076C-7.08516 516.724 42.413 441.211 44.4674 384.441C46.8962 317.322 -26.7966 242.507 11.1098 215.685C35.9603 198.101 113.148 280.198 146.056 303.464M150.605 429.035L146.056 423.617C146.056 423.617 139.506 416.609 133.926 408.539M146.056 303.464C146.056 303.464 135.27 311.592 129.581 319.853M428.08 441.697C428.483 439.175 429.67 436.464 431.112 433.928M428.08 441.697C377.399 431.079 347.683 431.218 293.133 438.684M428.08 441.697C427.631 444.503 427.504 446.923 427.718 449.221M497.827 102.679C497.827 102.679 473.567 105.693 459.921 129.801C446.275 153.909 469.018 165.963 469.018 165.963C469.018 165.963 455.403 177.033 452.34 187.057C449.052 197.814 455.372 215.685 455.372 215.685M417.466 239.793C417.466 239.793 392.986 265.976 393.206 286.502C393.391 303.887 411.401 327.185 411.401 327.185M425.047 140.348C425.047 140.348 391.689 158.429 387.141 187.057C382.592 215.685 405.336 223.219 405.336 223.219M375.011 199.111C375.011 199.111 349.234 226.233 344.686 251.847C340.137 277.462 368.946 292.529 368.946 292.529C368.946 292.529 344.686 315.131 344.686 340.745C344.686 366.36 368.946 379.921 368.946 379.921M335.588 158.429C335.588 158.429 318.909 168.976 315.877 187.057C312.844 205.138 323.458 209.658 323.458 209.658M326.491 215.685C326.491 215.685 296.165 233.766 293.133 265.408C290.1 297.05 320.426 303.077 320.426 303.077C320.426 303.077 300.246 328.411 302.23 346.772C303.815 361.434 320.426 379.921 320.426 379.921M285.552 187.057C285.552 187.057 261.292 194.591 256.743 215.685C252.194 236.78 262.808 248.834 262.808 248.834C262.808 248.834 232.483 279.744 238.548 303.464C244.613 327.185 256.743 328.691 256.743 328.691C256.743 328.691 246.446 349.762 249.162 363.347C251.28 373.942 262.808 387.455 262.808 387.455C262.808 387.455 250.076 407.182 252.194 420.603C254.179 433.179 270.389 447.724 270.389 447.724M205.19 277.462C205.19 277.462 183.963 297.05 190.028 313.624C196.093 330.198 205.19 334.718 205.19 334.718C205.19 334.718 188.258 353.756 190.028 367.867C191.654 380.832 209.739 394.988 209.739 394.988C209.739 394.988 197.682 415.629 202.158 428.137C204.977 436.017 215.804 444.711 215.804 444.711M162.735 313.624C162.735 313.624 146.693 324.261 146.056 334.718C145.497 343.912 156.67 355.813 156.67 355.813C156.67 355.813 144.127 369.825 146.056 379.921C147.854 389.332 162.735 398.002 162.735 398.002M337.104 507.994C339.471 522.705 343.602 528.632 361.364 530.596M334.072 536.623C334.072 536.623 328.007 554.704 337.104 565.251C346.202 575.798 356.816 572.785 356.816 572.785M387.141 517.035C387.141 517.035 378.043 533.609 391.689 544.157C405.336 554.704 417.466 550.183 417.466 550.183M391.689 554.704C391.689 554.704 384.231 566.105 387.141 572.785C390.637 580.812 408.368 580.318 408.368 580.318M438.693 517.035C438.693 517.035 423.531 533.609 435.661 550.183C447.791 566.758 455.372 565.251 455.372 565.251M315.173 575.798C303.593 583.159 296.317 585.509 282.519 587.852M315.173 575.798C309.513 572.645 301.538 568.082 293.133 562.896M293.133 562.896C277.911 572.735 267.061 575.14 246.129 577.305M293.133 562.896C286.671 558.909 279.955 554.552 273.842 550.183M273.842 550.183C271.018 548.165 268.323 546.145 265.84 544.157C256.217 536.449 245.486 525.716 236.008 515.528M273.842 550.183C248.617 561.504 233.018 564.454 203.271 565.251M203.271 565.251C195.666 560.29 188.184 554.663 180.93 548.284M255.227 536.623C228.666 545.872 212.096 547.848 180.93 548.284M236.008 515.528C214.078 520.331 199.679 520.985 171.833 520.048M236.008 515.528C227.841 506.751 220.603 498.379 215.804 492.697M215.804 492.697C199.095 495.154 189.398 495.262 171.833 494.434M133.926 408.539C133.926 408.539 108.987 448.665 86.9224 468.819C70.3506 483.956 39.9186 501.967 39.9186 501.967M133.926 408.539C132.222 406.074 130.608 403.509 129.3 401.015M129.3 401.015C128.764 399.995 128.28 398.987 127.861 398.002C124.636 390.414 122.626 384.038 121.478 377.51M129.3 401.015C91.5733 431.827 68.3607 449.64 23.2398 482.38M121.478 377.51C89.8431 392.275 74.2436 401.873 49.0161 420.603M121.478 377.51C120.687 373.01 120.306 368.438 120.219 363.347M120.219 363.347C120.179 360.964 120.203 358.468 120.28 355.813C120.31 354.781 120.344 353.778 120.385 352.799M120.219 363.347C92.6552 363.899 78.4209 362.881 55.0811 358.826M120.385 352.799C83.0986 341.559 63.9143 330.918 30.8211 309.104M120.385 352.799C120.669 346.005 121.271 340.395 122.899 334.718M122.899 334.718C124.005 330.862 125.585 326.975 127.861 322.664C128.281 321.87 128.765 321.069 129.3 320.268M122.899 334.718C122.899 334.718 89.9416 318.715 70.2437 306.09C49.6422 292.886 20.2073 268.421 20.2073 268.421M129.3 320.268C129.49 320.183 129.581 320.043 129.581 319.853M129.3 320.268C129.392 320.13 129.486 319.991 129.581 319.853M20.2073 239.793C21.5069 237.438 55.4157 264.855 79.3412 281.982C99.9183 296.713 129.575 316.439 129.581 319.853M205.19 252.823C194.266 250.446 186.985 249.739 173.349 248.834M205.19 252.823C212.959 241.28 220.546 230.438 227.934 220.576M227.934 220.576C207.196 219.844 197.352 220.313 180.93 221.712M227.934 220.576C234.142 212.29 240.211 204.695 246.129 197.959M246.129 197.959C251.83 191.471 257.393 185.778 262.808 181.03C266.003 178.228 269.554 175.239 273.422 172.118M246.129 197.959C223.585 195.812 212.083 196.602 193.06 200.618M273.422 172.118C255.598 168.601 244.859 168.151 224.902 168.976M273.422 172.118C281.302 165.76 290.503 158.854 300.714 151.868M300.714 151.868C279.374 147.403 267.424 146.662 246.129 147.882M300.714 151.868C314.775 142.249 330.752 132.477 347.839 123.774M347.839 123.774C322.528 115.578 308.61 113.803 284.035 113.226M347.839 123.774C358.072 118.561 368.703 113.732 379.559 109.547M379.559 109.547C383.076 108.192 386.616 106.904 390.173 105.693C400.962 102.02 412.73 99.2897 425.047 97.3214M379.559 109.547C358.513 98.1743 345.851 94.1643 321.942 90.6252M425.047 97.3214C392.357 79.5453 371.887 71.6998 331.039 61.997M425.047 97.3214C439.196 95.0605 454.07 93.8044 469.018 93.2778M469.018 93.2778C466.701 90.3346 437.674 66.3688 418.982 57.4767C399.134 48.0347 367.429 34.8755 367.429 34.8755M469.018 93.2778C483.291 92.7751 497.631 92.9373 511.474 93.5249M511.474 93.5249C511.474 93.5249 490.559 70.1696 475.083 57.4767C447.667 34.9909 396.238 12.2743 396.238 12.2743M511.474 93.5249C525.871 94.1361 539.73 95.2074 552.412 96.4693M552.412 96.4693C552.412 96.4693 532.254 73.4035 517.539 60.4902C501.027 46.0003 472.051 27.3418 472.051 27.3418M388.657 123.774C388.657 123.774 380.546 134.223 381.076 141.855C381.531 148.418 388.657 156.922 388.657 156.922M431.112 433.928C434.286 428.348 438.693 423.617 438.693 423.617C438.693 423.617 397.243 384.441 364.397 384.441C334.072 384.441 320.177 395.67 302.23 416.083C290.035 429.955 279.56 439.907 281.003 458.272C282.894 482.345 328.007 497.447 328.007 497.447C328.007 497.447 359.732 508.941 382.592 507.994C418.982 506.488 444.758 473.339 444.758 473.339C444.758 473.339 438.653 469.242 434.305 464.299M431.112 433.928C431.112 433.928 394.722 414.576 373.494 411.563C352.267 408.549 324.974 408.549 324.974 408.549M428.08 449.231C427.959 449.228 427.838 449.224 427.718 449.221M320.426 450.738C361.05 448.263 384.652 448.002 427.718 449.221M430.374 458.272C430.605 458.764 430.851 459.266 431.112 459.778C431.888 461.303 433.019 462.838 434.305 464.299M430.374 458.272C407.211 465.786 367.945 467.128 305.263 470.326M430.374 458.272C428.87 455.065 427.999 452.249 427.718 449.221M434.305 464.299C404.41 489.627 380.855 493.003 334.072 491.42M472.051 587.852C446.685 610.196 430.096 620.762 396.238 636.068M485.697 587.852C456.055 620.177 432.881 634.241 385.624 655.656M496.311 593.879C466.443 634.646 440.941 651.221 385.624 673.737M538.766 613.467C532.509 629.025 526.187 637.207 511.474 651.135M556.961 610.453C549.315 638.754 539.846 652.392 516.022 673.737M569.091 610.453C564.147 631.557 558.974 642.722 546.347 661.683M634.29 390.468C626.346 398.363 618.194 401.604 606.997 402.522C594.382 403.556 586.392 402.289 575.156 396.495C559.068 388.199 552.696 377.204 546.347 360.333C539.707 342.688 538.829 329.987 544.831 312.117C550.193 296.154 556.175 286.268 570.607 277.462C584.463 269.007 596.004 265.181 611.546 269.928C625.562 274.209 631.342 283.009 639.143 294.887C639.541 295.494 639.945 296.108 640.355 296.73C650.273 311.776 653.903 322.759 654.001 340.745C654.122 362.715 643.388 381.428 634.29 390.468ZM602.449 312.117C603.248 317.948 611.546 324.171 611.546 324.171C611.546 324.171 618.98 328.512 623.676 327.185C627.323 326.154 629.669 324.579 631.258 321.158C632.746 317.952 632.147 315.535 631.258 312.117C629.982 307.217 627.909 304.386 623.676 301.57C619.619 298.87 616.313 297.504 611.546 298.556C608.176 299.301 605.936 300.26 603.965 303.077C601.909 306.015 601.963 308.571 602.449 312.117ZM743.46 300.063C739.708 300.606 737.04 302.504 735.879 306.09C734.498 310.356 736.985 313.743 740.428 316.637C743.287 319.041 746.057 321.055 749.525 319.651C752.723 318.356 753.661 315.524 754.074 312.117C754.828 305.907 749.689 299.162 743.46 300.063ZM561.264 441.697C555.714 431.819 546.437 425.07 535.488 428.166C522.732 431.773 518.64 447.558 523.604 459.778C528.872 472.748 545.33 481.215 556.961 473.339C567.331 466.318 567.38 452.585 561.264 441.697Z" stroke="black" stroke-width="0.5"/>
</svg>
