<svg width="620" height="534" viewBox="0 0 620 534" fill="none" xmlns="http://www.w3.org/2000/svg">
<g clip-path="url(#clip0_2007_19)">
<path d="M337.456 325.016C337.456 325.016 305.571 294.959 280.305 294.959C256.978 294.959 246.29 303.574 232.485 319.236C223.104 329.879 215.046 337.515 216.156 351.605C217.611 370.075 252.313 381.662 252.313 381.662C252.313 381.662 276.717 390.481 294.301 389.754C322.294 388.598 342.121 363.165 342.121 363.165C342.121 363.165 337.426 360.022 334.081 356.229C333.091 355.108 332.221 353.931 331.625 352.761C331.424 352.368 331.235 351.983 331.057 351.605C329.9 349.145 329.23 346.984 329.014 344.661C328.849 342.898 328.947 341.041 329.292 338.888C329.602 336.953 330.515 334.873 331.625 332.927C334.066 328.646 337.456 325.016 337.456 325.016Z" fill="#6DC0EF"/>
<path d="M280.305 459.116L248.814 445.244C248.814 445.244 246.342 443.944 242.441 441.776C238.087 439.357 231.952 435.856 225.487 431.877C220.516 428.818 215.35 425.475 210.648 422.123C191.244 430.809 179.245 433.072 156.362 433.684C213.761 471.025 280.305 459.116 280.305 459.116Z" fill="#6DC0EF"/>
<path d="M135.678 337.732C135.678 337.732 112.805 396.136 135.678 417.499C136.836 418.58 138.003 419.636 139.177 420.666C144.757 425.56 150.512 429.877 156.362 433.684C179.245 433.072 191.244 430.809 210.648 422.123C208.475 420.575 206.402 419.025 204.492 417.499C197.09 411.586 188.835 403.351 181.545 395.534C175.262 388.8 169.695 382.377 166.003 378.017C163.084 374.57 161.338 372.413 161.338 372.413L135.678 337.732Z" fill="#6DC0EF"/>
<path d="M8.54609 165.482C-20.6127 186.061 36.0741 243.462 34.2058 294.959C32.6255 338.515 -5.45003 396.452 8.54609 403.627C40.6522 420.087 99.0301 337.596 115.85 329.173L112.351 325.016C112.351 325.016 107.312 319.64 103.02 313.448C101.709 311.556 100.468 309.588 99.4616 307.675C99.0493 306.892 98.677 306.119 98.3547 305.363C95.8739 299.541 94.3278 294.65 93.4447 289.641C92.8362 286.188 92.5432 282.681 92.4762 278.775C92.4455 276.946 92.4639 275.031 92.5232 272.994C92.5462 272.202 92.5724 271.433 92.6039 270.682C92.8224 265.469 93.2855 261.165 94.5378 256.809C95.3886 253.851 96.6039 250.868 98.3547 247.561C98.6778 246.952 99.0501 246.337 99.4616 245.723C99.5324 245.617 99.6047 245.51 99.6778 245.404C104.054 239.066 112.351 232.83 112.351 232.83C87.037 214.979 27.6619 151.991 8.54609 165.482Z" fill="#6DC0EF"/>
<path d="M475.085 81.0916C475.085 81.0916 379.445 -10.9881 308.298 1.32467C267.475 8.3893 250.268 47.9361 216.156 81.0916C178.156 118.026 133.273 152.57 125.181 181.667C117.089 210.763 126.347 218.66 135.678 227.909C143.254 216.067 150.648 204.632 157.838 193.976C163.815 185.12 169.651 176.801 175.334 169.235C180.109 162.877 184.777 157.05 189.33 151.882C193.715 146.904 197.995 142.536 202.16 138.893C204.618 136.743 207.349 134.45 210.325 132.056C216.386 127.178 223.464 121.879 231.318 116.519C242.135 109.139 254.425 101.641 267.568 94.9641C275.44 90.9645 283.618 87.2595 291.968 84.0486C294.674 83.009 297.397 82.0208 300.133 81.0916C308.432 78.2736 317.485 76.1788 326.959 74.6686C337.843 72.9339 349.285 71.9702 360.783 71.5662C371.762 71.1805 382.793 71.3049 393.441 71.7558C404.516 72.2247 415.177 73.0467 424.932 74.0148C454.033 76.9025 475.085 81.0916 475.085 81.0916Z" fill="#6DC0EF"/>
<path d="M318.795 466.053C318.795 466.053 272.141 501.89 269.808 526.167C268.698 537.727 318.795 525.011 343.288 507.671C367.782 490.329 385.277 466.053 385.277 466.053C385.277 466.053 392.096 452.105 387.609 445.244C381.664 436.152 373.613 439.464 359.617 445.244C345.621 451.024 318.795 466.053 318.795 466.053Z" fill="#6DC0EF"/>
<path d="M402.772 466.053C402.772 466.053 367.781 529.635 385.277 533.103C402.772 536.571 428.432 511.138 437.762 496.11C448.801 478.332 449.426 459.116 449.426 459.116C431.618 463.86 421.445 465.578 402.772 466.053Z" fill="#6DC0EF"/>
<path fill-rule="evenodd" clip-rule="evenodd" d="M118.183 328.485C125.926 328.485 135.678 337.733 135.678 337.733L161.338 372.414C161.338 372.414 163.084 374.57 166.003 378.018C169.695 382.377 175.262 388.801 181.545 395.535C188.835 403.351 197.09 411.586 204.492 417.5C206.402 419.025 208.475 420.575 210.648 422.123C215.35 425.475 220.516 428.818 225.487 431.877C231.952 435.856 238.087 439.357 242.441 441.776C246.342 443.944 248.814 445.244 248.814 445.244L280.305 459.117L318.795 466.053C318.795 466.053 345.621 451.025 359.617 445.244C373.613 439.465 381.664 436.152 387.609 445.244C392.096 452.106 385.277 466.053 385.277 466.053H402.772C421.445 465.578 431.618 463.86 449.426 459.117C449.426 459.117 484.238 452.493 517.074 439.033C517.074 439.033 488.17 435.55 470.42 430.216C442.155 421.721 424.768 416.229 402.772 396.691C381.981 378.223 373.451 363.87 364.282 337.733C353.209 306.166 360.783 252.185 360.783 252.185C360.783 252.185 368.793 207.996 377.112 180.511C384.111 157.391 395.375 132.018 414.435 114.617C439.789 91.4714 475.085 81.0922 475.085 81.0922C475.085 81.0922 454.033 76.903 424.932 74.0154C415.177 73.0473 404.516 72.2252 393.442 71.7563C382.793 71.3055 371.762 71.181 360.783 71.5667C349.285 71.9708 337.843 72.9345 326.959 74.6691C317.485 76.1793 308.432 78.2741 300.133 81.0922C297.397 82.0213 294.674 83.0095 291.968 84.0491C283.618 87.26 275.44 90.965 267.568 94.9647C254.425 101.642 242.135 109.139 231.318 116.52C223.464 121.879 216.386 127.178 210.325 132.056C207.349 134.451 204.618 136.744 202.16 138.894C197.995 142.537 193.715 146.905 189.33 151.882C184.777 157.051 180.109 162.878 175.334 169.235C169.651 176.802 163.815 185.12 157.838 193.976C150.648 204.633 143.254 216.068 135.678 227.909C135.678 227.909 128.21 234.081 122.848 237.158C121.102 238.16 117.405 236.395 112.351 232.83C112.351 232.83 104.054 239.066 99.6777 245.405C99.6777 245.55 99.6077 245.658 99.4615 245.723C99.05 246.338 98.6777 246.952 98.3546 247.561C96.6038 250.869 95.3884 253.851 94.5377 256.81C93.2853 261.165 92.8223 265.47 92.6038 270.682C92.5723 271.433 92.5461 272.203 92.523 272.995C92.4638 275.032 92.4453 276.947 92.4761 278.775C92.543 282.681 92.8361 286.189 93.4446 289.641C94.3277 294.65 95.8738 299.542 98.3546 305.364C98.6769 306.119 99.0492 306.893 99.4615 307.675C100.468 309.589 101.709 311.557 103.02 313.448C107.312 319.641 112.351 325.017 112.351 325.017L115.85 329.174C116.75 328.723 117.532 328.485 118.183 328.485ZM280.305 294.959C305.572 294.959 337.456 325.017 337.456 325.017C337.456 325.017 334.066 328.646 331.625 332.928C330.515 334.873 329.602 336.953 329.292 338.888C328.947 341.041 328.849 342.898 329.014 344.661C329.23 346.984 329.9 349.145 331.057 351.605C331.235 351.983 331.424 352.368 331.625 352.761C332.222 353.931 333.092 355.109 334.081 356.23C337.426 360.022 342.122 363.165 342.122 363.165C342.122 363.165 322.294 388.599 294.302 389.754C276.717 390.481 252.313 381.662 252.313 381.662C252.313 381.662 217.611 370.075 216.156 351.605C215.046 337.515 223.104 329.879 232.485 319.236C246.29 303.575 256.978 294.959 280.305 294.959Z" fill="#3571CC"/>
<path fill-rule="evenodd" clip-rule="evenodd" d="M487.915 299.584C481.804 305.641 475.534 308.128 466.921 308.832C457.217 309.625 451.071 308.653 442.428 304.208C430.052 297.843 425.151 289.407 420.267 276.463C415.159 262.925 414.484 253.18 419.101 239.47C423.225 227.222 427.827 219.637 438.928 212.881C449.587 206.394 458.465 203.458 470.42 207.1C481.201 210.385 485.648 217.137 491.648 226.25C491.955 226.716 492.265 227.187 492.581 227.664C500.21 239.208 503.002 247.635 503.078 261.434C503.171 278.29 494.914 292.648 487.915 299.584ZM452.925 290.335C458.978 293.96 463.349 294.959 470.42 294.959C477.491 294.959 481.964 294.12 487.915 290.335C493.073 287.055 495.675 284.209 498.412 278.775C501.807 272.037 501.399 267.082 500.793 259.705L500.745 259.122C500.093 251.148 499.09 246.315 494.914 239.47C490.411 232.089 486.628 227.732 478.584 224.441C470.994 221.336 465.356 220.641 457.59 223.285C446.558 227.043 442.582 235.425 438.928 246.406C435.648 256.267 435.151 263.309 438.928 272.995C442.084 281.084 445.436 285.851 452.925 290.335Z" fill="white"/>
<path fill-rule="evenodd" clip-rule="evenodd" d="M470.42 294.959C463.349 294.959 458.978 293.96 452.925 290.335C445.436 285.851 442.084 281.084 438.928 272.995C435.152 263.309 435.648 256.267 438.928 246.406C442.582 235.424 446.558 227.042 457.59 223.285C465.356 220.64 470.995 221.336 478.585 224.441C486.628 227.732 490.411 232.089 494.914 239.469C499.09 246.315 500.093 251.148 500.745 259.122L500.793 259.705C501.399 267.082 501.807 272.036 498.412 278.775C495.675 284.209 493.073 287.055 487.915 290.335C481.965 294.12 477.492 294.959 470.42 294.959ZM470.42 248.718C470.42 248.718 464.037 243.943 463.422 239.469C463.048 236.749 463.007 234.788 464.588 232.533C466.105 230.372 467.828 229.636 470.42 229.065C474.087 228.258 476.63 229.306 479.751 231.377C483.007 233.538 484.602 235.71 485.583 239.469C486.267 242.092 486.728 243.946 485.583 246.406C484.361 249.031 482.556 250.239 479.751 251.03C476.138 252.048 470.42 248.718 470.42 248.718Z" fill="#0D0D0D"/>
<path d="M463.422 239.469C464.037 243.943 470.42 248.718 470.42 248.718C470.42 248.718 476.139 252.048 479.751 251.03C482.556 250.239 484.361 249.031 485.583 246.406C486.728 243.946 486.267 242.092 485.583 239.469C484.602 235.71 483.007 233.538 479.751 231.377C476.63 229.306 474.087 228.257 470.42 229.065C467.828 229.636 466.105 230.372 464.589 232.533C463.007 234.787 463.049 236.749 463.422 239.469Z" fill="white"/>
<path fill-rule="evenodd" clip-rule="evenodd" d="M553.231 244.094C551.424 258.993 553.724 269.822 563.728 281.087C563.728 281.087 579.848 285.706 582.39 281.087C584.932 276.467 588.222 275.306 589.388 268.371L589.412 268.231C590.568 261.353 591.58 255.336 589.388 247.561L589.299 247.247C587.029 239.195 585.262 232.924 577.725 229.065C573.597 226.953 570.663 226.129 566.061 226.753C561.232 227.408 555.027 232.533 555.027 232.533C554.23 236.39 553.681 240.388 553.231 244.094ZM566.061 234.845C566.954 232.094 569.006 230.638 571.892 230.221C576.684 229.53 580.637 234.705 580.057 239.469C579.739 242.083 579.018 244.256 576.558 245.25C573.89 246.327 571.759 244.782 569.56 242.937C566.912 240.717 564.999 238.118 566.061 234.845Z" fill="black"/>
<path d="M592.887 227.663C592.887 227.663 581.223 212.88 569.56 212.88C561.067 212.88 557.161 222.201 555.027 232.533C555.027 232.533 561.232 227.407 566.061 226.752C570.663 226.129 573.597 226.952 577.725 229.064C585.262 232.923 587.029 239.194 589.299 247.246L589.388 247.561C591.58 255.335 590.568 261.352 589.411 268.23L589.388 268.37C588.221 275.306 584.932 276.467 582.39 281.086C579.848 285.706 563.728 281.086 563.728 281.086C570.748 288.99 587.055 294.959 587.055 294.959C587.055 294.959 590.891 290.209 592.887 286.867C596.625 280.607 598.718 268.37 598.718 268.37C599.885 254.497 592.887 227.663 592.887 227.663Z" fill="white"/>
<path d="M571.892 230.221C569.006 230.637 566.954 232.093 566.061 234.845C564.999 238.118 566.912 240.717 569.56 242.937C571.759 244.781 573.89 246.327 576.558 245.249C579.018 244.256 579.739 242.083 580.057 239.469C580.637 234.704 576.684 229.529 571.892 230.221Z" fill="white"/>
<path fill-rule="evenodd" clip-rule="evenodd" d="M617.38 337.733C606.493 375.501 585.645 394.495 554.398 418.655C544.068 426.642 530.742 433.429 517.074 439.032C517.074 439.032 488.17 435.55 470.42 430.216C442.155 421.721 424.768 416.228 402.772 396.69C381.981 378.222 373.451 363.869 364.282 337.733C353.209 306.166 360.783 252.185 360.783 252.185C360.783 252.185 368.793 207.996 377.112 180.511C384.111 157.39 395.375 132.017 414.435 114.616C439.789 91.471 475.085 81.0918 475.085 81.0918C475.085 81.0918 549.732 115.773 576.558 173.575C577.475 175.551 578.425 177.906 579.384 180.511C585.925 198.281 592.887 227.663 592.887 227.663C592.887 227.663 581.223 212.88 569.56 212.88C561.067 212.88 557.161 222.201 555.027 232.533C554.23 236.39 553.681 240.387 553.231 244.093C551.424 258.993 553.724 269.822 563.728 281.086C570.748 288.99 587.055 294.959 587.055 294.959C587.055 294.959 590.891 290.209 592.887 286.867C596.625 280.608 598.718 268.37 598.718 268.37C599.62 275.549 601.051 281.086 601.051 281.086C601.051 281.086 626.711 305.363 617.38 337.733ZM487.915 299.583C481.805 305.64 475.534 308.127 466.921 308.831C457.217 309.625 451.071 308.653 442.428 304.207C430.052 297.842 425.151 289.406 420.267 276.462C415.159 262.924 414.484 253.179 419.101 239.469C423.225 227.221 427.827 219.636 438.928 212.88C449.587 206.393 458.465 203.458 470.42 207.1C481.201 210.384 485.648 217.136 491.648 226.249C491.955 226.715 492.265 227.186 492.581 227.663C500.21 239.207 503.002 247.634 503.078 261.433C503.171 278.29 494.914 292.647 487.915 299.583ZM411.914 328.506C420.336 326.131 427.472 331.309 431.741 338.888C436.446 347.242 436.408 357.778 428.431 363.165C419.485 369.208 406.825 362.712 402.772 352.76C398.954 343.385 402.101 331.274 411.914 328.506Z" fill="#6DC0EF"/>
<path d="M431.742 338.888C427.472 331.31 420.336 326.132 411.914 328.507C402.102 331.274 398.954 343.385 402.772 352.761C406.825 362.712 419.485 369.208 428.432 363.165C436.409 357.779 436.446 347.242 431.742 338.888Z" fill="#FEB3E0"/>
<path d="M135.679 337.732C135.679 337.732 125.926 328.484 118.183 328.484C117.532 328.484 116.75 328.723 115.85 329.173M135.679 337.732C135.679 337.732 112.805 396.135 135.679 417.499C136.836 418.58 138.003 419.636 139.177 420.666M135.679 337.732L161.338 372.413C161.338 372.413 163.084 374.57 166.003 378.017M115.85 329.173C99.0301 337.596 40.6522 420.086 8.54609 403.627C-5.45003 396.452 32.6255 338.515 34.2058 294.959C36.0741 243.462 -20.6127 186.061 8.54609 165.482C27.6619 151.991 87.037 214.979 112.351 232.83M115.85 329.173L112.351 325.016C112.351 325.016 107.312 319.639 103.02 313.448M139.177 420.666C144.757 425.56 150.512 429.877 156.362 433.684M139.177 420.666C163.151 420.331 175.897 418.815 196.329 411.719M166.003 378.017C169.695 382.377 175.262 388.8 181.545 395.534M166.003 378.017C153.15 379.902 145.691 379.985 132.179 379.35M280.306 459.117L318.795 466.053M280.306 459.117L248.814 445.244C248.814 445.244 246.342 443.944 242.441 441.776M280.306 459.117C280.306 459.117 213.761 471.025 156.362 433.684M318.795 466.053C318.795 466.053 272.141 501.89 269.809 526.167C268.698 537.727 318.795 525.011 343.289 507.67C367.782 490.329 385.277 466.053 385.277 466.053M318.795 466.053C318.795 466.053 345.621 451.024 359.617 445.244C373.613 439.464 381.664 436.152 387.609 445.244C392.096 452.105 385.277 466.053 385.277 466.053M242.441 441.776C233.533 447.423 227.936 449.226 217.322 451.024M242.441 441.776C238.087 439.356 231.952 435.856 225.487 431.877M156.362 433.684C179.245 433.072 191.244 430.809 210.648 422.123M385.277 466.053H402.772M402.772 466.053C402.772 466.053 367.782 529.635 385.277 533.103C402.772 536.571 428.432 511.138 437.762 496.109C448.801 478.332 449.426 459.117 449.426 459.117M402.772 466.053C421.445 465.578 431.618 463.86 449.426 459.117M449.426 459.117C449.426 459.117 484.239 452.492 517.074 439.032M517.074 439.032C517.074 439.032 488.17 435.549 470.42 430.216C442.155 421.721 424.769 416.228 402.772 396.69C381.981 378.222 373.451 363.869 364.282 337.732C353.209 306.166 360.783 252.185 360.783 252.185C360.783 252.185 368.793 207.996 377.112 180.511C384.11 157.39 395.375 132.017 414.436 114.616C439.789 91.4709 475.086 81.0916 475.086 81.0916M517.074 439.032C530.742 433.429 544.068 426.642 554.398 418.655C585.645 394.495 606.493 375.501 617.38 337.732C626.711 305.363 601.052 281.086 601.052 281.086C601.052 281.086 599.62 275.549 598.719 268.37M475.086 81.0916C475.086 81.0916 549.732 115.772 576.558 173.575C577.476 175.551 578.425 177.906 579.384 180.511M475.086 81.0916C475.086 81.0916 379.446 -10.9881 308.298 1.32467C267.476 8.3893 250.268 47.9361 216.156 81.0916C178.156 118.026 133.273 152.57 125.181 181.667C117.089 210.763 126.347 218.66 135.679 227.909M475.086 81.0916C475.086 81.0916 454.033 76.9025 424.932 74.0148M579.384 180.511C585.925 198.281 592.887 227.663 592.887 227.663M579.384 180.511C579.384 180.511 563.729 165.482 557.896 166.638C552.065 167.795 550.899 173.575 550.899 173.575M135.679 227.909C135.679 227.909 128.21 234.08 122.849 237.157C121.102 238.159 117.405 236.394 112.351 232.83M135.679 227.909C143.254 216.067 150.648 204.632 157.839 193.976M424.932 74.0148C415.177 73.0466 404.516 72.2247 393.442 71.7558M424.932 74.0148C424.932 74.0148 409.426 56.3178 398.107 46.4102C385.406 35.2929 363.116 20.9774 363.116 20.9774M112.351 232.83C112.351 232.83 104.054 239.066 99.6778 245.404M157.839 193.976C149.435 192.152 143.835 191.61 133.345 190.915M157.839 193.976C163.815 185.12 169.651 176.801 175.334 169.235M598.719 268.37C599.885 254.497 592.887 227.663 592.887 227.663M598.719 268.37C598.719 268.37 596.626 280.607 592.887 286.867C590.891 290.209 587.056 294.959 587.056 294.959M476.252 341.2C476.252 341.2 481.939 338.03 485.583 335.998M485.583 335.998C489.227 333.967 491.27 332.827 494.914 330.796M485.583 335.998C492.064 342.152 496.294 345.165 504.245 349.292C518.338 356.608 528.034 359.699 543.9 358.541C562.397 357.19 577.111 354.405 587.056 338.888C594.002 328.049 596.386 323.86 592.887 306.519C591.806 301.158 587.056 294.959 587.056 294.959M587.056 294.959C587.056 294.959 570.748 288.99 563.729 281.086M563.729 281.086C553.724 269.821 551.424 258.993 553.231 244.093C553.681 240.387 554.23 236.39 555.027 232.533M563.729 281.086C563.729 281.086 579.848 285.706 582.39 281.086C584.932 276.467 588.222 275.306 589.388 268.37M555.027 232.533C557.162 222.201 561.067 212.88 569.56 212.88C581.223 212.88 592.887 227.663 592.887 227.663M555.027 232.533C555.027 232.533 561.232 227.407 566.061 226.752C570.663 226.129 573.597 226.952 577.725 229.064C585.262 232.923 587.029 239.194 589.299 247.246M589.388 268.37L589.412 268.23M589.388 268.37C589.396 268.323 589.404 268.276 589.412 268.23M438.929 171.262C438.929 171.262 448.124 152.859 458.757 152.766C465.886 152.703 475.086 160.858 475.086 160.858M500.746 259.122C500.093 251.148 499.09 246.314 494.914 239.469C490.411 232.089 486.629 227.731 478.585 224.44C470.995 221.335 465.356 220.64 457.59 223.284C446.558 227.042 442.582 235.424 438.929 246.405C435.648 256.267 435.152 263.308 438.929 272.994C442.084 281.083 445.436 285.85 452.925 290.334C458.978 293.959 463.349 294.959 470.42 294.959C477.492 294.959 481.965 294.119 487.916 290.334C493.073 287.055 495.676 284.208 498.412 278.774C501.807 272.036 501.399 267.081 500.793 259.704M500.746 259.122L500.793 259.704M500.746 259.122C500.762 259.317 500.777 259.511 500.793 259.704M589.299 247.246L589.388 247.561M589.299 247.246C589.329 247.351 589.359 247.456 589.388 247.561M589.388 247.561C591.58 255.335 590.568 261.352 589.412 268.23M103.02 313.448C103.02 313.448 83.8363 344.234 66.8635 359.697C54.1159 371.311 30.7067 385.129 30.7067 385.129M103.02 313.448C101.709 311.556 100.468 309.588 99.4616 307.675M99.6778 245.404C99.6778 245.55 99.6078 245.657 99.4616 245.722M99.6778 245.404C99.6047 245.51 99.5324 245.617 99.4616 245.722M99.6778 245.404C99.6732 242.785 76.8603 227.65 61.0318 216.348C42.6276 203.207 16.5439 182.172 15.5442 183.979M329.292 338.888C329.602 336.953 330.516 334.873 331.625 332.927M329.292 338.888C290.307 330.741 267.449 330.848 225.487 336.576M329.292 338.888C328.947 341.041 328.849 342.897 329.014 344.661M331.625 332.927C334.066 328.646 337.456 325.016 337.456 325.016C337.456 325.016 305.572 294.959 280.306 294.959C256.979 294.959 246.29 303.574 232.485 319.236C223.104 329.879 215.046 337.514 216.156 351.605C217.611 370.075 252.313 381.661 252.313 381.661C252.313 381.661 276.717 390.48 294.302 389.754C322.294 388.598 342.122 363.165 342.122 363.165C342.122 363.165 337.426 360.021 334.081 356.229M331.625 332.927C331.625 332.927 303.632 318.079 287.303 315.768C270.975 313.455 249.98 313.455 249.98 313.455M329.014 344.661C329.106 344.663 329.199 344.666 329.292 344.668M329.014 344.661C295.886 343.725 277.731 343.926 246.482 345.824M329.014 344.661C329.23 346.984 329.9 349.144 331.057 351.605M382.944 78.7792C382.944 78.7792 364.282 81.0916 353.786 99.5883C343.289 118.085 360.783 127.333 360.783 127.333C360.783 127.333 350.31 135.827 347.954 143.517C345.425 151.771 350.286 165.482 350.286 165.482M321.128 183.979C321.128 183.979 302.297 204.067 302.466 219.816C302.609 233.154 316.462 251.029 316.462 251.029M326.959 107.68C326.959 107.68 301.299 121.553 297.801 143.517C294.302 165.482 311.797 171.262 311.797 171.262M288.47 152.766C288.47 152.766 268.642 173.575 265.143 193.227C261.644 212.88 283.805 224.44 283.805 224.44C283.805 224.44 265.143 241.781 265.143 261.433C265.143 281.086 283.805 291.491 283.805 291.491M258.145 121.553C258.145 121.553 245.315 129.645 242.982 143.517C240.649 157.39 248.814 160.858 248.814 160.858M251.147 165.482C251.147 165.482 227.819 179.355 225.487 203.632C223.154 227.909 246.482 232.533 246.482 232.533C246.482 232.533 230.959 251.97 232.485 266.057C233.704 277.307 246.482 291.491 246.482 291.491M219.656 143.517C219.656 143.517 200.994 149.298 197.495 165.482C193.996 181.667 202.16 190.915 202.16 190.915C202.16 190.915 178.833 214.631 183.499 232.83C188.164 251.029 197.495 252.185 197.495 252.185C197.495 252.185 189.574 268.351 191.663 278.774C193.292 286.903 202.16 297.271 202.16 297.271C202.16 297.271 192.366 312.406 193.995 322.704C195.522 332.352 207.992 343.512 207.992 343.512M157.839 212.88C157.839 212.88 141.51 227.909 146.175 240.625C150.841 253.341 157.839 256.809 157.839 256.809C157.839 256.809 144.814 271.416 146.175 282.242C147.426 292.19 161.338 303.051 161.338 303.051C161.338 303.051 152.063 318.887 155.506 328.484C157.675 334.53 166.003 341.2 166.003 341.2M125.181 240.625C125.181 240.625 112.841 248.786 112.351 256.809C111.921 263.863 120.515 272.994 120.515 272.994C120.515 272.994 110.867 283.745 112.351 291.491C113.734 298.711 125.181 305.363 125.181 305.363M259.311 389.754C261.132 401.04 264.309 405.588 277.972 407.095M256.979 411.719C256.979 411.719 252.313 425.591 259.311 433.684C266.309 441.776 274.474 439.464 274.474 439.464M297.801 396.69C297.801 396.69 290.802 409.406 301.299 417.499C311.797 425.591 321.128 422.123 321.128 422.123M301.299 425.591C301.299 425.591 295.562 434.339 297.801 439.464C300.49 445.623 314.129 445.244 314.129 445.244M337.456 396.69C337.456 396.69 325.793 409.406 335.124 422.123C344.455 434.84 350.286 433.684 350.286 433.684M225.487 431.877C213.778 439.426 205.432 441.271 189.33 442.932M225.487 431.877C220.516 428.818 215.35 425.475 210.648 422.123M210.648 422.123C208.476 420.574 206.402 419.025 204.492 417.499C197.09 411.585 188.835 403.351 181.545 395.534M181.545 395.534C164.675 399.219 153.599 399.721 132.179 399.002M99.4616 307.675C99.0493 306.892 98.677 306.119 98.3547 305.363C95.874 299.541 94.3278 294.649 93.4447 289.641M99.4616 307.675C70.4411 331.315 52.5853 344.982 17.8769 370.102M93.4447 289.641C69.1102 300.969 57.1106 308.333 37.7048 322.704M93.4447 289.641C92.8363 286.188 92.5432 282.68 92.4763 278.774M92.4763 278.774C92.4455 276.946 92.464 275.031 92.5232 272.994C92.5463 272.202 92.5724 271.433 92.604 270.682M92.4763 278.774C71.2733 279.198 60.3239 278.417 42.3702 275.306M92.604 270.682C63.9221 262.058 49.1649 253.894 23.7086 237.157M92.604 270.682C92.8224 265.469 93.2855 261.165 94.5378 256.809M94.5378 256.809C95.3886 253.851 96.604 250.868 98.3547 247.561C98.6778 246.952 99.0501 246.337 99.4616 245.722M94.5378 256.809C94.5378 256.809 69.1859 244.531 54.0337 234.844C38.1864 224.714 15.5442 205.943 15.5442 205.943M175.334 169.235C159.382 168.673 151.809 169.033 139.177 170.106M175.334 169.235C180.109 162.877 184.778 157.05 189.33 151.882M189.33 151.882C193.716 146.904 197.995 142.536 202.16 138.893C204.618 136.743 207.349 134.45 210.325 132.056M189.33 151.882C171.989 150.235 163.141 150.841 148.508 153.922M210.325 132.056C196.614 129.357 188.353 129.012 173.002 129.645M210.325 132.056C216.386 127.178 223.464 121.879 231.319 116.519M231.319 116.519C214.903 113.093 205.711 112.525 189.33 113.461M231.319 116.519C242.135 109.139 254.425 101.641 267.569 94.9641M267.569 94.9641C248.099 88.6758 237.392 87.314 218.489 86.8713M267.569 94.9641C275.44 90.9645 283.618 87.2595 291.969 84.0486M291.969 84.0486C294.674 83.009 297.397 82.0208 300.133 81.0916C308.432 78.2736 317.485 76.1788 326.959 74.6686M291.969 84.0486C275.779 75.323 266.039 72.2463 247.648 69.531M326.959 74.6686C301.813 61.03 286.067 55.0106 254.646 47.5663M326.959 74.6686C337.843 72.9339 349.285 71.9702 360.783 71.5662M360.783 71.5662C359.001 69.308 336.672 50.9205 322.294 44.0981C307.026 36.8538 282.638 26.7575 282.638 26.7575M360.783 71.5662C371.762 71.1805 382.793 71.3049 393.442 71.7558M393.442 71.7558C393.442 71.7558 377.353 53.8366 365.449 44.0981C344.359 26.8461 304.799 9.41694 304.799 9.41694M298.967 94.9641C298.967 94.9641 292.728 102.981 293.136 108.837C293.486 113.872 298.967 120.397 298.967 120.397M334.081 356.229C333.092 355.108 332.222 353.93 331.625 352.76C331.424 352.367 331.235 351.982 331.057 351.605M334.081 356.229C311.085 375.662 292.966 378.252 256.979 377.037M331.057 351.605C313.239 357.37 283.035 358.4 234.818 360.853M363.116 451.024C343.604 468.167 330.843 476.274 304.799 488.017M373.613 451.024C350.812 475.825 332.986 486.616 296.634 503.046M381.778 455.648C358.802 486.926 339.186 499.643 296.634 516.918M414.436 470.677C409.622 482.614 404.759 488.891 393.442 499.577M428.432 468.364C422.55 490.078 415.266 500.542 396.94 516.918M437.762 468.364C433.959 484.556 429.98 493.122 420.267 507.67M487.916 299.583C481.805 305.64 475.534 308.127 466.921 308.831C457.217 309.624 451.071 308.652 442.428 304.207C430.052 297.842 425.151 289.406 420.267 276.462C415.159 262.924 414.484 253.179 419.101 239.469C423.226 227.221 427.827 219.636 438.929 212.88C449.587 206.393 458.465 203.457 470.42 207.1C481.202 210.384 485.648 217.136 491.649 226.249C491.955 226.715 492.266 227.186 492.581 227.663C500.21 239.207 503.002 247.634 503.078 261.433C503.171 278.29 494.914 292.647 487.916 299.583ZM463.422 239.469C464.037 243.942 470.42 248.717 470.42 248.717C470.42 248.717 476.139 252.048 479.751 251.029C482.556 250.238 484.361 249.03 485.583 246.405C486.728 243.946 486.267 242.091 485.583 239.469C484.602 235.709 483.007 233.537 479.751 231.377C476.63 229.305 474.087 228.257 470.42 229.064C467.828 229.636 466.105 230.371 464.589 232.533C463.007 234.787 463.049 236.748 463.422 239.469ZM571.892 230.22C569.006 230.637 566.954 232.093 566.061 234.844C564.999 238.118 566.912 240.716 569.56 242.937C571.759 244.781 573.89 246.326 576.558 245.249C579.018 244.255 579.739 242.083 580.057 239.469C580.637 234.704 576.684 229.529 571.892 230.22ZM431.742 338.888C427.472 331.309 420.336 326.131 411.914 328.506C402.102 331.274 398.954 343.385 402.772 352.76C406.825 362.711 419.485 369.208 428.432 363.165C436.409 357.778 436.446 347.242 431.742 338.888Z" stroke="black"/>
</g>
<defs>
<clipPath id="clip0_2007_19">
<rect width="620" height="534" fill="white"/>
</clipPath>
</defs>
</svg>
