<svg width="396" height="334" viewBox="0 0 396 334" fill="none" xmlns="http://www.w3.org/2000/svg">
<path fill-rule="evenodd" clip-rule="evenodd" d="M394.341 215.903C396.024 206.142 396.323 199.615 392.145 190.635C389.248 184.408 381.16 176.902 381.16 176.902C381.16 176.902 378.959 182.801 375.668 184.043C373.828 184.737 372.468 184.585 370.725 184.256C370.725 184.256 374.866 189.091 376.217 192.832C378.478 199.089 378.319 203.758 375.668 209.86C374.078 213.52 372.734 215.597 369.627 218.1C365.559 221.377 356.994 222.494 356.994 222.494C356.994 222.494 355.913 226.849 354.248 229.086C352.869 230.939 351.509 232.108 349.854 233.006C348.739 233.611 347.489 234.094 346.01 234.579C341.73 235.984 338.814 235.792 334.476 234.579C330.601 233.496 328.092 231.866 325.689 229.484C324.607 228.411 323.547 227.186 322.393 225.79C319.033 221.723 318.549 217.551 316.352 213.705C315.704 212.572 314.323 212.842 313.056 213.156C311.723 213.487 311.679 215.462 310.31 215.353C309.241 215.268 308.113 213.705 308.113 213.705C308.113 213.705 310.994 209.989 313.606 208.762C316.159 207.561 320.745 207.663 320.745 207.663C320.745 207.663 322.393 212.978 328.435 217.551C332.71 220.787 335.767 220.581 341.067 221.396C347.215 222.341 356.994 222.494 356.994 222.494C356.994 222.494 365.559 221.377 369.627 218.1C372.734 215.597 374.078 213.52 375.668 209.86C378.319 203.758 378.478 199.089 376.217 192.832C374.866 189.091 370.725 184.256 370.725 184.256C370.376 184.19 370.013 184.117 369.627 184.043C369.439 184.007 369.256 183.969 369.077 183.929C365.564 183.143 363.62 181.61 360.839 179.099C357.262 175.868 355.746 173.244 354.248 168.662C352.58 163.561 353.123 160.266 353.699 154.929C353.739 154.563 353.776 154.196 353.812 153.831C354.1 150.941 354.31 148.153 354.797 146.69C355.347 145.042 355.879 141.555 358.093 139.549C359.804 137.997 361.297 137.668 363.585 137.352C369.469 136.538 376.71 145.042 376.71 145.042C376.544 144.514 376.379 143.966 376.217 143.394C373.918 135.285 373.534 130.468 370.725 122.521C370.725 122.521 367.815 117.016 364.684 114.83C362.397 113.234 360.795 111.397 358.093 112.083C356.594 112.464 354.797 114.281 354.797 114.281C354.797 114.281 354.03 111.421 354.797 109.886C355.34 108.801 355.866 108.136 356.994 107.689C358.404 107.13 359.445 107.642 360.839 108.238C362.379 108.897 363.138 109.79 364.684 110.436C365.563 110.803 366.512 111.534 366.512 111.534C363.414 104.304 359.986 98.389 354.248 90.6608C346.653 80.431 341.074 75.6168 331.181 67.5899C326.144 63.504 319.074 58.896 313.605 55.5048C313.605 55.5048 306.013 55.5662 301.523 57.1527C294.932 59.4813 288.237 70.9955 281.751 81.3223C272.64 95.8268 271.006 105.83 265.274 121.971C259.937 136.997 253.191 160.972 253.191 160.972C253.191 160.972 247.353 183.638 248.248 198.325C249.137 212.918 251.339 221.36 257.585 234.579C263.305 246.687 267.399 253.642 277.357 262.594C290.541 274.446 318.549 281.672 318.549 281.672C327.256 278.75 337.028 274.991 344.362 270.834C358.47 262.837 366.875 257.975 377.315 245.566C385.914 235.346 392.073 229.066 394.341 215.903ZM304.818 106.041C306.658 106.585 309.212 108.238 309.212 108.238C309.212 108.238 308.647 104.38 307.015 102.745C305.522 101.25 304.152 100.916 302.072 100.548C299.294 100.057 297.53 100.548 294.932 101.647C291.846 102.951 290.252 104.387 288.341 107.14C286.638 109.594 285.595 114.281 285.595 114.281L290.538 109.886C290.538 109.886 294.098 106.847 296.88 106.041C299.858 105.178 301.845 105.162 304.818 106.041ZM314.704 144.493C319.139 149.789 320.882 153.682 322.393 160.423C323.193 163.989 323.664 166.848 323.624 169.761C323.591 172.148 323.215 174.571 322.393 177.451C322.058 178.625 321.723 179.718 321.366 180.747C319.807 185.236 317.828 188.484 313.606 191.733C307.503 196.43 301.935 197.632 294.383 196.128C287.961 194.849 284.615 192.084 280.103 187.339C274.548 181.498 272.456 176.642 271.315 168.662C270.306 161.603 270.565 157.028 273.512 150.535C276.339 144.306 279.043 140.632 285.046 137.352C290.77 134.223 295.19 133.041 301.523 134.605C307.705 136.132 310.514 139.488 314.576 144.339L314.704 144.493ZM277.906 195.578C274.581 190.88 269.466 185.724 264.725 188.987C261.539 191.179 261.176 194.466 261.429 198.325C261.643 201.585 262.671 203.474 264.725 206.015C266.856 208.653 268.493 210.595 271.864 210.959C275.679 211.37 278.854 209.954 280.652 206.564C282.725 202.658 280.46 199.188 277.906 195.578Z" fill="#FEDD28"/>
<path d="M282.849 316.976C294.382 304.341 297.678 287.862 297.678 287.862L293.364 288.961L267.47 295.553C267.47 295.553 252.641 321.37 251.543 326.314C250.444 331.258 251.543 332.905 253.191 333.455C254.838 334.004 271.315 329.61 282.849 316.976Z" fill="#FEDD28"/>
<path d="M248.797 313.68C255.54 307.702 263.077 295.553 263.077 295.553C263.077 295.553 265.594 292.447 265.823 290.059C265.945 288.79 263.009 288.515 259.232 288.559C256.465 288.592 253.245 288.796 250.445 288.907C249.876 288.929 249.324 288.948 248.797 288.961C234.075 289.313 211.999 297.2 211.999 297.2C212.548 298.848 201.934 308.228 195.522 315.328C191.653 319.611 183.988 321.919 185.636 326.314C187.284 330.708 196.719 331.409 204.31 331.807C213.557 332.291 218.776 329.747 227.377 326.314C236.397 322.714 241.529 320.122 248.797 313.68Z" fill="#FEDD28"/>
<path d="M68.1017 109.887C71.8846 117.456 79.0862 128.563 79.0862 128.563L84.0294 123.619C84.0294 123.619 83.3941 113.878 84.0294 107.689C85.3181 95.1367 87.4552 87.7664 93.9155 76.9278C94.1389 76.553 94.36 76.187 94.5792 75.8292C97.0467 71.8014 99.2749 68.8119 101.899 65.9416C104.001 63.6424 106.357 61.4196 109.294 58.8006C109.852 58.3029 110.401 57.824 110.941 57.3624C115.77 53.2411 119.974 50.4954 124.672 48.0153C128.249 46.1267 132.112 44.3921 136.755 42.3214C152.339 35.3707 162.125 33.5437 179.045 31.3353C196.698 29.0312 206.881 29.9722 224.631 31.3353C239.753 32.4965 248.283 33.4871 263.077 36.8283C280.014 40.6538 305.367 50.5613 305.367 50.5613C305.367 50.5613 297.613 43.1895 292.186 39.0259C283.779 32.5767 278.555 29.5599 269.118 24.7439C254.313 17.1886 245.065 14.8172 229.025 10.4619C209.695 5.2135 198.473 3.10759 178.496 1.67294C155.153 -0.00342703 141.513 -0.493075 118.63 4.41948C105.432 7.25301 97.2783 7.95383 85.6769 14.8563C75.757 20.7584 69.8805 24.8767 63.7079 34.6314C58.3757 43.0578 56.6162 48.8949 55.4695 58.8009C54.4554 67.5612 55.3847 72.6757 57.1172 81.3226C59.4651 93.0412 62.7587 99.1962 68.1017 109.887Z" fill="#FEDD28"/>
<path d="M53.8218 199.973C59.1777 195.98 60.86 192.089 66.454 188.438C69.3311 186.559 73.5795 184.656 76.3403 183.501C76.3403 183.501 69.9074 176.469 68.1019 170.859C67.8802 170.171 67.6992 169.432 67.5527 168.661C67.1894 166.751 67.0384 164.645 67.0065 162.62C66.9713 160.381 67.0818 158.242 67.2125 156.577C67.3683 154.592 67.5527 153.282 67.5527 153.282C67.5527 153.282 67.7379 151.867 68.1019 149.79C68.4675 147.705 69.0135 144.952 69.7335 142.295C70.2119 140.53 70.7671 138.808 71.3973 137.352C71.4748 137.172 71.5576 136.989 71.6448 136.802C73.1023 133.682 75.7917 129.661 75.7917 129.661L74.1432 130.211L63.7079 120.873L46.1327 103.295C46.1327 103.295 35.1484 92.858 31.3036 91.7594C27.4588 90.6608 26.9096 90.1115 22.516 91.7594C18.1224 93.4073 14.6663 101.301 10.9823 108.239C6.40063 116.867 4.79236 122.307 2.74388 131.859C0.756554 141.126 0.342725 146.553 0.546975 156.028C0.771225 166.432 1.09536 172.525 4.39155 182.395C7.21789 190.858 8.53603 196.393 14.8268 202.72C18.185 206.097 20.1794 208.402 24.7129 209.861C29.2048 211.306 32.17 210.792 36.7958 209.861C44.3333 208.343 47.6573 204.569 53.8218 199.973Z" fill="#FEDD28"/>
<path d="M199.367 242.269C207.039 245.665 216.393 245.565 220.787 243.917C225.18 242.269 229.672 236.808 234.517 232.931C234.517 232.931 229.361 229.304 227.926 225.79C227.697 225.228 227.506 224.68 227.351 224.142C226.853 222.416 226.733 220.802 226.933 219.199C227.147 217.491 227.724 215.797 228.6 213.995C228.735 213.718 228.876 213.439 229.025 213.156C229.65 211.967 230.701 210.741 231.771 209.673C233.547 207.9 235.373 206.564 235.373 206.564L216.942 185.141C216.942 185.141 204.784 170.787 193.874 169.126C191.783 168.808 189.738 168.956 187.833 169.761C186.119 170.485 184.685 171.041 183.439 171.868C182.413 172.549 181.515 173.413 180.693 174.705C178.739 177.776 177.138 182.462 176.217 187.888C175.662 191.162 175.354 194.705 175.365 198.325C175.372 200.508 175.495 202.719 175.75 204.916C176.179 208.616 176.687 211.832 177.445 214.804C178.084 217.31 178.901 219.642 179.998 221.945C181.371 224.827 183.183 227.663 185.636 230.734C186.805 232.197 187.872 233.5 188.931 234.678C191.834 237.905 194.675 240.193 199.367 242.269Z" fill="#FEDD28"/>
<path d="M256.486 90.1112C256.486 90.1112 262.641 84.8685 264.175 80.2236C266.604 72.8716 266.178 67.2929 265.274 59.35C264.514 52.6776 262.298 48.7525 257.585 43.9693C251.294 37.5848 244.853 37.9294 236.165 35.7297C222.624 32.3014 214.433 33.5325 200.465 33.5325C197.719 33.5325 215.333 35.5689 224.631 37.927C232.259 39.8614 237.35 39.5393 243.854 43.9693C249.507 47.8201 252.934 50.767 255.388 57.1527C258.274 64.6638 258.852 70.0705 259.232 78.5757C259.439 83.2019 256.486 90.1112 256.486 90.1112Z" fill="#FEDD28"/>
<path d="M241.657 112.633C241.657 112.633 243.477 110.733 244.403 109.337C246.88 105.605 247.2 102.802 247.699 98.3508C248.5 91.2004 245.666 87.3071 244.403 80.2236C243.753 76.578 243.919 74.4011 242.756 70.8854C240.941 65.4018 238.868 62.5997 235.066 58.2513C230.323 52.825 226.759 50.333 220.237 47.2652C212.13 43.4512 197.719 42.8707 197.719 42.8707C197.719 42.8707 182.996 41.5047 173.553 41.7721C164.721 42.0222 159.596 41.782 151.035 43.9693C142.93 46.0402 131.263 52.209 131.263 52.209C131.263 52.209 133.262 52.6087 134.558 52.7583C141.915 53.6069 145.877 50.3231 153.232 49.4624C160.062 48.6632 163.93 48.4005 170.807 48.3638C178.326 48.3237 182.569 48.5242 190.03 49.4624C198.502 50.5279 203.841 49.9795 211.45 53.8569C216.763 56.5647 219.377 58.9175 223.533 63.1951C227.269 67.0415 229.292 69.4261 231.771 74.1813C234.374 79.1739 236.165 87.914 236.165 87.914L241.657 112.633Z" fill="#FEDD28"/>
<path d="M231.222 139L235.616 126.365L227.377 107.14C227.377 107.14 222.34 94.825 217.491 87.914C212.609 80.9562 209.795 76.6055 202.662 71.984C194.919 66.9674 189.203 66.5883 180.144 64.843C170.435 62.9726 164.766 63.3435 154.879 63.1951C146.727 63.0727 142.007 62.1611 134.009 63.7444C128.021 64.9299 124.557 65.798 119.18 68.6882C114.457 71.2269 108.195 76.9278 108.195 76.9278C108.195 76.9278 119.433 73.0137 126.869 71.4347C136.16 69.4618 141.538 68.5552 151.035 68.6882C160.346 68.8185 165.77 69.1833 174.652 71.984C183.617 74.8114 188.731 77.0958 196.071 82.9702C202.72 88.291 205.656 92.3453 210.351 99.4494C214.213 105.292 218.59 115.379 218.59 115.379L224.631 130.211L231.222 139Z" fill="#FEDD28"/>
<path d="M224.631 171.409L226.828 156.577L219.139 150.535L210.351 137.901L201.564 121.422C201.564 121.422 196.475 111.329 191.678 106.041C187.063 100.955 183.854 98.5567 177.947 95.055C169.544 90.0738 163.944 88.5463 154.33 86.8153C146.983 85.4924 142.687 85.5735 135.269 85.7137L135.107 85.7167C128.001 85.8509 123.97 86.0624 116.983 87.3646C110.64 88.5469 106.748 88.7214 101.055 91.7591C98.0633 93.3557 93.9155 96.7029 93.9155 96.7029L102.154 95.6043C102.154 95.6043 115.172 93.0621 123.574 93.407C131.854 93.7469 136.431 95.1386 144.444 97.2522C152.118 99.2761 156.481 100.475 163.667 103.844C170.462 107.029 174.479 108.81 180.144 113.731C186.848 119.555 189.146 124.341 193.874 131.859C198.625 139.411 199.033 144.989 204.31 152.183C207.544 156.593 209.675 158.86 213.647 162.62C217.636 166.397 224.631 171.409 224.631 171.409Z" fill="#FEDD28"/>
<path d="M187.833 169.761C189.738 168.956 191.783 168.808 193.874 169.126C193.874 169.126 186.418 160.551 181.792 154.929C176.747 148.799 174.674 144.711 169.159 139C164.408 134.079 161.645 131.296 155.978 127.464C150.018 123.434 146.23 121.77 139.501 119.224C132.251 116.482 128.012 114.795 120.278 114.281C117.496 114.096 115.923 114.417 113.138 114.281C110.772 114.165 107.097 113.731 107.097 113.731C107.097 113.731 100.876 113.05 97.2108 114.281C93.8268 115.417 88.0354 115.978 89.5217 119.224C90.7846 121.983 94.2088 119.889 97.2108 120.323C103.005 121.161 106.34 121.185 112.04 122.52C120.033 124.393 124.455 126.019 131.812 129.661C138.638 133.041 148.289 140.098 148.289 140.098C148.289 140.098 157.037 145.286 162.019 149.436C166.681 153.319 173.004 160.423 173.004 160.423L183.439 171.868C184.685 171.041 186.119 170.485 187.833 169.761Z" fill="#FEDD28"/>
<path d="M176.217 187.888L165.315 181.846L145.543 169.761C145.543 169.761 136.776 162.984 130.714 159.324C125.129 155.953 121.855 154.263 115.884 151.634C110.233 149.144 106.536 148.988 101.055 146.141C96.2514 143.645 94.4721 140.641 89.5217 138.45C87.8458 137.709 85.6771 136.802 85.1279 136.802C83.8772 136.802 82.3818 137.199 82.3818 138.45C82.3818 139.549 85.5221 144.251 88.4232 147.239C91.8631 150.782 98.8585 154.38 98.8585 154.38L113.138 162.62L124.123 169.761L142.247 180.198L155.978 187.888L175.365 198.325C175.354 194.705 175.662 191.162 176.217 187.888Z" fill="#FEDD28"/>
<path d="M177.445 214.804L164.766 212.057C164.766 212.057 148.731 207.486 138.952 203.269C129.614 199.241 124.35 196.82 115.884 191.184C109.527 186.951 106.119 184.279 100.506 179.099C95.9349 174.88 93.8139 172.066 89.5217 167.564C85.0202 162.842 80.3282 154.38 77.988 155.479C75.2418 156.768 80.6995 165.967 84.0294 171.958C87.9523 179.016 97.2108 187.888 97.2108 187.888C97.2108 187.888 104.514 195.705 109.843 199.973C118.399 206.826 123.814 210.226 134.009 214.255C140.64 216.875 144.603 217.748 151.584 219.199C162.499 221.467 179.998 221.945 179.998 221.945C178.901 219.642 178.084 217.31 177.445 214.804Z" fill="#FEDD28"/>
<path d="M199.367 242.269C194.675 240.193 191.834 237.905 188.931 234.678C188.931 234.678 188.146 237.483 186.735 238.424C185.087 239.523 180.091 240.083 175.75 240.621C168.513 241.52 164.339 241.281 157.076 240.621C149.912 239.971 145.89 239.229 138.952 237.326C132.343 235.512 128.567 234.423 122.475 231.283C116.976 228.449 114.127 226.357 109.294 222.494C104.435 218.61 101.749 216.282 97.7601 211.508C94.8981 208.083 93.4389 206.014 91.1694 202.17C89.2183 198.866 87.874 192.832 86.7756 193.381C85.6771 193.93 86.4426 199.503 87.3248 203.269C88.6604 208.969 91.263 211.55 94.4647 216.452C98.3851 222.454 100.836 225.759 105.998 230.734C110.848 235.408 113.977 237.668 119.729 241.171C125.219 244.514 128.515 246.121 134.558 248.312C140.183 250.351 143.467 251.294 149.387 252.157C157.24 253.302 161.864 253.361 169.709 252.157C175.417 251.28 178.498 250.104 183.988 248.312C190.122 246.309 199.367 242.269 199.367 242.269Z" fill="#FEDD28"/>
<path d="M224.082 244.467C224.631 244.467 224.677 249.544 224.082 252.706C223.142 257.704 221.195 260.253 218.04 264.242C215.12 267.934 212.822 269.563 209.079 272.215L208.704 272.481C204.319 275.591 201.643 277.159 196.621 279.073C190.685 281.335 187.017 281.777 180.693 282.369C173.643 283.028 168.789 282.892 162.569 281.82L146.641 279.073C140.421 278 133.179 274.956 125.221 270.833C116.452 266.29 111.491 262.594 104.351 256.551C97.2108 250.509 95.0139 247.213 91.7186 242.269C88.4531 237.37 87.4939 234.508 85.7258 229.231L85.6771 229.086C83.6586 223.063 82.3818 213.156 82.3818 213.156L88.4232 227.438C88.4232 227.438 92.5976 235.489 96.1124 240.072C101.934 247.663 106.343 251.148 114.237 256.551C126.464 264.92 134.911 267.677 149.387 270.833C163.861 273.989 172.966 276.282 187.284 272.481C197.018 269.897 202.773 267.581 210.351 260.946C215.166 256.73 216.986 253.46 220.787 248.312C221.882 246.827 222.447 245.016 223.533 244.467C224.619 243.917 223.533 244.467 224.082 244.467Z" fill="#FEDD28"/>
<path d="M240.559 243.368C240.559 243.368 242.943 252.753 242.206 258.749C241.66 263.194 240.998 265.772 238.911 269.735C236.709 273.915 234.627 275.799 231.222 279.073C227.913 282.255 222.434 284.566 221.885 286.214C221.336 287.862 231.028 286.831 236.165 284.566C241.04 282.416 243.921 280.383 246.6 275.777C249.544 270.716 248.797 260.946 248.797 260.946C248.797 260.946 247.794 252.615 244.952 248.312C243.529 246.156 240.559 243.368 240.559 243.368Z" fill="#FEDD28"/>
<path fill-rule="evenodd" clip-rule="evenodd" d="M263.077 295.553H267.47L293.364 288.961L297.678 287.862C297.678 287.862 307.211 285.476 318.549 281.672C318.549 281.672 290.541 274.446 277.357 262.594C267.399 253.642 263.305 246.687 257.585 234.579C251.339 221.36 249.137 212.918 248.248 198.325C247.353 183.638 253.191 160.972 253.191 160.972C253.191 160.972 259.937 136.997 265.274 121.971C271.006 105.83 272.64 95.8268 281.751 81.3223C288.237 70.9955 294.932 59.4813 301.523 57.1527C306.013 55.5662 313.605 55.5048 313.605 55.5048C308.89 52.5807 305.367 50.5613 305.367 50.5613C305.367 50.5613 280.014 40.6538 263.077 36.8283C248.283 33.4871 239.753 32.4965 224.631 31.3353C206.881 29.9722 196.698 29.0312 179.045 31.3353C162.125 33.5437 152.339 35.3707 136.755 42.3214C132.112 44.3921 128.249 46.1267 124.672 48.0153C119.974 50.4954 115.77 53.2411 110.941 57.3624C110.401 57.824 109.852 58.3029 109.294 58.8006C106.357 61.4196 104.001 63.6424 101.899 65.9416C99.2749 68.8119 97.0467 71.8014 94.5792 75.8292C94.36 76.187 94.1389 76.553 93.9155 76.9278C87.4552 87.7664 85.3181 95.1367 84.0294 107.689C83.3941 113.878 84.0294 123.619 84.0294 123.619L79.0862 128.563L75.7917 129.661C75.7917 129.661 73.1023 133.682 71.6448 136.802C71.5576 136.989 71.4748 137.172 71.3973 137.352C70.7671 138.808 70.2119 140.53 69.7335 142.295C69.0135 144.952 68.4675 147.705 68.1019 149.79C67.7379 151.867 67.5527 153.282 67.5527 153.282C67.5527 153.282 67.3683 154.592 67.2125 156.577C67.0818 158.242 66.9713 160.381 67.0065 162.62C67.0384 164.645 67.1894 166.751 67.5527 168.661C67.6992 169.432 67.8802 170.171 68.1019 170.859C69.9074 176.469 76.3403 183.501 76.3403 183.501C77.9736 182.817 79.0862 182.395 79.0862 182.395L81.2831 186.79C78.5135 203.73 79.3875 213.335 84.5787 230.734C89.7699 248.133 105.998 260.397 105.998 260.397C105.998 260.397 122.968 273.153 135.107 279.073C148.337 285.524 156.481 287.783 170.807 291.158C181.521 293.682 197.028 295.278 204.443 295.943C206.02 296.038 207.488 296.154 208.704 296.299C210.593 296.525 211.871 296.818 211.999 297.2C211.999 297.2 234.075 289.313 248.797 288.961C249.324 288.948 249.876 288.929 250.445 288.907C253.245 288.796 256.465 288.592 259.232 288.559C263.009 288.515 265.945 288.79 265.823 290.059C265.594 292.447 263.077 295.553 263.077 295.553ZM220.787 243.917C216.393 245.565 207.039 245.665 199.367 242.269C199.367 242.269 190.122 246.309 183.988 248.312C178.498 250.104 175.417 251.28 169.709 252.157C161.864 253.361 157.24 253.302 149.387 252.157C143.467 251.294 140.183 250.351 134.558 248.312C128.515 246.121 125.219 244.514 119.729 241.171C113.977 237.668 110.848 235.408 105.998 230.734C100.836 225.759 98.3851 222.454 94.4647 216.452C91.263 211.55 88.6604 208.969 87.3248 203.269C86.4426 199.503 85.6771 193.93 86.7756 193.381C87.874 192.832 89.2183 198.866 91.1694 202.17C93.4389 206.014 94.8981 208.083 97.7601 211.508C101.749 216.282 104.435 218.61 109.294 222.494C114.127 226.357 116.976 228.449 122.475 231.283C128.567 234.423 132.343 235.512 138.952 237.326C145.89 239.229 149.912 239.971 157.076 240.621C164.339 241.281 168.513 241.52 175.75 240.621C180.091 240.083 185.087 239.523 186.735 238.424C188.146 237.483 188.931 234.678 188.931 234.678C187.872 233.5 186.805 232.197 185.636 230.734C183.183 227.663 181.371 224.827 179.998 221.945C179.998 221.945 162.499 221.467 151.584 219.199C144.603 217.748 140.64 216.875 134.009 214.255C123.814 210.226 118.399 206.826 109.843 199.973C104.514 195.705 97.2108 187.888 97.2108 187.888C97.2108 187.888 87.9523 179.016 84.0294 171.958C80.6995 165.967 75.2418 156.768 77.988 155.479C80.3282 154.38 85.0202 162.842 89.5217 167.564C93.8139 172.066 95.9349 174.88 100.506 179.099C106.119 184.279 109.527 186.951 115.884 191.184C124.35 196.82 129.614 199.241 138.952 203.269C148.731 207.486 164.766 212.057 164.766 212.057L177.445 214.804C176.687 211.832 176.179 208.616 175.75 204.916C175.495 202.719 175.372 200.508 175.365 198.325L155.978 187.888L142.247 180.198L124.123 169.761L113.138 162.62L98.8585 154.38C98.8585 154.38 91.8631 150.782 88.4232 147.239C85.5221 144.251 82.3818 139.549 82.3818 138.45C82.3818 137.199 83.8772 136.802 85.1279 136.802C85.6771 136.802 87.8458 137.709 89.5217 138.45C94.4721 140.641 96.2514 143.645 101.055 146.141C106.536 148.988 110.233 149.144 115.884 151.634C121.855 154.263 125.129 155.953 130.714 159.324C136.776 162.984 145.543 169.761 145.543 169.761L165.315 181.846L176.217 187.888C177.138 182.462 178.739 177.776 180.693 174.705C181.515 173.413 182.413 172.549 183.439 171.868L173.004 160.423C173.004 160.423 166.681 153.319 162.019 149.436C157.037 145.286 148.289 140.098 148.289 140.098C148.289 140.098 138.638 133.041 131.812 129.661C124.455 126.019 120.033 124.393 112.04 122.52C106.34 121.185 103.005 121.161 97.2108 120.323C94.2088 119.889 90.7846 121.983 89.5217 119.224C88.0354 115.978 93.8268 115.417 97.2108 114.281C100.876 113.05 107.097 113.731 107.097 113.731C107.097 113.731 110.772 114.165 113.138 114.281C115.923 114.417 117.496 114.096 120.278 114.281C128.012 114.795 132.251 116.482 139.501 119.224C146.23 121.77 150.018 123.434 155.978 127.464C161.645 131.296 164.408 134.079 169.159 139C174.674 144.711 176.747 148.799 181.792 154.929C186.418 160.551 193.874 169.126 193.874 169.126C204.784 170.787 216.942 185.141 216.942 185.141L235.373 206.564C235.373 206.564 233.547 207.9 231.771 209.673C230.701 210.741 229.65 211.967 229.025 213.156C228.876 213.439 228.735 213.718 228.6 213.995C227.724 215.797 227.147 217.491 226.933 219.199C226.733 220.802 226.853 222.416 227.351 224.142C227.506 224.68 227.697 225.228 227.926 225.79C229.361 229.304 234.517 232.931 234.517 232.931C229.672 236.808 225.18 242.269 220.787 243.917ZM264.175 80.2236C262.641 84.8685 256.486 90.1112 256.486 90.1112C256.486 90.1112 259.439 83.2019 259.232 78.5757C258.852 70.0705 258.274 64.6638 255.388 57.1527C252.934 50.767 249.507 47.8201 243.854 43.9693C237.35 39.5393 232.259 39.8614 224.631 37.927C215.333 35.5689 197.719 33.5325 200.465 33.5325C214.433 33.5325 222.624 32.3014 236.165 35.7297C244.853 37.9294 251.294 37.5848 257.585 43.9693C262.298 48.7525 264.514 52.6776 265.274 59.35C266.178 67.2929 266.604 72.8716 264.175 80.2236ZM244.403 109.337C243.477 110.733 241.657 112.633 241.657 112.633L236.165 87.914C236.165 87.914 234.374 79.1739 231.771 74.1813C229.292 69.4261 227.269 67.0415 223.533 63.1951C219.377 58.9175 216.763 56.5647 211.45 53.8569C203.841 49.9795 198.502 50.5279 190.03 49.4624C182.569 48.5242 178.326 48.3237 170.807 48.3638C163.93 48.4005 160.062 48.6632 153.232 49.4624C145.877 50.3231 141.915 53.6069 134.558 52.7583C133.262 52.6087 131.263 52.209 131.263 52.209C131.263 52.209 142.93 46.0402 151.035 43.9693C159.596 41.782 164.721 42.0222 173.553 41.7721C182.996 41.5047 197.719 42.8707 197.719 42.8707C197.719 42.8707 212.13 43.4512 220.237 47.2652C226.759 50.333 230.323 52.825 235.066 58.2513C238.868 62.5997 240.941 65.4018 242.756 70.8854C243.919 74.4011 243.753 76.578 244.403 80.2236C245.666 87.3071 248.5 91.2004 247.699 98.3508C247.2 102.802 246.88 105.605 244.403 109.337ZM235.616 126.365L231.222 139L224.631 130.211L218.59 115.379C218.59 115.379 214.213 105.292 210.351 99.4494C205.656 92.3453 202.72 88.291 196.071 82.9702C188.731 77.0958 183.617 74.8114 174.652 71.984C165.77 69.1833 160.346 68.8185 151.035 68.6882C141.538 68.5552 136.16 69.4618 126.869 71.4347C119.433 73.0137 108.195 76.9278 108.195 76.9278C108.195 76.9278 114.457 71.2269 119.18 68.6882C124.557 65.798 128.021 64.9299 134.009 63.7444C142.007 62.1611 146.727 63.0727 154.879 63.1951C164.766 63.3435 170.435 62.9726 180.144 64.843C189.203 66.5883 194.919 66.9674 202.662 71.984C209.795 76.6055 212.609 80.9562 217.491 87.914C222.34 94.825 227.377 107.14 227.377 107.14L235.616 126.365ZM226.828 156.577L224.631 171.409C224.631 171.409 217.636 166.397 213.647 162.62C209.675 158.86 207.544 156.593 204.31 152.183C199.033 144.989 198.625 139.411 193.874 131.859C189.146 124.341 186.848 119.555 180.144 113.731C174.479 108.81 170.462 107.029 163.667 103.844C156.481 100.475 152.118 99.2761 144.444 97.2522C136.431 95.1386 131.854 93.7469 123.574 93.407C115.172 93.0621 102.154 95.6043 102.154 95.6043L93.9155 96.7029C93.9155 96.7029 98.0633 93.3557 101.055 91.7591C106.748 88.7214 110.64 88.5469 116.983 87.3646C123.97 86.0624 128.001 85.8509 135.107 85.7167L135.269 85.7137C142.687 85.5735 146.983 85.4924 154.33 86.8153C163.944 88.5463 169.544 90.0738 177.947 95.055C183.854 98.5567 187.063 100.955 191.678 106.041C196.475 111.329 201.564 121.422 201.564 121.422L210.351 137.901L219.139 150.535L226.828 156.577ZM224.082 252.706C224.677 249.544 224.631 244.467 224.082 244.467C223.533 244.467 224.619 243.917 223.533 244.467C222.447 245.016 221.882 246.827 220.787 248.312C216.986 253.46 215.166 256.73 210.351 260.946C202.773 267.581 197.018 269.897 187.284 272.481C172.966 276.282 163.861 273.989 149.387 270.833C134.911 267.677 126.464 264.92 114.237 256.551C106.343 251.148 101.934 247.663 96.1124 240.072C92.5976 235.489 88.4232 227.438 88.4232 227.438L82.3818 213.156C82.3818 213.156 83.6586 223.063 85.6771 229.086L85.7258 229.231C87.4939 234.508 88.4531 237.37 91.7186 242.269C95.0139 247.213 97.2108 250.509 104.351 256.551C111.491 262.594 116.452 266.29 125.221 270.833C133.179 274.956 140.421 278 146.641 279.073L162.569 281.82C168.789 282.892 173.643 283.028 180.693 282.369C187.017 281.777 190.685 281.335 196.621 279.073C201.643 277.159 204.319 275.591 208.704 272.481L209.079 272.215C212.822 269.563 215.12 267.934 218.04 264.242C221.195 260.253 223.142 257.704 224.082 252.706ZM242.206 258.749C242.943 252.753 240.559 243.368 240.559 243.368C240.559 243.368 243.529 246.156 244.952 248.312C247.794 252.615 248.797 260.946 248.797 260.946C248.797 260.946 249.544 270.716 246.6 275.777C243.921 280.383 241.04 282.416 236.165 284.566C231.028 286.831 221.336 287.862 221.885 286.214C222.434 284.566 227.913 282.255 231.222 279.073C234.627 275.799 236.709 273.915 238.911 269.735C240.998 265.772 241.66 263.194 242.206 258.749Z" fill="#235DA6"/>
<path d="M176.848 295.553C181.778 295.362 189.48 295.553 189.48 295.553C189.48 295.553 197.898 295.553 204.443 295.943C197.028 295.278 181.521 293.682 170.807 291.158C156.481 287.783 148.337 285.524 135.107 279.073C122.968 273.153 105.998 260.397 105.998 260.397C105.998 260.397 89.7699 248.133 84.5787 230.734C79.3875 213.335 78.5135 203.73 81.2831 186.79C81.2831 186.79 76.7868 190.311 74.1432 192.832C66.5984 200.026 62.9081 204.945 58.2156 214.255C54.7344 221.162 52.3147 225.228 51.6249 232.931C50.6969 243.296 53.7418 249.354 58.2156 258.749C62.698 268.162 66.2988 273.306 74.1432 280.172C85.5665 290.171 95.1688 291.665 109.843 295.553C123.215 299.096 131.16 300.123 144.993 299.947C157.55 299.787 164.3 296.037 176.848 295.553Z" fill="#093A77"/>
<path d="M264.725 188.987C269.466 185.724 274.581 190.88 277.906 195.578C280.46 199.188 282.725 202.658 280.652 206.564C278.854 209.954 275.679 211.37 271.864 210.959C268.493 210.595 266.856 208.653 264.725 206.015C262.671 203.474 261.643 201.585 261.429 198.325C261.176 194.466 261.539 191.179 264.725 188.987Z" fill="#F29835"/>
<path fill-rule="evenodd" clip-rule="evenodd" d="M322.393 177.451C323.215 174.571 323.591 172.148 323.624 169.761C323.624 169.761 321.145 162.087 318.549 157.676C315.915 153.201 314.741 149.946 310.31 147.239C306.359 144.826 303.378 143.978 298.776 144.493C293.037 145.134 289.692 147.625 286.144 152.183C281.829 157.728 281.283 162.808 282.3 169.761C283.202 175.931 284.718 179.971 289.44 184.043C294.217 188.163 298.512 189.164 304.818 188.987C310.487 188.827 314.454 188.18 318.549 184.256C319.817 183.04 321.366 180.747 321.366 180.747C321.723 179.718 322.058 178.625 322.393 177.451ZM306.186 160.423C308.453 161.423 310.817 162.785 312.507 160.972C313.97 159.403 312.507 155.479 312.507 155.479C312.507 155.479 310.439 151.659 308.113 150.535L308.008 150.484C305.911 149.469 303.839 148.467 302.072 149.986C300.572 151.275 300.648 152.979 300.973 154.929C301.459 157.847 303.48 159.228 306.186 160.423Z" fill="#162234"/>
<path fill-rule="evenodd" clip-rule="evenodd" d="M354.248 168.662C355.746 173.244 357.262 175.868 360.839 179.099C363.62 181.61 365.564 183.143 369.077 183.929C369.077 183.929 375.006 180.961 376.766 177.451C378.222 174.55 377.897 172.458 377.865 169.211C377.816 164.372 377.45 161.368 375.119 157.127C373.505 154.19 372.319 152.529 369.627 150.535C367.001 148.59 365.201 147.087 361.937 147.239C359.905 147.334 358.628 147.673 356.994 148.887C355.152 150.257 353.812 153.831 353.812 153.831C353.776 154.196 353.739 154.563 353.699 154.929C353.123 160.266 352.58 163.561 354.248 168.662ZM361.937 154.929C361.853 153.839 362.238 152.931 363.036 152.183C363.975 151.303 365.138 151.701 366.331 152.183C368.042 152.874 368.79 154.205 369.077 156.028C369.281 157.317 369.522 158.478 368.528 159.324C367.373 160.307 365.965 159.586 364.684 158.775C363.223 157.849 362.07 156.654 361.937 154.929Z" fill="#162234"/>
<path d="M309.212 108.238C309.212 108.238 306.658 106.585 304.818 106.041C301.845 105.162 299.858 105.178 296.88 106.041C294.098 106.847 290.538 109.886 290.538 109.886L285.595 114.281C285.595 114.281 286.638 109.594 288.341 107.14C290.252 104.387 291.846 102.951 294.932 101.647C297.53 100.548 299.294 100.057 302.072 100.548C304.152 100.916 305.522 101.25 307.015 102.745C308.647 104.38 309.212 108.238 309.212 108.238Z" fill="#5D4412"/>
<path d="M364.684 114.83C367.815 117.016 370.725 122.521 370.725 122.521C369.264 118.389 367.922 114.826 366.512 111.534C366.512 111.534 365.563 110.803 364.684 110.436C363.138 109.79 362.379 108.897 360.839 108.238C359.445 107.642 358.404 107.13 356.994 107.689C355.866 108.136 355.34 108.801 354.797 109.886C354.03 111.421 354.797 114.281 354.797 114.281C354.797 114.281 356.594 112.464 358.093 112.083C360.795 111.397 362.397 113.234 364.684 114.83Z" fill="#5D4412"/>
<path d="M356.994 222.494C356.994 222.494 347.215 222.341 341.067 221.396C335.767 220.581 332.71 220.787 328.435 217.551C322.393 212.978 320.745 207.663 320.745 207.663C320.745 207.663 316.159 207.561 313.606 208.762C310.994 209.989 308.113 213.705 308.113 213.705C308.113 213.705 309.241 215.268 310.31 215.353C311.679 215.462 311.723 213.487 313.056 213.156C314.323 212.842 315.704 212.572 316.352 213.705C318.549 217.551 319.033 221.723 322.393 225.79C323.547 227.186 324.607 228.411 325.689 229.484C325.689 229.484 327.299 228.436 328.435 227.987C331.827 226.65 334.688 226.575 338.321 226.889C341.789 227.189 343.673 227.536 346.559 229.484C348.12 230.537 349.854 233.006 349.854 233.006C351.509 232.108 352.869 230.939 354.248 229.086C355.913 226.849 356.994 222.494 356.994 222.494Z" fill="#732909"/>
<path d="M334.476 234.579C338.814 235.792 341.73 235.984 346.01 234.579C347.489 234.094 348.739 233.611 349.854 233.006C349.854 233.006 348.12 230.537 346.559 229.484C343.673 227.536 341.789 227.189 338.321 226.889C334.688 226.575 331.827 226.65 328.435 227.987C327.299 228.436 325.689 229.484 325.689 229.484C328.092 231.866 330.601 233.496 334.476 234.579Z" fill="#CE7729"/>
<path d="M322.393 160.423C320.882 153.682 319.139 149.789 314.704 144.493L314.576 144.339C310.514 139.488 307.705 136.132 301.523 134.605C295.19 133.041 290.77 134.223 285.046 137.352C279.043 140.632 276.339 144.306 273.512 150.535C270.565 157.028 270.306 161.603 271.315 168.662C272.456 176.642 274.548 181.498 280.103 187.339C284.615 192.084 287.961 194.849 294.383 196.128C301.935 197.632 307.503 196.43 313.606 191.733C317.828 188.484 319.807 185.236 321.366 180.747C321.366 180.747 319.817 183.04 318.549 184.256C314.454 188.18 310.487 188.827 304.818 188.987C298.512 189.164 294.217 188.163 289.44 184.043C284.718 179.971 283.202 175.931 282.3 169.761C281.283 162.808 281.829 157.728 286.144 152.183C289.692 147.625 293.037 145.134 298.776 144.493C303.378 143.978 306.359 144.826 310.31 147.239C314.741 149.946 315.915 153.201 318.549 157.676C321.145 162.087 323.624 169.761 323.624 169.761C323.664 166.848 323.193 163.989 322.393 160.423Z" fill="white"/>
<path d="M312.507 160.972C310.817 162.785 308.453 161.423 306.186 160.423C303.48 159.228 301.459 157.847 300.973 154.929C300.648 152.979 300.572 151.275 302.072 149.986C303.839 148.467 305.911 149.469 308.008 150.484L308.113 150.535C310.439 151.659 312.507 155.479 312.507 155.479C312.507 155.479 313.97 159.403 312.507 160.972Z" fill="white"/>
<path d="M363.036 152.183C362.238 152.931 361.853 153.839 361.937 154.929C362.07 156.654 363.223 157.849 364.684 158.775C365.965 159.586 367.373 160.307 368.528 159.324C369.522 158.478 369.281 157.317 369.077 156.028C368.79 154.205 368.042 152.874 366.331 152.183C365.138 151.701 363.975 151.303 363.036 152.183Z" fill="white"/>
<path d="M381.16 176.902C381.16 176.902 382.121 166.454 381.16 159.874C380.275 153.813 378.419 150.48 376.71 145.042C376.71 145.042 369.469 136.538 363.585 137.352C361.297 137.668 359.804 137.997 358.093 139.549C355.879 141.555 355.347 145.042 354.797 146.69C354.31 148.153 354.1 150.941 353.812 153.831C353.812 153.831 355.152 150.257 356.994 148.887C358.628 147.673 359.905 147.334 361.937 147.239C365.201 147.087 367.001 148.59 369.627 150.535C372.319 152.529 373.505 154.19 375.119 157.127C377.45 161.368 377.816 164.372 377.865 169.211C377.897 172.458 378.222 174.55 376.766 177.451C375.006 180.961 369.077 183.929 369.077 183.929C369.256 183.969 369.439 184.007 369.627 184.043C370.013 184.117 370.376 184.19 370.725 184.256C372.468 184.585 373.828 184.737 375.668 184.043C378.959 182.801 381.16 176.902 381.16 176.902Z" fill="white"/>
<path d="M297.678 287.862C297.678 287.862 294.382 304.341 282.849 316.976C271.315 329.61 254.838 334.004 253.191 333.455C251.543 332.905 250.444 331.258 251.543 326.314C252.641 321.37 267.47 295.553 267.47 295.553M297.678 287.862C297.678 287.862 307.211 285.476 318.549 281.672M297.678 287.862L293.364 288.961M267.47 295.553H263.077M267.47 295.553L293.364 288.961M263.077 295.553C263.077 295.553 255.54 307.702 248.797 313.68C241.529 320.122 236.397 322.714 227.377 326.314C218.776 329.747 213.557 332.291 204.31 331.807C196.719 331.409 187.284 330.708 185.636 326.314C183.988 321.919 191.653 319.611 195.522 315.328C201.934 308.228 212.548 298.848 211.999 297.2M263.077 295.553C263.077 295.553 265.594 292.447 265.823 290.059C265.945 288.79 263.009 288.515 259.232 288.559M211.999 297.2C211.999 297.2 234.075 289.313 248.797 288.961C249.324 288.948 249.876 288.929 250.445 288.907M211.999 297.2C211.871 296.818 210.593 296.525 208.704 296.299M81.2831 186.79C81.2831 186.79 76.7868 190.311 74.1432 192.832C66.5984 200.026 62.9081 204.945 58.2156 214.255C54.7344 221.162 52.3147 225.228 51.6249 232.931C50.6969 243.296 53.7418 249.354 58.2156 258.749C62.698 268.162 66.2988 273.306 74.1432 280.172C85.5665 290.171 95.1688 291.665 109.843 295.553C123.215 299.096 131.16 300.123 144.993 299.947C157.55 299.787 164.3 296.037 176.848 295.553C181.778 295.362 189.48 295.553 189.48 295.553C189.48 295.553 197.898 295.553 204.443 295.943M81.2831 186.79L79.0862 182.395C79.0862 182.395 77.9736 182.817 76.3403 183.501M81.2831 186.79C78.5135 203.73 79.3875 213.335 84.5787 230.734C89.7699 248.133 105.998 260.397 105.998 260.397C105.998 260.397 122.968 273.153 135.107 279.073C148.337 285.524 156.481 287.783 170.807 291.158C181.521 293.682 197.028 295.278 204.443 295.943M79.0862 128.563C79.0862 128.563 71.8846 117.456 68.1017 109.887C62.7587 99.1962 59.4651 93.0412 57.1172 81.3226C55.3847 72.6757 54.4554 67.5612 55.4695 58.8009C56.6162 48.8949 58.3757 43.0578 63.7079 34.6314C69.8805 24.8767 75.757 20.7584 85.6769 14.8563C97.2783 7.95383 105.432 7.25301 118.63 4.41948C141.513 -0.493075 155.153 -0.00342703 178.496 1.67294C198.473 3.10759 209.695 5.2135 229.025 10.4619C245.065 14.8172 254.313 17.1886 269.118 24.7439C278.555 29.5599 283.779 32.5767 292.186 39.0259C297.613 43.1895 305.367 50.5613 305.367 50.5613M79.0862 128.563L84.0294 123.619C84.0294 123.619 83.3941 113.878 84.0294 107.689C85.3181 95.1367 87.4552 87.7664 93.9155 76.9278C94.1389 76.553 94.36 76.187 94.5792 75.8292M79.0862 128.563L75.7917 129.661M305.367 50.5613C305.367 50.5613 308.89 52.5807 313.605 55.5048M305.367 50.5613C305.367 50.5613 280.014 40.6538 263.077 36.8283C248.283 33.4871 239.753 32.4965 224.631 31.3353C206.881 29.9722 196.698 29.0312 179.045 31.3353C162.125 33.5437 152.339 35.3707 136.755 42.3214C132.112 44.3921 128.249 46.1267 124.672 48.0153M370.725 122.521C373.534 130.468 373.918 135.285 376.217 143.394C376.379 143.966 376.544 144.514 376.71 145.042M370.725 122.521C370.725 122.521 367.815 117.016 364.684 114.83C362.397 113.234 360.795 111.397 358.093 112.083C356.594 112.464 354.797 114.281 354.797 114.281C354.797 114.281 354.03 111.421 354.797 109.886C355.34 108.801 355.866 108.136 356.994 107.689C358.404 107.13 359.445 107.642 360.839 108.238C362.379 108.897 363.138 109.79 364.684 110.436C365.563 110.803 366.512 111.534 366.512 111.534M370.725 122.521C369.264 118.389 367.922 114.826 366.512 111.534M381.16 176.902C381.16 176.902 382.121 166.454 381.16 159.874C380.275 153.813 378.419 150.48 376.71 145.042M381.16 176.902C381.16 176.902 389.248 184.408 392.145 190.635C396.323 199.615 396.024 206.142 394.341 215.903C392.073 229.066 385.914 235.346 377.315 245.566C366.875 257.975 358.47 262.837 344.362 270.834C337.028 274.991 327.256 278.75 318.549 281.672M381.16 176.902C381.16 176.902 378.959 182.801 375.668 184.043C373.828 184.737 372.468 184.585 370.725 184.256M376.71 145.042C376.71 145.042 369.469 136.538 363.585 137.352C361.297 137.668 359.804 137.997 358.093 139.549C355.879 141.555 355.347 145.042 354.797 146.69C354.31 148.153 354.1 150.941 353.812 153.831M353.812 153.831C353.776 154.196 353.739 154.563 353.699 154.929C353.123 160.266 352.58 163.561 354.248 168.662C355.746 173.244 357.262 175.868 360.839 179.099C363.62 181.61 365.564 183.143 369.077 183.929M353.812 153.831C353.812 153.831 355.152 150.257 356.994 148.887C358.628 147.673 359.905 147.334 361.937 147.239C365.201 147.087 367.001 148.59 369.627 150.535C372.319 152.529 373.505 154.19 375.119 157.127C377.45 161.368 377.816 164.372 377.865 169.211C377.897 172.458 378.222 174.55 376.766 177.451C375.006 180.961 369.077 183.929 369.077 183.929M369.077 183.929C369.256 183.969 369.439 184.007 369.627 184.043C370.013 184.117 370.376 184.19 370.725 184.256M370.725 184.256C370.725 184.256 374.866 189.091 376.217 192.832C378.478 199.089 378.319 203.758 375.668 209.86C374.078 213.52 372.734 215.597 369.627 218.1C365.559 221.377 356.994 222.494 356.994 222.494M356.994 222.494C356.994 222.494 347.215 222.341 341.067 221.396C335.767 220.581 332.71 220.787 328.435 217.551C322.393 212.978 320.745 207.663 320.745 207.663C320.745 207.663 316.159 207.561 313.606 208.762C310.994 209.989 308.113 213.705 308.113 213.705C308.113 213.705 309.241 215.268 310.31 215.353C311.679 215.462 311.723 213.487 313.056 213.156C314.323 212.842 315.704 212.572 316.352 213.705C318.549 217.551 319.033 221.723 322.393 225.79C323.547 227.186 324.607 228.411 325.689 229.484M356.994 222.494C356.994 222.494 355.913 226.849 354.248 229.086C352.869 230.939 351.509 232.108 349.854 233.006M325.689 229.484C328.092 231.866 330.601 233.496 334.476 234.579C338.814 235.792 341.73 235.984 346.01 234.579C347.489 234.094 348.739 233.611 349.854 233.006M325.689 229.484C325.689 229.484 327.299 228.436 328.435 227.987C331.827 226.65 334.688 226.575 338.321 226.889C341.789 227.189 343.673 227.536 346.559 229.484C348.12 230.537 349.854 233.006 349.854 233.006M366.512 111.534C363.414 104.304 359.986 98.389 354.248 90.6608C346.653 80.431 341.074 75.6168 331.181 67.5899C326.144 63.504 319.074 58.896 313.605 55.5048M314.704 144.493C319.139 149.789 320.882 153.682 322.393 160.423C323.193 163.989 323.664 166.848 323.624 169.761M314.704 144.493L314.576 144.339M314.704 144.493C314.661 144.441 314.618 144.39 314.576 144.339M323.624 169.761C323.591 172.148 323.215 174.571 322.393 177.451C322.058 178.625 321.723 179.718 321.366 180.747M323.624 169.761C323.624 169.761 321.145 162.087 318.549 157.676C315.915 153.201 314.741 149.946 310.31 147.239C306.359 144.826 303.378 143.978 298.776 144.493C293.037 145.134 289.692 147.625 286.144 152.183C281.829 157.728 281.283 162.808 282.3 169.761C283.202 175.931 284.718 179.971 289.44 184.043C294.217 188.163 298.512 189.164 304.818 188.987C310.487 188.827 314.454 188.18 318.549 184.256C319.817 183.04 321.366 180.747 321.366 180.747M321.366 180.747C319.807 185.236 317.828 188.484 313.606 191.733C307.503 196.43 301.935 197.632 294.383 196.128C287.961 194.849 284.615 192.084 280.103 187.339C274.548 181.498 272.456 176.642 271.315 168.662C270.306 161.603 270.565 157.028 273.512 150.535C276.339 144.306 279.043 140.632 285.046 137.352C290.77 134.223 295.19 133.041 301.523 134.605C307.705 136.132 310.514 139.488 314.576 144.339M308.113 150.535C310.439 151.659 312.507 155.479 312.507 155.479C312.507 155.479 313.97 159.403 312.507 160.972C310.817 162.785 308.453 161.423 306.186 160.423C303.48 159.228 301.459 157.847 300.973 154.929C300.648 152.979 300.572 151.275 302.072 149.986C303.839 148.467 305.911 149.469 308.008 150.484M308.113 150.535L308.008 150.484M308.113 150.535C308.078 150.518 308.043 150.501 308.008 150.484M313.605 55.5048C313.605 55.5048 306.013 55.5662 301.523 57.1527C294.932 59.4813 288.237 70.9955 281.751 81.3223C272.64 95.8268 271.006 105.83 265.274 121.971C259.937 136.997 253.191 160.972 253.191 160.972C253.191 160.972 247.353 183.638 248.248 198.325C249.137 212.918 251.339 221.36 257.585 234.579C263.305 246.687 267.399 253.642 277.357 262.594C290.541 274.446 318.549 281.672 318.549 281.672M237.263 208.762L235.373 206.564M199.367 242.269C207.039 245.665 216.393 245.565 220.787 243.917C225.18 242.269 229.672 236.808 234.517 232.931M199.367 242.269C194.675 240.193 191.834 237.905 188.931 234.678M199.367 242.269C199.367 242.269 190.122 246.309 183.988 248.312C178.498 250.104 175.417 251.28 169.709 252.157C161.864 253.361 157.24 253.302 149.387 252.157C143.467 251.294 140.183 250.351 134.558 248.312C128.515 246.121 125.219 244.514 119.729 241.171C113.977 237.668 110.848 235.408 105.998 230.734C100.836 225.759 98.3851 222.454 94.4647 216.452C91.263 211.55 88.6604 208.969 87.3248 203.269C86.4426 199.503 85.6771 193.93 86.7756 193.381C87.874 192.832 89.2183 198.866 91.1694 202.17C93.4389 206.014 94.8981 208.083 97.7601 211.508C101.749 216.282 104.435 218.61 109.294 222.494C114.127 226.357 116.976 228.449 122.475 231.283C128.567 234.423 132.343 235.512 138.952 237.326C145.89 239.229 149.912 239.971 157.076 240.621C164.339 241.281 168.513 241.52 175.75 240.621C180.091 240.083 185.087 239.523 186.735 238.424C188.146 237.483 188.931 234.678 188.931 234.678M237.263 230.734C236.29 231.513 235.381 232.24 234.517 232.931M234.517 232.931C234.517 232.931 229.361 229.304 227.926 225.79C227.697 225.228 227.506 224.68 227.351 224.142M235.373 206.564L216.942 185.141C216.942 185.141 204.784 170.787 193.874 169.126M235.373 206.564C235.373 206.564 233.547 207.9 231.771 209.673M208.704 296.299C207.488 296.154 206.02 296.038 204.443 295.943M208.704 296.299C208.704 296.299 207.088 296.181 204.443 295.943M76.3403 183.501C73.5795 184.656 69.3311 186.559 66.454 188.438C60.86 192.089 59.1777 195.98 53.8218 199.973C47.6573 204.569 44.3333 208.343 36.7958 209.861C32.17 210.792 29.2048 211.306 24.7129 209.861C20.1794 208.402 18.185 206.097 14.8268 202.72C8.53603 196.393 7.21789 190.858 4.39155 182.395C1.09536 172.525 0.771225 166.432 0.546975 156.028C0.342725 146.553 0.756554 141.126 2.74388 131.859C4.79236 122.307 6.40063 116.867 10.9823 108.239C14.6663 101.301 18.1224 93.4073 22.516 91.7594C26.9096 90.1115 27.4588 90.6608 31.3036 91.7594C35.1484 92.858 46.1327 103.295 46.1327 103.295L63.7079 120.873L74.1432 130.211L75.7917 129.661M76.3403 183.501C76.3403 183.501 69.9074 176.469 68.1019 170.859C67.8802 170.171 67.6992 169.432 67.5527 168.661M75.7917 129.661C75.7917 129.661 73.1023 133.682 71.6448 136.802M67.5527 168.661C58.4013 172.684 46.1569 176.097 23.0654 182.395M67.5527 168.661C67.1894 166.751 67.0384 164.645 67.0065 162.62M67.0065 162.62C53.0637 164.979 45.2466 166.302 31.3038 168.661M67.0065 162.62C66.9713 160.381 67.0818 158.242 67.2125 156.577M67.2125 156.577C67.3683 154.592 67.5527 153.282 67.5527 153.282C67.5527 153.282 67.7379 151.867 68.1019 149.79M67.2125 156.577C50.5907 156.202 41.1427 155.348 24.1639 153.282M68.1019 149.79C59.737 147.507 55.0471 146.227 46.6821 143.943M68.1019 149.79C68.4675 147.705 69.0135 144.952 69.7335 142.295M69.7335 142.295C70.2119 140.53 70.7671 138.808 71.3973 137.352C71.4748 137.172 71.5576 136.989 71.6448 136.802M69.7335 142.295L53.2728 135.154M71.6448 136.802L57.1174 127.464M124.672 48.0153C113.084 39.8851 105.347 36.1781 88.9725 31.3353M124.672 48.0153C119.974 50.4954 115.77 53.2411 110.941 57.3624M110.941 57.3624C110.401 57.824 109.852 58.3029 109.294 58.8006C106.357 61.4196 104.001 63.6424 101.899 65.9416M110.941 57.3624C101.928 48.3556 95.7814 45.5954 84.0294 42.3214M101.899 65.9416C94.3164 59.3266 89.7971 56.8542 81.2833 54.4062M101.899 65.9416C99.2749 68.8119 97.0467 71.8014 94.5792 75.8292M94.5792 75.8292C85.1281 70.2979 80.2794 68.1086 71.9465 64.843M231.771 209.673C230.701 210.741 229.65 211.967 229.025 213.156C228.876 213.439 228.735 213.718 228.6 213.995M231.771 209.673C222.804 204.734 217.875 200.869 209.253 192.282M228.6 213.995C219.338 210.443 214.653 208.348 207.605 204.367M228.6 213.995C227.724 215.797 227.147 217.491 226.933 219.199M226.933 219.199C222.388 218.34 219.839 217.859 215.294 217.001M226.933 219.199C226.733 220.802 226.853 222.416 227.351 224.142M227.351 224.142C223.248 226.264 220.845 226.769 216.393 226.889M259.232 288.559C240.159 312.201 225.215 319.449 192.776 324.116M259.232 288.559C256.465 288.592 253.245 288.796 250.445 288.907M250.445 288.907C234.889 303.69 222.417 310.229 195.522 319.722M293.364 288.961C287.393 303.262 278.218 312.22 256.486 329.06M241.657 112.633C241.657 112.633 243.477 110.733 244.403 109.337C246.88 105.605 247.2 102.802 247.699 98.3508C248.5 91.2004 245.666 87.3071 244.403 80.2236C243.753 76.578 243.919 74.4011 242.756 70.8854C240.941 65.4018 238.868 62.5997 235.066 58.2513C230.323 52.825 226.759 50.333 220.237 47.2652C212.13 43.4512 197.719 42.8707 197.719 42.8707C197.719 42.8707 182.996 41.5047 173.553 41.7721C164.721 42.0222 159.596 41.782 151.035 43.9693C142.93 46.0402 131.263 52.209 131.263 52.209C131.263 52.209 133.262 52.6087 134.558 52.7583C141.915 53.6069 145.877 50.3231 153.232 49.4624C160.062 48.6632 163.93 48.4005 170.807 48.3638C178.326 48.3237 182.569 48.5242 190.03 49.4624C198.502 50.5279 203.841 49.9795 211.45 53.8569C216.763 56.5647 219.377 58.9175 223.533 63.1951C227.269 67.0415 229.292 69.4261 231.771 74.1813C234.374 79.1739 236.165 87.914 236.165 87.914M241.657 112.633C239.512 102.979 238.31 97.5673 236.165 87.914M241.657 112.633L236.165 87.914M231.222 139L235.616 126.365L227.377 107.14C227.377 107.14 222.34 94.825 217.491 87.914C212.609 80.9562 209.795 76.6055 202.662 71.984C194.919 66.9674 189.203 66.5883 180.144 64.843C170.435 62.9726 164.766 63.3435 154.879 63.1951C146.727 63.0727 142.007 62.1611 134.009 63.7444C128.021 64.9299 124.557 65.798 119.18 68.6882C114.457 71.2269 108.195 76.9278 108.195 76.9278C108.195 76.9278 119.433 73.0137 126.869 71.4347C136.16 69.4618 141.538 68.5552 151.035 68.6882C160.346 68.8185 165.77 69.1833 174.652 71.984C183.617 74.8114 188.731 77.0958 196.071 82.9702C202.72 88.291 205.656 92.3453 210.351 99.4494C214.213 105.292 218.59 115.379 218.59 115.379L224.631 130.211M231.222 139C228.648 135.567 227.205 133.643 224.631 130.211M231.222 139L224.631 130.211M135.107 85.7167C128.001 85.8509 123.97 86.0624 116.983 87.3646C110.64 88.5469 106.748 88.7214 101.055 91.7591C98.0633 93.3557 93.9155 96.7029 93.9155 96.7029L102.154 95.6043C102.154 95.6043 115.172 93.0621 123.574 93.407C131.854 93.7469 136.431 95.1386 144.444 97.2522C152.118 99.2761 156.481 100.475 163.667 103.844C170.462 107.029 174.479 108.81 180.144 113.731C186.848 119.555 189.146 124.341 193.874 131.859C198.625 139.411 199.033 144.989 204.31 152.183C207.544 156.593 209.675 158.86 213.647 162.62C217.636 166.397 224.631 171.409 224.631 171.409L226.828 156.577L219.139 150.535L210.351 137.901L201.564 121.422C201.564 121.422 196.475 111.329 191.678 106.041C187.063 100.955 183.854 98.5567 177.947 95.055C169.544 90.0738 163.944 88.5463 154.33 86.8153C146.983 85.4924 142.687 85.5735 135.269 85.7137M135.107 85.7167L135.269 85.7137M135.107 85.7167C135.161 85.7157 135.215 85.7147 135.269 85.7137M193.874 169.126C191.783 168.808 189.738 168.956 187.833 169.761C186.119 170.485 184.685 171.041 183.439 171.868M193.874 169.126C193.874 169.126 186.418 160.551 181.792 154.929C176.747 148.799 174.674 144.711 169.159 139C164.408 134.079 161.645 131.296 155.978 127.464C150.018 123.434 146.23 121.77 139.501 119.224C132.251 116.482 128.012 114.795 120.278 114.281C117.496 114.096 115.923 114.417 113.138 114.281C110.772 114.165 107.097 113.731 107.097 113.731C107.097 113.731 100.876 113.05 97.2108 114.281C93.8268 115.417 88.0354 115.978 89.5217 119.224C90.7846 121.983 94.2088 119.889 97.2108 120.323C103.005 121.161 106.34 121.185 112.04 122.52C120.033 124.393 124.455 126.019 131.812 129.661C138.638 133.041 148.289 140.098 148.289 140.098C148.289 140.098 157.037 145.286 162.019 149.436C166.681 153.319 173.004 160.423 173.004 160.423L183.439 171.868M183.439 171.868C182.413 172.549 181.515 173.413 180.693 174.705C178.739 177.776 177.138 182.462 176.217 187.888M176.217 187.888L165.315 181.846M176.217 187.888C175.662 191.162 175.354 194.705 175.365 198.325M165.315 181.846C157.593 177.126 153.264 174.48 145.543 169.761M165.315 181.846L145.543 169.761M145.543 169.761C145.543 169.761 136.776 162.984 130.714 159.324C125.129 155.953 121.855 154.263 115.884 151.634C110.233 149.144 106.536 148.988 101.055 146.141C96.2514 143.645 94.4721 140.641 89.5217 138.45C87.8458 137.709 85.6771 136.802 85.1279 136.802C83.8772 136.802 82.3818 137.199 82.3818 138.45C82.3818 139.549 85.5221 144.251 88.4232 147.239C91.8631 150.782 98.8585 154.38 98.8585 154.38L113.138 162.62L124.123 169.761L142.247 180.198L155.978 187.888L175.365 198.325M175.365 198.325C175.372 200.508 175.495 202.719 175.75 204.916C176.179 208.616 176.687 211.832 177.445 214.804M177.445 214.804L164.766 212.057C164.766 212.057 148.731 207.486 138.952 203.269C129.614 199.241 124.35 196.82 115.884 191.184C109.527 186.951 106.119 184.279 100.506 179.099C95.9349 174.88 93.8139 172.066 89.5217 167.564C85.0202 162.842 80.3282 154.38 77.988 155.479C75.2418 156.768 80.6995 165.967 84.0294 171.958C87.9523 179.016 97.2108 187.888 97.2108 187.888C97.2108 187.888 104.514 195.705 109.843 199.973C118.399 206.826 123.814 210.226 134.009 214.255C140.64 216.875 144.603 217.748 151.584 219.199C162.499 221.467 179.998 221.945 179.998 221.945M177.445 214.804C178.084 217.31 178.901 219.642 179.998 221.945M179.998 221.945C181.371 224.827 183.183 227.663 185.636 230.734C186.805 232.197 187.872 233.5 188.931 234.678M208.704 272.481C204.319 275.591 201.643 277.159 196.621 279.073C190.685 281.335 187.017 281.777 180.693 282.369C173.643 283.028 168.789 282.892 162.569 281.82M208.704 272.481L209.079 272.215M208.704 272.481C208.83 272.391 208.956 272.303 209.079 272.215M162.569 281.82C156.349 280.747 152.861 280.146 146.641 279.073M162.569 281.82L146.641 279.073M146.641 279.073C140.421 278 133.179 274.956 125.221 270.833C116.452 266.29 111.491 262.594 104.351 256.551C97.2108 250.509 95.0139 247.213 91.7186 242.269C88.4531 237.37 87.4939 234.508 85.7258 229.231M85.6771 229.086C83.6586 223.063 82.3818 213.156 82.3818 213.156L88.4232 227.438C88.4232 227.438 92.5976 235.489 96.1124 240.072C101.934 247.663 106.343 251.148 114.237 256.551C126.464 264.92 134.911 267.677 149.387 270.833C163.861 273.989 172.966 276.282 187.284 272.481C197.018 269.897 202.773 267.581 210.351 260.946C215.166 256.73 216.986 253.46 220.787 248.312C221.882 246.827 222.447 245.016 223.533 244.467C224.619 243.917 223.533 244.467 224.082 244.467C224.631 244.467 224.677 249.544 224.082 252.706C223.142 257.704 221.195 260.253 218.04 264.242C215.12 267.934 212.822 269.563 209.079 272.215M85.6771 229.086L85.7258 229.231M85.6771 229.086C85.6934 229.135 85.7096 229.183 85.7258 229.231M363.036 152.183C362.238 152.931 361.853 153.839 361.937 154.929C362.07 156.654 363.223 157.849 364.684 158.775C365.965 159.586 367.373 160.307 368.528 159.324C369.522 158.478 369.281 157.317 369.077 156.028C368.79 154.205 368.042 152.874 366.331 152.183C365.138 151.701 363.975 151.303 363.036 152.183ZM309.212 108.238C309.212 108.238 306.658 106.585 304.818 106.041C301.845 105.162 299.858 105.178 296.88 106.041C294.098 106.847 290.538 109.886 290.538 109.886L285.595 114.281C285.595 114.281 286.638 109.594 288.341 107.14C290.252 104.387 291.846 102.951 294.932 101.647C297.53 100.548 299.294 100.057 302.072 100.548C304.152 100.916 305.522 101.25 307.015 102.745C308.647 104.38 309.212 108.238 309.212 108.238ZM264.725 188.987C269.466 185.724 274.581 190.88 277.906 195.578C280.46 199.188 282.725 202.658 280.652 206.564C278.854 209.954 275.679 211.37 271.864 210.959C268.493 210.595 266.856 208.653 264.725 206.015C262.671 203.474 261.643 201.585 261.429 198.325C261.176 194.466 261.539 191.179 264.725 188.987ZM256.486 90.1112C256.486 90.1112 262.641 84.8685 264.175 80.2236C266.604 72.8716 266.178 67.2929 265.274 59.35C264.514 52.6776 262.298 48.7525 257.585 43.9693C251.294 37.5848 244.853 37.9294 236.165 35.7297C222.624 32.3014 214.433 33.5325 200.465 33.5325C197.719 33.5325 215.333 35.5689 224.631 37.927C232.259 39.8614 237.35 39.5393 243.854 43.9693C249.507 47.8201 252.934 50.767 255.388 57.1527C258.274 64.6638 258.852 70.0705 259.232 78.5757C259.439 83.2019 256.486 90.1112 256.486 90.1112ZM240.559 243.368C240.559 243.368 242.943 252.753 242.206 258.749C241.66 263.194 240.998 265.772 238.911 269.735C236.709 273.915 234.627 275.799 231.222 279.073C227.913 282.255 222.434 284.566 221.885 286.214C221.336 287.862 231.028 286.831 236.165 284.566C241.04 282.416 243.921 280.383 246.6 275.777C249.544 270.716 248.797 260.946 248.797 260.946C248.797 260.946 247.794 252.615 244.952 248.312C243.529 246.156 240.559 243.368 240.559 243.368Z" stroke="black"/>
</svg>
