<svg width="436" height="335" viewBox="0 0 436 335" fill="none" xmlns="http://www.w3.org/2000/svg">
<path fill-rule="evenodd" clip-rule="evenodd" d="M80.5127 144.197C78.9079 147.33 77.5127 152.697 77.5127 152.697L77.4792 152.981C76.9726 157.271 76.6639 159.885 77.5127 164.197C78.1423 167.396 78.865 169.878 80.063 172.197L85.0127 175.197C85.0127 175.197 89.2514 178.682 92.5127 179.697C96.6143 180.974 99.3321 180.685 103.513 179.697C108.018 178.633 110.648 177.376 114.013 174.197C117.887 170.537 119.031 167.317 120.513 162.197C121.928 157.306 122.361 154.218 121.513 149.197C120.538 143.428 119.223 139.76 115.013 135.697C110.861 131.691 107.278 129.909 101.513 129.697C96.6344 129.518 93.6368 130.585 89.5127 133.197C84.8236 136.167 83.043 139.257 80.5127 144.197ZM90.5127 145.697C89.7457 143.653 90.6055 142.183 91.5127 140.197C92.0978 138.917 92.4375 138.106 93.5127 137.197C94.6482 136.237 95.5308 135.821 97.0127 135.697C98.8587 135.543 100.131 135.963 101.513 137.197C102.947 138.478 103.499 139.774 103.513 141.697C103.528 143.88 102.566 145.164 101.013 146.697C99.2063 148.481 97.514 149.63 95.0127 149.197C92.8189 148.818 91.2949 147.782 90.5127 145.697Z" fill="#182632"/>
<path fill-rule="evenodd" clip-rule="evenodd" d="M30.0127 165.697C35.0128 164.197 36.6102 162.988 39.5127 159.697C43.1107 155.618 43.4842 152.039 44.5127 146.697C45.3972 142.104 44.7718 135.764 44.187 131.697L42.0127 130.197C42.0127 130.197 38.2288 127.836 35.5127 127.697C30.7961 127.456 28.1886 130.202 25.0126 133.697C20.8602 138.267 19.9799 142.54 19.5127 148.697C19.1407 153.6 19.1898 156.864 21.5127 161.198C22.9205 163.824 26.5127 166.961 26.5127 166.961C27.6345 166.496 28.8236 166.054 30.0127 165.697ZM30.0127 135.197C31.3352 133.9 33.0072 132.618 34.5127 133.697C35.668 134.526 35.7807 135.801 35.5127 137.197C35.2252 138.695 34.3716 139.505 33.0127 140.197C31.4468 140.995 29.6963 141.496 28.5127 140.197C27.1397 138.69 28.5573 136.625 30.0127 135.197Z" fill="#182632"/>
<path d="M97.5127 92.6973C97.5127 92.6973 98.4601 89.2319 100.013 87.6973C101.947 85.7854 103.793 85.1954 106.513 85.1973C109.465 85.1993 111.098 86.4092 113.46 88.1582L113.513 88.1973C115.964 90.0125 117.012 91.542 118.513 94.1973C119.941 96.7243 121.013 101.197 121.013 101.197C121.013 101.197 117.803 97.9811 115.513 96.1973C113.291 94.4667 112.15 93.185 109.513 92.1973C107.288 91.3641 105.886 91.1066 103.513 91.1973C101.099 91.2895 97.5127 92.6973 97.5127 92.6973Z" fill="#182632"/>
<path d="M37.4182 92.1973C36.7938 93.3157 36.1606 94.48 35.5126 95.6975C34.2478 98.0742 33.0081 100.843 31.8491 103.697L35.5126 99.6973C35.5126 99.6973 37.2643 96.816 39.0127 95.6975C40.73 94.5989 41.999 93.8796 44.0127 94.1973C45.8323 94.4843 48.0127 96.6973 48.0127 96.6973C48.0127 96.6973 48.8306 92.9045 47.5127 91.1973C46.4455 89.8148 45.2496 89.3802 43.5127 89.1973C40.8745 88.9193 37.4182 92.1973 37.4182 92.1973Z" fill="#182632"/>
<path d="M51.5127 227.197C56.206 227.301 58.9541 226.056 63.0127 223.697C65.6518 222.163 67.2974 220.562 68.8745 218.697C68.8745 218.697 65.3947 217.117 63.0127 216.697C60.3206 216.223 58.7205 216.322 56.0127 216.697C52.7705 217.147 50.9177 217.689 48.0127 219.197C45.1822 220.667 41.5127 224.141 41.5127 224.141C44.3716 226.116 47.4126 227.107 51.5127 227.197Z" fill="#FF9B79"/>
<path d="M51.5127 210.697C43.7042 211.308 31.5127 209.197 31.5127 209.197C31.5127 209.197 33.9537 217.093 37.5127 220.697C38.8665 222.068 40.1695 223.213 41.5127 224.141C41.5127 224.141 45.1822 220.667 48.0127 219.197C50.9177 217.689 52.7705 217.147 56.0127 216.697C58.7205 216.322 60.3206 216.223 63.0127 216.697C65.3947 217.117 68.8745 218.697 68.8745 218.697C70.0081 217.357 71.1063 215.881 72.5127 214.197C76.8519 209.001 82.0127 199.697 82.0127 199.697C82.0127 199.697 74.7022 204.606 69.5127 206.697C62.8336 209.388 58.6916 210.135 51.5127 210.697Z" fill="#883F3F"/>
<path fill-rule="evenodd" clip-rule="evenodd" d="M14.5126 161.198C14.5126 161.198 0.0126953 172.697 0.512639 189.198C1.01258 205.698 3.62558 210.692 10.0126 222.698C16.5184 234.926 22.7823 240.36 33.0126 249.698C46.5738 262.076 56.007 267.155 72.5126 275.198C87.6145 282.556 113.013 289.698 113.013 289.698L120.013 290.998L126.513 292.205L148.013 296.198H152.513L148.513 289.197V286.197C148.513 286.197 161.479 285.503 169.513 287.197C177.496 288.881 189.013 294.698 189.013 294.698L204.013 292.698C204.013 292.698 220.971 289.486 233.513 285.784C234.727 285.426 235.9 285.063 237.013 284.697C252.628 279.569 261.392 276.108 275.513 267.697C279.494 265.326 282.896 263.146 286.013 260.98C290.837 257.627 294.975 254.307 299.513 250.36C302 248.197 304.607 245.846 307.513 243.197C309.116 241.736 310.801 240.112 312.513 238.4C322.792 228.119 334.013 214.698 334.013 214.698C334.013 214.698 339.411 209.628 345.013 207.296C345.013 207.296 333.513 201.697 318.513 200.197C303.513 198.697 296.27 201.441 282.013 201.197C273.231 201.047 259.544 200.197 259.544 200.197C259.562 201.323 259.547 202.489 259.513 203.697C259.28 212.001 255.701 216.339 251.013 223.197C242.902 235.061 235.797 243.619 221.513 245.197C215.061 245.91 211.328 244.696 205.013 243.197C194.327 240.661 180.333 231.851 176.513 229.359C176.513 229.359 181.557 226.27 183.513 223.197C185.071 220.748 185.739 219.087 186.013 216.197C186.273 213.448 186.071 211.748 185.013 209.197C183.733 206.113 179.513 202.651 179.513 202.651C184.698 199.956 199.072 192.6 212.013 187.028C212.013 187.028 200.364 177.35 195.513 169.197C190.271 160.388 189.463 154.261 187.513 144.197C186.13 137.063 188.538 132.304 185.513 125.697C183.48 121.259 181.013 115.197 178.013 115.697C175.013 116.197 173.513 126.697 173.513 126.697C173.513 126.697 172.56 119.029 171.513 114.197C168.961 102.426 167.294 95.4745 161.013 85.1973C155.744 76.577 152.178 71.6473 144.013 65.6975C135.309 59.355 129.027 57.5294 118.513 55.1973C108.774 53.0371 99.0127 55.1973 93.0127 53.6973C87.0127 52.1973 85.5127 47.7769 85.5127 47.7769C77.4706 52.0871 65.8559 58.882 58.5126 65.6975C48.7032 74.802 43.4769 81.3443 37.4182 92.1973C37.4182 92.1973 40.8745 88.9193 43.5127 89.1973C45.2496 89.3802 46.4455 89.8148 47.5127 91.1973C48.8306 92.9045 48.0127 96.6973 48.0127 96.6973C48.0127 96.6973 45.8323 94.4843 44.0127 94.1973C41.999 93.8796 40.73 94.5989 39.0127 95.6975C37.2643 96.816 35.5126 99.6973 35.5126 99.6973L31.8491 103.697C27.9809 113.223 25.0126 123.698 25.0126 123.698C25.0126 123.698 31.1385 118.32 35.5127 119.197C39.9822 120.093 42.0985 123.364 43.5127 127.697C44.0042 129.203 43.8428 129.304 44.187 131.697C44.7718 135.764 45.3972 142.104 44.5127 146.697C43.4842 152.039 43.1107 155.618 39.5127 159.697C36.6102 162.988 35.0128 164.197 30.0127 165.697C28.8236 166.054 27.6345 166.496 26.5127 166.961C22.9173 168.454 20.0127 170.197 20.0127 170.197C16.5127 175.697 13.0127 176.697 13.0127 183.197C13.0127 189.697 13.3885 194.454 16.5127 199.697C20.062 205.654 31.5127 209.197 31.5127 209.197C31.5127 209.197 43.7042 211.308 51.5127 210.697C58.6916 210.135 62.8336 209.388 69.5127 206.697C74.7022 204.606 82.0127 199.697 82.0127 199.697C82.0127 199.697 76.8519 209.001 72.5127 214.197C71.1063 215.881 70.0081 217.357 68.8745 218.697C67.2974 220.562 65.6518 222.163 63.0127 223.697C58.9541 226.056 56.206 227.301 51.5127 227.197C47.4126 227.107 44.3716 226.116 41.5127 224.141C40.1695 223.213 38.8665 222.068 37.5127 220.697C33.9537 217.093 31.5127 209.197 31.5127 209.197C31.5127 209.197 20.062 205.654 16.5127 199.697C13.3885 194.454 13.0127 189.697 13.0127 183.197C13.0127 176.697 16.5127 175.697 20.0127 170.197L14.5126 161.198ZM77.5127 152.697C78.251 146.438 79.1648 142.82 82.0127 137.197C85.4579 130.395 87.7292 125.68 94.5127 122.197C100.632 119.056 105.341 118.524 112.013 120.197C120.088 122.223 124.305 126.513 128.513 133.697C132.909 141.204 133.072 147.062 132.013 155.697C131.125 162.933 129.629 167.18 125.513 173.197C122.004 178.327 119.656 181.593 114.013 184.197C107.62 187.147 102.76 187.209 96.0127 185.197C90.7167 183.618 87.7338 181.783 84.0127 177.697C82.2678 175.781 81.0153 174.041 80.063 172.197C78.865 169.878 78.1423 167.396 77.5127 164.197C76.6639 159.885 76.9726 157.271 77.4792 152.981L77.5127 152.697ZM100.013 87.6973C98.4601 89.2319 97.5127 92.6973 97.5127 92.6973C97.5127 92.6973 101.099 91.2895 103.513 91.1973C105.886 91.1066 107.288 91.3641 109.513 92.1973C112.15 93.185 113.291 94.4667 115.513 96.1973C117.803 97.9811 121.013 101.197 121.013 101.197C121.013 101.197 119.941 96.7243 118.513 94.1973C117.012 91.542 115.964 90.0125 113.513 88.1973L113.46 88.1582C111.098 86.4092 109.465 85.1993 106.513 85.1973C103.793 85.1954 101.947 85.7854 100.013 87.6973Z" fill="#29B4D9"/>
<path d="M216.013 171.697C222.397 176.677 235.013 179.999 235.013 179.999C244.108 179.292 246.79 179.357 251.17 182.697C251.17 182.697 263.01 183.576 270.513 182.697C276.865 181.953 281.441 183.094 286.513 179.197C291.985 174.993 294.147 170.097 294.013 163.197C293.811 152.836 276.013 143.697 276.013 143.697C276.013 143.697 259.257 133.676 247.513 129.697C236.74 126.048 229.83 120.184 219.013 123.697C210.714 126.393 204.824 129.937 202.013 138.197C199.803 144.691 201.142 149.261 203.513 155.697C206.253 163.138 209.76 166.821 216.013 171.697Z" fill="#29B4D9"/>
<path d="M353.513 118.698C350.403 100.879 333.897 98.3927 321.013 85.6975C303.401 68.3444 275.013 42.1975 275.013 42.1975C275.013 42.1975 247.773 17.9334 226.513 9.69751C208.729 2.80824 197.555 -0.353159 178.513 0.697511C158.903 1.77944 147.87 6.51002 130.513 15.6975C114.876 23.9738 94.5126 43.1975 94.5126 43.1975C94.5126 43.1975 113.858 38.2693 126.513 36.6973C127.364 36.5915 128.197 36.4894 129.013 36.391C138.802 35.2105 146.194 34.57 154.513 34.7299C158.921 34.8147 163.589 35.1242 169.013 35.6973C172.436 36.059 175.568 36.4754 178.513 36.9536C191.248 39.0218 200.475 42.2457 214.513 47.1973C216.413 47.8674 218.243 48.5219 220.013 49.1666C233.931 54.2357 244.144 58.6982 255.513 65.4016C260.058 68.0814 264.787 71.1193 270.013 74.6973C288.383 87.2762 297.511 96.2456 312.513 112.697C314.189 114.535 315.942 116.566 317.718 118.698C319.986 121.42 322.289 124.308 324.513 127.169C326.796 130.108 328.995 133.02 330.984 135.697C335.976 142.419 339.641 147.664 339.986 148.159C338.673 146.124 351.252 140.347 353.513 132.698C355.049 127.499 354.463 124.141 353.537 118.836L353.513 118.698Z" fill="#F9D525"/>
<path d="M322.013 185.697C326.013 189.197 331.16 190.385 337.513 190.697C343.901 191.011 348.486 191.152 353.513 187.198C355.91 185.312 358.008 184.205 358.513 181.197C359.249 176.806 355.155 174.758 351.513 172.197C347.366 169.282 344.062 169.144 339.013 168.697C334.328 168.283 331.417 168.05 327.013 169.697C322.441 171.408 317.465 172.337 317.013 177.197C316.658 181.012 317.999 182.185 321.951 185.643L322.013 185.697Z" fill="#F9D525"/>
<path d="M251.013 223.197C255.701 216.339 259.28 212.001 259.513 203.697C259.547 202.489 259.562 201.323 259.544 200.197C259.442 193.79 258.244 188.669 253.013 184.197C252.357 183.636 251.749 183.138 251.17 182.697C246.79 179.357 244.108 179.292 235.013 179.999C234.229 180.06 233.397 180.127 232.513 180.197C228.229 180.54 220.424 183.407 212.013 187.028C199.072 192.6 184.698 199.956 179.513 202.651C179.513 202.651 183.733 206.113 185.013 209.197C186.071 211.748 186.273 213.448 186.013 216.197C185.739 219.087 185.071 220.748 183.513 223.197C181.557 226.27 176.513 229.359 176.513 229.359C180.333 231.851 194.327 240.661 205.013 243.197C211.328 244.696 215.061 245.91 221.513 245.197C235.797 243.619 242.902 235.061 251.013 223.197Z" fill="#F9D525"/>
<path d="M152.513 296.198C152.513 296.198 165.107 311.912 175.513 319.198C186.897 327.169 194.14 334.54 208.013 333.698C212.6 333.419 217.519 335.339 219.513 331.198C221.483 327.105 216.869 324.58 214.513 320.698C209.639 312.668 204.713 309.78 198.013 303.198C194.564 299.809 189.013 294.698 189.013 294.698C189.013 294.698 177.496 288.881 169.513 287.197C161.479 285.503 148.513 286.197 148.513 286.197V289.197L152.513 296.198Z" fill="#F9D525"/>
<path d="M113.013 289.698C113.013 289.698 123.351 311.511 135.013 320.698C142.628 326.696 154.013 334.198 157.013 332.198C160.013 330.197 160.013 332.698 158.513 322.198C157.013 311.697 148.013 296.198 148.013 296.198L126.513 292.205L120.013 290.998L113.013 289.698Z" fill="#F9D525"/>
<path d="M368.513 214.698C382.485 222.603 399.513 241.698 399.513 241.698C399.513 241.698 414.499 255.834 422.013 250.198C428.048 245.67 424.662 238.694 425.513 231.198C427.451 214.106 422.117 204.342 423.513 187.198C425.039 168.452 434.013 140.198 434.013 140.198C434.013 140.198 438.448 124.843 432.013 120.698C426.119 116.901 421.11 122.326 414.513 124.698C403.546 128.64 389.013 140.198 389.013 140.198C389.013 140.198 376.098 152.64 365.513 154.698C365.513 154.698 370.596 162.838 372.013 168.697C373.711 175.72 373.594 180.148 372.013 187.198C370.862 192.328 369.738 195.201 367.013 199.697C364.624 203.637 359.513 208.805 359.513 208.805C362.321 210.503 365.047 212.736 368.513 214.698Z" fill="#F9D525"/>
<path d="M204.013 292.698C204.013 292.698 210.846 295.98 215.513 297.198C225.527 299.809 231.708 298.156 242.013 297.198C256.775 295.824 265.106 293.838 279.013 288.698C299.807 281.012 312.748 275.735 327.513 259.198C336.1 249.579 346.013 241.698 345.013 231.198C344.013 220.697 334.013 214.698 334.013 214.698C334.013 214.698 322.792 228.119 312.513 238.4C310.801 240.112 309.116 241.736 307.513 243.197C304.607 245.846 302 248.197 299.513 250.36C294.975 254.307 290.837 257.627 286.013 260.98C282.896 263.146 279.494 265.326 275.513 267.697C261.392 276.108 252.628 279.569 237.013 284.697C235.9 285.063 234.727 285.426 233.513 285.784C220.971 289.486 204.013 292.698 204.013 292.698Z" fill="#F9D525"/>
<path fill-rule="evenodd" clip-rule="evenodd" d="M365.513 154.698C356.644 156.422 345.013 155.197 342.513 152.198C340.013 149.198 341.513 150.198 340.013 148.198L339.986 148.159C339.641 147.664 335.976 142.419 330.984 135.697C328.995 133.02 326.796 130.108 324.513 127.169C322.289 124.308 319.986 121.42 317.718 118.698C315.942 116.566 314.189 114.535 312.513 112.697C297.511 96.2456 288.383 87.2762 270.013 74.6973C264.787 71.1193 260.058 68.0814 255.513 65.4016C244.144 58.6982 233.931 54.2357 220.013 49.1666C218.243 48.5219 216.413 47.8674 214.513 47.1973C200.475 42.2457 191.248 39.0218 178.513 36.9536C175.568 36.4754 172.436 36.059 169.013 35.6973C163.589 35.1242 158.921 34.8147 154.513 34.7299C146.194 34.57 138.802 35.2105 129.013 36.391C128.197 36.4894 127.364 36.5915 126.513 36.6973C113.858 38.2693 94.5126 43.1975 94.5126 43.1975C94.5126 43.1975 90.7786 44.9545 85.5127 47.7769C85.5127 47.7769 87.0127 52.1973 93.0127 53.6973C99.0127 55.1973 108.774 53.0371 118.513 55.1973C129.027 57.5294 135.309 59.355 144.013 65.6975C152.178 71.6473 155.744 76.577 161.013 85.1973C167.294 95.4745 168.961 102.426 171.513 114.197C172.56 119.029 173.513 126.697 173.513 126.697C173.513 126.697 175.013 116.197 178.013 115.697C181.013 115.197 183.48 121.259 185.513 125.697C188.538 132.304 186.13 137.063 187.513 144.197C189.463 154.261 190.271 160.388 195.513 169.197C200.364 177.35 212.013 187.028 212.013 187.028C220.424 183.407 228.229 180.54 232.513 180.197C233.397 180.127 234.229 180.06 235.013 179.999C235.013 179.999 222.397 176.677 216.013 171.697C209.76 166.821 206.253 163.138 203.513 155.697C201.142 149.261 199.803 144.691 202.013 138.197C204.824 129.937 210.714 126.393 219.013 123.697C229.83 120.184 236.74 126.048 247.513 129.697C259.257 133.676 276.013 143.697 276.013 143.697C276.013 143.697 293.811 152.836 294.013 163.197C294.147 170.097 291.985 174.993 286.513 179.197C281.441 183.094 276.865 181.953 270.513 182.697C263.01 183.576 251.17 182.697 251.17 182.697C251.749 183.138 252.357 183.636 253.013 184.197C258.244 188.669 259.442 193.79 259.544 200.197C259.544 200.197 273.231 201.047 282.013 201.197C296.27 201.441 303.513 198.697 318.513 200.197C333.513 201.697 345.013 207.296 345.013 207.296C346.358 206.736 347.716 206.334 349.013 206.198C353.314 205.746 356.462 206.96 359.513 208.805C359.513 208.805 364.624 203.637 367.013 199.697C369.738 195.201 370.862 192.328 372.013 187.198C373.594 180.148 373.711 175.72 372.013 168.697C370.596 162.838 365.513 154.698 365.513 154.698ZM337.513 190.697C331.16 190.385 326.013 189.197 322.013 185.697L321.951 185.643C317.999 182.185 316.658 181.012 317.013 177.197C317.465 172.337 322.441 171.408 327.013 169.697C331.417 168.05 334.328 168.283 339.013 168.697C344.062 169.144 347.366 169.282 351.513 172.197C355.155 174.758 359.249 176.806 358.513 181.197C358.008 184.205 355.91 185.312 353.513 187.198C348.486 191.152 343.901 191.011 337.513 190.697Z" fill="#263C47"/>
<path d="M82.0127 137.197C79.1648 142.82 78.251 146.438 77.5127 152.697C77.5127 152.697 78.9079 147.33 80.5127 144.197C83.043 139.257 84.8236 136.167 89.5127 133.197C93.6368 130.585 96.6344 129.518 101.513 129.697C107.278 129.909 110.861 131.691 115.013 135.697C119.223 139.76 120.538 143.428 121.513 149.197C122.361 154.218 121.928 157.306 120.513 162.197C119.031 167.317 117.887 170.537 114.013 174.197C110.648 177.376 108.018 178.633 103.513 179.697C99.3321 180.685 96.6143 180.974 92.5127 179.697C89.2514 178.682 85.0127 175.197 85.0127 175.197L80.063 172.197C81.0153 174.041 82.2678 175.781 84.0127 177.697C87.7338 181.783 90.7167 183.618 96.0127 185.197C102.76 187.209 107.62 187.147 114.013 184.197C119.656 181.593 122.004 178.327 125.513 173.197C129.629 167.18 131.125 162.933 132.013 155.697C133.072 147.062 132.909 141.204 128.513 133.697C124.305 126.513 120.088 122.223 112.013 120.197C105.341 118.524 100.632 119.056 94.5127 122.197C87.7292 125.68 85.4579 130.395 82.0127 137.197Z" fill="white"/>
<path d="M91.5127 140.197C90.6055 142.183 89.7457 143.653 90.5127 145.697C91.2949 147.782 92.8189 148.818 95.0127 149.197C97.514 149.63 99.2063 148.481 101.013 146.697C102.566 145.164 103.528 143.88 103.513 141.697C103.499 139.774 102.947 138.478 101.513 137.197C100.131 135.963 98.8587 135.543 97.0127 135.697C95.5308 135.821 94.6482 136.237 93.5127 137.197C92.4375 138.106 92.0978 138.917 91.5127 140.197Z" fill="white"/>
<path d="M34.5127 133.697C33.0072 132.618 31.3352 133.9 30.0127 135.197C28.5573 136.625 27.1397 138.69 28.5127 140.197C29.6963 141.496 31.4468 140.995 33.0127 140.197C34.3716 139.505 35.2252 138.695 35.5127 137.197C35.7807 135.801 35.668 134.526 34.5127 133.697Z" fill="white"/>
<path d="M25.0126 123.698C25.0126 123.698 17.0126 130.198 14.5126 142.698C12.0126 155.198 14.5126 161.198 14.5126 161.198L20.0127 170.197C20.0127 170.197 22.9173 168.454 26.5127 166.961C26.5127 166.961 22.9205 163.824 21.5127 161.198C19.1898 156.864 19.1407 153.6 19.5127 148.697C19.9799 142.54 20.8602 138.267 25.0126 133.697C28.1886 130.202 30.7961 127.456 35.5127 127.697C38.2288 127.836 42.0127 130.197 42.0127 130.197L44.187 131.697C43.8428 129.304 44.0042 129.203 43.5127 127.697C42.0985 123.364 39.9822 120.093 35.5127 119.197C31.1385 118.32 25.0126 123.698 25.0126 123.698Z" fill="white"/>
<path d="M14.5126 161.198C14.5126 161.198 0.0126953 172.697 0.512639 189.198C1.01258 205.698 3.62558 210.692 10.0126 222.698C16.5184 234.926 22.7823 240.36 33.0126 249.698C46.5738 262.076 56.007 267.155 72.5126 275.198C87.6145 282.556 113.013 289.698 113.013 289.698M14.5126 161.198C14.5126 161.198 12.0126 155.198 14.5126 142.698C17.0126 130.198 25.0126 123.698 25.0126 123.698M14.5126 161.198L20.0127 170.197M113.013 289.698C113.013 289.698 123.351 311.511 135.013 320.698C142.628 326.696 154.013 334.198 157.013 332.198C160.013 330.197 160.013 332.698 158.513 322.198C157.013 311.697 148.013 296.198 148.013 296.198M113.013 289.698L120.013 290.998M148.013 296.198H152.513M148.013 296.198L126.513 292.205M152.513 296.198C152.513 296.198 165.107 311.912 175.513 319.198C186.897 327.169 194.14 334.54 208.013 333.698C212.6 333.419 217.519 335.339 219.513 331.198C221.483 327.105 216.869 324.58 214.513 320.698C209.639 312.668 204.713 309.78 198.013 303.198C194.564 299.809 189.013 294.698 189.013 294.698M152.513 296.198L148.513 289.197V286.197C148.513 286.197 161.479 285.503 169.513 287.197C177.496 288.881 189.013 294.698 189.013 294.698M189.013 294.698L204.013 292.698M204.013 292.698C204.013 292.698 210.846 295.98 215.513 297.198C225.527 299.809 231.708 298.156 242.013 297.198C256.775 295.824 265.106 293.838 279.013 288.698C299.807 281.012 312.748 275.735 327.513 259.198C336.1 249.579 346.013 241.698 345.013 231.198C344.013 220.697 334.013 214.698 334.013 214.698M204.013 292.698C204.013 292.698 220.971 289.486 233.513 285.784M334.013 214.698C334.013 214.698 339.411 209.628 345.013 207.296M334.013 214.698C334.013 214.698 322.792 228.119 312.513 238.4M365.513 154.698C376.098 152.64 389.013 140.198 389.013 140.198C389.013 140.198 403.546 128.64 414.513 124.698C421.11 122.326 426.119 116.901 432.013 120.698C438.448 124.843 434.013 140.198 434.013 140.198C434.013 140.198 425.039 168.452 423.513 187.198C422.117 204.342 427.451 214.106 425.513 231.198C424.662 238.694 428.048 245.67 422.013 250.198C414.499 255.834 399.513 241.698 399.513 241.698C399.513 241.698 382.485 222.603 368.513 214.698C365.047 212.736 362.321 210.503 359.513 208.805M365.513 154.698C356.644 156.422 345.013 155.197 342.513 152.198C340.013 149.198 341.513 150.198 340.013 148.198M365.513 154.698C365.513 154.698 370.596 162.838 372.013 168.697C373.711 175.72 373.594 180.148 372.013 187.198C370.862 192.328 369.738 195.201 367.013 199.697C364.624 203.637 359.513 208.805 359.513 208.805M340.013 148.198C340.013 148.198 340.004 148.185 339.986 148.159M340.013 148.198C340.003 148.185 339.994 148.172 339.986 148.159M340.013 148.198L339.986 148.159M353.513 118.698C350.403 100.879 333.897 98.3927 321.013 85.6975C303.401 68.3444 275.013 42.1975 275.013 42.1975C275.013 42.1975 247.773 17.9334 226.513 9.69751C208.729 2.80824 197.555 -0.353159 178.513 0.697511C158.903 1.77944 147.87 6.51002 130.513 15.6975C114.876 23.9738 94.5126 43.1975 94.5126 43.1975M353.513 118.698L353.537 118.836M353.513 118.698C353.521 118.744 353.529 118.79 353.537 118.836M94.5126 43.1975C94.5126 43.1975 113.858 38.2693 126.513 36.6973C127.364 36.5915 128.197 36.4894 129.013 36.391M94.5126 43.1975C94.5126 43.1975 90.7786 44.9545 85.5127 47.7769M25.0126 123.698C25.0126 123.698 31.1385 118.32 35.5127 119.197C39.9822 120.093 42.0985 123.364 43.5127 127.697C44.0042 129.203 43.8428 129.304 44.187 131.697M25.0126 123.698C25.0126 123.698 27.9809 113.223 31.8491 103.697M20.0127 170.197C20.0127 170.197 22.9173 168.454 26.5127 166.961M20.0127 170.197C16.5127 175.697 13.0127 176.697 13.0127 183.197C13.0127 189.697 13.3885 194.454 16.5127 199.697C20.062 205.654 31.5127 209.197 31.5127 209.197M77.5127 152.697C78.251 146.438 79.1648 142.82 82.0127 137.197C85.4579 130.395 87.7292 125.68 94.5127 122.197C100.632 119.056 105.341 118.524 112.013 120.197C120.088 122.223 124.305 126.513 128.513 133.697C132.909 141.204 133.072 147.062 132.013 155.697C131.125 162.933 129.629 167.18 125.513 173.197C122.004 178.327 119.656 181.593 114.013 184.197C107.62 187.147 102.76 187.209 96.0127 185.197C90.7167 183.618 87.7338 181.783 84.0127 177.697C82.2678 175.781 81.0153 174.041 80.063 172.197M77.5127 152.697C77.5127 152.697 78.9079 147.33 80.5127 144.197C83.043 139.257 84.8236 136.167 89.5127 133.197C93.6368 130.585 96.6344 129.518 101.513 129.697C107.278 129.909 110.861 131.691 115.013 135.697C119.223 139.76 120.538 143.428 121.513 149.197C122.361 154.218 121.928 157.306 120.513 162.197C119.031 167.317 117.887 170.537 114.013 174.197C110.648 177.376 108.018 178.633 103.513 179.697C99.3321 180.685 96.6143 180.974 92.5127 179.697C89.2514 178.682 85.0127 175.197 85.0127 175.197L80.063 172.197M77.5127 152.697L77.4792 152.981M77.5127 152.697C77.5015 152.793 77.4903 152.887 77.4792 152.981M26.5127 166.961C27.6345 166.496 28.8236 166.054 30.0127 165.697C35.0128 164.197 36.6102 162.988 39.5127 159.697C43.1107 155.618 43.4842 152.039 44.5127 146.697C45.3972 142.104 44.7718 135.764 44.187 131.697M26.5127 166.961C26.5127 166.961 22.9205 163.824 21.5127 161.198C19.1898 156.864 19.1407 153.6 19.5127 148.697C19.9799 142.54 20.8602 138.267 25.0126 133.697C28.1886 130.202 30.7961 127.456 35.5127 127.697C38.2288 127.836 42.0127 130.197 42.0127 130.197L44.187 131.697M31.5127 209.197C31.5127 209.197 43.7042 211.308 51.5127 210.697C58.6916 210.135 62.8336 209.388 69.5127 206.697C74.7022 204.606 82.0127 199.697 82.0127 199.697M31.5127 209.197C31.5127 209.197 33.9537 217.093 37.5127 220.697C38.8665 222.068 40.1695 223.213 41.5127 224.141M82.0127 199.697C82.0127 199.697 76.8519 209.001 72.5127 214.197C71.1063 215.881 70.0081 217.357 68.8745 218.697M82.0127 199.697L78.5127 197.197M82.0127 199.697L88.0127 204.697M80.063 172.197C78.865 169.878 78.1423 167.396 77.5127 164.197C76.6639 159.885 76.9726 157.271 77.4792 152.981M41.5127 224.141C44.3716 226.116 47.4126 227.107 51.5127 227.197C56.206 227.301 58.9541 226.056 63.0127 223.697C65.6518 222.163 67.2974 220.562 68.8745 218.697M41.5127 224.141C41.5127 224.141 45.1822 220.667 48.0127 219.197C50.9177 217.689 52.7705 217.147 56.0127 216.697C58.7205 216.322 60.3206 216.223 63.0127 216.697C65.3947 217.117 68.8745 218.697 68.8745 218.697M37.4182 92.1973C43.4769 81.3443 48.7032 74.802 58.5126 65.6975C65.8559 58.882 77.4706 52.0871 85.5127 47.7769M37.4182 92.1973C36.7938 93.3157 36.1606 94.48 35.5126 95.6975C34.2478 98.0742 33.0081 100.843 31.8491 103.697M37.4182 92.1973C37.4182 92.1973 40.8745 88.9193 43.5127 89.1973C45.2496 89.3802 46.4455 89.8148 47.5127 91.1973C48.8306 92.9045 48.0127 96.6973 48.0127 96.6973C48.0127 96.6973 45.8323 94.4843 44.0127 94.1973C41.999 93.8796 40.73 94.5989 39.0127 95.6975C37.2643 96.816 35.5126 99.6973 35.5126 99.6973L31.8491 103.697M113.513 88.1973C115.964 90.0125 117.012 91.542 118.513 94.1973C119.941 96.7243 121.013 101.197 121.013 101.197C121.013 101.197 117.803 97.9811 115.513 96.1973C113.291 94.4667 112.15 93.185 109.513 92.1973C107.288 91.3641 105.886 91.1066 103.513 91.1973C101.099 91.2895 97.5127 92.6973 97.5127 92.6973C97.5127 92.6973 98.4601 89.2319 100.013 87.6973C101.947 85.7854 103.793 85.1954 106.513 85.1973C109.465 85.1993 111.098 86.4092 113.46 88.1582M113.513 88.1973L113.46 88.1582M113.513 88.1973C113.495 88.1842 113.477 88.1712 113.46 88.1582M170.513 144.197C170.513 144.197 168.373 156.958 167.513 165.197C166.235 177.446 168.928 184.732 166.013 196.697C163.446 207.234 161.204 213.293 155.013 222.197C149.101 230.7 144.649 234.981 136.013 240.697C126.064 247.282 107.513 251.697 107.513 251.697M359.513 208.805C356.462 206.96 353.314 205.746 349.013 206.198C347.716 206.334 346.358 206.736 345.013 207.296M322.013 185.697C326.013 189.197 331.16 190.385 337.513 190.697C343.901 191.011 348.486 191.152 353.513 187.198C355.91 185.312 358.008 184.205 358.513 181.197C359.249 176.806 355.155 174.758 351.513 172.197C347.366 169.282 344.062 169.144 339.013 168.697C334.328 168.283 331.417 168.05 327.013 169.697C322.441 171.408 317.465 172.337 317.013 177.197C316.658 181.012 317.999 182.185 321.951 185.643M322.013 185.697L321.951 185.643M322.013 185.697C321.992 185.679 321.972 185.661 321.951 185.643M177.513 203.697C177.513 203.697 178.233 203.316 179.513 202.651M175.513 228.697C175.513 228.697 175.868 228.938 176.513 229.359M85.5127 47.7769C85.5127 47.7769 87.0127 52.1973 93.0127 53.6973C99.0127 55.1973 108.774 53.0371 118.513 55.1973C129.027 57.5294 135.309 59.355 144.013 65.6975C152.178 71.6473 155.744 76.577 161.013 85.1973C167.294 95.4745 168.961 102.426 171.513 114.197C172.56 119.029 173.513 126.697 173.513 126.697C173.513 126.697 175.013 116.197 178.013 115.697C181.013 115.197 183.48 121.259 185.513 125.697C188.538 132.304 186.13 137.063 187.513 144.197C189.463 154.261 190.271 160.388 195.513 169.197C200.364 177.35 212.013 187.028 212.013 187.028M212.013 187.028C220.424 183.407 228.229 180.54 232.513 180.197C233.397 180.127 234.229 180.06 235.013 179.999M212.013 187.028C199.072 192.6 184.698 199.956 179.513 202.651M235.013 179.999C235.013 179.999 222.397 176.677 216.013 171.697C209.76 166.821 206.253 163.138 203.513 155.697C201.142 149.261 199.803 144.691 202.013 138.197C204.824 129.937 210.714 126.393 219.013 123.697C229.83 120.184 236.74 126.048 247.513 129.697C259.257 133.676 276.013 143.697 276.013 143.697C276.013 143.697 293.811 152.836 294.013 163.197C294.147 170.097 291.985 174.993 286.513 179.197C281.441 183.094 276.865 181.953 270.513 182.697C263.01 183.576 251.17 182.697 251.17 182.697M235.013 179.999C244.108 179.292 246.79 179.357 251.17 182.697M251.17 182.697C251.749 183.138 252.357 183.636 253.013 184.197C258.244 188.669 259.442 193.79 259.544 200.197M259.544 200.197C259.562 201.323 259.547 202.489 259.513 203.697C259.28 212.001 255.701 216.339 251.013 223.197C242.902 235.061 235.797 243.619 221.513 245.197C215.061 245.91 211.328 244.696 205.013 243.197C194.327 240.661 180.333 231.851 176.513 229.359M259.544 200.197C259.544 200.197 273.231 201.047 282.013 201.197C296.27 201.441 303.513 198.697 318.513 200.197C333.513 201.697 345.013 207.296 345.013 207.296M176.513 229.359C176.513 229.359 181.557 226.27 183.513 223.197C185.071 220.748 185.739 219.087 186.013 216.197C186.273 213.448 186.071 211.748 185.013 209.197C183.733 206.113 179.513 202.651 179.513 202.651M192.513 205.197C192.513 205.197 208.502 198.079 219.013 194.197C229.034 190.496 245.013 185.697 245.013 185.697M195.513 210.697L246.513 197.697M195.513 217.197C217.274 214.834 229.451 213.65 251.17 211.697M191.013 228.697C206.691 234.396 215.265 236.744 230.013 238.697M129.513 308.697C125.536 301.783 123.471 297.92 120.013 290.998M120.013 290.998L126.513 292.205M142.013 314.697C135.436 306.464 132.026 301.556 126.513 292.205M214.513 329.197C195.871 321.428 186.22 315.764 170.513 303.198M202.013 315.697C187.267 307.692 179.663 302.599 167.013 292.698M250.013 291.197C242.252 291.014 238.818 289.566 233.513 285.784M233.513 285.784C234.727 285.426 235.9 285.063 237.013 284.697C252.628 279.569 261.392 276.108 275.513 267.697C279.494 265.326 282.896 263.146 286.013 260.98M312.513 265.697C301.415 265.709 295.697 264.464 286.013 260.98M286.013 260.98C290.837 257.627 294.975 254.307 299.513 250.36M327.513 252.697C316.54 252.773 310.418 252.095 299.513 250.36M299.513 250.36C302 248.197 304.607 245.846 307.513 243.197C309.116 241.736 310.801 240.112 312.513 238.4M339.013 239.197C328.497 240.137 322.695 239.929 312.513 238.4M423.513 238.4C402.6 226.745 391.855 219.277 374.013 204.697M419.513 217.697C402.282 210.512 393.203 205.684 378.013 195.697M418.513 200.697C403.454 196.439 394.892 193.703 379.513 188.197M419.513 182.697C403.892 182.111 395.134 181.783 379.513 181.197M422.013 165.197C405.44 168.29 396.371 170.178 380.513 173.697M428.513 144.697C408.683 151.968 397.757 156.643 378.513 165.697M432.013 127.197C410.927 139.27 399.237 146.311 378.513 159.197M160.013 11.1973C146.684 20.5004 139.794 25.9717 129.013 36.391M129.013 36.391C138.802 35.2105 146.194 34.57 154.513 34.7299M192.513 7.19727C176.538 16.3111 168.163 22.2766 154.513 34.7299M154.513 34.7299C158.921 34.8147 163.589 35.1242 169.013 35.6973C172.436 36.059 175.568 36.4754 178.513 36.9536M215.513 14.1973C199.103 22.148 190.726 27.0059 178.513 36.9536M178.513 36.9536C191.248 39.0218 200.475 42.2457 214.513 47.1973C216.413 47.8674 218.243 48.5219 220.013 49.1666M238.513 23.6973C223.889 29.229 215.547 33.2061 200.513 41.1973M256.513 34.6973C242.386 38.3462 234.395 41.5772 220.013 49.1666M220.013 49.1666C233.931 54.2357 244.144 58.6982 255.513 65.4016M272.013 46.1973C260.436 47.7153 253.079 49.8264 238.513 55.6973M285.513 60.6973C274.829 60.417 268.002 61.9782 255.513 65.4016M255.513 65.4016C260.058 68.0814 264.787 71.1193 270.013 74.6973C288.383 87.2762 297.511 96.2456 312.513 112.697C314.189 114.535 315.942 116.566 317.718 118.698M334.013 117.197C327.871 117.122 324.28 117.514 317.718 118.698M317.718 118.698C319.986 121.42 322.289 124.308 324.513 127.169M336.513 124.197C329.937 124.726 327.782 125.538 324.513 127.169M324.513 127.169C326.796 130.108 328.995 133.02 330.984 135.697M347.513 134.197C341.478 135.301 337.796 135.564 330.984 135.697M330.984 135.697C335.976 142.419 339.641 147.664 339.986 148.159M330.984 135.697C335.976 142.419 339.64 147.663 339.986 148.159M339.986 148.159C338.673 146.124 351.252 140.347 353.513 132.698C355.049 127.499 354.463 124.141 353.537 118.836M34.5127 133.697C33.0072 132.618 31.3352 133.9 30.0127 135.197C28.5573 136.625 27.1397 138.69 28.5127 140.197C29.6963 141.496 31.4468 140.995 33.0127 140.197C34.3716 139.505 35.2252 138.695 35.5127 137.197C35.7807 135.801 35.668 134.526 34.5127 133.697ZM91.5127 140.197C90.6055 142.183 89.7457 143.653 90.5127 145.697C91.2949 147.782 92.8189 148.818 95.0127 149.197C97.514 149.63 99.2063 148.481 101.013 146.697C102.566 145.164 103.528 143.88 103.513 141.697C103.499 139.774 102.947 138.478 101.513 137.197C100.131 135.963 98.8587 135.543 97.0127 135.697C95.5308 135.821 94.6482 136.237 93.5127 137.197C92.4375 138.106 92.0978 138.917 91.5127 140.197Z" stroke="black"/>
</svg>
