<svg width="464" height="318" viewBox="0 0 464 318" fill="none" xmlns="http://www.w3.org/2000/svg">
<path fill-rule="evenodd" clip-rule="evenodd" d="M404 246.389L408.5 244.389C408.5 244.389 410.024 244.413 411 244.389C415.334 244.281 417.826 244.06 422 242.889C428.138 241.166 431.729 239.618 436.5 235.389C441.121 231.293 443.349 228.177 445.5 222.389C447.088 218.116 445.903 215.159 447.5 210.889C449.473 205.613 455.5 198.889 455.5 198.889L458 192.389C458 192.389 460.877 184.3 461.5 178.889C462.013 174.427 462.459 171.776 461.5 167.389C460.176 161.329 457.629 158.3 453.681 153.604L453.5 153.389C450.297 149.578 444 144.889 444 144.889L433.5 151.389L423 160.389C423 160.389 428.719 166.79 429.5 171.889C430.253 176.81 429.716 180.217 427 184.389C424.37 188.43 417 191.63 417 191.63L412.5 194.889C412.5 194.889 405.185 207.391 397 211.439C396.668 211.604 396.334 211.754 396 211.889C389.11 214.67 384.139 214.949 377 212.889C370.755 211.087 363 203.889 363 203.889C363 203.889 362.471 203.08 361.646 201.889C359.164 198.305 354.001 191.263 352.5 192.389C350.5 193.889 343 194.889 343 194.889L356.5 184.389V187.889C356.5 189.389 369.283 193.478 378 194.889C387.059 196.355 392.393 196.023 401.5 194.889C407.638 194.125 417 191.63 417 191.63C417 191.63 424.37 188.43 427 184.389C429.716 180.217 430.253 176.81 429.5 171.889C428.719 166.79 423 160.389 423 160.389L417.75 156.889L412.5 153.389L410.611 150.389C410.611 150.389 405.727 144.416 404 139.889C401.445 133.189 402.722 121.572 402.722 121.572L402.5 118.389C404.453 113.117 403.132 108.428 407.5 104.889C412.225 101.061 417.116 101.851 423 103.389C428.711 104.882 430.618 108.569 435.5 111.889C430.618 102.126 428.993 96.0121 423 86.8889C417.893 79.1149 414.801 74.734 408 68.3889C405.683 66.227 404.323 65.073 401.812 63.1389C392.593 61.8291 387.306 61.5516 378 61.8889C367.762 62.2599 362.004 63.179 352 65.3889L351.725 65.4497C342.322 67.5266 336.843 68.7368 328 72.7444C318.547 77.0287 313.491 80.2657 305.5 86.8889C298.056 93.059 294.299 97.152 288.5 104.889C282.414 113.009 279.56 118.088 275.5 127.389C271.572 136.388 269.758 141.728 268 151.389C266.319 160.628 266.289 166 266.5 175.389C266.708 184.616 266.016 190.155 269 198.889C271.545 206.337 274.179 210.167 279 216.389C284.415 223.377 288.42 226.595 295.5 231.889C303.414 237.806 308.402 240.534 317.5 244.389C325.405 247.738 330.15 248.895 338.5 250.889C348.117 253.185 353.663 253.896 363.5 254.889C371.283 255.675 383.5 255.985 383.5 255.985L404 246.389ZM328.5 80.8889C331.791 81.9407 335 84.3891 335 86.8889C335 89.3887 325.631 87.0965 320 88.8889C315.007 90.4779 308 94.8889 308 94.8889C308 94.8889 312.59 86.7363 317.5 83.8889C321.352 81.6551 324.259 79.5331 328.5 80.8889ZM401.5 77.8889C400.725 79.2451 400.5 81.8889 401.5 81.8889C402.5 81.8889 405.131 80.7145 407.5 80.8889C409.963 81.0701 411.08 82.3954 413.5 82.8889C415.043 83.2034 417.5 83.3889 417.5 83.3889L411 77.8889C411 77.8889 407.77 75.6269 405.5 75.8889C403.765 76.0891 402.366 76.3725 401.5 77.8889ZM347 175.389C347 175.389 333.153 168.322 323.5 166.889C316.354 165.828 305 166.889 305 166.889L293 168.889L300 165.389C300 165.389 293.805 158.396 292 152.889C289.75 146.024 291 141.389 292 134.389C293 127.389 296.498 123.29 302 118.389C308.742 112.384 314.494 110.529 323.5 109.889C332.948 109.217 339.281 110.399 347 115.889C353.715 120.665 357 125.037 359.5 132.889C361.869 140.331 361.796 145.423 359.5 152.889C357.855 158.237 356.28 161.264 352.5 165.389C349.966 168.154 348.254 169.524 345 171.389L347 175.389Z" fill="#ED7A00"/>
<path d="M127.5 224.889L133 226.889L141 231.612C138.967 228.299 137.544 224.989 136 220.389C133.671 213.45 133.481 209.192 133 201.889C132.666 196.823 132.06 193.878 133 188.889C134.101 183.043 135.665 179.814 139 174.889C141.865 170.657 143.956 168.513 148 165.389C152.218 162.131 154.719 159.611 160 158.889C162.659 158.525 166.28 159.262 168.5 159.827C169.707 160.133 170.5 160.389 170.5 160.389V151.389V123.889C170.5 114.516 168.722 109.091 170.5 99.8889C171.507 94.6736 174.5 86.8889 174.5 86.8889C174.5 86.8889 168.241 78.4172 162.5 75.3889C159.915 74.0255 155.5 72.7444 155.5 72.7444C155.5 72.7444 138.139 74.3883 128.5 79.3889C125.637 80.8741 123.196 82.2307 121 83.6821C116.862 86.4166 113.591 89.4876 110 94.3889C107.473 97.8382 105.27 100.767 103.736 103.889C102.161 107.094 101.291 110.503 101.5 114.889C101.653 118.094 102.557 120.456 103.736 122.726C105.035 125.226 106.669 127.613 108 130.889C112.921 132.473 115.842 133.034 121 133.389C123.922 133.59 128.5 133.389 128.5 133.389L122.5 138.189C122.5 138.189 121.809 147.493 122.5 153.389C123.371 160.822 126.343 164.495 127.5 171.889C128.529 178.459 128.291 182.242 128.5 188.889C128.739 196.5 128.5 208.389 128.5 208.389L127.5 224.889Z" fill="#ED7A00"/>
<path d="M216.5 57.6966L236.5 50.3889L256.5 45.3889C243.814 36.1527 236.31 31.9206 222.5 25.3887L210.5 31.8887L204 42.8887L206 50.3889L216.5 57.6966Z" fill="#ED7A00"/>
<path d="M258 9.38867L249.5 10.8887L243.875 13.8889C257.936 21.8295 265.67 27.2137 279 39.7639L284.5 38.3889L301 36.4923C291.056 23.4231 284.719 17.4796 272 9.38867H258Z" fill="#ED7A00"/>
<path d="M229 268.389L244 270.889L266.5 273.389L271.5 274.389L260.5 278.889L252.5 282.556C252.5 282.556 250.342 288.165 250.5 291.889C250.561 293.334 250.668 294.657 250.884 295.889C251.388 298.761 252.488 301.133 255 303.389C257.671 305.787 263.5 306.889 263.5 306.889C263.5 306.889 269.217 309.143 273 308.889C277.242 308.603 283.125 304.889 283.125 304.889L285.5 302.389C285.5 302.389 293.409 293.195 297 286.389C299.369 281.899 302 274.389 302 274.389H308.5L307 286.389L306 296.889V299.389C306 299.389 311.501 300.9 315 300.389C319.58 299.72 321.614 297.404 325.5 294.889C330.39 291.723 337 285.389 337 285.389H338.15C338.15 285.389 338.182 281.347 337.5 278.889C336.541 275.435 333 270.889 333 270.889L345 268.389C345 268.389 328.109 268.165 317.5 266.308C307.943 264.635 302.601 263.251 293.5 259.889C283.506 256.197 277.965 253.645 269 247.889C258.164 240.932 251.357 236.957 244 226.389C238.053 217.846 236.427 211.878 233.5 201.889C230.005 189.964 229.149 182.814 229 170.389C228.865 159.198 232 141.889 232 141.889C232 141.889 235.666 126.035 239.5 116.389C243.048 107.462 245.356 102.501 250.5 94.3889C256.321 85.2088 259.973 80.0735 268 72.7444C274.379 66.9201 278.717 64.5331 286 59.8889C292.269 55.8913 295.78 53.5709 302.5 50.3889C310.929 46.3979 325 42.3889 325 42.3889L349 37.1389C345.876 36.4554 344.14 35.9969 341 35.3889C335.957 34.4122 328 33.3889 328 33.3889L324 33.8486L301 36.4923L284.5 38.3889L279 39.7639L256.5 45.3889L236.5 50.3889L216.5 57.6966C216.5 57.6966 211.004 63.492 208.5 67.8889C204.385 75.1138 202.89 80.0753 202.75 88.3889C202.578 98.6089 206.628 103.929 210.5 113.389C213.808 121.47 218.184 124.969 220.5 133.389C222.376 140.208 222.826 144.324 222.5 151.389C221.996 162.309 214.5 178.214 214.5 178.214L209.5 175.744L185.5 163.889C185.5 163.889 175.732 166.73 170.5 170.389C169.41 171.151 168.416 171.884 167.5 172.613C163.367 175.898 160.8 179.083 158 184.389C157.06 186.169 156.286 187.784 155.662 189.346C154.096 193.26 153.464 196.846 153.5 201.889C153.533 206.54 154.299 209.813 155.662 213.389C156.311 215.093 157.095 216.866 158 218.889C160.409 224.276 162.168 227.683 165.777 231.612C166.309 232.19 166.88 232.78 167.5 233.389C172.136 237.945 175.75 239.358 181.5 242.389C182.87 243.111 184.207 243.535 185.5 243.872C188.659 244.696 191.551 245.003 194 247.889C194.911 248.962 196 250.889 196 250.889L219.5 237.889L229 268.389Z" fill="#ED7A00"/>
<path d="M277.5 8.38886L274 9.38867H272C284.719 17.4796 291.056 23.4231 301 36.4923L324 33.8486L311.5 22.8887L298.5 14.8887L287 10.8887L277.5 8.38886Z" fill="#ED7A00"/>
<path d="M19.4194 188.889C19.7459 195.104 21.0847 200.276 23.5 207.389C23.8544 208.433 24.2008 209.43 24.5449 210.389C56.125 206.877 72.9359 203.899 101.912 197.389C101.968 194.198 101.796 191.074 101.377 187.389C71.321 189.68 53.593 190.205 19.4194 188.889Z" fill="#ED7A00"/>
<path d="M21.3009 167.889C20.3279 171.767 19.8053 175.912 19.5 180.889C19.3191 183.838 19.2909 186.444 19.4194 188.889C53.593 190.205 71.321 189.68 101.377 187.389C101.268 186.43 101.143 185.434 101 184.389C100.59 181.382 100.067 178.793 99.4495 176.389C69.24 174.517 52.0885 172.476 21.3009 167.889Z" fill="#ED7A00"/>
<path d="M29.779 149.889C29.3603 150.532 28.9352 151.198 28.5 151.889C24.8382 157.704 22.6418 162.543 21.3009 167.889C52.0885 172.476 69.24 174.517 99.4495 176.389C98.6862 173.419 97.7766 170.731 96.7504 167.889C71.1359 160.319 56.4232 156.43 29.779 149.889Z" fill="#ED7A00"/>
<path d="M93.5 158.889C93.2236 158.088 92.926 157.25 92.6129 156.389C73.4445 146.58 62.5708 142.355 43.0711 135.889C37.1189 139.786 33.7357 143.812 29.779 149.889C56.4232 156.43 71.1359 160.319 96.7504 167.889C95.7656 165.161 94.6733 162.29 93.5 158.889Z" fill="#ED7A00"/>
<path d="M68 129.389L63.5 128.437C63.5 128.437 51.8922 130.653 45.5 134.389C44.6435 134.889 43.8361 135.388 43.0711 135.889C62.5708 142.355 73.4445 146.58 92.6129 156.389C89.3593 147.434 84.4412 135.889 84.4412 135.889L68 129.389Z" fill="#ED7A00"/>
<path d="M101.912 197.389C72.9359 203.899 56.125 206.877 24.5449 210.389C27.3143 218.102 29.9417 223.294 35.5 229.749C63.632 220.969 78.274 215.313 101.563 203.389C101.76 201.272 101.877 199.318 101.912 197.389Z" fill="#ED7A00"/>
<path d="M35.5 229.749C35.8232 230.125 36.1564 230.504 36.5 230.889C40.7484 235.644 44.0755 239.063 48.5 241.798C70.4325 233.623 81.5686 227.746 99.3789 215.389C100.053 213.3 100.658 211.062 101 208.389C101.229 206.596 101.418 204.948 101.563 203.389C78.274 215.313 63.632 220.969 35.5 229.749Z" fill="#ED7A00"/>
<path d="M74 248.014C74 248.014 77.6981 246.504 80 245.389C86.648 242.17 96 235.302 96 235.302C96 235.302 95.861 231.389 96 228.889C96.3078 223.352 97.9915 219.686 99.3789 215.389C81.5686 227.746 70.4325 233.623 48.5 241.798C50.6601 243.133 53.0818 244.304 56 245.389C62.6588 247.864 74 248.014 74 248.014Z" fill="#ED7A00"/>
<path d="M158 249.389C152.454 245.751 149.647 243.066 145.5 237.889C143.672 235.607 142.225 233.609 141 231.612L133 226.889C133 226.889 131.385 228.223 129.554 229.889L128.5 233.389C128.5 233.389 128.81 240.655 130.5 244.889C132.92 250.95 135.777 253.976 141 257.889C146.398 261.932 149.19 263.412 157 264.389L177 266.889C184.81 267.865 190.5 256.044 190.5 256.044C188.344 255.249 185.5 255.389 185.5 255.389H181.5C181.5 255.389 174.712 256.232 170.5 255.389C165.191 254.326 162.528 252.359 158 249.389Z" fill="#ED7A00"/>
<path d="M375.5 259.007L380.5 257.389L383.5 255.985C383.5 255.985 371.283 255.675 363.5 254.889C353.663 253.896 348.117 253.185 338.5 250.889C330.15 248.895 325.405 247.738 317.5 244.389C308.402 240.534 303.414 237.806 295.5 231.889C288.42 226.595 284.415 223.377 279 216.389C274.179 210.167 271.545 206.337 269 198.889C266.016 190.155 266.708 184.616 266.5 175.389C266.289 166 266.319 160.628 268 151.389C269.758 141.728 271.572 136.388 275.5 127.389C279.56 118.088 282.414 113.009 288.5 104.889C294.299 97.152 298.056 93.059 305.5 86.8889C313.491 80.2657 318.547 77.0287 328 72.7444C336.843 68.7368 342.322 67.5266 351.725 65.4497L352 65.3889C362.004 63.179 367.762 62.2599 378 61.8889C387.306 61.5516 392.593 61.8291 401.812 63.1389L395.625 57.8889C395.625 57.8889 383.036 57.3491 375 57.8889C364.75 58.5773 359 59.5342 349 61.8889C339.022 64.2384 333.398 65.7947 324 69.8889C313.009 74.6773 306.553 77.529 297.5 85.3889C288.796 92.9458 285.23 98.6901 279 108.389C273.195 117.426 270.138 122.783 266.5 132.889C262.841 143.052 261.653 149.149 260.5 159.889C259.395 170.179 258.86 176.171 260.5 186.389C262.478 198.71 264.684 205.936 271.5 216.389C276.932 224.719 281.314 228.578 289 234.889C296.998 241.456 302.063 244.64 311.5 248.889C323.807 254.43 331.644 255.443 345 257.389C356.803 259.109 375.5 259.007 375.5 259.007Z" fill="#492600"/>
<path d="M362 40.8333C360.098 39.9553 358.996 39.5267 357 38.8889C353.954 37.9152 352.175 37.526 349 37.1389L325 42.3889C325 42.3889 310.929 46.3979 302.5 50.3889C295.78 53.5709 292.269 55.8913 286 59.8889C278.717 64.5331 274.379 66.9201 268 72.7444C259.973 80.0735 256.321 85.2088 250.5 94.3889C245.356 102.501 243.048 107.462 239.5 116.389C235.666 126.035 232 141.889 232 141.889C232 141.889 228.865 159.198 229 170.389C229.149 182.814 230.005 189.964 233.5 201.889C236.427 211.878 238.053 217.846 244 226.389C251.357 236.957 258.164 240.932 269 247.889C277.965 253.645 283.506 256.197 293.5 259.889C302.601 263.251 307.943 264.635 317.5 266.308C328.109 268.165 345 268.389 345 268.389L352 266.308C352 266.308 330.726 265.783 317.5 262.889C305.436 260.249 298.699 258.094 287.5 252.889C276.294 247.68 269.478 244.88 260.5 236.389C250.348 226.787 246.357 219.294 241 206.389C235.494 193.125 233.846 184.745 233.5 170.389C233.147 155.755 235.008 147.321 239.5 133.389C243.627 120.589 247.182 113.672 254.5 102.389C263.306 88.8114 269.43 81.5811 282 71.3889C291.807 63.4371 298.049 59.7075 309.5 54.3889C320.868 49.1086 327.779 47.1778 340 44.3889C348.485 42.4525 353.337 41.6683 362 40.8333Z" fill="#492600"/>
<path d="M210.5 59.8889L202.75 65.8889C202.75 65.8889 198.182 79.4102 198 88.3889C197.798 98.3246 199.18 104.115 202.75 113.389C206.005 121.843 211.869 124.721 214.5 133.389C216.554 140.157 216.862 144.325 216.5 151.389C216.013 160.898 210 174.889 210 174.889L209.5 175.744L214.5 178.214C214.5 178.214 221.996 162.309 222.5 151.389C222.826 144.324 222.376 140.208 220.5 133.389C218.184 124.969 213.808 121.47 210.5 113.389C206.628 103.929 202.578 98.6089 202.75 88.3889C202.89 80.0753 204.385 75.1138 208.5 67.8889C211.004 63.492 216.5 57.6966 216.5 57.6966L210.5 59.8889Z" fill="#492600"/>
<path d="M174.5 86.8889C174.5 86.8889 171.507 94.6736 170.5 99.8889C168.722 109.091 170.5 114.516 170.5 123.889V151.389V160.389L178 162.139L177.5 117.889C177.5 117.889 176.828 105.974 177.5 98.3889C178.042 92.2721 180 82.8645 180 82.8645L174.5 86.8889Z" fill="#492600"/>
<path d="M181.5 255.389H185.5L196 250.889C196 250.889 194.911 248.962 194 247.889C191.551 245.003 188.659 244.696 185.5 243.872C184.207 243.535 182.87 243.111 181.5 242.389C175.75 239.358 172.136 237.945 167.5 233.389C166.88 232.78 166.309 232.19 165.777 231.612C162.168 227.683 160.409 224.276 158 218.889C157.095 216.866 156.311 215.093 155.662 213.389C154.299 209.813 153.533 206.54 153.5 201.889C153.464 196.846 154.096 193.26 155.662 189.346C156.286 187.784 157.06 186.169 158 184.389C160.8 179.083 163.367 175.898 167.5 172.613C168.416 171.884 169.41 171.151 170.5 170.389C175.732 166.73 185.5 163.889 185.5 163.889L178 162.139L170.5 160.389C170.5 160.389 169.707 160.133 168.5 159.827L167.5 160.389C167.5 160.389 159.317 164.862 155 168.889C148.188 175.243 144.683 179.968 142 188.889C139.244 198.051 139.881 204.059 142 213.389C143.897 221.741 145.73 226.638 151 233.389C155.692 239.399 166 245.889 166 245.889L181.5 255.389Z" fill="#492600"/>
<path d="M126 233.389C123.104 236.616 120.936 238.298 119.5 242.389C118.393 245.542 117.95 247.592 118.5 250.889C119.162 254.855 120.995 256.744 123.5 259.889C126.786 264.016 129.421 265.768 134 268.389C138.186 270.784 140.883 271.495 145.5 272.889C151.402 274.671 154.866 275.27 161 275.889C167.8 276.575 171.729 276.818 178.5 275.889C185.542 274.922 189.548 273.87 196 270.889C200.773 268.684 207.5 263.889 207.5 263.889C207.5 263.889 197.643 264.008 194 259.889C193.067 258.834 193.056 257.82 192 256.889C191.592 256.529 191.07 256.254 190.5 256.044C190.5 256.044 184.81 267.865 177 266.889L157 264.389C149.19 263.412 146.398 261.932 141 257.889C135.777 253.976 132.92 250.95 130.5 244.889C128.81 240.655 128.5 233.389 128.5 233.389L129.554 229.889C128.326 231.007 127 232.274 126 233.389Z" fill="#492600"/>
<path d="M248.5 284.389C244.716 286.686 242.427 288.698 241 292.889C239.804 296.401 240.111 298.787 241 302.389C242.091 306.81 243.604 309.354 247 312.389C251.192 316.135 254.883 317.149 260.5 317.389C266.854 317.66 270.817 316.076 276 312.389C279.292 310.047 283.125 304.889 283.125 304.889C283.125 304.889 277.242 308.603 273 308.889C269.217 309.143 263.5 306.889 263.5 306.889C263.5 306.889 257.671 305.787 255 303.389C252.488 301.133 251.388 298.761 250.884 295.889C250.668 294.657 250.561 293.334 250.5 291.889C250.342 288.165 252.5 282.556 252.5 282.556C252.5 282.556 249.969 283.497 248.5 284.389Z" fill="#492600"/>
<path d="M306 304.889C306.834 306.935 307.993 307.966 310 308.889C313.445 310.472 319.5 306.889 319.5 306.889C319.5 306.889 328.658 301.808 333 296.889C335.509 294.046 338.191 292.668 338.5 288.889C338.612 287.52 338.15 285.389 338.15 285.389H337C337 285.389 330.39 291.723 325.5 294.889C321.614 297.404 319.58 299.72 315 300.389C311.501 300.9 306 299.389 306 299.389C306 299.389 305.19 302.9 306 304.889Z" fill="#492600"/>
<path d="M408.5 244.389C408.5 244.389 413.469 247.609 417 248.889C420.564 250.181 422.79 250.108 426.5 250.889C431.721 248.372 434.528 246.576 439 242.889C444.118 238.669 447.079 236.072 450.5 230.389C454.609 223.562 456.039 218.843 456.5 210.889C456.772 206.194 455.5 198.889 455.5 198.889C455.5 198.889 449.473 205.613 447.5 210.889C445.903 215.159 447.088 218.116 445.5 222.389C443.349 228.177 441.121 231.293 436.5 235.389C431.729 239.618 428.138 241.166 422 242.889C417.826 244.06 415.334 244.281 411 244.389C410.024 244.413 408.5 244.389 408.5 244.389Z" fill="#ED7A00"/>
<path d="M426.5 250.889C432.163 249.132 435.815 249.264 441 246.389C448.003 242.505 451.166 238.623 455.5 231.889C459.582 225.547 461.564 221.373 462.5 213.889C463.229 208.063 463.536 204.395 461.5 198.889C460.5 196.185 458 192.389 458 192.389L455.5 198.889C455.5 198.889 456.772 206.194 456.5 210.889C456.039 218.843 454.609 223.562 450.5 230.389C447.079 236.072 444.118 238.669 439 242.889C434.528 246.576 431.721 248.372 426.5 250.889Z" fill="#492600"/>
<path d="M51.5 254.389C51.5 254.389 53 255.889 56 255.889C59 255.889 74 248.014 74 248.014C74 248.014 62.6588 247.864 56 245.389C53.0818 244.304 50.6601 243.133 48.5 241.798C44.0755 239.063 40.7484 235.644 36.5 230.889C36.1564 230.504 35.8232 230.125 35.5 229.749C29.9417 223.294 27.3143 218.102 24.5449 210.389C24.2008 209.43 23.8544 208.433 23.5 207.389C21.0847 200.276 19.7459 195.104 19.4194 188.889C19.2909 186.444 19.3191 183.838 19.5 180.889C19.8053 175.912 20.3279 171.767 21.3009 167.889C22.6418 162.543 24.8382 157.704 28.5 151.889C28.9352 151.198 29.3603 150.532 29.779 149.889C33.7357 143.812 37.1189 139.786 43.0711 135.889C43.8361 135.388 44.6435 134.889 45.5 134.389C51.8922 130.653 63.5 128.437 63.5 128.437L42 123.889C42 123.889 31.4178 128.546 26 133.389C20.0598 138.699 17.5157 142.739 14 149.889C9.98734 158.05 9.24662 163.381 8 172.389C6.60811 182.447 6.13653 188.408 8 198.389C10.0097 209.153 18.5 224.389 18.5 224.389C18.5 224.389 25.629 238.165 33 244.389C39.2749 249.687 51.5 254.389 51.5 254.389Z" fill="#492600"/>
<path d="M89.5 137.889L84.4412 135.889C84.4412 135.889 89.3593 147.434 92.6129 156.389C92.926 157.25 93.2236 158.088 93.5 158.889C94.6733 162.29 95.7656 165.161 96.7504 167.889C97.7766 170.731 98.6862 173.419 99.4495 176.389C100.067 178.793 100.59 181.382 101 184.389C101.143 185.434 101.268 186.43 101.377 187.389C101.796 191.074 101.968 194.198 101.912 197.389C101.877 199.318 101.76 201.272 101.563 203.389C101.418 204.948 101.229 206.596 101 208.389C100.658 211.062 100.053 213.3 99.3789 215.389C97.9915 219.686 96.3078 223.352 96 228.889C95.861 231.389 96 235.302 96 235.302L101 232.15C101 232.15 104.319 220.83 105.5 213.389C106.849 204.884 107.445 199.989 107 191.389C106.538 182.476 105.305 177.511 103 168.889C101.134 161.909 99.9899 157.966 97 151.389C94.5041 145.899 89.5 137.889 89.5 137.889Z" fill="#492600"/>
<path d="M122.5 223.889L127.5 224.889L128.5 208.389C128.5 208.389 128.739 196.5 128.5 188.889C128.291 182.242 128.529 178.459 127.5 171.889C126.343 164.495 123.371 160.822 122.5 153.389C121.809 147.493 122.5 138.189 122.5 138.189L121 139.389L116.5 140.6C116.5 140.6 117.431 150.57 118.5 156.889C119.701 163.989 121.424 167.769 122.5 174.889C123.583 182.056 123.715 186.146 124 193.389C124.268 200.218 124.449 204.069 124 210.889C123.664 215.988 122.5 223.889 122.5 223.889Z" fill="#492600"/>
<path d="M140 66.8889C135.558 66.2282 132.96 66.3589 128.5 66.8889C117.73 68.1687 111.388 71.0141 103 77.8889C94.8715 84.5509 89.7634 89.6257 87.5 99.8889C86.2384 105.609 85.1925 109.505 87.5 114.889C89.3524 119.211 91.8789 120.889 95.5 123.889C99.8082 127.458 103.118 128.155 108 130.889C106.669 127.613 105.035 125.226 103.736 122.726C102.557 120.456 101.653 118.094 101.5 114.889C101.291 110.503 102.161 107.094 103.736 103.889C105.27 100.767 107.473 97.8382 110 94.3889C113.591 89.4876 116.862 86.4166 121 83.6821C123.196 82.2307 125.637 80.8741 128.5 79.3889C138.139 74.3883 155.5 72.7444 155.5 72.7444C155.5 72.7444 146.4 67.8407 140 66.8889Z" fill="#492600"/>
<path d="M229 18.3887L222.5 25.3887C236.31 31.9206 243.814 36.1527 256.5 45.3889L279 39.7639C265.67 27.2137 257.936 21.8295 243.875 13.8889L242 14.8887L229 18.3887Z" fill="#ED7A00"/>
<path d="M328 33.3889C328 33.3889 318.453 24.1915 311.5 19.3889C296.88 9.29046 274 -1.61143 269.5 1.88886L266.5 4.88886C266.5 4.88886 248.7 -3.47451 241 2.88886C238.861 4.65678 238.57 6.54014 236.5 8.38886C230.739 13.5347 222.35 7.87649 217.5 13.8889C215.471 16.4046 216.016 18.8623 214 21.3889C209.794 26.6609 201.791 22.3108 198 27.8889C194.159 33.5412 195.727 38.9438 198 45.3889C200.487 52.4395 210.5 59.8889 210.5 59.8889L216.5 57.6966L206 50.3889L204 42.8887L210.5 31.8887L222.5 25.3887L229 18.3887L242 14.8887L243.875 13.8889L249.5 10.8887L258 9.38867H272H274L277.5 8.38886L287 10.8887L298.5 14.8887L311.5 22.8887L324 33.8486L328 33.3889Z" fill="#492600"/>
<path d="M343 194.889C343 194.889 350.5 193.889 352.5 192.389C354.001 191.263 359.164 198.305 361.646 201.889L370.5 200.389L382.5 201.889L391.5 206.389L397 211.439C405.185 207.391 412.5 194.889 412.5 194.889L417 191.63C417 191.63 407.638 194.125 401.5 194.889C392.393 196.023 387.059 196.355 378 194.889C369.283 193.478 356.5 189.389 356.5 187.889V184.389L343 194.889Z" fill="#742222"/>
<path d="M377 212.889C384.139 214.949 389.11 214.67 396 211.889C396.334 211.754 396.668 211.604 397 211.439L391.5 206.389L382.5 201.889L370.5 200.389L361.646 201.889C362.471 203.08 363 203.889 363 203.889C363 203.889 370.755 211.087 377 212.889Z" fill="#C95943"/>
<path d="M401.5 81.8889C400.5 81.8889 400.725 79.2451 401.5 77.8889C402.366 76.3725 403.765 76.0891 405.5 75.8889C407.77 75.6269 411 77.8889 411 77.8889L417.5 83.3889C417.5 83.3889 415.043 83.2034 413.5 82.8889C411.08 82.3954 409.963 81.0701 407.5 80.8889C405.131 80.7145 402.5 81.8889 401.5 81.8889Z" fill="#7A3F00"/>
<path d="M335 86.8889C335 84.3891 331.791 81.9407 328.5 80.8889C324.259 79.5331 321.352 81.6551 317.5 83.8889C312.59 86.7363 308 94.8889 308 94.8889C308 94.8889 315.007 90.4779 320 88.8889C325.631 87.0965 335 89.3887 335 86.8889Z" fill="#7A3F00"/>
<path d="M320 130.389C314.718 132.467 310.859 134.526 309 139.889C307.785 143.394 307.834 145.867 309 149.389C310.142 152.837 314.5 156.889 314.5 156.889C314.5 156.889 320.931 160.765 325.5 160.889C330.438 161.022 333.738 160.09 337.5 156.889C340.637 154.219 341.943 151.87 343 147.889C343.952 144.303 344.298 141.864 343 138.389C342.496 137.039 341.25 135.139 341.25 135.139C341.25 135.139 337.751 138.339 335 138.389C331.48 138.453 327.5 133.389 327.5 133.389L327 128.889C324.207 129.021 322.602 129.365 320 130.389Z" fill="#1D1D1D"/>
<path d="M404 139.889C405.727 144.416 410.611 150.389 410.611 150.389C410.611 150.389 415.792 150.053 418.5 148.389C421.333 146.648 422.765 144.976 424 141.889C425.235 138.802 424.5 133.389 424.5 133.389C424.5 133.389 424.393 125.832 424 125.389C423.607 124.946 423.607 124.946 423.607 124.946C423.607 124.946 423.152 128.41 421.5 129.389C419.422 130.62 417.347 129.445 415.5 127.889C413.696 126.369 412.127 124.581 413 122.389C413.501 121.132 415.5 119.989 415.5 119.989L412.5 119.389L402.722 121.572C402.722 121.572 401.445 133.189 404 139.889Z" fill="#2F2F2F"/>
<path d="M323.5 166.889C333.153 168.322 347 175.389 347 175.389L345 171.389C341.485 169.632 339.832 167.757 336 166.889C335.226 166.714 334 166.536 334 166.536L327.5 165.389L314.5 164.389L312.5 164.527L300 165.389L293 168.889L305 166.889C305 166.889 316.354 165.828 323.5 166.889Z" fill="#A25400"/>
<path fill-rule="evenodd" clip-rule="evenodd" d="M314.5 164.389L327.5 165.389L334 166.536C334 166.536 341.431 164.142 345 160.889C348.442 157.751 350.145 155.345 351.5 150.889C352.92 146.218 352.842 143.082 351.5 138.389C349.847 132.605 347.33 129.474 342.5 125.889C337.542 122.209 333.67 121.133 327.5 120.889C320.826 120.624 316.655 121.836 311 125.389C306.205 128.401 303.15 130.65 301 135.889C299.215 140.239 300 147.889 300 147.889C300 147.889 301.93 155.306 305 158.889C307.384 161.671 309.571 162.325 312.5 164.527L314.5 164.389ZM309 139.889C310.859 134.526 314.718 132.467 320 130.389C322.602 129.365 324.207 129.021 327 128.889C329.734 128.303 331.284 127.727 334 128.389C336.696 129.046 337.905 129.904 339.5 131.889C340.403 133.013 341.25 135.139 341.25 135.139C341.25 135.139 342.496 137.039 343 138.389C344.298 141.864 343.952 144.303 343 147.889C341.943 151.87 340.637 154.219 337.5 156.889C333.738 160.09 330.438 161.022 325.5 160.889C320.931 160.765 314.5 156.889 314.5 156.889C314.5 156.889 310.142 152.837 309 149.389C307.834 145.867 307.785 143.394 309 139.889Z" fill="#65B5FF"/>
<path d="M410.5 114.389C407.046 114.907 405.624 116.827 402.5 118.389L402.722 121.572L412.5 119.389L415.5 119.989C415.5 119.989 418.421 120.041 420 120.889C421.868 121.892 423.607 124.946 423.607 124.946L424 125.389C424.393 125.832 424.5 133.389 424.5 133.389C424.5 133.389 425.235 138.802 424 141.889C422.765 144.976 421.333 146.648 418.5 148.389C415.792 150.053 410.611 150.389 410.611 150.389L412.5 153.389L417.75 156.889L418 156.389C418 156.389 425.039 153.125 428 149.389C430.883 145.752 431.968 143 432.5 138.389C433.045 133.669 432.607 130.647 430.5 126.389C428.174 121.686 425.657 119.306 421 116.889C417.259 114.947 414.668 113.763 410.5 114.389Z" fill="#65B5FF"/>
<path d="M391.5 54.3889C385.74 49.9886 381.631 48.817 375 45.8889C370.017 43.6884 367.16 42.5774 362 40.8333C353.337 41.6683 348.485 42.4525 340 44.3889C327.779 47.1778 320.868 49.1086 309.5 54.3889C298.049 59.7075 291.807 63.4371 282 71.3889C269.43 81.5811 263.306 88.8114 254.5 102.389C247.182 113.672 243.627 120.589 239.5 133.389C235.008 147.321 233.147 155.755 233.5 170.389C233.846 184.745 235.494 193.125 241 206.389C246.357 219.294 250.348 226.787 260.5 236.389C269.478 244.88 276.294 247.68 287.5 252.889C298.699 258.094 305.436 260.249 317.5 262.889C330.726 265.783 352 266.308 352 266.308L363.5 262.889L375.5 259.007C375.5 259.007 356.803 259.109 345 257.389C331.644 255.443 323.807 254.43 311.5 248.889C302.063 244.64 296.998 241.456 289 234.889C281.314 228.578 276.932 224.719 271.5 216.389C264.684 205.936 262.478 198.71 260.5 186.389C258.86 176.171 259.395 170.179 260.5 159.889C261.653 149.149 262.841 143.052 266.5 132.889C270.138 122.783 273.195 117.426 279 108.389C285.23 98.6901 288.796 92.9458 297.5 85.3889C306.553 77.529 313.009 74.6773 324 69.8889C333.398 65.7947 339.022 64.2384 349 61.8889C359 59.5342 364.75 58.5773 375 57.8889C383.036 57.3491 395.625 57.8889 395.625 57.8889C395.625 57.8889 393.179 55.6714 391.5 54.3889Z" fill="white"/>
<path d="M292 152.889C293.805 158.396 300 165.389 300 165.389L312.5 164.527C309.571 162.325 307.384 161.671 305 158.889C301.93 155.306 300 147.889 300 147.889C300 147.889 299.215 140.239 301 135.889C303.15 130.65 306.205 128.401 311 125.389C316.655 121.836 320.826 120.624 327.5 120.889C333.67 121.133 337.542 122.209 342.5 125.889C347.33 129.474 349.847 132.605 351.5 138.389C352.842 143.082 352.92 146.218 351.5 150.889C350.145 155.345 348.442 157.751 345 160.889C341.431 164.142 334 166.536 334 166.536C334 166.536 335.226 166.714 336 166.889C339.832 167.757 341.485 169.632 345 171.389C348.254 169.524 349.966 168.154 352.5 165.389C356.28 161.264 357.855 158.237 359.5 152.889C361.796 145.423 361.869 140.331 359.5 132.889C357 125.037 353.715 120.665 347 115.889C339.281 110.399 332.948 109.217 323.5 109.889C314.494 110.529 308.742 112.384 302 118.389C296.498 123.29 293 127.389 292 134.389C291 141.389 289.75 146.024 292 152.889Z" fill="white"/>
<path d="M339.5 131.889C337.905 129.904 336.696 129.046 334 128.389C331.284 127.727 329.734 128.303 327 128.889L327.5 133.389C327.5 133.389 331.48 138.453 335 138.389C337.751 138.339 341.25 135.139 341.25 135.139C341.25 135.139 340.403 133.013 339.5 131.889Z" fill="white"/>
<path d="M420 120.889C418.421 120.041 415.5 119.989 415.5 119.989C415.5 119.989 413.501 121.132 413 122.389C412.127 124.581 413.696 126.369 415.5 127.889C417.347 129.445 419.422 130.62 421.5 129.389C423.152 128.41 423.607 124.946 423.607 124.946C423.607 124.946 421.868 121.892 420 120.889Z" fill="white"/>
<path d="M444 144.889C444 144.889 443.76 134.038 442 127.389C440.32 121.044 438.849 117.534 435.5 111.889C430.618 108.569 428.711 104.882 423 103.389C417.116 101.851 412.225 101.061 407.5 104.889C403.132 108.428 404.453 113.117 402.5 118.389C405.624 116.827 407.046 114.907 410.5 114.389C414.668 113.763 417.259 114.947 421 116.889C425.657 119.306 428.174 121.686 430.5 126.389C432.607 130.647 433.045 133.669 432.5 138.389C431.968 143 430.883 145.752 428 149.389C425.039 153.125 418 156.389 418 156.389L417.75 156.889L423 160.389L433.5 151.389L444 144.889Z" fill="white"/>
<path d="M195 71.8889L180 82.8645C180 82.8645 178.042 92.2721 177.5 98.3889C176.828 105.974 177.5 117.889 177.5 117.889L178 162.139L185.5 163.889L209.5 175.744L210 174.889C210 174.889 216.013 160.898 216.5 151.389C216.862 144.325 216.554 140.157 214.5 133.389C211.869 124.721 206.005 121.843 202.75 113.389C199.18 104.115 197.798 98.3246 198 88.3889C198.182 79.4102 202.75 65.8889 202.75 65.8889L195 71.8889Z" fill="white"/>
<path d="M160 158.889C154.719 159.611 152.218 162.131 148 165.389C143.956 168.513 141.865 170.657 139 174.889C135.665 179.814 134.101 183.043 133 188.889C132.06 193.878 132.666 196.823 133 201.889C133.481 209.192 133.671 213.45 136 220.389C137.544 224.989 138.967 228.299 141 231.612C142.225 233.609 143.672 235.607 145.5 237.889C149.647 243.066 152.454 245.751 158 249.389C162.528 252.359 165.191 254.326 170.5 255.389C174.712 256.232 181.5 255.389 181.5 255.389L166 245.889C166 245.889 155.692 239.399 151 233.389C145.73 226.638 143.897 221.741 142 213.389C139.881 204.059 139.244 198.051 142 188.889C144.683 179.968 148.188 175.243 155 168.889C159.317 164.862 167.5 160.389 167.5 160.389L168.5 159.827C166.28 159.262 162.659 158.525 160 158.889Z" fill="white"/>
<path d="M103 230.889L122.5 223.889C122.5 223.889 123.664 215.988 124 210.889C124.449 204.069 124.268 200.218 124 193.389C123.715 186.146 123.583 182.056 122.5 174.889C121.424 167.769 119.701 163.989 118.5 156.889C117.431 150.57 116.5 140.6 116.5 140.6C116.5 140.6 111.421 142.549 108 142.889C100.553 143.63 89.5 137.889 89.5 137.889C89.5 137.889 94.5041 145.899 97 151.389C99.9899 157.966 101.134 161.909 103 168.889C105.305 177.511 106.538 182.476 107 191.389C107.445 199.989 106.849 204.884 105.5 213.389C104.319 220.83 101 232.15 101 232.15L103 230.889Z" fill="white"/>
<path d="M207.5 263.889L229 268.389L219.5 237.889L196 250.889L185.5 255.389C185.5 255.389 188.344 255.249 190.5 256.044C191.07 256.254 191.592 256.529 192 256.889C193.056 257.82 193.067 258.834 194 259.889C197.643 264.008 207.5 263.889 207.5 263.889Z" fill="white"/>
<path d="M42 123.889C42 123.889 33.5573 122.399 28.5 123.889C21.4492 125.966 18.6937 130.232 14 135.889C8.03306 143.08 6.18248 148.438 3.5 157.389C0.677109 166.808 0.5 172.556 0.5 182.389C0.5 192.222 0.776454 197.94 3.5 207.389C6.45087 217.626 9.48734 223.094 15.5 231.889C21.6603 240.9 24.6812 247.62 34.5 252.389C38.7228 254.44 41.3237 256.301 46 255.889C48.2177 255.693 51.5 254.389 51.5 254.389C51.5 254.389 39.2749 249.687 33 244.389C25.629 238.165 18.5 224.389 18.5 224.389C18.5 224.389 10.0097 209.153 8 198.389C6.13653 188.408 6.60811 182.447 8 172.389C9.24662 163.381 9.98734 158.05 14 149.889C17.5157 142.739 20.0598 138.699 26 133.389C31.4178 128.546 42 123.889 42 123.889Z" fill="white"/>
<path d="M42 123.889C42 123.889 33.5573 122.399 28.5 123.889C21.4492 125.966 18.6937 130.232 14 135.889C8.03306 143.08 6.18248 148.438 3.5 157.389C0.677109 166.808 0.5 172.556 0.5 182.389C0.5 192.222 0.776454 197.94 3.5 207.389C6.45087 217.626 9.48734 223.094 15.5 231.889C21.6603 240.9 24.6812 247.62 34.5 252.389C38.7228 254.44 41.3237 256.301 46 255.889C48.2177 255.693 51.5 254.389 51.5 254.389M42 123.889L63.5 128.437M42 123.889C42 123.889 31.4178 128.546 26 133.389C20.0598 138.699 17.5157 142.739 14 149.889C9.98734 158.05 9.24662 163.381 8 172.389C6.60811 182.447 6.13653 188.408 8 198.389C10.0097 209.153 18.5 224.389 18.5 224.389C18.5 224.389 25.629 238.165 33 244.389C39.2749 249.687 51.5 254.389 51.5 254.389M51.5 254.389C51.5 254.389 53 255.889 56 255.889C59 255.889 74 248.014 74 248.014M122.5 223.889L103 230.889L101 232.15M122.5 223.889L127.5 224.889M122.5 223.889C122.5 223.889 123.664 215.988 124 210.889C124.449 204.069 124.268 200.218 124 193.389C123.715 186.146 123.583 182.056 122.5 174.889C121.424 167.769 119.701 163.989 118.5 156.889C117.431 150.57 116.5 140.6 116.5 140.6M127.5 224.889L133 226.889M127.5 224.889L128.5 208.389C128.5 208.389 128.739 196.5 128.5 188.889C128.291 182.242 128.529 178.459 127.5 171.889C126.343 164.495 123.371 160.822 122.5 153.389C121.809 147.493 122.5 138.189 122.5 138.189M133 226.889L141 231.612M133 226.889C133 226.889 131.385 228.223 129.554 229.889M207.5 263.889C207.5 263.889 200.773 268.684 196 270.889C189.548 273.87 185.542 274.922 178.5 275.889C171.729 276.818 167.8 276.575 161 275.889C154.866 275.27 151.402 274.671 145.5 272.889C140.883 271.495 138.186 270.784 134 268.389C129.421 265.768 126.786 264.016 123.5 259.889C120.995 256.744 119.162 254.855 118.5 250.889C117.95 247.592 118.393 245.542 119.5 242.389C120.936 238.298 123.104 236.616 126 233.389C127 232.274 128.326 231.007 129.554 229.889M207.5 263.889L229 268.389M207.5 263.889C207.5 263.889 197.643 264.008 194 259.889C193.067 258.834 193.056 257.82 192 256.889C191.592 256.529 191.07 256.254 190.5 256.044M229 268.389L244 270.889L266.5 273.389L271.5 274.389L260.5 278.889L252.5 282.556M229 268.389L219.5 237.889M345 268.389L333 270.889C333 270.889 336.541 275.435 337.5 278.889C338.182 281.347 338.15 285.389 338.15 285.389M345 268.389L352 266.308M345 268.389C345 268.389 328.109 268.165 317.5 266.308C307.943 264.635 302.601 263.251 293.5 259.889C283.506 256.197 277.965 253.645 269 247.889C258.164 240.932 251.357 236.957 244 226.389C238.053 217.846 236.427 211.878 233.5 201.889C230.005 189.964 229.149 182.814 229 170.389C228.865 159.198 232 141.889 232 141.889C232 141.889 235.666 126.035 239.5 116.389C243.048 107.462 245.356 102.501 250.5 94.3889C256.321 85.2088 259.973 80.0735 268 72.7444C274.379 66.9201 278.717 64.5331 286 59.8889C292.269 55.8913 295.78 53.5709 302.5 50.3889C310.929 46.3979 325 42.3889 325 42.3889M408.5 244.389L404 246.389L383.5 255.985M408.5 244.389C408.5 244.389 413.469 247.609 417 248.889C420.564 250.181 422.79 250.108 426.5 250.889M408.5 244.389C408.5 244.389 410.024 244.413 411 244.389C415.334 244.281 417.826 244.06 422 242.889C428.138 241.166 431.729 239.618 436.5 235.389C441.121 231.293 443.349 228.177 445.5 222.389C447.088 218.116 445.903 215.159 447.5 210.889C449.473 205.613 455.5 198.889 455.5 198.889M426.5 250.889C432.163 249.132 435.815 249.264 441 246.389C448.003 242.505 451.166 238.623 455.5 231.889C459.582 225.547 461.564 221.373 462.5 213.889C463.229 208.063 463.536 204.395 461.5 198.889C460.5 196.185 458 192.389 458 192.389M426.5 250.889C431.721 248.372 434.528 246.576 439 242.889C444.118 238.669 447.079 236.072 450.5 230.389C454.609 223.562 456.039 218.843 456.5 210.889C456.772 206.194 455.5 198.889 455.5 198.889M458 192.389C458 192.389 460.877 184.3 461.5 178.889C462.013 174.427 462.459 171.776 461.5 167.389C460.176 161.329 457.629 158.3 453.681 153.604M458 192.389L455.5 198.889M453.5 153.389C450.297 149.578 444 144.889 444 144.889M453.5 153.389L453.681 153.604M453.5 153.389C453.561 153.461 453.621 153.533 453.681 153.604M444 144.889C444 144.889 443.76 134.038 442 127.389C440.32 121.044 438.849 117.534 435.5 111.889M444 144.889L433.5 151.389L423 160.389M435.5 111.889C430.618 102.126 428.993 96.0121 423 86.8889C417.893 79.1149 414.801 74.734 408 68.3889C405.683 66.227 404.323 65.073 401.812 63.1389M435.5 111.889C430.618 108.569 428.711 104.882 423 103.389C417.116 101.851 412.225 101.061 407.5 104.889C403.132 108.428 404.453 113.117 402.5 118.389M328 33.3889C328 33.3889 335.957 34.4122 341 35.3889C344.14 35.9969 345.876 36.4554 349 37.1389M328 33.3889C328 33.3889 318.453 24.1915 311.5 19.3889C296.88 9.29046 274 -1.61143 269.5 1.88886L266.5 4.88886C266.5 4.88886 248.7 -3.47451 241 2.88886C238.861 4.65678 238.57 6.54014 236.5 8.38886C230.739 13.5347 222.35 7.87649 217.5 13.8889C215.471 16.4046 216.016 18.8623 214 21.3889C209.794 26.6609 201.791 22.3108 198 27.8889C194.159 33.5412 195.727 38.9438 198 45.3889C200.487 52.4395 210.5 59.8889 210.5 59.8889M328 33.3889L324 33.8486M210.5 59.8889L202.75 65.8889M210.5 59.8889L216.5 57.6966M174.5 86.8889C174.5 86.8889 168.241 78.4172 162.5 75.3889C159.915 74.0255 155.5 72.7444 155.5 72.7444M174.5 86.8889C174.5 86.8889 171.507 94.6736 170.5 99.8889C168.722 109.091 170.5 114.516 170.5 123.889M174.5 86.8889L180 82.8645M108 130.889C103.118 128.155 99.8082 127.458 95.5 123.889C91.8789 120.889 89.3524 119.211 87.5 114.889C85.1925 109.505 86.2384 105.609 87.5 99.8889C89.7634 89.6257 94.8715 84.5509 103 77.8889C111.388 71.0141 117.73 68.1687 128.5 66.8889C132.96 66.3589 135.558 66.2282 140 66.8889C146.4 67.8407 155.5 72.7444 155.5 72.7444M108 130.889C112.921 132.473 115.842 133.034 121 133.389C123.922 133.59 128.5 133.389 128.5 133.389L122.5 138.189M108 130.889C106.669 127.613 105.035 125.226 103.736 122.726M89.5 137.889C89.5 137.889 100.553 143.63 108 142.889C111.421 142.549 116.5 140.6 116.5 140.6M89.5 137.889L84.4412 135.889M89.5 137.889C89.5 137.889 94.5041 145.899 97 151.389C99.9899 157.966 101.134 161.909 103 168.889C105.305 177.511 106.538 182.476 107 191.389C107.445 199.989 106.849 204.884 105.5 213.389C104.319 220.83 101 232.15 101 232.15M63.5 128.437L68 129.389L84.4412 135.889M63.5 128.437C63.5 128.437 51.8922 130.653 45.5 134.389C44.6435 134.889 43.8361 135.388 43.0711 135.889M74 248.014C74 248.014 77.6981 246.504 80 245.389C86.648 242.17 96 235.302 96 235.302M74 248.014C74 248.014 62.6588 247.864 56 245.389C53.0818 244.304 50.6601 243.133 48.5 241.798M84.4412 135.889C84.4412 135.889 89.3593 147.434 92.6129 156.389M96 235.302C96 235.302 95.861 231.389 96 228.889C96.3078 223.352 97.9915 219.686 99.3789 215.389M96 235.302L101 232.15M116.5 140.6L121 139.389L122.5 138.189M155.5 72.7444C155.5 72.7444 138.139 74.3883 128.5 79.3889C125.637 80.8741 123.196 82.2307 121 83.6821M170.5 123.889C170.5 134.628 170.5 151.389 170.5 151.389M170.5 123.889V151.389M170.5 151.389V160.389M170.5 160.389L178 162.139M170.5 160.389C170.5 160.389 169.707 160.133 168.5 159.827M181.5 255.389C181.5 255.389 174.712 256.232 170.5 255.389C165.191 254.326 162.528 252.359 158 249.389C152.454 245.751 149.647 243.066 145.5 237.889C143.672 235.607 142.225 233.609 141 231.612M181.5 255.389H185.5M181.5 255.389L166 245.889C166 245.889 155.692 239.399 151 233.389C145.73 226.638 143.897 221.741 142 213.389C139.881 204.059 139.244 198.051 142 188.889C144.683 179.968 148.188 175.243 155 168.889C159.317 164.862 167.5 160.389 167.5 160.389L168.5 159.827M185.5 255.389L196 250.889M185.5 255.389C185.5 255.389 188.344 255.249 190.5 256.044M196 250.889C196 250.889 194.911 248.962 194 247.889C191.551 245.003 188.659 244.696 185.5 243.872M196 250.889L219.5 237.889M185.5 163.889C185.5 163.889 175.732 166.73 170.5 170.389C169.41 171.151 168.416 171.884 167.5 172.613M185.5 163.889L178 162.139M185.5 163.889L209.5 175.744M219.5 237.889L233.5 223.889M227 184.389L214.5 178.214M180 82.8645L195 71.8889L202.75 65.8889M180 82.8645C180 82.8645 178.042 92.2721 177.5 98.3889C176.828 105.974 177.5 117.889 177.5 117.889L178 162.139M202.75 65.8889C202.75 65.8889 198.182 79.4102 198 88.3889C197.798 98.3246 199.18 104.115 202.75 113.389C206.005 121.843 211.869 124.721 214.5 133.389C216.554 140.157 216.862 144.325 216.5 151.389C216.013 160.898 210 174.889 210 174.889L209.5 175.744M209.5 175.744L214.5 178.214M216.5 57.6966L236.5 50.3889L256.5 45.3889M216.5 57.6966C216.5 57.6966 211.004 63.492 208.5 67.8889C204.385 75.1138 202.89 80.0753 202.75 88.3889C202.578 98.6089 206.628 103.929 210.5 113.389C213.808 121.47 218.184 124.969 220.5 133.389C222.376 140.208 222.826 144.324 222.5 151.389C221.996 162.309 214.5 178.214 214.5 178.214M216.5 57.6966L206 50.3889L204 42.8887L210.5 31.8887L222.5 25.3887M362 40.8333C367.16 42.5774 370.017 43.6884 375 45.8889C381.631 48.817 385.74 49.9886 391.5 54.3889C393.179 55.6714 395.625 57.8889 395.625 57.8889M362 40.8333C360.098 39.9553 358.996 39.5267 357 38.8889C353.954 37.9152 352.175 37.526 349 37.1389M362 40.8333C353.337 41.6683 348.485 42.4525 340 44.3889C327.779 47.1778 320.868 49.1086 309.5 54.3889C298.049 59.7075 291.807 63.4371 282 71.3889C269.43 81.5811 263.306 88.8114 254.5 102.389C247.182 113.672 243.627 120.589 239.5 133.389C235.008 147.321 233.147 155.755 233.5 170.389C233.846 184.745 235.494 193.125 241 206.389C246.357 219.294 250.348 226.787 260.5 236.389C269.478 244.88 276.294 247.68 287.5 252.889C298.699 258.094 305.436 260.249 317.5 262.889C330.726 265.783 352 266.308 352 266.308M352 266.308L363.5 262.889L375.5 259.007M325 42.3889C325 42.3889 339.627 39.1891 349 37.1389M325 42.3889L349 37.1389M375.5 259.007L380.5 257.389L383.5 255.985M375.5 259.007C375.5 259.007 356.803 259.109 345 257.389C331.644 255.443 323.807 254.43 311.5 248.889C302.063 244.64 296.998 241.456 289 234.889C281.314 228.578 276.932 224.719 271.5 216.389C264.684 205.936 262.478 198.71 260.5 186.389C258.86 176.171 259.395 170.179 260.5 159.889C261.653 149.149 262.841 143.052 266.5 132.889C270.138 122.783 273.195 117.426 279 108.389C285.23 98.6901 288.796 92.9458 297.5 85.3889C306.553 77.529 313.009 74.6773 324 69.8889C333.398 65.7947 339.022 64.2384 349 61.8889C359 59.5342 364.75 58.5773 375 57.8889C383.036 57.3491 395.625 57.8889 395.625 57.8889M395.625 57.8889C395.625 57.8889 399.396 61.0886 401.812 63.1389M395.625 57.8889L401.812 63.1389M401.812 63.1389C392.593 61.8291 387.306 61.5516 378 61.8889C367.762 62.2599 362.004 63.179 352 65.3889M352 65.3889L351.725 65.4497M352 65.3889C351.908 65.4092 351.816 65.4295 351.725 65.4497M383.5 255.985C383.5 255.985 371.283 255.675 363.5 254.889C353.663 253.896 348.117 253.185 338.5 250.889C330.15 248.895 325.405 247.738 317.5 244.389C308.402 240.534 303.414 237.806 295.5 231.889C288.42 226.595 284.415 223.377 279 216.389C274.179 210.167 271.545 206.337 269 198.889C266.016 190.155 266.708 184.616 266.5 175.389C266.289 166 266.319 160.628 268 151.389C269.758 141.728 271.572 136.388 275.5 127.389C279.56 118.088 282.414 113.009 288.5 104.889C294.299 97.152 298.056 93.059 305.5 86.8889C313.491 80.2657 318.547 77.0287 328 72.7444C336.843 68.7368 342.322 67.5266 351.725 65.4497M252.5 282.556C252.5 282.556 249.969 283.497 248.5 284.389C244.716 286.686 242.427 288.698 241 292.889C239.804 296.401 240.111 298.787 241 302.389C242.091 306.81 243.604 309.354 247 312.389C251.192 316.135 254.883 317.149 260.5 317.389C266.854 317.66 270.817 316.076 276 312.389C279.292 310.047 283.125 304.889 283.125 304.889M252.5 282.556C252.5 282.556 250.342 288.165 250.5 291.889C250.561 293.334 250.668 294.657 250.884 295.889M263.5 306.889C263.5 306.889 257.671 305.787 255 303.389C252.488 301.133 251.388 298.761 250.884 295.889M263.5 306.889C263.5 306.889 269.217 309.143 273 308.889C277.242 308.603 283.125 304.889 283.125 304.889M263.5 306.889L290 278.889M283.125 304.889L285.5 302.389C285.5 302.389 293.409 293.195 297 286.389C299.369 281.899 302 274.389 302 274.389H308.5L307 286.389L306 296.889V299.389M306 299.389C306 299.389 305.19 302.9 306 304.889C306.834 306.935 307.993 307.966 310 308.889C313.445 310.472 319.5 306.889 319.5 306.889C319.5 306.889 328.658 301.808 333 296.889C335.509 294.046 338.191 292.668 338.5 288.889C338.612 287.52 338.15 285.389 338.15 285.389M306 299.389C306 299.389 311.501 300.9 315 300.389C319.58 299.72 321.614 297.404 325.5 294.889C330.39 291.723 337 285.389 337 285.389H338.15M402.5 118.389C405.624 116.827 407.046 114.907 410.5 114.389C414.668 113.763 417.259 114.947 421 116.889C425.657 119.306 428.174 121.686 430.5 126.389C432.607 130.647 433.045 133.669 432.5 138.389C431.968 143 430.883 145.752 428 149.389C425.039 153.125 418 156.389 418 156.389L417.75 156.889M402.5 118.389C402.587 119.632 402.722 121.572 402.722 121.572M402.5 118.389L402.722 121.572M423 160.389C423 160.389 428.719 166.79 429.5 171.889C430.253 176.81 429.716 180.217 427 184.389C424.37 188.43 417 191.63 417 191.63M423 160.389L417.75 156.889M356.5 184.389L343 194.889C343 194.889 350.5 193.889 352.5 192.389C354.001 191.263 359.164 198.305 361.646 201.889M356.5 184.389C356.5 184.389 356.5 186.389 356.5 187.889M356.5 184.389V187.889M356.5 187.889C356.5 189.389 369.283 193.478 378 194.889C387.059 196.355 392.393 196.023 401.5 194.889C407.638 194.125 417 191.63 417 191.63M417 191.63L412.5 194.889C412.5 194.889 405.185 207.391 397 211.439M347 175.389C347 175.389 333.153 168.322 323.5 166.889C316.354 165.828 305 166.889 305 166.889L293 168.889L300 165.389M347 175.389C347 175.389 345.781 172.951 345 171.389M347 175.389L345 171.389M300 165.389C300 165.389 293.805 158.396 292 152.889C289.75 146.024 291 141.389 292 134.389C293 127.389 296.498 123.29 302 118.389C308.742 112.384 314.494 110.529 323.5 109.889C332.948 109.217 339.281 110.399 347 115.889C353.715 120.665 357 125.037 359.5 132.889C361.869 140.331 361.796 145.423 359.5 152.889C357.855 158.237 356.28 161.264 352.5 165.389C349.966 168.154 348.254 169.524 345 171.389M300 165.389C300 165.389 307.618 164.863 312.5 164.527M300 165.389L312.5 164.527M345 171.389C341.485 169.632 339.832 167.757 336 166.889C335.226 166.714 334 166.536 334 166.536M314.5 164.389L327.5 165.389L334 166.536M314.5 164.389C314.5 164.389 313.281 164.473 312.5 164.527M314.5 164.389L312.5 164.527M334 166.536C334 166.536 341.431 164.142 345 160.889C348.442 157.751 350.145 155.345 351.5 150.889C352.92 146.218 352.842 143.082 351.5 138.389C349.847 132.605 347.33 129.474 342.5 125.889C337.542 122.209 333.67 121.133 327.5 120.889C320.826 120.624 316.655 121.836 311 125.389C306.205 128.401 303.15 130.65 301 135.889C299.215 140.239 300 147.889 300 147.889C300 147.889 301.93 155.306 305 158.889C307.384 161.671 309.571 162.325 312.5 164.527M327 128.889C329.734 128.303 331.284 127.727 334 128.389C336.696 129.046 337.905 129.904 339.5 131.889C340.403 133.013 341.25 135.139 341.25 135.139M327 128.889C324.207 129.021 322.602 129.365 320 130.389C314.718 132.467 310.859 134.526 309 139.889C307.785 143.394 307.834 145.867 309 149.389C310.142 152.837 314.5 156.889 314.5 156.889C314.5 156.889 320.931 160.765 325.5 160.889C330.438 161.022 333.738 160.09 337.5 156.889C340.637 154.219 341.943 151.87 343 147.889C343.952 144.303 344.298 141.864 343 138.389C342.496 137.039 341.25 135.139 341.25 135.139M327 128.889C327.195 130.646 327.5 133.389 327.5 133.389M327 128.889L327.5 133.389M327.5 133.389C327.5 133.389 331.48 138.453 335 138.389C337.751 138.339 341.25 135.139 341.25 135.139M417.75 156.889L412.5 153.389L410.611 150.389M410.611 150.389C410.611 150.389 405.727 144.416 404 139.889C401.445 133.189 402.722 121.572 402.722 121.572M410.611 150.389C410.611 150.389 415.792 150.053 418.5 148.389C421.333 146.648 422.765 144.976 424 141.889C425.235 138.802 424.5 133.389 424.5 133.389C424.5 133.389 424.393 125.832 424 125.389M424 125.389C423.607 124.946 423.607 124.946 423.607 124.946M424 125.389L423.607 124.946M402.722 121.572L412.5 119.389L415.5 119.989M415.5 119.989C415.5 119.989 418.421 120.041 420 120.889C421.868 121.892 423.607 124.946 423.607 124.946M415.5 119.989C415.5 119.989 413.501 121.132 413 122.389C412.127 124.581 413.696 126.369 415.5 127.889C417.347 129.445 419.422 130.62 421.5 129.389C423.152 128.41 423.607 124.946 423.607 124.946M141 231.612C138.967 228.299 137.544 224.989 136 220.389C133.671 213.45 133.481 209.192 133 201.889C132.666 196.823 132.06 193.878 133 188.889C134.101 183.043 135.665 179.814 139 174.889C141.865 170.657 143.956 168.513 148 165.389C152.218 162.131 154.719 159.611 160 158.889C162.659 158.525 166.28 159.262 168.5 159.827M361.646 201.889C362.471 203.08 363 203.889 363 203.889C363 203.889 370.755 211.087 377 212.889C384.139 214.949 389.11 214.67 396 211.889C396.334 211.754 396.668 211.604 397 211.439M361.646 201.889L370.5 200.389L382.5 201.889L391.5 206.389L397 211.439M222.5 25.3887L229 18.3887L242 14.8887L243.875 13.8889M222.5 25.3887C236.31 31.9206 243.814 36.1527 256.5 45.3889M324 33.8486L311.5 22.8887L298.5 14.8887L287 10.8887L277.5 8.38886L274 9.38867H272M324 33.8486L301 36.4923M256.5 45.3889L279 39.7639M279 39.7639L284.5 38.3889L301 36.4923M279 39.7639C265.67 27.2137 257.936 21.8295 243.875 13.8889M243.875 13.8889L249.5 10.8887L258 9.38867H272M301 36.4923C291.056 23.4231 284.719 17.4796 272 9.38867M250.884 295.889C263.154 290.119 269.99 285.55 280.5 277.389M185.5 243.872C184.207 243.535 182.87 243.111 181.5 242.389C175.75 239.358 172.136 237.945 167.5 233.389C166.88 232.78 166.309 232.19 165.777 231.612M185.5 243.872C201.659 235.607 209.341 230.397 221.5 220.389M165.777 231.612C162.168 227.683 160.409 224.276 158 218.889C157.095 216.866 156.311 215.093 155.662 213.389M165.777 231.612C186.179 225.934 197.037 222.138 214.5 213.389M155.662 213.389C154.299 209.813 153.533 206.54 153.5 201.889C153.464 196.846 154.096 193.26 155.662 189.346M155.662 213.389L214.5 204.889M155.662 189.346C156.286 187.784 157.06 186.169 158 184.389C160.8 179.083 163.367 175.898 167.5 172.613M155.662 189.346L214.5 196.389M167.5 172.613C184.41 177.354 193.608 180.477 209.5 186.889M129.554 229.889L128.5 233.389C128.5 233.389 128.81 240.655 130.5 244.889C132.92 250.95 135.777 253.976 141 257.889C146.398 261.932 149.19 263.412 157 264.389M157 264.389C164.81 265.365 169.19 265.912 177 266.889M157 264.389L177 266.889M177 266.889C184.81 267.865 190.5 256.044 190.5 256.044M121 83.6821C116.862 86.4166 113.591 89.4876 110 94.3889C107.473 97.8382 105.27 100.767 103.736 103.889M121 83.6821C131.978 87.2337 137.775 89.2468 147 92.8887M103.736 103.889C102.161 107.094 101.291 110.503 101.5 114.889C101.653 118.094 102.557 120.456 103.736 122.726M103.736 103.889C116.031 106.29 122.888 107.694 135 110.389M103.736 122.726L126 123.889M43.0711 135.889C62.5708 142.355 73.4445 146.58 92.6129 156.389M43.0711 135.889C37.1189 139.786 33.7357 143.812 29.779 149.889M92.6129 156.389C92.926 157.25 93.2236 158.088 93.5 158.889C94.6733 162.29 95.7656 165.161 96.7504 167.889M29.779 149.889C29.3603 150.532 28.9352 151.198 28.5 151.889C24.8382 157.704 22.6418 162.543 21.3009 167.889M29.779 149.889C56.4232 156.43 71.1359 160.319 96.7504 167.889M96.7504 167.889C97.7766 170.731 98.6862 173.419 99.4495 176.389M21.3009 167.889C20.3279 171.767 19.8053 175.912 19.5 180.889C19.3191 183.838 19.2909 186.444 19.4194 188.889M21.3009 167.889C52.0885 172.476 69.24 174.517 99.4495 176.389M99.4495 176.389C100.067 178.793 100.59 181.382 101 184.389C101.143 185.434 101.268 186.43 101.377 187.389M19.4194 188.889C19.7459 195.104 21.0847 200.276 23.5 207.389C23.8544 208.433 24.2008 209.43 24.5449 210.389M19.4194 188.889C53.593 190.205 71.321 189.68 101.377 187.389M101.377 187.389C101.796 191.074 101.968 194.198 101.912 197.389M24.5449 210.389C56.125 206.877 72.9359 203.899 101.912 197.389M24.5449 210.389C27.3143 218.102 29.9417 223.294 35.5 229.749M101.912 197.389C101.877 199.318 101.76 201.272 101.563 203.389M35.5 229.749C35.8232 230.125 36.1564 230.504 36.5 230.889C40.7484 235.644 44.0755 239.063 48.5 241.798M35.5 229.749C63.632 220.969 78.274 215.313 101.563 203.389M101.563 203.389C101.418 204.948 101.229 206.596 101 208.389C100.658 211.062 100.053 213.3 99.3789 215.389M48.5 241.798C70.4325 233.623 81.5686 227.746 99.3789 215.389M335 86.8889C335 84.3891 331.791 81.9407 328.5 80.8889C324.259 79.5331 321.352 81.6551 317.5 83.8889C312.59 86.7363 308 94.8889 308 94.8889C308 94.8889 315.007 90.4779 320 88.8889C325.631 87.0965 335 89.3887 335 86.8889ZM401.5 81.8889C400.5 81.8889 400.725 79.2451 401.5 77.8889C402.366 76.3725 403.765 76.0891 405.5 75.8889C407.77 75.6269 411 77.8889 411 77.8889L417.5 83.3889C417.5 83.3889 415.043 83.2034 413.5 82.8889C411.08 82.3954 409.963 81.0701 407.5 80.8889C405.131 80.7145 402.5 81.8889 401.5 81.8889Z" stroke="black"/>
</svg>
