<svg width="425" height="405" viewBox="0 0 425 405" fill="none" xmlns="http://www.w3.org/2000/svg">
<path d="M29.4631 251.5C29.4631 251.5 19.9631 256.5 20.4631 259C20.9631 261.5 31.9631 261 31.9631 261C33.6505 266.115 35.1904 270.473 36.7664 274.5C38.3401 278.522 39.9496 282.214 41.7774 286C43.047 288.63 44.4218 291.305 45.9631 294.168C47.0414 296.171 48.2011 298.265 49.4631 300.5C49.4631 300.5 47.9568 302.354 46.6175 304.5C45.1748 306.812 43.9259 309.463 44.9631 310.5C46.9631 312.5 55.4631 308.5 55.4631 308.5C57.7313 311.981 59.8522 315.112 61.9292 318C64.4439 321.496 66.8941 324.636 69.4631 327.608C71.288 329.719 73.1727 331.746 75.1832 333.757C79.6031 338.177 84.6304 342.517 90.9631 347.5C90.9631 347.5 82.9631 361 85.9631 363.5C87.8033 365.033 93.4061 361.676 97.4631 358.85C100.02 357.069 101.963 355.5 101.963 355.5C104.34 357.258 106.456 358.781 108.463 360.163C114.047 364.01 118.787 366.772 125.963 370.5C125.963 370.5 122.463 386.5 125.963 388C129.463 389.5 138.463 376.5 138.463 376.5C142.117 377.826 145.382 378.964 148.463 379.964C157.758 382.977 165.382 384.721 176.963 386.5C176.963 386.5 179.963 404.5 182.463 404.5C184.963 404.5 190.463 388 190.463 388C194.772 388.489 198.565 388.855 202.123 389.09C205.63 389.321 208.908 389.425 212.227 389.393C217.904 389.338 223.7 388.887 230.963 388C230.963 388 237.963 403.5 240.463 403C242.963 402.5 244.963 385 244.963 385C247.673 384.427 250.144 383.882 252.463 383.333C256.242 382.438 259.617 381.53 262.963 380.468C268.083 378.843 273.136 376.856 279.463 374C279.463 374 290.963 389.5 293.463 388C295.963 386.5 293.463 368 293.463 368C295.754 366.599 297.912 365.263 299.963 363.971C302.692 362.252 305.232 360.611 307.643 359C311.125 356.672 314.339 354.406 317.463 352.056C324.116 347.053 330.367 341.67 337.963 334.5L346.463 325.5L353.963 314.5C353.963 314.5 371.963 322 374.463 319.5C376.963 317 362.963 301.5 362.963 301.5L368.963 289.5L373.463 280.5L374.463 278.5C374.463 278.5 392.963 281 395.463 278.5C397.963 276 379.963 264.5 379.963 264.5L385.106 246.5L387.963 236.5C387.963 236.5 389.483 236.135 391.463 235.554C395.161 234.468 400.463 232.628 400.463 231C400.463 228.5 389.963 225 389.963 225L385.106 223.5C385.106 223.5 383.363 227.795 381.463 230C377.413 234.702 372.836 234.496 366.963 236.5C358.12 239.518 352.722 239.737 343.463 241C333.566 242.35 327.951 242.854 317.963 243C308.974 243.131 294.963 242.018 294.963 242.018C294.963 242.018 276.192 240.224 264.463 237.5C245.141 233.012 233.984 229.689 216.963 219.5C203.384 211.371 197.358 204.441 185.463 194C174.771 184.614 171.428 175.859 158.963 169C150.631 164.416 145.472 161.134 135.963 161C127.006 160.873 121.661 162.918 113.963 167.5C101.714 174.792 102.454 186.831 92.4631 197C82.2001 207.447 75.6789 213.19 62.4634 219.5C48.6805 226.081 24.4631 228.75 24.4631 228.75L24.9631 233.5C25.54 238.594 27.1389 241.873 28.2794 245.5C28.8519 247.321 29.3089 249.23 29.4631 251.5Z" fill="#FFF2E9"/>
<path d="M325.463 207.5C325.463 207.5 354.463 240.5 362.463 235.554C370.463 230.608 368.962 233.05 370.963 229.5C377.625 217.68 379.863 208.291 382.463 197C384.631 187.585 377.215 182.632 376.463 173C375.529 161.023 380.147 154.509 380.463 142.5C380.544 139.452 380.463 134.693 380.463 134.693L375.963 125C375.963 125 372.338 124.072 369.963 124C363.543 123.804 360.256 126.726 354.463 129.5C347.088 133.032 343.319 135.855 336.963 141C329.343 147.169 319.463 159 319.463 159L326.463 173C326.463 173 330.491 182.87 330.463 189.5C330.433 196.796 325.463 207.5 325.463 207.5Z" fill="#BD8967"/>
<path d="M208.463 152C207.621 157.654 207.801 161.442 210.463 166.5C212.972 171.267 216.009 173.387 220.963 175.5C226.531 177.875 230.227 177.933 235.963 176C238.446 175.163 241.963 173 241.963 173C241.963 173 241.664 169.746 242.963 168.5C244.126 167.386 245.545 166.738 246.963 167.5C247.572 167.827 248.213 168.75 248.213 168.75C248.213 168.75 250.909 163.918 251.463 160.5C252.123 156.434 251.592 153.962 250.463 150C249.458 146.472 248.743 144.374 246.463 141.5C243.401 137.639 240.705 135.845 235.963 134.5C232.577 133.54 230.463 133.625 226.963 134C224.373 134.278 222.913 134.615 220.463 135.5C222.221 137.062 224.181 137.283 224.963 139.5C225.83 141.957 224.926 143.844 223.463 146C222.213 147.842 221.045 148.711 218.963 149.5C217.128 150.195 215.811 150.66 213.963 150C211.879 149.255 210.213 145.75 210.213 145.75C210.213 145.75 208.837 149.493 208.463 152Z" fill="#4D1F00"/>
<path d="M93.4634 165.5L95.9634 151L93.7053 137C93.7053 137 90.1125 134.39 87.4634 133.5C85.0289 132.682 83.5281 132.366 80.9634 132.5C78.5514 132.626 74.9634 134 74.9634 134C74.9634 134 77.1749 136.181 77.4634 138C77.8213 140.257 76.8982 141.721 75.4634 143.5C74.1374 145.144 73.0515 146.183 70.9634 146.5C69.1835 146.77 67.6844 146.823 66.4634 145.5C65.4992 144.455 65.4634 142 65.4634 142L62.4634 149C62.4634 149 60.9991 153.886 61.4634 157C61.9019 159.942 64.4634 164 64.4634 164C64.4634 164 66.6089 164.507 67.4634 165.5C68.3907 166.577 68.4634 169 68.4634 169L73.4634 173L80.9634 174.5L89.9634 170.5L91.6634 170L93.4634 165.5Z" fill="#4D1F00"/>
<path fill-rule="evenodd" clip-rule="evenodd" d="M233.963 185.5C227.286 186.163 222.932 186.066 216.963 183C210.944 179.908 204.963 170.5 204.963 170.5C204.963 170.5 199.967 159.324 200.963 152C201.869 145.337 203.829 141.372 208.463 136.5C213.459 131.248 217.8 129.109 224.963 128C232.419 126.846 237.276 128.006 243.963 131.5C249.842 134.572 253.417 137.108 256.463 143C259.623 149.11 259.273 153.669 258.463 160.5C257.787 166.203 257.229 169.776 253.963 174.5C251.049 178.716 248.586 180.786 243.963 183C240.333 184.739 237.969 185.102 233.963 185.5ZM210.463 166.5C207.801 161.442 207.621 157.654 208.463 152C208.837 149.493 210.213 145.75 210.213 145.75C210.213 145.75 210.494 141.565 211.963 139.5C214.091 136.511 215.963 135.5 220.463 135.5C222.913 134.615 224.373 134.278 226.963 134C230.463 133.625 232.577 133.54 235.963 134.5C240.705 135.845 243.401 137.639 246.463 141.5C248.743 144.374 249.458 146.472 250.463 150C251.592 153.962 252.123 156.434 251.463 160.5C250.909 163.918 248.213 168.75 248.213 168.75C248.213 168.75 249.105 169.41 249.463 170C250.38 171.512 250.074 173.124 248.963 174.5C247.915 175.798 246.593 176.357 244.963 176C243.345 175.646 241.963 173 241.963 173C241.963 173 238.446 175.163 235.963 176C230.227 177.933 226.531 177.875 220.963 175.5C216.009 173.387 212.972 171.267 210.463 166.5Z" fill="#8E5F3F"/>
<path d="M81.9634 181C84.6742 180.316 88.4634 178 88.4634 178L91.6634 170L89.9634 170.5L80.9634 174.5L73.4634 173L68.4634 169C68.4634 169 67.3896 170.191 66.4634 170.5L66.4225 170.514C65.5138 170.817 64.7329 171.077 63.9634 170.5C63.1823 169.914 62.9634 169.5 62.4634 168.5C61.9634 167.5 62.1607 166.673 62.9634 165.5C63.4312 164.816 64.4634 164 64.4634 164C64.4634 164 61.9019 159.942 61.4634 157C60.9991 153.886 62.4634 149 62.4634 149L65.4634 142C65.4634 142 66.1029 139.429 66.9634 138C68.1027 136.107 68.8676 134.699 70.9634 134C72.4453 133.506 74.9634 134 74.9634 134C74.9634 134 78.5514 132.626 80.9634 132.5C83.5281 132.366 85.0289 132.682 87.4634 133.5C90.1125 134.39 93.7053 137 93.7053 137C93.7053 137 93.603 136.077 93.4634 135.5C92.718 132.421 88.4634 129.111 88.4634 129.111C88.4634 129.111 80.0923 126.705 74.9634 128C69.1312 129.473 66.1716 132.264 62.4634 137C59.1756 141.199 57.9666 144.262 56.9634 149.5C56.1186 153.911 56.0718 156.598 56.9634 161C57.9868 166.052 59.2763 168.948 62.4634 173C65.5553 176.931 67.6646 179.592 72.4634 181C76.0233 182.045 78.366 181.907 81.9634 181Z" fill="#8E5F3F"/>
<path d="M209.463 100.5C208.451 97.197 212.487 95.7528 215.463 94C220.019 91.3177 228.963 93 228.963 93C228.963 93 238.258 94.2378 241.463 98.5C242.882 100.386 243.963 102 243.963 104C243.963 106 232.963 103 228.963 102.5C224.963 102 219.463 104.386 215.463 104C211.463 103.614 210.258 103.094 209.463 100.5Z" fill="#A87C5F"/>
<path d="M94.9634 102.5C96.1802 100.73 96.0834 98.8328 94.9634 97C93.825 95.1372 92.0806 95.0322 89.9634 94.5C86.5337 93.6379 84.2515 94.1985 80.9634 95.5C78.3449 96.5365 76.6923 97.2771 74.9634 99.5C73.8911 100.879 72.9634 103.5 72.9634 103.5C72.9634 103.5 73.5614 103.829 73.9634 104C76.8451 105.223 78.8332 103.47 81.9634 103.5C85.8879 103.537 90.4634 105 91.9634 104.5C93.4634 104 94.1657 103.66 94.9634 102.5Z" fill="#A87C5F"/>
<path d="M391.463 235.554C389.483 236.135 387.963 236.5 387.963 236.5L385.106 246.5C385.106 246.5 402.963 246.5 402.963 243.5C402.963 240.5 391.463 235.554 391.463 235.554Z" fill="#E5CBBA"/>
<path d="M381.463 289C381.963 286 373.463 280.5 373.463 280.5L368.963 289.5C368.963 289.5 380.963 292 381.463 289Z" fill="#E5CBBA"/>
<path d="M337.963 334.5C337.963 334.5 351.963 342 353.963 339C355.963 336 346.463 325.5 346.463 325.5L337.963 334.5Z" fill="#E5CBBA"/>
<path d="M307.643 359C307.643 359 319.463 372 321.963 369.5C324.463 367 317.463 352.056 317.463 352.056C314.339 354.406 311.125 356.672 307.643 359Z" fill="#E5CBBA"/>
<path d="M299.963 363.971C299.963 363.971 308.463 372.5 310.463 371C312.463 369.5 307.643 359 307.643 359C305.232 360.611 302.692 362.252 299.963 363.971Z" fill="#E5CBBA"/>
<path d="M252.463 383.333C252.463 383.333 257.963 394.5 260.463 393.5C262.963 392.5 262.963 380.468 262.963 380.468C259.617 381.53 256.242 382.438 252.463 383.333Z" fill="#E5CBBA"/>
<path d="M202.123 389.09C202.123 389.09 204.463 400.5 207.463 400.5C210.463 400.5 212.227 389.393 212.227 389.393C208.908 389.425 205.63 389.321 202.123 389.09Z" fill="#E5CBBA"/>
<path d="M138.463 376.5C138.463 376.5 137.963 386 139.963 387C141.963 388 148.463 379.964 148.463 379.964C145.382 378.964 142.117 377.826 138.463 376.5Z" fill="#E5CBBA"/>
<path d="M101.963 355.5C101.963 355.5 100.02 357.069 97.4631 358.85C97.4631 358.85 94.9631 364.5 97.4631 366.5C99.9631 368.5 108.463 360.163 108.463 360.163C106.456 358.781 104.34 357.258 101.963 355.5Z" fill="#E5CBBA"/>
<path d="M69.4631 327.608C69.4631 327.608 61.9629 334 63.4631 336C64.9634 338 75.1832 333.757 75.1832 333.757C73.1727 331.746 71.288 329.719 69.4631 327.608Z" fill="#E5CBBA"/>
<path d="M61.9292 318C61.9292 318 52.4634 330 54.4631 332.5C56.4629 335 69.4631 327.608 69.4631 327.608C66.8941 324.636 64.4439 321.496 61.9292 318Z" fill="#E5CBBA"/>
<path d="M49.4631 300.5C48.2011 298.265 47.0414 296.171 45.9631 294.168C45.9631 294.168 37.4634 302.5 39.4631 304.5C41.4629 306.5 46.6175 304.5 46.6175 304.5C47.9568 302.354 49.4631 300.5 49.4631 300.5Z" fill="#E5CBBA"/>
<path d="M36.7664 274.5C36.7664 274.5 23.4634 284.5 25.4631 287.5C27.4629 290.5 41.7774 286 41.7774 286C39.9496 282.214 38.3401 278.522 36.7664 274.5Z" fill="#E5CBBA"/>
<path d="M28.2794 245.5C27.1389 241.873 25.54 238.594 24.9631 233.5C24.9631 233.5 13.4634 239.5 13.9631 242C14.4629 244.5 28.2794 245.5 28.2794 245.5Z" fill="#E5CBBA"/>
<path d="M353.678 81.5C352.655 82.7177 351.963 83.5 351.963 83.5C354.801 87.2337 357.157 90.4436 359.289 93.5C359.289 93.5 369.963 82.5 367.963 79.5C365.963 76.5 353.678 81.5 353.678 81.5Z" fill="#E4C9B6"/>
<path d="M326.963 57.5C326.963 57.5 334.463 43 332.963 41C331.463 39 315.963 49 315.963 49L326.963 57.5Z" fill="#E4C9B6"/>
<path d="M294.463 37C294.463 37 299.463 19 297.463 17.5C295.463 16 281.463 30.5 281.463 30.5L294.463 37Z" fill="#E4C9B6"/>
<path d="M267.963 10.5C264.963 9.5 258.463 22.1885 258.463 22.1885C262.234 23.2861 265.744 24.4269 269.463 25.7752C269.463 25.7752 270.963 11.5 267.963 10.5Z" fill="#E4C9B6"/>
<path d="M225.463 0.5C221.963 0.5 217.963 15.5675 217.963 15.5675C221.891 15.851 225.846 16.2752 230.463 16.9162C230.463 16.9162 228.963 0.5 225.463 0.5Z" fill="#E4C9B6"/>
<path d="M165.963 8C162.963 8.5 162.651 21 162.651 21C166.258 20.0743 169.752 19.3727 173.463 18.8328C173.463 18.8328 168.963 7.5 165.963 8Z" fill="#E4C9B6"/>
<path d="M145.109 23.5C146.237 24.9894 146.963 26 146.963 26C150.21 24.8214 153.168 23.8034 155.963 22.9224C155.963 22.9224 151.463 12.5 147.963 14C144.463 15.5 145.109 23.5 145.109 23.5Z" fill="#E4C9B6"/>
<path d="M103.963 31.5C100.963 33.5 105.963 45.511 105.963 45.511C108.368 43.9982 110.852 42.5566 113.463 41.1494C114.445 40.6207 115.444 40.0968 116.463 39.5758C116.463 39.5758 106.963 29.5 103.963 31.5Z" fill="#E4C9B6"/>
<path d="M83.9631 44C81.9631 46 88.4447 59 88.4447 59C91.6504 56.0571 94.781 53.4342 97.9631 51.0314C97.9631 51.0314 85.9631 42 83.9631 44Z" fill="#E4C9B6"/>
<path d="M70.4631 76C70.4631 76 56.4631 69 54.4631 72C52.4631 75 62.4631 88.0727 62.4631 88.0727L70.4631 76Z" fill="#E4C9B6"/>
<path d="M39.4631 96C37.4631 98.5 47.6017 110.5 47.6017 110.5L54.4631 100.145C54.4631 100.145 41.4631 93.5 39.4631 96Z" fill="#E4C9B6"/>
<path fill-rule="evenodd" clip-rule="evenodd" d="M389.963 225L391.463 211C391.712 206.932 391.877 203.354 391.931 200C391.988 196.348 391.914 192.962 391.671 189.5C391.48 186.77 391.184 183.993 390.766 181C390.419 178.514 389.988 175.88 389.463 173C389.463 173 396.122 169.537 399.525 166.5C400.785 165.376 401.598 164.31 401.463 163.5C400.963 160.5 387.463 161 387.463 161L387.236 160L385.19 151L382.463 139L380.463 134.693C380.463 134.693 380.544 139.452 380.463 142.5C380.147 154.509 375.529 161.023 376.463 173C377.215 182.632 384.631 187.585 382.463 197C379.863 208.291 377.625 217.68 370.963 229.5C368.962 233.05 370.463 230.608 362.463 235.554C354.463 240.5 325.463 207.5 325.463 207.5C325.463 207.5 330.433 196.796 330.463 189.5C330.491 182.87 326.463 173 326.463 173L319.463 159C319.463 159 329.343 147.169 336.963 141C343.319 135.855 347.088 133.032 354.463 129.5C360.256 126.726 363.543 123.804 369.963 124C372.338 124.072 375.963 125 375.963 125C375.963 125 384.963 114 384.463 112.5C383.963 111 371.463 113 371.463 113C366.929 105.131 363.56 99.624 359.289 93.5C357.157 90.4436 354.801 87.2337 351.963 83.5C351.963 83.5 352.655 82.7177 353.678 81.5C356.823 77.7538 363.095 69.8867 361.963 68C360.463 65.5 342.963 73 342.963 73L326.963 57.5L315.963 49L307.963 45C307.963 45 309.463 38 307.963 37C306.463 36 300.963 41 300.963 41L294.463 37L281.463 30.5C276.966 28.6216 273.114 27.0984 269.463 25.7752C265.744 24.4269 262.234 23.2861 258.463 22.1885C254.842 21.1344 250.981 20.1201 246.463 19C246.463 19 245.963 5.5 243.963 4.5C241.963 3.5 234.463 17.5 234.463 17.5C233.07 17.2877 231.741 17.0936 230.463 16.9162C225.846 16.2752 221.891 15.851 217.963 15.5675C212.613 15.1813 207.313 15.0562 200.463 15C200.463 15 195.463 2.5 193.463 2.5C191.463 2.5 188.463 16.5 188.463 16.5C182.975 16.7884 177.819 18.1991 173.463 18.8328C169.752 19.3727 166.258 20.0743 162.651 21C160.486 21.5556 158.281 22.1919 155.963 22.9224C153.168 23.8034 150.21 24.8214 146.963 26C146.963 26 146.237 24.9894 145.109 23.5C141.751 19.0631 134.835 10.377 132.963 11.5C130.463 13 132.963 32 132.963 32C126.8 34.6047 121.393 37.0563 116.463 39.5758C115.444 40.0968 114.445 40.6207 113.463 41.1494C110.852 42.5566 108.368 43.9982 105.963 45.511C103.215 47.2398 100.572 49.0616 97.9631 51.0314C94.781 53.4342 91.6504 56.0571 88.4447 59C84.7789 62.3652 81.0149 66.1488 76.9631 70.5C76.9631 70.5 68.4631 66 67.4631 68C66.4631 70 70.4631 76 70.4631 76L62.4631 88.0727L54.4631 100.145L47.6017 110.5L42.9631 117.5C42.9631 117.5 31.9631 113.5 30.4631 116.5C28.9631 119.5 38.4631 128 38.4631 128C37.4816 130.584 36.5612 133.08 35.6987 135.5C34.4604 138.975 33.3415 142.294 32.3322 145.5C31.4633 148.26 30.6757 150.935 29.9631 153.553C29.3215 155.909 28.7408 158.219 28.2164 160.5C27.6748 162.856 27.1933 165.182 26.7669 167.5C26.2761 170.168 25.8584 172.824 25.506 175.5C25.1376 178.299 24.8407 181.12 24.6067 184C24.3947 186.609 24.2343 189.267 24.119 192C23.99 195.059 23.9175 198.213 23.8925 201.5C23.8659 205 23.8931 208.651 23.9631 212.5C23.9631 212.5 16.1759 214.157 14.3097 217.5C13.969 218.11 13.8257 218.777 13.9631 219.5C14.763 223.707 23.9631 224 23.9631 224L24.4631 228.75C24.4631 228.75 48.6805 226.081 62.4634 219.5C75.6789 213.19 82.2001 207.447 92.4631 197C102.454 186.831 101.714 174.792 113.963 167.5C121.661 162.918 127.006 160.873 135.963 161C145.472 161.134 150.631 164.416 158.963 169C171.428 175.859 174.771 184.614 185.463 194C197.358 204.441 203.384 211.371 216.963 219.5C233.984 229.689 245.141 233.012 264.463 237.5C276.192 240.224 294.963 242.018 294.963 242.018C294.963 242.018 308.974 243.131 317.963 243C327.951 242.854 333.566 242.35 343.463 241C352.722 239.737 358.12 239.518 366.963 236.5C372.836 234.496 377.413 234.702 381.463 230C383.363 227.795 385.106 223.5 385.106 223.5L389.963 225ZM215.463 94C212.487 95.7528 208.451 97.197 209.463 100.5C210.258 103.094 211.463 103.614 215.463 104C219.463 104.386 224.963 102 228.963 102.5C232.963 103 243.963 106 243.963 104C243.963 102 242.882 100.386 241.463 98.5C238.258 94.2378 228.963 93 228.963 93C228.963 93 220.019 91.3177 215.463 94ZM94.9634 97C96.0834 98.8328 96.1802 100.73 94.9634 102.5C94.1657 103.66 93.4634 104 91.9634 104.5C90.4634 105 85.8879 103.537 81.9634 103.5C78.8332 103.47 76.8451 105.223 73.9634 104C73.5614 103.829 72.9634 103.5 72.9634 103.5C72.9634 103.5 73.8911 100.879 74.9634 99.5C76.6923 97.2771 78.3449 96.5365 80.9634 95.5C84.2515 94.1985 86.5337 93.6379 89.9634 94.5C92.0806 95.0322 93.825 95.1372 94.9634 97ZM229.463 194C235.135 194.496 238.545 194.247 243.963 192.5C253.6 189.392 258.873 184.753 263.963 176C268.201 168.712 269.498 163.413 268.963 155C268.326 144.969 265.507 138.671 258.463 131.5C251.114 124.017 244.45 120.692 233.963 120.5C224.888 120.334 219.317 122.679 211.963 128C204.147 133.655 199.874 138.659 197.463 148C195.259 156.541 196.398 162.228 199.463 170.5C202.155 177.762 204.399 182.183 210.463 187C216.655 191.918 221.586 193.311 229.463 194ZM84.4634 183C80.6879 186.394 77.54 187.96 72.4634 188C66.3509 188.048 62.9466 185.155 58.4634 181C53.4001 176.307 51.6432 172.196 49.9634 165.5C48.3479 159.061 48.6759 155.013 49.9634 148.5C51.1869 142.311 52.2766 138.62 55.9634 133.5C59.9374 127.981 62.8953 124.263 69.4634 122.5C75.1491 120.974 79.8547 120.337 84.4634 124C86.4476 125.577 88.4634 129.111 88.4634 129.111C88.4634 129.111 92.718 132.421 93.4634 135.5C93.603 136.077 93.7053 137 93.7053 137L95.9634 151L93.4634 165.5L91.6634 170L88.4634 178C88.4634 178 86.323 181.328 84.4634 183Z" fill="#D1A07B"/>
<path d="M14.3097 217.5C16.1759 214.157 23.9631 212.5 23.9631 212.5C23.8931 208.651 23.8659 205 23.8925 201.5C23.9175 198.213 23.99 195.059 24.119 192C24.2343 189.267 24.3947 186.609 24.6067 184C24.8407 181.12 25.1376 178.299 25.506 175.5C25.8584 172.824 26.2761 170.168 26.7669 167.5C27.1933 165.182 27.6748 162.856 28.2164 160.5C28.7408 158.219 29.3215 155.909 29.9631 153.553C30.6757 150.935 31.4633 148.26 32.3322 145.5C33.3415 142.294 34.4604 138.975 35.6987 135.5C35.6987 135.5 26.6673 122.067 17.9631 122C13.4553 121.965 10.444 122.636 6.96314 125.5C-0.274015 131.456 6.96314 140.127 6.96314 149.5C6.96314 156.529 7.93274 160.538 6.96314 167.5C5.98276 174.54 3.12002 177.987 1.96314 185C0.944133 191.177 -0.141204 194.838 0.96314 201C2.0124 206.855 2.06473 211.625 6.96314 215C9.45883 216.719 14.3097 217.5 14.3097 217.5Z" fill="#BD8967"/>
<path d="M391.463 211C391.463 211 405.84 228.482 414.963 223.5C419.818 220.849 423.829 217.999 423.963 206C424.097 194.001 420.306 188.63 417.963 177.5C417.963 177.5 415.646 172.766 414.963 169.5C413.386 161.958 417.963 150 417.963 150C417.963 150 425.354 114.111 409.963 110C394.884 105.973 382.463 139 382.463 139L385.19 151L387.236 160L387.463 161C387.463 161 400.963 160.5 401.463 163.5C401.598 164.31 400.785 165.376 399.525 166.5C396.122 169.537 389.463 173 389.463 173C389.988 175.88 390.419 178.514 390.766 181C391.184 183.993 391.48 186.77 391.671 189.5C391.914 192.962 391.988 196.348 391.931 200C391.877 203.354 391.712 206.932 391.463 211Z" fill="#BD8967"/>
<path d="M72.4634 188C77.54 187.96 80.6879 186.394 84.4634 183C86.323 181.328 88.4634 178 88.4634 178C88.4634 178 84.6742 180.316 81.9634 181C78.366 181.907 76.0233 182.045 72.4634 181C67.6646 179.592 65.5553 176.931 62.4634 173C59.2763 168.948 57.9868 166.052 56.9634 161C56.0718 156.598 56.1186 153.911 56.9634 149.5C57.9666 144.262 59.1756 141.199 62.4634 137C66.1716 132.264 69.1312 129.473 74.9634 128C80.0923 126.705 88.4634 129.111 88.4634 129.111C88.4634 129.111 86.4476 125.577 84.4634 124C79.8547 120.337 75.1491 120.974 69.4634 122.5C62.8953 124.263 59.9374 127.981 55.9634 133.5C52.2766 138.62 51.1869 142.311 49.9634 148.5C48.6759 155.013 48.3479 159.061 49.9634 165.5C51.6432 172.196 53.4001 176.307 58.4634 181C62.9466 185.155 66.3509 188.048 72.4634 188Z" fill="white"/>
<path d="M67.4634 165.5C66.6089 164.507 64.4634 164 64.4634 164C64.4634 164 63.4312 164.816 62.9634 165.5C62.1607 166.673 61.9634 167.5 62.4634 168.5C62.9634 169.5 63.1823 169.914 63.9634 170.5C64.7329 171.077 65.5138 170.817 66.4225 170.514L66.4634 170.5C67.3896 170.191 68.4634 169 68.4634 169C68.4634 169 68.3907 166.577 67.4634 165.5Z" fill="white"/>
<path d="M74.9634 134C74.9634 134 72.4453 133.506 70.9634 134C68.8676 134.699 68.1027 136.107 66.9634 138C66.1029 139.429 65.4634 142 65.4634 142C65.4634 142 65.4992 144.455 66.4634 145.5C67.6844 146.823 69.1835 146.77 70.9634 146.5C73.0515 146.183 74.1374 145.144 75.4634 143.5C76.8982 141.721 77.8213 140.257 77.4634 138C77.1749 136.181 74.9634 134 74.9634 134Z" fill="white"/>
<path fill-rule="evenodd" clip-rule="evenodd" d="M243.963 192.5C238.545 194.247 235.135 194.496 229.463 194C221.586 193.311 216.655 191.918 210.463 187C204.399 182.183 202.155 177.762 199.463 170.5C196.398 162.228 195.259 156.541 197.463 148C199.874 138.659 204.147 133.655 211.963 128C219.317 122.679 224.888 120.334 233.963 120.5C244.45 120.692 251.114 124.017 258.463 131.5C265.507 138.671 268.326 144.969 268.963 155C269.498 163.413 268.201 168.712 263.963 176C258.873 184.753 253.6 189.392 243.963 192.5ZM216.963 183C222.932 186.066 227.286 186.163 233.963 185.5C237.969 185.102 240.333 184.739 243.963 183C248.586 180.786 251.049 178.716 253.963 174.5C257.229 169.776 257.787 166.203 258.463 160.5C259.273 153.669 259.623 149.11 256.463 143C253.417 137.108 249.842 134.572 243.963 131.5C237.276 128.006 232.419 126.846 224.963 128C217.8 129.109 213.459 131.248 208.463 136.5C203.829 141.372 201.869 145.337 200.963 152C199.967 159.324 204.963 170.5 204.963 170.5C204.963 170.5 210.944 179.908 216.963 183Z" fill="white"/>
<path d="M241.963 173C241.963 173 243.345 175.646 244.963 176C246.593 176.357 247.915 175.798 248.963 174.5C250.074 173.124 250.38 171.512 249.463 170C249.105 169.41 248.213 168.75 248.213 168.75C248.213 168.75 247.572 167.827 246.963 167.5C245.545 166.738 244.126 167.386 242.963 168.5C241.664 169.746 241.963 173 241.963 173Z" fill="white"/>
<path d="M220.463 135.5C215.963 135.5 214.091 136.511 211.963 139.5C210.494 141.565 210.213 145.75 210.213 145.75C210.213 145.75 211.879 149.255 213.963 150C215.811 150.66 217.128 150.195 218.963 149.5C221.045 148.711 222.213 147.842 223.463 146C224.926 143.844 225.83 141.957 224.963 139.5C224.181 137.283 222.221 137.062 220.463 135.5Z" fill="white"/>
<path d="M24.9631 233.5C25.54 238.594 27.1389 241.873 28.2794 245.5M24.9631 233.5C24.9631 233.5 13.4634 239.5 13.9631 242C14.4629 244.5 28.2794 245.5 28.2794 245.5M24.9631 233.5L24.4631 228.75M29.4631 251.5C29.4631 251.5 19.9631 256.5 20.4631 259C20.9631 261.5 31.9631 261 31.9631 261M29.4631 251.5C29.3089 249.23 28.8519 247.321 28.2794 245.5M29.4631 251.5L37.9631 246M31.9631 261C33.6505 266.115 35.1904 270.473 36.7664 274.5M31.9631 261L42.9631 260M49.4631 300.5C48.2011 298.265 47.0414 296.171 45.9631 294.168M49.4631 300.5C49.4631 300.5 47.9568 302.354 46.6175 304.5M49.4631 300.5L56.4631 290.5M55.4631 308.5C55.4631 308.5 46.9631 312.5 44.9631 310.5C43.9259 309.463 45.1748 306.812 46.6175 304.5M55.4631 308.5C57.7313 311.981 59.8522 315.112 61.9292 318M55.4631 308.5L67.4631 302.5M90.9631 347.5C90.9631 347.5 82.9631 361 85.9631 363.5C87.8033 365.033 93.4061 361.676 97.4631 358.85M90.9631 347.5C84.6304 342.517 79.6031 338.177 75.1832 333.757M90.9631 347.5L92.4631 343M101.963 355.5C101.963 355.5 100.02 357.069 97.4631 358.85M101.963 355.5C104.34 357.258 106.456 358.781 108.463 360.163M101.963 355.5L104.963 352M125.963 370.5C125.963 370.5 122.463 386.5 125.963 388C129.463 389.5 138.463 376.5 138.463 376.5M125.963 370.5C118.787 366.772 114.047 364.01 108.463 360.163M125.963 370.5L127.463 366M138.463 376.5C138.463 376.5 137.963 386 139.963 387C141.963 388 148.463 379.964 148.463 379.964M138.463 376.5C142.117 377.826 145.382 378.964 148.463 379.964M138.463 376.5L140.963 371.5M176.963 386.5C176.963 386.5 179.963 404.5 182.463 404.5C184.963 404.5 190.463 388 190.463 388M176.963 386.5C165.382 384.721 157.758 382.977 148.463 379.964M176.963 386.5V381.5M190.463 388C194.772 388.489 198.565 388.855 202.123 389.09M190.463 388L191.463 383.5M230.963 388C230.963 388 237.963 403.5 240.463 403C242.963 402.5 244.963 385 244.963 385M230.963 388C223.7 388.887 217.904 389.338 212.227 389.393M230.963 388L229.463 382M244.963 385C247.673 384.427 250.144 383.882 252.463 383.333M244.963 385V377.5M279.463 374C279.463 374 290.963 389.5 293.463 388C295.963 386.5 293.463 368 293.463 368M279.463 374C273.136 376.856 268.083 378.843 262.963 380.468M279.463 374L275.963 369M293.463 368C295.754 366.599 297.912 365.263 299.963 363.971M293.463 368L292.463 361M337.963 334.5C337.963 334.5 351.963 342 353.963 339C355.963 336 346.463 325.5 346.463 325.5M337.963 334.5C330.367 341.67 324.116 347.053 317.463 352.056M337.963 334.5L346.463 325.5M346.463 325.5L353.963 314.5M353.963 314.5C353.963 314.5 371.963 322 374.463 319.5C376.963 317 362.963 301.5 362.963 301.5M353.963 314.5L349.463 312M362.963 301.5L360.463 298.5M362.963 301.5L368.963 289.5M374.463 278.5C374.463 278.5 392.963 281 395.463 278.5C397.963 276 379.963 264.5 379.963 264.5M374.463 278.5L373.463 280.5M374.463 278.5L368.963 277M379.963 264.5L385.106 246.5M379.963 264.5L375.463 263M387.963 236.5C387.963 236.5 389.483 236.135 391.463 235.554M387.963 236.5L385.106 246.5M387.963 236.5L382.463 237M389.963 225C389.963 225 400.463 228.5 400.463 231C400.463 232.628 395.161 234.468 391.463 235.554M389.963 225L391.463 211M389.963 225L385.106 223.5C385.106 223.5 383.363 227.795 381.463 230C377.413 234.702 372.836 234.496 366.963 236.5C358.12 239.518 352.722 239.737 343.463 241C333.566 242.35 327.951 242.854 317.963 243C308.974 243.131 294.963 242.018 294.963 242.018C294.963 242.018 276.192 240.224 264.463 237.5C245.141 233.012 233.984 229.689 216.963 219.5C203.384 211.371 197.358 204.441 185.463 194C174.771 184.614 171.428 175.859 158.963 169C150.631 164.416 145.472 161.134 135.963 161C127.006 160.873 121.661 162.918 113.963 167.5C101.714 174.792 102.454 186.831 92.4631 197C82.2001 207.447 75.6789 213.19 62.4634 219.5C48.6805 226.081 24.4631 228.75 24.4631 228.75M391.463 211C391.463 211 405.84 228.482 414.963 223.5C419.818 220.849 423.829 217.999 423.963 206C424.097 194.001 420.306 188.63 417.963 177.5C417.963 177.5 415.646 172.766 414.963 169.5C413.386 161.958 417.963 150 417.963 150C417.963 150 425.354 114.111 409.963 110C394.884 105.973 382.463 139 382.463 139M391.463 211C391.712 206.932 391.877 203.354 391.931 200M382.463 139L385.19 151M382.463 139L380.463 134.693M375.963 125C375.963 125 384.963 114 384.463 112.5C383.963 111 371.463 113 371.463 113M375.963 125L380.463 134.693M375.963 125C375.963 125 372.338 124.072 369.963 124C363.543 123.804 360.256 126.726 354.463 129.5C347.088 133.032 343.319 135.855 336.963 141C329.343 147.169 319.463 159 319.463 159L326.463 173C326.463 173 330.491 182.87 330.463 189.5C330.433 196.796 325.463 207.5 325.463 207.5C325.463 207.5 354.463 240.5 362.463 235.554C370.463 230.608 368.962 233.05 370.963 229.5C377.625 217.68 379.863 208.291 382.463 197C384.631 187.585 377.215 182.632 376.463 173C375.529 161.023 380.147 154.509 380.463 142.5C380.544 139.452 380.463 134.693 380.463 134.693M371.463 113C366.929 105.131 363.56 99.624 359.289 93.5M371.463 113L364.963 114M351.963 83.5C351.963 83.5 352.655 82.7177 353.678 81.5M351.963 83.5C354.801 87.2337 357.157 90.4436 359.289 93.5M351.963 83.5L347.463 89M342.963 73C342.963 73 360.463 65.5 361.963 68C363.095 69.8867 356.823 77.7538 353.678 81.5M342.963 73L326.963 57.5M342.963 73L335.963 75.5M326.963 57.5C326.963 57.5 334.463 43 332.963 41C331.463 39 315.963 49 315.963 49M326.963 57.5L315.963 49M315.963 49L307.963 45M307.963 45C307.963 45 309.463 38 307.963 37C306.463 36 300.963 41 300.963 41M307.963 45L300.963 60.5M300.963 41L294.463 37M300.963 41L288.463 50.5M294.463 37C294.463 37 299.463 19 297.463 17.5C295.463 16 281.463 30.5 281.463 30.5M294.463 37L281.463 30.5M281.463 30.5C276.966 28.6216 273.114 27.0984 269.463 25.7752M246.463 19C246.463 19 245.963 5.5 243.963 4.5C241.963 3.5 234.463 17.5 234.463 17.5M246.463 19C250.981 20.1201 254.842 21.1344 258.463 22.1885M246.463 19V32M234.463 17.5C233.07 17.2877 231.741 17.0936 230.463 16.9162M234.463 17.5L229.463 28.5M200.463 15C200.463 15 195.463 2.5 193.463 2.5C191.463 2.5 188.463 16.5 188.463 16.5M200.463 15C207.313 15.0562 212.613 15.1813 217.963 15.5675M200.463 15L202.963 25.5M188.463 16.5C182.975 16.7884 177.819 18.1991 173.463 18.8328M188.463 16.5L186.963 26.5M146.963 26C146.963 26 146.237 24.9894 145.109 23.5M146.963 26C150.21 24.8214 153.168 23.8034 155.963 22.9224M146.963 26L149.463 30M132.963 32C132.963 32 130.463 13 132.963 11.5C134.835 10.377 141.751 19.0631 145.109 23.5M132.963 32C126.8 34.6047 121.393 37.0563 116.463 39.5758M132.963 32L133.963 36M76.9631 70.5C76.9631 70.5 68.4631 66 67.4631 68C66.4631 70 70.4631 76 70.4631 76M76.9631 70.5L87.4631 76M76.9631 70.5C81.0149 66.1488 84.7789 62.3652 88.4447 59M70.4631 76L77.9631 87M70.4631 76C70.4631 76 56.4631 69 54.4631 72C52.4631 75 62.4631 88.0727 62.4631 88.0727M70.4631 76L62.4631 88.0727M42.9631 117.5C42.9631 117.5 31.9631 113.5 30.4631 116.5C28.9631 119.5 38.4631 128 38.4631 128M42.9631 117.5L49.4631 119.5M42.9631 117.5L47.6017 110.5M38.4631 128L41.4631 131M38.4631 128C37.4816 130.584 36.5612 133.08 35.6987 135.5M23.9631 212.5C23.9631 212.5 16.1759 214.157 14.3097 217.5M23.9631 212.5L29.4631 210.5M23.9631 212.5C23.8931 208.651 23.8659 205 23.8925 201.5M23.9631 224C23.9631 224 14.763 223.707 13.9631 219.5C13.8257 218.777 13.969 218.11 14.3097 217.5M23.9631 224L31.4631 225.5M23.9631 224L24.4631 228.75M47.6017 110.5C47.6017 110.5 37.4631 98.5 39.4631 96C41.4631 93.5 54.4631 100.145 54.4631 100.145M47.6017 110.5L54.4631 100.145M54.4631 100.145L62.4631 88.0727M391.463 235.554C391.463 235.554 402.963 240.5 402.963 243.5C402.963 246.5 385.106 246.5 385.106 246.5M105.963 45.511C105.963 45.511 100.963 33.5 103.963 31.5C106.963 29.5 116.463 39.5758 116.463 39.5758M105.963 45.511C103.215 47.2398 100.572 49.0616 97.9631 51.0314M105.963 45.511C108.368 43.9982 110.852 42.5566 113.463 41.1494M116.463 39.5758C115.444 40.0968 114.445 40.6207 113.463 41.1494M88.4447 59C88.4447 59 81.9631 46 83.9631 44C85.9631 42 97.9631 51.0314 97.9631 51.0314M88.4447 59C91.6504 56.0571 94.781 53.4342 97.9631 51.0314M145.109 23.5C145.109 23.5 144.463 15.5 147.963 14C151.463 12.5 155.963 22.9224 155.963 22.9224M155.963 22.9224C158.281 22.1919 160.486 21.5556 162.651 21M162.651 21C162.651 21 162.963 8.5 165.963 8C168.963 7.5 173.463 18.8328 173.463 18.8328M162.651 21C166.258 20.0743 169.752 19.3727 173.463 18.8328M217.963 15.5675C217.963 15.5675 221.963 0.5 225.463 0.5C228.963 0.5 230.463 16.9162 230.463 16.9162M217.963 15.5675C221.891 15.851 225.846 16.2752 230.463 16.9162M258.463 22.1885C258.463 22.1885 264.963 9.5 267.963 10.5C270.963 11.5 269.463 25.7752 269.463 25.7752M258.463 22.1885C262.234 23.2861 265.744 24.4269 269.463 25.7752M353.678 81.5C353.678 81.5 365.963 76.5 367.963 79.5C369.963 82.5 359.289 93.5 359.289 93.5M387.463 161C387.463 161 400.963 160.5 401.463 163.5C401.598 164.31 400.785 165.376 399.525 166.5M387.463 161H383.463M387.463 161L387.236 160M389.463 173L386.463 174.5M389.463 173C389.988 175.88 390.419 178.514 390.766 181M389.463 173C389.463 173 396.122 169.537 399.525 166.5M36.7664 274.5C36.7664 274.5 23.4634 284.5 25.4631 287.5C27.4629 290.5 41.7774 286 41.7774 286M36.7664 274.5C38.3401 278.522 39.9496 282.214 41.7774 286M41.7774 286C43.047 288.63 44.4218 291.305 45.9631 294.168M45.9631 294.168C45.9631 294.168 37.4634 302.5 39.4631 304.5C41.4629 306.5 46.6175 304.5 46.6175 304.5M61.9292 318C61.9292 318 52.4634 330 54.4631 332.5C56.4629 335 69.4631 327.608 69.4631 327.608M61.9292 318C64.4439 321.496 66.8941 324.636 69.4631 327.608M69.4631 327.608C69.4631 327.608 61.9629 334 63.4631 336C64.9634 338 75.1832 333.757 75.1832 333.757M69.4631 327.608C71.288 329.719 73.1727 331.746 75.1832 333.757M97.4631 358.85C97.4631 358.85 94.9631 364.5 97.4631 366.5C99.9631 368.5 108.463 360.163 108.463 360.163M202.123 389.09C202.123 389.09 204.463 400.5 207.463 400.5C210.463 400.5 212.227 389.393 212.227 389.393M202.123 389.09C205.63 389.321 208.908 389.425 212.227 389.393M252.463 383.333C252.463 383.333 257.963 394.5 260.463 393.5C262.963 392.5 262.963 380.468 262.963 380.468M252.463 383.333C256.242 382.438 259.617 381.53 262.963 380.468M299.963 363.971C299.963 363.971 308.463 372.5 310.463 371C312.463 369.5 307.643 359 307.643 359M299.963 363.971C302.692 362.252 305.232 360.611 307.643 359M307.643 359C307.643 359 319.463 372 321.963 369.5C324.463 367 317.463 352.056 317.463 352.056M307.643 359C311.125 356.672 314.339 354.406 317.463 352.056M373.463 280.5C373.463 280.5 381.963 286 381.463 289C380.963 292 368.963 289.5 368.963 289.5M373.463 280.5L368.963 289.5M391.931 200L411.963 214M391.931 200C391.988 196.348 391.914 192.962 391.671 189.5M391.671 189.5L414.463 197M391.671 189.5C391.48 186.77 391.184 183.993 390.766 181M390.766 181L411.463 181.5M399.525 166.5L406.463 164.5M387.236 160L410.963 141M387.236 160L385.19 151M385.19 151L407.463 122M14.3097 217.5C14.3097 217.5 9.45883 216.719 6.96314 215C2.06473 211.625 2.0124 206.855 0.96314 201C-0.141204 194.838 0.944133 191.177 1.96314 185C3.12002 177.987 5.98276 174.54 6.96314 167.5C7.93274 160.538 6.96314 156.529 6.96314 149.5C6.96314 140.127 -0.274015 131.456 6.96314 125.5C10.444 122.636 13.4553 121.965 17.9631 122C26.6673 122.067 35.6987 135.5 35.6987 135.5M35.6987 135.5C34.4604 138.975 33.3415 142.294 32.3322 145.5M32.3322 145.5C26.0397 137.728 22.0433 134.01 14.4631 128M32.3322 145.5C31.4633 148.26 30.6757 150.935 29.9631 153.553M29.9631 153.553C23.2171 145.857 18.7768 141.946 9.96314 135.5M29.9631 153.553C29.3215 155.909 28.7408 158.219 28.2164 160.5M28.2164 160.5L11.9631 149.5M28.2164 160.5C27.6748 162.856 27.1933 165.182 26.7669 167.5M26.7669 167.5L13.4631 163M26.7669 167.5C26.2761 170.168 25.8584 172.824 25.506 175.5M25.506 175.5H10.9631M25.506 175.5C25.1376 178.299 24.8407 181.12 24.6067 184M24.6067 184C17.888 184.517 13.9514 186.045 6.96314 188.5M24.6067 184C24.3947 186.609 24.2343 189.267 24.119 192M24.119 192C17.6803 193.816 14.4364 196.966 8.46314 201.5M24.119 192C23.99 195.059 23.9175 198.213 23.8925 201.5M23.8925 201.5C19.2146 204.277 16.8342 206.67 12.4631 210.5M45.4634 197C45.4634 197 31.4631 190.5 31.9634 188C32.4636 185.5 47.9634 184 47.9634 184M73.9634 238.5C73.9634 238.5 57.9634 245 57.9634 248C57.9634 251 77.9634 252 77.9634 252M90.9634 278C90.9634 278 83.9634 294.5 85.4634 296.5C86.9634 298.5 102.463 287 102.463 287M101.963 320.5C101.963 320.5 97.9636 339.5 99.9634 340C101.963 340.5 113.963 327.608 113.963 327.608M140.963 289.5C140.963 289.5 142.963 307.5 145.463 308C147.963 308.5 155.463 292.5 155.463 292.5M121.463 340C121.463 340 120.964 358.85 123.463 358.85C125.963 358.85 134.963 344.5 134.963 344.5M158.963 332.5C158.963 332.5 161.463 353 164.463 352.5C167.463 352 173.463 336 173.463 336M194.963 359C194.963 359 200.463 377 203.963 376.5C207.463 376 208.963 358 208.963 358M225.463 331.5C225.463 331.5 234.463 348 237.463 347C240.463 346 239.463 328.5 239.463 328.5M250.963 350.5C250.963 350.5 261.463 367 264.463 365C267.463 363 264.463 345.5 264.463 345.5M285.463 316C285.463 316 300.963 327.5 303.463 324.5C305.963 321.5 297.463 307 297.463 307M242.963 313.5C242.963 313.5 253.963 329.5 257.963 327C261.963 324.5 256.963 307 256.963 307M194.963 303.5C194.963 303.5 203.963 321 206.963 320C209.963 319 209.463 300 209.463 300M227.963 270.5C227.963 270.5 243.463 277.5 245.463 276C247.463 274.5 237.463 258 237.463 258M278.463 286C278.463 286 295.463 289.5 296.463 287.5C297.463 285.5 285.463 273.5 285.463 273.5M303.463 330.5C303.463 330.5 319.463 341.5 321.963 339C324.463 336.5 314.963 321 314.963 321M321.963 313C321.963 313 339.963 318 341.463 316C342.963 314 329.463 301 329.463 301M314.463 280.5C314.463 280.5 335.463 282 335.463 279C335.463 276 321.963 267.5 321.963 267.5M345.463 257C345.463 257 364.963 260 365.463 257C365.963 254 351.963 244 351.963 244M323.463 236.5C323.463 236.5 340.463 232 340.463 229.5C340.463 227 324.463 223 324.463 223M319.463 210.5C322.271 213.817 324.034 215.462 327.963 217.5M288.463 202C288.463 202 304.463 194.5 303.463 192C302.463 189.5 287.963 189 287.963 189M320.463 150C315.854 153.111 314.419 155.464 313.463 160.5M327.463 162.5C341.559 148.608 350.254 142.07 367.463 133M330.463 166.5C346.009 155.924 355.064 150.68 371.963 143M334.463 173C348.245 166.752 356.096 163.684 370.463 159.5M337.463 181C350.174 179.321 357.314 178.521 369.963 177.5M337.463 190C350.501 191.406 358.504 192.708 373.463 195.5M335.963 198C348.58 203.378 355.996 206.442 369.963 212M333.463 205C343.059 213.706 349.101 217.873 360.463 225M303.463 117.5C303.463 117.5 318.463 108.5 320.463 110.5C322.463 112.5 313.463 128 313.463 128M334.463 111C334.463 111 352.963 103.5 354.463 106C355.963 108.5 342.963 122.5 342.963 122.5M293.963 84.5C293.963 84.5 311.463 75 313.463 77.5C315.463 80 304.463 96 304.463 96M220.963 64C220.963 64 229.463 43 231.963 43.5C234.463 44 236.963 65.5 236.963 65.5M171.463 91C171.463 91 172.463 72 175.963 71.5C179.463 71 185.463 88 185.463 88M117.963 97.5C117.963 97.5 112.463 79.5 114.963 77.5C117.463 75.5 128.963 89 128.963 89M115.963 62.5C113.741 54.2022 112.388 49.5536 113.463 41.1494M113.463 41.1494C121.095 45.2616 124.011 48.5171 128.963 54.5M163.463 54.5C163.463 54.5 162.651 33 165.463 32C168.276 31 177.463 49 177.463 49M120.963 204C132.106 211.006 138.93 211.682 152.463 205.5M107.963 183C127.042 196.178 140.142 196.603 168.463 183M107.963 183L106.963 187M107.963 183L109.963 181M168.463 183L164.963 180M168.463 183L171.463 187M125.963 148.5L127.463 152M147.463 148.5L145.963 152M241.963 173C241.963 173 238.446 175.163 235.963 176C230.227 177.933 226.531 177.875 220.963 175.5C216.009 173.387 212.972 171.267 210.463 166.5C207.801 161.442 207.621 157.654 208.463 152C208.837 149.493 210.213 145.75 210.213 145.75M241.963 173C241.963 173 243.345 175.646 244.963 176C246.593 176.357 247.915 175.798 248.963 174.5C250.074 173.124 250.38 171.512 249.463 170C249.105 169.41 248.213 168.75 248.213 168.75M241.963 173C241.963 173 241.664 169.746 242.963 168.5C244.126 167.386 245.545 166.738 246.963 167.5C247.572 167.827 248.213 168.75 248.213 168.75M248.213 168.75C248.213 168.75 250.909 163.918 251.463 160.5C252.123 156.434 251.592 153.962 250.463 150C249.458 146.472 248.743 144.374 246.463 141.5C243.401 137.639 240.705 135.845 235.963 134.5C232.577 133.54 230.463 133.625 226.963 134C224.373 134.278 222.913 134.615 220.463 135.5M220.463 135.5C215.963 135.5 214.091 136.511 211.963 139.5C210.494 141.565 210.213 145.75 210.213 145.75M220.463 135.5C222.221 137.062 224.181 137.283 224.963 139.5C225.83 141.957 224.926 143.844 223.463 146C222.213 147.842 221.045 148.711 218.963 149.5C217.128 150.195 215.811 150.66 213.963 150C211.879 149.255 210.213 145.75 210.213 145.75M88.4634 178C88.4634 178 86.323 181.328 84.4634 183C80.6879 186.394 77.54 187.96 72.4634 188C66.3509 188.048 62.9466 185.155 58.4634 181C53.4001 176.307 51.6432 172.196 49.9634 165.5C48.3479 159.061 48.6759 155.013 49.9634 148.5C51.1869 142.311 52.2766 138.62 55.9634 133.5C59.9374 127.981 62.8953 124.263 69.4634 122.5C75.1491 120.974 79.8547 120.337 84.4634 124C86.4476 125.577 88.4634 129.111 88.4634 129.111M88.4634 178C88.4634 178 84.6742 180.316 81.9634 181C78.366 181.907 76.0233 182.045 72.4634 181C67.6646 179.592 65.5553 176.931 62.4634 173C59.2763 168.948 57.9868 166.052 56.9634 161C56.0718 156.598 56.1186 153.911 56.9634 149.5C57.9666 144.262 59.1756 141.199 62.4634 137C66.1716 132.264 69.1312 129.473 74.9634 128C80.0923 126.705 88.4634 129.111 88.4634 129.111M88.4634 178L91.6634 170M88.4634 129.111C88.4634 129.111 92.718 132.421 93.4634 135.5C93.603 136.077 93.7053 137 93.7053 137M93.7053 137L95.9634 151L93.4634 165.5L91.6634 170M93.7053 137C93.7053 137 90.1125 134.39 87.4634 133.5C85.0289 132.682 83.5281 132.366 80.9634 132.5C78.5514 132.626 74.9634 134 74.9634 134M74.9634 134C74.9634 134 72.4453 133.506 70.9634 134C68.8676 134.699 68.1027 136.107 66.9634 138C66.1029 139.429 65.4634 142 65.4634 142M74.9634 134C74.9634 134 77.1749 136.181 77.4634 138C77.8213 140.257 76.8982 141.721 75.4634 143.5C74.1374 145.144 73.0515 146.183 70.9634 146.5C69.1835 146.77 67.6844 146.823 66.4634 145.5C65.4992 144.455 65.4634 142 65.4634 142M65.4634 142L62.4634 149C62.4634 149 60.9991 153.886 61.4634 157C61.9019 159.942 64.4634 164 64.4634 164M64.4634 164C64.4634 164 66.6089 164.507 67.4634 165.5C68.3907 166.577 68.4634 169 68.4634 169M64.4634 164C64.4634 164 63.4312 164.816 62.9634 165.5C62.1607 166.673 61.9634 167.5 62.4634 168.5C62.9634 169.5 63.1823 169.914 63.9634 170.5C64.7329 171.077 65.5138 170.817 66.4225 170.514M68.4634 169L73.4634 173L80.9634 174.5L89.9634 170.5L91.6634 170M68.4634 169C68.4634 169 67.3896 170.191 66.4634 170.5M66.4634 170.5L66.4225 170.514M66.4634 170.5C66.4497 170.505 66.4361 170.509 66.4225 170.514M209.463 100.5C208.451 97.197 212.487 95.7528 215.463 94C220.019 91.3177 228.963 93 228.963 93C228.963 93 238.258 94.2378 241.463 98.5C242.882 100.386 243.963 102 243.963 104C243.963 106 232.963 103 228.963 102.5C224.963 102 219.463 104.386 215.463 104C211.463 103.614 210.258 103.094 209.463 100.5ZM94.9634 102.5C96.1802 100.73 96.0834 98.8328 94.9634 97C93.825 95.1372 92.0806 95.0322 89.9634 94.5C86.5337 93.6379 84.2515 94.1985 80.9634 95.5C78.3449 96.5365 76.6923 97.2771 74.9634 99.5C73.8911 100.879 72.9634 103.5 72.9634 103.5C72.9634 103.5 73.5614 103.829 73.9634 104C76.8451 105.223 78.8332 103.47 81.9634 103.5C85.8879 103.537 90.4634 105 91.9634 104.5C93.4634 104 94.1657 103.66 94.9634 102.5ZM243.963 192.5C238.545 194.247 235.135 194.496 229.463 194C221.586 193.311 216.655 191.918 210.463 187C204.399 182.183 202.155 177.762 199.463 170.5C196.398 162.228 195.259 156.541 197.463 148C199.874 138.659 204.147 133.655 211.963 128C219.317 122.679 224.888 120.334 233.963 120.5C244.45 120.692 251.114 124.017 258.463 131.5C265.507 138.671 268.326 144.969 268.963 155C269.498 163.413 268.201 168.712 263.963 176C258.873 184.753 253.6 189.392 243.963 192.5ZM233.963 185.5C227.286 186.163 222.932 186.066 216.963 183C210.944 179.908 204.963 170.5 204.963 170.5C204.963 170.5 199.967 159.324 200.963 152C201.869 145.337 203.829 141.372 208.463 136.5C213.459 131.248 217.8 129.109 224.963 128C232.419 126.846 237.276 128.006 243.963 131.5C249.842 134.572 253.417 137.108 256.463 143C259.623 149.11 259.273 153.669 258.463 160.5C257.787 166.203 257.229 169.776 253.963 174.5C251.049 178.716 248.586 180.786 243.963 183C240.333 184.739 237.969 185.102 233.963 185.5Z" stroke="black"/>
</svg>
