<svg width="2500" height="1080" viewBox="0 0 2500 1080" fill="none" xmlns="http://www.w3.org/2000/svg">
<g clip-path="url(#clip0_2010_101)">
<rect width="2500" height="1080" fill="url(#paint0_linear_2010_101)"/>
<path d="M392.308 -94.9087L-65.5466 994.864L381.654 1072.65L615.687 -58.0363L392.308 -94.9087Z" fill="url(#paint1_linear_2010_101)" fill-opacity="0.5"/>
<path d="M907.114 -85.2743L707.702 1079.83L1142.17 1130.22L1133.04 -99.8991L907.114 -85.2743Z" fill="url(#paint2_linear_2010_101)" fill-opacity="0.5"/>
<path d="M1385.81 -31.9402L1406.54 1149.93L1842.8 1118.64L1605.08 -88.3242L1385.81 -31.9402Z" fill="url(#paint3_linear_2010_101)" fill-opacity="0.5"/>
<path d="M1924.58 -49.7455L2156.98 1109.23L2580.55 1000.2L2130.18 -144.547L1924.58 -49.7455Z" fill="url(#paint4_linear_2010_101)" fill-opacity="0.5"/>
<path d="M1270.62 953.735C1283.43 880.671 1391.44 912.706 1460.12 940.735C1513.61 962.568 1594.59 988.131 1569.62 1040.24C1549.06 1083.13 1450.62 1066.24 1450.62 1066.24C1450.62 1066.24 1351.01 1087.35 1310.12 1050.24C1279.97 1022.87 1263.59 993.844 1270.62 953.735Z" fill="#F7E89D" stroke="black"/>
<path d="M662 989C679.543 941.953 425.745 914.515 386.268 883.487C346.948 852.582 280.3 899.569 261.869 853.078C253.809 832.748 273.223 815.318 261.151 797.082C242.398 768.751 174.158 798.196 174.158 798.196L124.034 866.844L164.164 954.837L243.205 1035.63C243.205 1035.63 641.217 1044.74 662 989Z" fill="#E0CF78" stroke="black"/>
<path d="M-6.84719 927.725C200.851 928.177 313.75 982.785 521.238 975.674C718.127 968.927 818.953 891.591 1015.78 899.256C1189.16 906.007 1273.34 965.618 1443.91 990.159C1570.54 1008.38 1642.6 1024.43 1771.41 1021.13C1872.77 1018.52 1928.66 1006.07 2027.89 990.159C2224.9 958.561 2391.29 753.152 2519.15 871.285C2606.56 952.05 2519.15 1139 2519.15 1139H-20V927.725C-20 927.725 -11.9837 927.714 -6.84719 927.725Z" fill="#E0CF78" stroke="black"/>
<path d="M440 1003.5C410.91 958.161 393.5 935.5 307 911.5C275.85 902.857 181.679 895.542 166.5 867C147.98 832.175 190.02 797.663 166.5 766C144.113 735.862 107 755.426 75.5 735C36.1462 709.481 36.2805 671.106 -0.500015 642C-134.939 535.614 -0.500015 1081 -0.500015 1081C-0.500015 1081 842.012 1135.32 676 1074.5C625.083 1055.85 449.071 1017.64 440 1003.5Z" fill="#C9B96A" stroke="black"/>
<path d="M408.5 1098.5C394.504 1038.42 237.182 1088.1 219.5 1029C200.5 965.5 145 935 107.5 953C87.6808 962.513 73.9085 857.822 52 856C16.4709 853.045 -33.5 929.5 -33.5 929.5V1049L93 1145C93 1145 428.069 1182.49 408.5 1098.5Z" fill="#9A8E50" stroke="black"/>
</g>
<defs>
<linearGradient id="paint0_linear_2010_101" x1="1250" y1="0" x2="1250" y2="1080" gradientUnits="userSpaceOnUse">
<stop stop-color="#6EC6E0"/>
<stop offset="1" stop-color="#376281"/>
</linearGradient>
<linearGradient id="paint1_linear_2010_101" x1="522.136" y1="-109.65" x2="189.052" y2="1073.05" gradientUnits="userSpaceOnUse">
<stop stop-color="#8DDEF6"/>
<stop offset="1" stop-color="#367FB3"/>
</linearGradient>
<linearGradient id="paint2_linear_2010_101" x1="1030.24" y1="-129.008" x2="973.388" y2="1098.39" gradientUnits="userSpaceOnUse">
<stop stop-color="#8DDEF6"/>
<stop offset="1" stop-color="#367FB3"/>
</linearGradient>
<linearGradient id="paint3_linear_2010_101" x1="1498.66" y1="-97.8076" x2="1671.05" y2="1118.75" gradientUnits="userSpaceOnUse">
<stop stop-color="#8DDEF6"/>
<stop offset="1" stop-color="#367FB3"/>
</linearGradient>
<linearGradient id="paint4_linear_2010_101" x1="2023.78" y1="-134.787" x2="2411.6" y2="1031.12" gradientUnits="userSpaceOnUse">
<stop stop-color="#8DDEF6"/>
<stop offset="1" stop-color="#367FB3"/>
</linearGradient>
<clipPath id="clip0_2010_101">
<rect width="2500" height="1080" fill="white"/>
</clipPath>
</defs>
</svg>
