<svg width="2500" height="1080" viewBox="0 0 2500 1080" fill="none" xmlns="http://www.w3.org/2000/svg">
<g clip-path="url(#clip0_2010_101)">
<rect width="2500" height="1080" fill="url(#paint0_linear_2010_101)"/>
<path d="M392.308 -94.9087L-65.5466 994.864L381.654 1072.65L615.687 -58.0363L392.308 -94.9087Z" fill="url(#paint1_linear_2010_101)" fill-opacity="0.5"/>
<path d="M907.114 -85.2743L707.702 1079.83L1142.17 1130.22L1133.04 -99.8991L907.114 -85.2743Z" fill="url(#paint2_linear_2010_101)" fill-opacity="0.5"/>
<path d="M1385.81 -31.9402L1406.54 1149.93L1842.8 1118.64L1605.08 -88.3242L1385.81 -31.9402Z" fill="url(#paint3_linear_2010_101)" fill-opacity="0.5"/>
<path d="M1924.58 -49.7455L2156.98 1109.23L2580.55 1000.2L2130.18 -144.547L1924.58 -49.7455Z" fill="url(#paint4_linear_2010_101)" fill-opacity="0.5"/>
<path d="M1423.01 1037.14C1436.33 941.634 1547.12 941.876 1641.51 922.136C1711.84 907.425 1756.52 902.025 1825.51 922.136C1882.43 938.729 1941.34 940.094 1957.51 997.136C1963.79 1019.3 1957.51 1056.14 1957.51 1056.14L1689.51 1117.64L1423.01 1079.14C1423.01 1079.14 1420.74 1053.38 1423.01 1037.14Z" fill="#867F58" stroke="black"/>
<path d="M429.907 752.383C429.907 752.383 435.055 683.855 452.981 644.806C470.174 607.354 514.303 601.361 516.029 560.187C517.186 532.611 517.47 504.61 492.128 493.675C459.319 479.517 465.43 568.441 430.429 561.243C409.582 556.956 397.088 544.626 390.183 524.494C379.347 492.901 489.798 419.799 475.372 389.676C459.554 356.648 364.364 424.257 339.054 450.723C313.19 477.771 374.593 523.235 345.167 546.358C331.87 556.806 319.371 564.618 303.602 558.509C284.947 551.281 298.268 525.054 283.762 511.277C268.61 496.886 252.525 486.46 233.08 494.113C205.488 504.972 252.355 550.328 230.155 569.984C199.949 596.73 148.491 546.783 148.699 506.439C148.876 472.268 278.366 428.576 277.393 394.419C276.634 367.764 262.872 346.517 237.662 337.827C202.093 325.566 128.482 457.885 93.171 444.901C71.0253 436.759 55.3191 420.601 56.313 397.027C57.4588 369.85 114.864 379.214 109.855 352.479C105.102 327.109 74.9174 323.961 49.2041 326.212C12.6346 329.413 20.7184 407.014 -14.1801 395.627C-29.9587 390.479 -28.9727 367.393 -45.5645 366.969C-64.694 366.48 -74.3869 384.489 -78.6053 403.153C-82.8502 421.936 -70.3524 432.068 -64.0784 450.273C-41.2063 516.64 14.4028 611.988 14.4028 611.988L265.401 769.409L429.907 752.383Z" fill="#812222"/>
<path d="M230.132 351.264C227.109 378.967 232.158 389.04 255.495 395.414M44.5638 340.933C59.6924 356.822 69.6141 361.52 91.0395 358.996M448.899 391.232C446.057 400.501 446.126 405.051 458.177 408.506M480.327 506.598C487.272 518.939 493.024 521.3 505.692 519.602M236.98 509.862C254.187 525.877 263.573 529.518 279.796 525.26M429.907 752.383C429.907 752.383 435.055 683.855 452.981 644.806C470.174 607.354 514.303 601.361 516.029 560.187C517.186 532.611 517.47 504.61 492.128 493.675C459.319 479.517 465.43 568.441 430.429 561.243C409.582 556.956 397.088 544.626 390.183 524.494C379.347 492.901 489.798 419.799 475.372 389.676C459.554 356.648 364.364 424.257 339.054 450.723C313.19 477.771 374.593 523.235 345.167 546.358C331.87 556.806 319.371 564.618 303.602 558.509C284.947 551.281 298.268 525.054 283.762 511.277C268.61 496.886 252.525 486.46 233.08 494.113C205.488 504.972 252.355 550.328 230.155 569.984C199.949 596.73 148.491 546.783 148.699 506.439C148.876 472.268 278.366 428.576 277.393 394.419C276.634 367.764 262.872 346.517 237.662 337.827C202.093 325.566 128.482 457.885 93.171 444.901C71.0253 436.759 55.3191 420.601 56.313 397.027C57.4588 369.85 114.864 379.214 109.855 352.479C105.102 327.109 74.9174 323.961 49.2041 326.212C12.6346 329.413 20.7184 407.014 -14.1801 395.627C-29.9587 390.479 -28.9727 367.393 -45.5645 366.969C-64.694 366.48 -74.3869 384.489 -78.6053 403.153C-82.8502 421.936 -70.3524 432.068 -64.0784 450.273C-41.2063 516.64 14.4028 611.988 14.4028 611.988L265.401 769.409L429.907 752.383Z" stroke="black"/>
<path d="M396.007 1011.14C409.327 915.634 520.123 915.876 614.507 896.136C684.842 881.425 729.522 876.025 798.507 896.136C855.427 912.729 914.338 914.094 930.507 971.136C936.791 993.303 930.507 1030.14 930.507 1030.14L662.507 1091.64L396.007 1053.14C396.007 1053.14 393.741 1027.38 396.007 1011.14Z" fill="#867F58" stroke="black"/>
<path d="M425.348 903.907C425.348 903.907 473.434 853.473 458.225 822.911C441.625 789.553 383.71 840.12 363.899 808.563C347.169 781.912 346.557 742.95 374.613 728.704C403.154 714.211 415.735 781.151 445.612 769.662C483.75 754.997 397.174 701.625 420.515 668.088C435.908 645.971 463.681 619.456 482.816 638.429C496.965 652.459 481.582 669.644 483.842 689.441C487.269 719.461 477.623 748.559 503.417 764.295C527.144 778.769 554.911 774.376 573.841 754.027C595.165 731.106 548.043 695.039 571.142 673.908C592.082 654.752 622.612 656.432 643.8 675.314C670.769 699.347 648.483 735.104 631.516 766.996C614.093 799.744 542.691 796.467 559.86 829.35C573.017 854.548 617.211 822.089 630.411 847.264C642.497 870.317 634.135 896.589 612.841 911.559C585.843 930.538 565.715 881.246 532.855 884.292C498.089 887.515 456.149 930.222 456.149 930.222L425.348 903.907Z" fill="#126DBD"/>
<path d="M578.234 688.806C601.266 702.542 615.395 705.05 643.368 697.67M425.888 679.374C447.948 676.12 459.189 671.009 476.902 655.089M425.348 903.907C425.348 903.907 473.434 853.473 458.225 822.911C441.625 789.553 383.71 840.12 363.899 808.563C347.169 781.912 346.557 742.95 374.613 728.704C403.154 714.211 415.735 781.151 445.612 769.662C483.75 754.997 397.174 701.625 420.515 668.088C435.908 645.971 463.681 619.456 482.816 638.429C496.965 652.459 481.582 669.644 483.842 689.441C487.269 719.461 477.623 748.559 503.417 764.295C527.144 778.769 554.911 774.376 573.841 754.027C595.165 731.106 548.043 695.039 571.142 673.908C592.082 654.752 622.612 656.432 643.8 675.314C670.769 699.347 648.483 735.104 631.516 766.996C614.093 799.744 542.691 796.467 559.86 829.35C573.017 854.548 617.211 822.089 630.411 847.264C642.497 870.317 634.135 896.589 612.841 911.559C585.843 930.538 565.715 881.246 532.855 884.292C498.089 887.515 456.149 930.222 456.149 930.222L425.348 903.907Z" stroke="black"/>
<path d="M166.062 758.668C169.348 793.342 139.062 843.668 139.062 843.668H163.312C163.312 843.668 173.177 815.648 177.562 797.168C184.34 768.606 197.197 750.397 187.562 722.668C180.185 701.437 160.85 698.402 151.062 678.168C140.407 656.14 134.312 640.673 139.062 616.668C143.139 596.069 157.343 589.271 166.062 570.168C178.17 543.643 198.609 525.652 187.562 498.668C178.581 476.731 148.959 483.709 139.062 462.168C123.477 428.245 183.062 419.168 177.562 374.668C173.716 343.549 175.249 336.637 176.519 335.294C165.458 337.945 155.697 382.014 139.062 408.668C139.062 408.668 102.671 436.592 101.062 462.168C99.052 494.131 156.094 495.541 151.062 527.168C147.718 548.191 127.421 551.302 117.562 570.168C107.177 590.043 100.265 602.758 101.062 625.168C102.168 656.254 125.637 667.11 139.062 695.168C150.693 719.476 163.521 731.842 166.062 758.668Z" fill="#032D08"/>
<path d="M207.562 388.668C207.031 364.721 189.062 335.168 177.562 335.168C177.213 335.168 176.866 335.211 176.519 335.294C175.249 336.637 173.716 343.549 177.562 374.668C183.062 419.168 123.477 428.245 139.062 462.168C148.959 483.709 178.581 476.731 187.562 498.668C198.609 525.652 178.17 543.643 166.062 570.168C157.343 589.271 143.139 596.069 139.062 616.668C134.312 640.673 140.407 656.14 151.062 678.168C160.85 698.402 180.185 701.437 187.562 722.668C197.197 750.397 184.34 768.606 177.562 797.168C173.177 815.648 163.312 843.668 163.312 843.668H187.562C187.562 843.668 203.809 797.819 207.562 767.168C210.98 739.259 218.618 721.021 207.562 695.168C198.163 673.188 170.502 673.658 166.062 650.168C161.678 626.971 179.904 616 187.562 593.668C196.359 568.016 204.074 554.062 207.562 527.168C210.326 505.868 213.92 492.685 207.562 472.168C202.903 457.131 189.572 452.782 187.562 437.168C184.947 416.848 208.017 409.151 207.562 388.668Z" fill="#1E5B25"/>
<path d="M177.562 335.168C189.062 335.168 207.031 364.721 207.562 388.668C208.017 409.151 184.947 416.848 187.562 437.168C189.572 452.782 202.903 457.131 207.562 472.168C213.92 492.685 210.326 505.868 207.562 527.168C204.074 554.062 196.359 568.016 187.562 593.668C179.904 616 161.678 626.971 166.062 650.168C170.502 673.658 198.163 673.188 207.562 695.168C218.618 721.021 210.98 739.259 207.562 767.168C203.809 797.819 187.562 843.668 187.562 843.668H163.312M177.562 335.168C177.562 335.168 177.065 334.716 176.519 335.294M177.562 335.168C177.213 335.168 176.866 335.211 176.519 335.294M163.312 843.668H139.062C139.062 843.668 169.348 793.342 166.062 758.668C163.521 731.842 150.693 719.476 139.062 695.168C125.637 667.11 102.168 656.254 101.062 625.168C100.265 602.758 107.177 590.043 117.562 570.168C127.421 551.302 147.718 548.191 151.062 527.168C156.094 495.541 99.052 494.131 101.062 462.168C102.671 436.592 139.062 408.668 139.062 408.668C155.697 382.014 165.458 337.945 176.519 335.294M163.312 843.668C163.312 843.668 173.177 815.648 177.562 797.168C184.34 768.606 197.197 750.397 187.562 722.668C180.185 701.437 160.85 698.402 151.062 678.168C140.407 656.14 134.312 640.673 139.062 616.668C143.139 596.069 157.343 589.271 166.062 570.168C178.17 543.643 198.609 525.652 187.562 498.668C178.581 476.731 148.959 483.709 139.062 462.168C123.477 428.245 183.062 419.168 177.562 374.668C173.716 343.549 175.249 336.637 176.519 335.294" stroke="black"/>
<path d="M2106.69 770.109C2120.28 802.179 2106.57 859.294 2106.57 859.294L2129.69 851.984C2129.69 851.984 2130.65 822.293 2129.26 803.351C2127.12 774.075 2133.89 752.837 2116.34 729.302C2102.91 711.282 2083.56 714.217 2068.12 697.875C2051.32 680.083 2040.85 667.173 2038.14 642.853C2035.82 621.983 2047.32 611.22 2049.87 590.377C2053.42 561.436 2067.48 538.121 2048.82 515.722C2033.64 497.512 2007.5 513.095 1991.57 495.54C1966.48 467.893 2020.56 441.277 2001.9 400.505C1988.86 371.992 1988.23 364.94 1989.04 363.276C1979.29 369.139 1983.27 414.1 1975.44 444.529C1975.44 444.529 1949.16 482.123 1955.34 506.995C1963.06 538.077 2017.87 522.226 2022.61 553.899C2025.76 574.952 2007.34 584.037 2003.63 604.997C1999.72 627.078 1996.96 641.285 2004.47 662.413C2014.9 691.719 2040.55 694.995 2061.81 717.702C2080.22 737.373 2096.18 745.296 2106.69 770.109Z" fill="#032D08"/>
<path d="M2034.73 404.81C2027 382.137 2000.96 359.376 1990 362.842C1989.66 362.947 1989.34 363.093 1989.04 363.276C1988.23 364.94 1988.86 371.992 2001.9 400.505C2020.56 441.277 1966.48 467.893 1991.57 495.54C2007.5 513.095 2033.64 497.512 2048.82 515.722C2067.48 538.121 2053.42 561.436 2049.87 590.377C2047.32 611.22 2035.82 621.983 2038.14 642.853C2040.85 667.173 2051.32 680.083 2068.12 697.875C2083.56 714.217 2102.91 711.282 2116.34 729.302C2133.89 752.837 2127.12 774.075 2129.26 803.351C2130.65 822.293 2129.69 851.984 2129.69 851.984L2152.82 844.674C2152.82 844.674 2154.49 796.059 2148.83 765.704C2143.67 738.062 2145.46 718.371 2127.12 697.053C2111.53 678.928 2085.3 687.715 2073.99 666.656C2062.81 645.859 2076.88 629.904 2077.45 606.303C2078.11 579.192 2081.26 563.562 2076.48 536.868C2072.69 515.725 2072.14 502.072 2059.9 484.426C2050.92 471.493 2036.9 471.364 2030.28 457.083C2021.66 438.497 2041.34 424.203 2034.73 404.81Z" fill="#1E5B25"/>
<path d="M1990 362.842C2000.96 359.376 2027 382.137 2034.73 404.81C2041.34 424.203 2021.66 438.497 2030.28 457.083C2036.9 471.364 2050.92 471.493 2059.9 484.426C2072.14 502.072 2072.69 515.725 2076.48 536.868C2081.26 563.562 2078.11 579.192 2077.45 606.303C2076.88 629.904 2062.81 645.859 2073.99 666.656C2085.3 687.715 2111.53 678.928 2127.12 697.053C2145.46 718.371 2143.67 738.062 2148.83 765.704C2154.49 796.059 2152.82 844.674 2152.82 844.674L2129.69 851.984M1990 362.842C1990 362.842 1989.39 362.561 1989.04 363.276M1990 362.842C1989.66 362.947 1989.34 363.093 1989.04 363.276M2129.69 851.984L2106.57 859.294C2106.57 859.294 2120.28 802.179 2106.69 770.109C2096.18 745.296 2080.22 737.373 2061.81 717.702C2040.55 694.995 2014.9 691.719 2004.47 662.413C1996.96 641.285 1999.72 627.078 2003.63 604.997C2007.34 584.037 2025.76 574.952 2022.61 553.899C2017.87 522.226 1963.06 538.077 1955.34 506.995C1949.16 482.123 1975.44 444.529 1975.44 444.529C1983.27 414.1 1979.29 369.139 1989.04 363.276M2129.69 851.984C2129.69 851.984 2130.65 822.293 2129.26 803.351C2127.12 774.075 2133.89 752.837 2116.34 729.302C2102.91 711.282 2083.56 714.217 2068.12 697.875C2051.32 680.083 2040.85 667.173 2038.14 642.853C2035.82 621.983 2047.32 611.22 2049.87 590.377C2053.42 561.436 2067.48 538.121 2048.82 515.722C2033.64 497.512 2007.5 513.095 1991.57 495.54C1966.48 467.893 2020.56 441.277 2001.9 400.505C1988.86 371.992 1988.23 364.94 1989.04 363.276" stroke="black"/>
<path d="M1567.17 1019.63C1585.67 1046.96 1576.08 1103.66 1576.08 1103.66L1603.53 1096.97C1603.53 1096.97 1611.68 1048.72 1600.07 1021.67C1590.27 998.822 1565.3 997.234 1558.74 973.257C1551.76 947.765 1565.41 932.466 1572.32 906.955C1579.47 880.563 1596.52 867.998 1594.96 840.699C1593.22 810.182 1570.11 799.774 1557.98 771.713C1545.77 743.444 1537.09 727.451 1532.96 696.935C1530.34 677.602 1532.19 646.986 1532.19 646.986C1502.29 640.616 1511.97 709.408 1513.6 746.753C1514.7 771.894 1514.32 788.362 1527.81 809.606C1538.48 826.416 1557.43 825.663 1565.63 843.809C1579.31 874.089 1548.08 892.716 1540.04 924.959C1534.05 948.989 1517.74 964.377 1527.52 987.125C1535.44 1005.52 1555.95 1003.05 1567.17 1019.63Z" fill="#032D08"/>
<path d="M1566.81 707.927C1555.93 684.507 1561.11 658.936 1537.4 648.698C1535.54 647.896 1533.81 647.331 1532.19 646.986C1532.19 646.986 1530.34 677.602 1532.96 696.935C1537.09 727.451 1545.77 743.444 1557.98 771.713C1570.11 799.774 1593.22 810.182 1594.96 840.699C1596.52 867.998 1579.47 880.563 1572.32 906.955C1565.41 932.466 1551.76 947.765 1558.74 973.257C1565.3 997.234 1590.27 998.822 1600.07 1021.67C1611.68 1048.72 1603.53 1096.97 1603.53 1096.97L1630.98 1090.29C1630.98 1090.29 1637.06 1029.55 1621.02 996.319C1612.92 979.547 1598.05 975.529 1593.27 957.528C1587.82 937.02 1595 923.992 1601.66 903.845C1608.37 883.534 1623.09 876.377 1627.19 855.383C1631.38 833.919 1628.83 820.222 1621.29 799.695C1612.99 777.121 1596.95 770.756 1585.32 749.709C1576.68 734.091 1574.33 724.112 1566.81 707.927Z" fill="#1E5B25"/>
<path d="M1603.53 1096.97L1630.98 1090.29C1630.98 1090.29 1637.06 1029.55 1621.02 996.319C1612.92 979.547 1598.05 975.529 1593.27 957.528C1587.82 937.02 1595 923.992 1601.66 903.845C1608.37 883.534 1623.09 876.377 1627.19 855.383C1631.38 833.919 1628.83 820.222 1621.29 799.695C1612.99 777.121 1596.95 770.756 1585.32 749.709C1576.68 734.091 1574.33 724.112 1566.81 707.927C1555.93 684.507 1561.11 658.936 1537.4 648.698C1535.54 647.896 1533.81 647.331 1532.19 646.986M1603.53 1096.97L1576.08 1103.66C1576.08 1103.66 1585.67 1046.96 1567.17 1019.63C1555.95 1003.05 1535.44 1005.52 1527.52 987.125C1517.74 964.377 1534.05 948.989 1540.04 924.959C1548.08 892.716 1579.31 874.089 1565.63 843.809C1557.43 825.663 1538.48 826.416 1527.81 809.606C1514.32 788.362 1514.7 771.894 1513.6 746.753C1511.97 709.408 1502.29 640.616 1532.19 646.986M1603.53 1096.97C1603.53 1096.97 1611.68 1048.72 1600.07 1021.67C1590.27 998.822 1565.3 997.234 1558.74 973.257C1551.76 947.765 1565.41 932.466 1572.32 906.955C1579.47 880.563 1596.52 867.998 1594.96 840.699C1593.22 810.182 1570.11 799.774 1557.98 771.713C1545.77 743.444 1537.09 727.451 1532.96 696.935C1530.34 677.602 1532.19 646.986 1532.19 646.986" stroke="black"/>
<path d="M1727.37 901.687C1747.93 927.504 1742.75 984.775 1742.75 984.775L1769.6 975.992C1769.6 975.992 1774 927.257 1760.33 901.18C1748.8 879.159 1723.78 879.506 1715.38 856.109C1706.45 831.232 1718.88 814.923 1723.8 788.955C1728.89 762.089 1744.92 748.243 1741.25 721.146C1737.15 690.855 1713.3 682.265 1699.04 655.226C1684.68 627.986 1674.79 612.713 1668.31 582.606C1664.21 563.534 1663.68 532.867 1663.68 532.867C1633.39 528.827 1648.35 596.665 1652.87 633.772C1655.91 658.752 1656.8 675.201 1671.89 695.338C1683.83 711.272 1702.66 709.058 1712.24 726.515C1728.23 755.647 1698.52 776.633 1693 809.401C1688.89 833.821 1673.82 850.425 1685.33 872.348C1694.64 890.072 1714.91 886.023 1727.37 901.687Z" fill="#032D08"/>
<path d="M1702.91 590.949C1690.25 568.44 1693.44 542.545 1669.01 534.171C1667.1 533.515 1665.32 533.085 1663.68 532.867C1663.68 532.867 1664.21 563.534 1668.31 582.606C1674.79 612.713 1684.68 627.986 1699.04 655.226C1713.3 682.265 1737.15 690.855 1741.25 721.146C1744.92 748.243 1728.89 762.089 1723.8 788.955C1718.88 814.923 1706.45 831.232 1715.38 856.109C1723.78 879.506 1748.8 879.159 1760.33 901.18C1774 927.257 1769.6 975.992 1769.6 975.992L1796.45 967.208C1796.45 967.208 1797.82 906.181 1779.25 874.287C1769.88 858.19 1754.75 855.334 1748.59 837.757C1741.58 817.731 1747.72 804.187 1752.8 783.586C1757.93 762.817 1772.05 754.543 1774.51 733.294C1777.04 711.571 1773.43 698.113 1764.32 678.23C1754.31 656.364 1737.82 651.259 1724.59 631.174C1714.78 616.271 1711.66 606.504 1702.91 590.949Z" fill="#1E5B25"/>
<path d="M1769.6 975.992L1796.45 967.208C1796.45 967.208 1797.82 906.181 1779.25 874.287C1769.88 858.19 1754.75 855.334 1748.59 837.757C1741.58 817.731 1747.72 804.187 1752.8 783.586C1757.93 762.817 1772.05 754.543 1774.51 733.294C1777.04 711.571 1773.43 698.113 1764.32 678.23C1754.31 656.364 1737.82 651.259 1724.59 631.174C1714.78 616.271 1711.66 606.504 1702.91 590.949C1690.25 568.44 1693.44 542.545 1669.01 534.171C1667.1 533.515 1665.32 533.085 1663.68 532.867M1769.6 975.992L1742.75 984.775C1742.75 984.775 1747.93 927.504 1727.37 901.687C1714.91 886.023 1694.64 890.072 1685.33 872.348C1673.82 850.425 1688.89 833.821 1693 809.401C1698.52 776.633 1728.23 755.647 1712.24 726.515C1702.66 709.058 1683.83 711.272 1671.89 695.338C1656.8 675.201 1655.91 658.752 1652.87 633.772C1648.35 596.665 1633.39 528.827 1663.68 532.867M1769.6 975.992C1769.6 975.992 1774 927.257 1760.33 901.18C1748.8 879.159 1723.78 879.506 1715.38 856.109C1706.45 831.232 1718.88 814.923 1723.8 788.955C1728.89 762.089 1744.92 748.243 1741.25 721.146C1737.15 690.855 1713.3 682.265 1699.04 655.226C1684.68 627.986 1674.79 612.713 1668.31 582.606C1664.21 563.534 1663.68 532.867 1663.68 532.867" stroke="black"/>
<path d="M224.96 610.887C235.692 642.092 211.658 694.333 211.658 694.333L239.899 695.037C239.899 695.037 260.341 650.579 256.189 621.434C252.682 596.823 228.99 588.781 228.902 563.922C228.808 537.491 245.976 526.28 259.299 503.453C273.082 479.837 292.82 472.151 298.427 445.388C304.695 415.471 285.097 399.399 280.707 369.148C276.285 338.673 272.07 320.97 276.04 290.432C278.555 271.087 288.316 242.009 288.316 242.009C261.114 228.067 252.524 297.003 244.368 333.483C238.878 358.042 234.214 373.841 241.7 397.866C247.625 416.877 266.107 421.088 269.295 440.744C274.614 473.545 239.603 483.386 223.441 512.42C211.395 534.058 191.634 544.662 195.154 569.175C198 588.992 218.448 591.954 224.96 610.887Z" fill="#032D08"/>
<path d="M305.852 309.867C301.452 284.42 313.12 261.084 292.899 245.02C291.315 243.761 289.788 242.764 288.316 242.009C288.316 242.009 278.555 271.087 276.04 290.432C272.07 320.97 276.285 338.673 280.707 369.148C285.097 399.399 304.695 415.471 298.427 445.388C292.82 472.151 273.082 479.837 259.299 503.453C245.976 526.28 228.808 537.491 228.902 563.922C228.99 588.781 252.682 596.823 256.189 621.434C260.341 650.579 239.899 695.037 239.899 695.037L268.141 695.742C268.141 695.742 289.843 638.687 283.016 602.42C279.571 584.117 266.264 576.363 266.342 557.738C266.43 536.519 276.75 525.811 288.431 508.096C300.208 490.238 316.28 487.164 325.713 467.965C335.357 448.337 336.46 434.447 334.529 412.663C332.405 388.707 318.578 378.382 312.83 355.029C308.565 337.7 308.893 327.452 305.852 309.867Z" fill="#1E5B25"/>
<path d="M239.899 695.037L268.141 695.742C268.141 695.742 289.843 638.687 283.016 602.42C279.571 584.117 266.264 576.363 266.342 557.738C266.43 536.519 276.75 525.811 288.431 508.096C300.208 490.238 316.28 487.164 325.713 467.965C335.357 448.337 336.46 434.447 334.529 412.663C332.405 388.707 318.578 378.382 312.83 355.029C308.565 337.7 308.893 327.452 305.852 309.867C301.452 284.42 313.12 261.084 292.899 245.02C291.315 243.761 289.788 242.764 288.316 242.009M239.899 695.037L211.658 694.333C211.658 694.333 235.692 642.092 224.96 610.887C218.448 591.954 198 588.992 195.154 569.175C191.634 544.662 211.395 534.058 223.441 512.42C239.603 483.386 274.614 473.545 269.295 440.744C266.107 421.088 247.625 416.877 241.7 397.866C234.214 373.841 238.878 358.042 244.368 333.483C252.524 297.003 261.114 228.067 288.316 242.009M239.899 695.037C239.899 695.037 260.341 650.579 256.189 621.434C252.682 596.823 228.99 588.781 228.902 563.922C228.808 537.491 245.976 526.28 259.299 503.453C273.082 479.837 292.82 472.151 298.427 445.388C304.695 415.471 285.097 399.399 280.707 369.148C276.285 338.673 272.07 320.97 276.04 290.432C278.555 271.087 288.316 242.009 288.316 242.009" stroke="black"/>
<path d="M370.5 952C370.5 952 353.87 820.31 310.5 744.5C286.961 703.354 200.178 692.901 166.5 659.54C101.302 594.956 35.6181 405.987 -41 456.5C-96.1506 492.86 9.50002 659.54 9.50002 659.54L1.14441e-05 884.54L125.5 930.04L370.5 952Z" fill="#E0CF78" stroke="black"/>
<path d="M2070.07 879.639C2070.07 879.639 2027.66 825.562 2014.57 784.639C2002.01 745.389 2030.56 711.208 2004.07 679.639C1986.33 658.495 1967.66 637.626 1941.57 646.639C1907.79 658.307 1972.27 719.853 1941.57 738.139C1923.28 749.03 1905.74 748.35 1887.07 738.139C1857.76 722.115 1890.03 593.656 1859.07 581.139C1825.12 567.415 1800.41 681.528 1799.57 718.139C1798.71 755.553 1874.71 747.722 1868.57 784.639C1865.79 801.321 1861.83 815.518 1846.07 821.639C1827.42 828.881 1819.57 800.531 1799.57 800.139C1778.68 799.729 1759.77 802.876 1750.57 821.639C1737.51 848.263 1802.71 850.154 1799.57 879.639C1795.3 919.757 1723.62 917.572 1696.57 887.639C1673.66 862.286 1739.82 742.706 1716.07 718.139C1697.53 698.967 1673.04 692.557 1648.57 703.139C1614.03 718.069 1648.9 865.416 1614.07 879.639C1592.22 888.559 1569.73 887.218 1554.57 869.139C1537.09 848.298 1585.79 816.504 1564.07 800.139C1543.45 784.609 1519.04 802.638 1501.57 821.639C1476.72 848.661 1535.02 900.515 1501.57 915.639C1486.44 922.476 1471.61 904.764 1459.07 915.639C1444.61 928.177 1449.6 948.011 1459.07 964.639C1468.6 981.371 1484.66 980.426 1501.57 989.639C1563.21 1023.23 1668.57 1056.14 1668.57 1056.14L1960.07 1003.14L2070.07 879.639Z" fill="#171A40"/>
<path d="M1652.07 718.139C1668.52 740.635 1679.04 744.669 1700.57 733.639M1508.07 835.639C1529.95 837.171 1540.45 833.95 1554.57 817.639M1840.57 600.139C1844.72 608.9 1847.84 612.213 1859.07 606.639M1941.57 664.139C1955.02 668.57 1960.86 666.434 1969.07 656.639M1764.07 830.639C1787.57 830.862 1796.96 827.222 1806.07 813.139M2070.07 879.639C2070.07 879.639 2027.66 825.562 2014.57 784.639C2002.01 745.389 2030.56 711.208 2004.07 679.639C1986.33 658.495 1967.66 637.626 1941.57 646.639C1907.79 658.307 1972.27 719.853 1941.57 738.139C1923.28 749.03 1905.74 748.35 1887.07 738.139C1857.76 722.115 1890.03 593.656 1859.07 581.139C1825.12 567.415 1800.41 681.528 1799.57 718.139C1798.71 755.553 1874.71 747.722 1868.57 784.639C1865.79 801.321 1861.83 815.518 1846.07 821.639C1827.42 828.881 1819.57 800.531 1799.57 800.139C1778.68 799.729 1759.77 802.876 1750.57 821.639C1737.51 848.263 1802.71 850.154 1799.57 879.639C1795.3 919.757 1723.62 917.572 1696.57 887.639C1673.66 862.286 1739.82 742.706 1716.07 718.139C1697.53 698.967 1673.04 692.557 1648.57 703.139C1614.03 718.069 1648.9 865.416 1614.07 879.639C1592.22 888.559 1569.73 887.218 1554.57 869.139C1537.09 848.298 1585.79 816.504 1564.07 800.139C1543.45 784.609 1519.04 802.638 1501.57 821.639C1476.72 848.661 1535.02 900.515 1501.57 915.639C1486.44 922.476 1471.61 904.764 1459.07 915.639C1444.61 928.177 1449.6 948.011 1459.07 964.639C1468.6 981.371 1484.66 980.426 1501.57 989.639C1563.21 1023.23 1668.57 1056.14 1668.57 1056.14L1960.07 1003.14L2070.07 879.639Z" stroke="black"/>
<path d="M1270.62 953.735C1283.43 880.671 1391.44 912.706 1460.12 940.735C1513.61 962.568 1594.59 988.131 1569.62 1040.24C1549.06 1083.13 1450.62 1066.24 1450.62 1066.24C1450.62 1066.24 1351.01 1087.35 1310.12 1050.24C1279.97 1022.87 1263.59 993.844 1270.62 953.735Z" fill="#F7E89D" stroke="black"/>
<path fill-rule="evenodd" clip-rule="evenodd" d="M2207.47 646.951C2190.54 713.293 2267.77 811.579 2267.77 811.579L2241.48 841.267L2203.66 800.906C2203.66 800.906 2150.56 730.431 2101 725C2075.8 722.239 2040.41 735.075 2026.55 740.635C2051.07 727.852 2023.69 701.018 1992.71 670.646C1957.61 636.246 1917.89 597.308 1943.67 569.104C1945.05 567.594 1946.39 566.102 1947.7 564.639C1959.62 551.363 1969.42 540.45 1987.97 540.485C2006.19 540.52 2005.23 566.601 2004.37 590.2C2003.55 612.687 2002.81 632.92 2018.82 626.21C2031.85 620.748 2036.07 610.678 2040.99 598.948C2042.69 594.875 2044.48 590.602 2046.75 586.253C2054.46 571.5 2053.52 555.573 2052.64 540.52C2051.49 521.081 2050.43 503.098 2068.18 490.977C2093.74 473.524 2122.26 471.945 2147.42 489.968C2166.54 503.663 2150.56 529.021 2135.39 553.096C2120.33 576.997 2106.07 599.633 2127.73 608.341C2137.33 612.2 2153.87 612.69 2153.87 612.69C2172.65 611.511 2175.99 588.616 2179.14 567.08C2182.31 545.369 2185.28 525.039 2203.66 529.735C2228.27 536.026 2238.91 557.386 2241.48 582.661C2243.09 598.442 2234.48 608.065 2225.35 618.279C2218.13 626.354 2210.57 634.799 2207.47 646.951Z" fill="#9E3535"/>
<path d="M2020.66 743.097C1996.19 751.343 1978.33 751.334 1954.57 741.226C1932.64 731.898 1933.59 699.428 1909.76 699.811C1885.34 700.204 1869.97 720.639 1866.29 744.787C1860.62 781.994 1952.76 764.154 1944.64 800.906C1936.72 836.783 1866.15 788.811 1853.24 823.209C1844.54 846.398 1851.87 865.978 1867.81 884.937C1894.95 917.225 1933.82 880.778 1975.82 884.658C2049.84 891.497 2159.8 933.512 2159.8 933.512L2241.48 841.267L2203.66 800.906C2203.66 800.906 2150.56 730.431 2101 725C2075.8 722.239 2040.41 735.075 2026.55 740.635C2024.85 741.525 2022.89 742.347 2020.66 743.097Z" fill="#BB3636"/>
<path d="M2020.66 743.097C1996.19 751.343 1978.33 751.334 1954.57 741.226C1932.64 731.898 1933.59 699.428 1909.76 699.811C1885.34 700.204 1869.97 720.639 1866.29 744.787C1860.62 781.994 1952.76 764.154 1944.64 800.906C1936.72 836.783 1866.15 788.811 1853.24 823.209C1844.54 846.398 1851.87 865.978 1867.81 884.937C1894.95 917.225 1933.82 880.778 1975.82 884.658C2049.84 891.497 2159.8 933.512 2159.8 933.512L2241.48 841.267M2020.66 743.097C2020.66 743.097 2022.83 742.129 2026.55 740.635M2020.66 743.097C2022.89 742.347 2024.85 741.525 2026.55 740.635M2241.48 841.267L2267.77 811.579C2267.77 811.579 2190.54 713.293 2207.47 646.951C2210.57 634.799 2218.13 626.354 2225.35 618.279C2234.48 608.065 2243.09 598.442 2241.48 582.661C2238.91 557.386 2228.27 536.026 2203.66 529.735C2185.28 525.039 2182.31 545.369 2179.14 567.08C2175.99 588.616 2172.65 611.511 2153.87 612.69C2153.87 612.69 2137.33 612.2 2127.73 608.341C2106.07 599.633 2120.33 576.997 2135.39 553.096C2150.56 529.021 2166.54 503.663 2147.42 489.968C2122.26 471.945 2093.74 473.524 2068.18 490.977C2050.43 503.098 2051.49 521.081 2052.64 540.52C2053.52 555.573 2054.46 571.5 2046.75 586.253C2044.48 590.602 2042.69 594.875 2040.99 598.948C2036.07 610.678 2031.85 620.748 2018.82 626.21C2002.81 632.92 2003.55 612.687 2004.37 590.2C2005.23 566.601 2006.19 540.52 1987.97 540.485C1969.42 540.45 1959.62 551.363 1947.7 564.639C1946.39 566.102 1945.05 567.594 1943.67 569.104C1917.89 597.308 1957.61 636.246 1992.71 670.646C2023.69 701.018 2051.07 727.852 2026.55 740.635M2241.48 841.267L2203.66 800.906C2203.66 800.906 2150.56 730.431 2101 725C2075.8 722.239 2040.41 735.075 2026.55 740.635M1944.64 590.2C1970.14 587.424 1981.32 582.53 1992.71 564.639M1877.5 754C1902.31 742.03 1911.22 732.902 1916.5 711.5M1870 823.209C1893.07 844.381 1899.62 857.65 1896 884.658" stroke="black"/>
<path fill-rule="evenodd" clip-rule="evenodd" d="M363.305 758.418C295.784 769.768 237.131 880.15 237.131 880.15L199.346 868.113L220.96 817.194C220.96 817.194 263.94 740.133 248.862 692.609C241.196 668.446 215.144 641.271 204.454 630.846C226.059 648.095 239.528 612.206 254.774 571.583C272.041 525.575 291.586 473.497 327.809 485.671C329.748 486.322 331.654 486.944 333.524 487.553C350.484 493.083 364.428 497.629 371.898 514.609C379.234 531.285 354.995 540.96 333.064 549.715C312.165 558.057 293.362 565.563 305.974 577.494C316.241 587.206 327.158 586.991 339.873 586.742C344.288 586.655 348.92 586.564 353.816 586.883C370.425 587.964 384.612 580.664 398.021 573.765C415.336 564.856 431.354 556.615 449.617 567.945C475.915 584.259 488.897 609.708 482.589 640.006C477.795 663.029 448.142 658.672 419.988 654.535C392.038 650.428 365.567 646.538 366.364 669.871C366.718 680.214 372.959 695.537 372.959 695.537C381.632 712.234 403.924 706.033 424.892 700.201C446.031 694.321 465.825 688.815 468.963 707.522C473.165 732.577 457.933 750.948 435.858 763.522C422.074 771.374 409.794 767.395 396.757 763.171C386.451 759.832 375.672 756.339 363.305 758.418Z" fill="#359E3C"/>
<path d="M199.819 626.453C182.382 607.411 175.166 591.071 174.801 565.254C174.463 541.427 204.541 529.157 194.554 507.521C184.317 485.343 159.414 479.558 135.84 485.955C99.516 495.813 153.099 572.869 116.204 580.311C80.1887 587.575 95.5217 503.635 58.8411 505.741C34.1136 507.16 19.1727 521.785 8.27912 544.029C-10.2728 581.911 38.7792 602.716 52.2176 642.698C75.901 713.162 81.9452 830.716 81.9452 830.716L199.346 868.113L220.96 817.194C220.96 817.194 263.94 740.133 248.862 692.609C241.196 668.446 215.144 641.271 204.454 630.846C202.949 629.645 201.405 628.186 199.819 626.453Z" fill="#3ABB36"/>
<path d="M199.819 626.453C182.382 607.411 175.166 591.071 174.801 565.254C174.463 541.427 204.541 529.157 194.554 507.521C184.317 485.343 159.414 479.558 135.84 485.955C99.516 495.813 153.099 572.869 116.204 580.311C80.1887 587.575 95.5217 503.635 58.8411 505.741C34.1136 507.16 19.1727 521.785 8.27912 544.029C-10.2728 581.911 38.7792 602.716 52.2176 642.698C75.901 713.162 81.9452 830.716 81.9452 830.716L199.346 868.113M199.819 626.453C199.819 626.453 201.582 628.045 204.454 630.846M199.819 626.453C201.405 628.186 202.949 629.645 204.454 630.846M199.346 868.113L237.131 880.15C237.131 880.15 295.784 769.768 363.305 758.418C375.672 756.339 386.451 759.832 396.757 763.171C409.794 767.395 422.074 771.374 435.858 763.522C457.933 750.948 473.165 732.577 468.963 707.522C465.825 688.815 446.031 694.321 424.892 700.201C403.924 706.033 381.632 712.234 372.959 695.537C372.959 695.537 366.718 680.214 366.364 669.871C365.567 646.538 392.038 650.428 419.988 654.535C448.142 658.672 477.795 663.029 482.589 640.006C488.897 609.708 475.915 584.259 449.617 567.945C431.354 556.615 415.336 564.856 398.021 573.765C384.612 580.664 370.425 587.964 353.816 586.883C348.92 586.564 344.288 586.655 339.873 586.742C327.158 586.991 316.241 587.206 305.974 577.494C293.362 565.563 312.165 558.057 333.064 549.715C354.995 540.96 379.234 531.285 371.898 514.609C364.428 497.629 350.484 493.083 333.524 487.553C331.654 486.944 329.748 486.322 327.809 485.671C291.586 473.497 272.041 525.575 254.774 571.583C239.528 612.206 226.059 648.095 204.454 630.846M199.346 868.113L220.96 817.194C220.96 817.194 263.94 740.133 248.862 692.609C241.196 668.446 215.144 641.271 204.454 630.846M308.909 495.092C321.76 517.29 330.757 525.535 351.724 528.71M131.947 499.933C152.929 517.782 164.879 522.237 186.59 518.412M65.6176 521.064C55.5835 550.722 46.0992 562.083 19.9342 569.696M194.554 650C187.725 700.607 192.793 725.724 220.96 763.522" stroke="black"/>
<path d="M2310.18 602.001C2310.18 602.001 2286.39 569.865 2263.7 563.401C2226.23 552.724 2205.9 629.321 2173.95 607.007C2153.78 592.919 2142.21 571.504 2150.76 548.433C2161.21 520.224 2201.33 546.944 2225.2 528.635C2286.17 481.865 2048.84 469.395 2077.83 398.23L2077.9 398.078C2086.09 377.967 2092.17 363.051 2111.97 354.06C2150.31 336.651 2153.77 412.411 2194.36 423.61C2278.39 446.792 2064.04 253.054 2138.38 207.544C2151.7 199.388 2160.14 195.22 2175.57 192.817C2244.58 182.074 2161.87 353.369 2231.06 362.829C2285.81 370.312 2294.59 250.137 2343.15 276.497C2360.75 286.048 2370.9 295.617 2377.56 314.498C2393.44 359.544 2252.37 363.671 2286.93 396.633C2298.93 408.067 2317.15 399.394 2325.87 413.481C2340.05 436.376 2288.72 442.296 2284.92 468.955C2278.54 513.73 2366.43 551.222 2366.43 551.222L2310.18 602.001Z" fill="#36B03E"/>
<path d="M2077.83 398.23C2048.84 469.395 2286.17 481.865 2225.2 528.635C2201.33 546.944 2161.21 520.224 2150.76 548.433C2142.21 571.504 2153.78 592.919 2173.95 607.007C2205.9 629.321 2226.23 552.724 2263.7 563.401C2286.39 569.865 2310.18 602.001 2310.18 602.001L2366.43 551.222C2366.43 551.222 2278.54 513.73 2284.92 468.955C2288.72 442.296 2340.05 436.376 2325.87 413.481C2317.15 399.394 2298.93 408.067 2286.93 396.633C2252.37 363.671 2393.44 359.544 2377.56 314.498C2370.9 295.617 2360.75 286.048 2343.15 276.497C2294.59 250.137 2285.81 370.312 2231.06 362.829C2161.87 353.369 2244.58 182.074 2175.57 192.817C2160.14 195.22 2151.7 199.388 2138.38 207.544C2064.04 253.054 2278.39 446.792 2194.36 423.61C2153.77 412.411 2150.31 336.651 2111.97 354.06C2092.17 363.051 2086.09 377.967 2077.9 398.078M2077.83 398.23L2077.9 398.078M2077.83 398.23C2077.86 398.18 2077.88 398.129 2077.9 398.078M2133.5 227C2161.09 238.299 2173.78 238.419 2186.5 216.5M2333 288C2320.27 319.38 2326.52 327.094 2358.5 325.5M2163.5 556.5C2183.61 568.113 2190.3 575.65 2182.5 593.5" stroke="black"/>
<path fill-rule="evenodd" clip-rule="evenodd" d="M2382 438.5C2297.42 452.826 2256.2 507.197 2217 583.5C2217 583.5 2279.77 604.884 2321.5 611.5C2424.99 627.91 2588.35 583.5 2588.35 583.5C2582.24 539.744 2567.82 496.841 2537 473.5C2487.53 436.032 2443.18 428.136 2382 438.5Z" fill="#F4E59B"/>
<path d="M2217 583.5C2184.44 646.889 2187 763.5 2187 763.5H2447L2587 723.5C2587 723.5 2597.99 652.441 2588.35 583.5C2588.35 583.5 2424.99 627.91 2321.5 611.5C2279.77 604.884 2217 583.5 2217 583.5Z" fill="#A69958"/>
<path d="M2217 583.5C2184.44 646.889 2187 763.5 2187 763.5H2447L2587 723.5C2587 723.5 2597.99 652.441 2588.35 583.5M2217 583.5C2256.2 507.197 2297.42 452.826 2382 438.5C2443.18 428.136 2487.53 436.032 2537 473.5C2567.82 496.841 2582.24 539.744 2588.35 583.5M2217 583.5C2217 583.5 2279.77 604.884 2321.5 611.5C2424.99 627.91 2588.35 583.5 2588.35 583.5" stroke="black"/>
<path d="M2322.27 719.195C2224.48 670.645 2145.77 695.695 2081.77 819.195C2069.55 842.783 1854 841.5 1910 887C1966 932.5 1718.06 993.041 1708.5 1025C1693.22 1076.07 1962.77 1048.2 1962.77 1048.2H2304.77L2449.77 886.695C2449.77 886.695 2389.34 752.492 2322.27 719.195Z" fill="#DCCF8C" stroke="black"/>
<path d="M2406.76 780.753C2406.76 780.753 2395.22 736.261 2372.26 724.753C2352.71 714.956 2323.51 704.119 2316.26 724.753C2311.55 738.153 2331.31 745.502 2327.76 759.253C2322.67 778.968 2300.62 780.492 2280.26 780.753C2266.95 780.924 2259.5 767.042 2247.26 772.253C2235.79 777.133 2232.34 786.968 2230.26 799.253C2225.5 827.368 2287.76 844.253 2287.76 844.253L2406.76 780.753Z" fill="#38BA40"/>
<path d="M2339.5 719.5C2339.64 726.8 2338.26 730.327 2327.76 733.5M2406.76 780.753C2406.76 780.753 2395.22 736.261 2372.26 724.753C2352.71 714.956 2323.51 704.119 2316.26 724.753C2311.55 738.153 2331.31 745.502 2327.76 759.253C2322.67 778.968 2300.62 780.492 2280.26 780.753C2266.95 780.924 2259.5 767.042 2247.26 772.253C2235.79 777.133 2232.34 786.968 2230.26 799.253C2225.5 827.368 2287.76 844.253 2287.76 844.253L2406.76 780.753Z" stroke="black"/>
<path d="M737.062 1071.67C740.348 1106.34 710.062 1156.67 710.062 1156.67H734.312C734.312 1156.67 744.177 1128.65 748.562 1110.17C755.34 1081.61 768.197 1063.4 758.562 1035.67C751.185 1014.44 731.85 1011.4 722.062 991.168C711.407 969.14 705.312 953.673 710.062 929.668C714.139 909.069 728.343 902.271 737.062 883.168C749.17 856.643 769.609 838.652 758.562 811.668C749.581 789.731 719.959 796.709 710.062 775.168C694.477 741.245 754.062 732.168 748.562 687.668C744.716 656.549 746.249 649.637 747.519 648.294C736.458 650.945 726.697 695.014 710.062 721.668C710.062 721.668 673.671 749.592 672.062 775.168C670.052 807.131 727.094 808.541 722.062 840.168C718.718 861.191 698.421 864.302 688.562 883.168C678.177 903.043 671.265 915.758 672.062 938.168C673.168 969.254 696.637 980.11 710.062 1008.17C721.693 1032.48 734.521 1044.84 737.062 1071.67Z" fill="#067313"/>
<path d="M778.562 701.668C778.031 677.721 760.062 648.168 748.562 648.168C748.213 648.168 747.866 648.211 747.519 648.294C746.249 649.637 744.716 656.549 748.562 687.668C754.062 732.168 694.477 741.245 710.062 775.168C719.959 796.709 749.581 789.731 758.562 811.668C769.609 838.652 749.17 856.643 737.062 883.168C728.343 902.271 714.139 909.069 710.062 929.668C705.312 953.673 711.407 969.14 722.062 991.168C731.85 1011.4 751.185 1014.44 758.562 1035.67C768.197 1063.4 755.34 1081.61 748.562 1110.17C744.177 1128.65 734.312 1156.67 734.312 1156.67H758.562C758.562 1156.67 774.809 1110.82 778.562 1080.17C781.98 1052.26 789.618 1034.02 778.562 1008.17C769.163 986.188 741.502 986.658 737.062 963.168C732.678 939.971 750.904 929 758.562 906.668C767.359 881.016 775.074 867.062 778.562 840.168C781.326 818.868 784.92 805.685 778.562 785.168C773.903 770.131 760.572 765.782 758.562 750.168C755.947 729.848 779.017 722.151 778.562 701.668Z" fill="#379341"/>
<path d="M748.562 648.168C760.062 648.168 778.031 677.721 778.562 701.668C779.017 722.151 755.947 729.848 758.562 750.168C760.572 765.782 773.903 770.131 778.562 785.168C784.92 805.685 781.326 818.868 778.562 840.168C775.074 867.062 767.359 881.016 758.562 906.668C750.904 929 732.678 939.971 737.062 963.168C741.502 986.658 769.163 986.188 778.562 1008.17C789.618 1034.02 781.98 1052.26 778.562 1080.17C774.809 1110.82 758.562 1156.67 758.562 1156.67H734.312M748.562 648.168C748.562 648.168 748.065 647.716 747.519 648.294M748.562 648.168C748.213 648.168 747.866 648.211 747.519 648.294M734.312 1156.67H710.062C710.062 1156.67 740.348 1106.34 737.062 1071.67C734.521 1044.84 721.693 1032.48 710.062 1008.17C696.637 980.11 673.168 969.254 672.062 938.168C671.265 915.758 678.177 903.043 688.562 883.168C698.421 864.302 718.718 861.191 722.062 840.168C727.094 808.541 670.052 807.131 672.062 775.168C673.671 749.592 710.062 721.668 710.062 721.668C726.697 695.014 736.458 650.945 747.519 648.294M734.312 1156.67C734.312 1156.67 744.177 1128.65 748.562 1110.17C755.34 1081.61 768.197 1063.4 758.562 1035.67C751.185 1014.44 731.85 1011.4 722.062 991.168C711.407 969.14 705.312 953.673 710.062 929.668C714.139 909.069 728.343 902.271 737.062 883.168C749.17 856.643 769.609 838.652 758.562 811.668C749.581 789.731 719.959 796.709 710.062 775.168C694.477 741.245 754.062 732.168 748.562 687.668C744.716 656.549 746.249 649.637 747.519 648.294" stroke="black"/>
<path d="M2153.46 977.903C2163.85 1011.15 2144.64 1066.65 2144.64 1066.65L2168.36 1061.63C2168.36 1061.63 2172.21 1032.18 2172.68 1013.19C2173.4 983.843 2182.21 963.367 2167.04 938.233C2155.43 918.988 2135.89 920.021 2122.12 902.251C2107.14 882.905 2097.97 869.035 2097.65 844.566C2097.38 823.57 2109.87 813.979 2114.44 793.485C2120.8 765.029 2137.07 743.196 2120.68 719.083C2107.35 699.48 2079.82 712.438 2065.68 693.412C2043.41 663.449 2099.82 642.236 2085.23 599.838C2075.03 570.189 2075.1 563.109 2076.06 561.532C2065.79 566.416 2065.36 611.551 2054.6 641.071C2054.6 641.071 2024.78 675.922 2028.5 701.277C2033.15 732.964 2089.25 722.537 2090.87 754.521C2091.95 775.781 2072.73 783.025 2066.99 803.524C2060.95 825.117 2056.82 838.988 2062.24 860.748C2069.75 890.931 2094.96 896.695 2113.9 921.367C2130.31 942.741 2145.42 952.184 2153.46 977.903Z" fill="#067313"/>
<path d="M2117.48 607.326C2112 584.007 2088.31 558.814 2077.06 561.194C2076.71 561.266 2076.38 561.379 2076.06 561.532C2075.1 563.109 2075.03 570.189 2085.23 599.838C2099.82 642.236 2043.41 663.449 2065.68 693.412C2079.82 712.438 2107.35 699.48 2120.68 719.083C2137.07 743.196 2120.8 765.029 2114.44 793.485C2109.87 813.979 2097.38 823.57 2097.65 844.566C2097.97 869.035 2107.14 882.905 2122.12 902.251C2135.89 920.021 2155.43 918.988 2167.04 938.233C2182.21 963.367 2173.4 983.843 2172.68 1013.19C2172.21 1032.18 2168.36 1061.63 2168.36 1061.63L2192.09 1056.61C2192.09 1056.61 2198.49 1008.39 2195.82 977.63C2193.39 949.617 2197.09 930.194 2180.92 907.189C2167.17 887.63 2140.21 893.815 2131 871.753C2121.91 849.965 2137.47 835.459 2140.34 812.026C2143.64 785.108 2148.3 769.86 2146.15 742.827C2144.44 721.416 2145.23 707.774 2134.76 689.018C2127.09 675.271 2113.15 673.775 2107.95 658.915C2101.19 639.577 2122.16 627.271 2117.48 607.326Z" fill="#379341"/>
<path d="M2077.06 561.194C2088.31 558.814 2112 584.007 2117.48 607.326C2122.16 627.271 2101.19 639.577 2107.95 658.915C2113.15 673.775 2127.09 675.271 2134.76 689.018C2145.23 707.774 2144.44 721.416 2146.15 742.827C2148.3 769.86 2143.64 785.108 2140.34 812.026C2137.47 835.459 2121.91 849.965 2131 871.753C2140.21 893.815 2167.17 887.63 2180.92 907.189C2197.09 930.194 2193.39 949.617 2195.82 977.63C2198.49 1008.39 2192.09 1056.61 2192.09 1056.61L2168.36 1061.63M2077.06 561.194C2077.06 561.194 2076.48 560.854 2076.06 561.532M2077.06 561.194C2076.71 561.266 2076.38 561.379 2076.06 561.532M2168.36 1061.63L2144.64 1066.65C2144.64 1066.65 2163.85 1011.15 2153.46 977.903C2145.42 952.184 2130.31 942.741 2113.9 921.367C2094.96 896.695 2069.75 890.931 2062.24 860.748C2056.82 838.988 2060.95 825.117 2066.99 803.524C2072.73 783.025 2091.95 775.781 2090.87 754.521C2089.25 722.537 2033.15 732.964 2028.5 701.277C2024.78 675.922 2054.6 641.071 2054.6 641.071C2065.36 611.551 2065.79 566.416 2076.06 561.532M2168.36 1061.63C2168.36 1061.63 2172.21 1032.18 2172.68 1013.19C2173.4 983.843 2182.21 963.367 2167.04 938.233C2155.43 918.988 2135.89 920.021 2122.12 902.251C2107.14 882.905 2097.97 869.035 2097.65 844.566C2097.38 823.57 2109.87 813.979 2114.44 793.485C2120.8 765.029 2137.07 743.196 2120.68 719.083C2107.35 699.48 2079.82 712.438 2065.68 693.412C2043.41 663.449 2099.82 642.236 2085.23 599.838C2075.03 570.189 2075.1 563.109 2076.06 561.532" stroke="black"/>
<path d="M835.5 937.5C835.5 937.5 823.38 908.293 865.5 878C920.405 838.512 1006.24 796.432 1050 848C1074.15 876.456 1083.5 937.5 1083.5 937.5H835.5Z" fill="#FAECA2" stroke="black"/>
<path d="M950.786 679.16C942.208 697.351 955.362 711.076 950.786 730.66C945.598 752.862 922.222 759.385 923.286 782.16C924.008 797.629 938.033 803.192 938.786 818.66C939.83 840.118 923.157 848.375 914.786 868.16C909.727 880.116 906.719 886.789 902.786 899.16C891.681 934.082 886.359 955.726 890.286 992.16C893.627 1023.16 914.786 1068.16 914.786 1068.16H942.286C942.286 1068.16 919.752 1028.37 914.786 1000.16C910.655 976.699 909.464 962.38 914.786 939.16C921.306 910.71 934.958 898.185 950.786 873.66C959.451 860.233 970.693 855.732 974.286 840.16C979.78 816.347 946.89 806.287 950.786 782.16C953.885 762.967 971.158 758.749 978.286 740.66C987.147 718.171 978.122 702.247 985.286 679.16C989.648 665.101 1000.47 644.66 1000.47 644.66C986.013 647.646 959.56 660.551 950.786 679.16Z" fill="#067313"/>
<path d="M969.786 1068.16C969.786 1068.16 921.283 990.906 938.786 944.16C946.268 924.175 958.103 917.018 969.786 899.16C986.047 874.303 1009.82 863.859 1009.29 834.16C1008.88 811.798 985.203 804.526 985.286 782.16C985.367 759.972 1003.51 752.084 1009.29 730.66C1018.03 698.232 1015.79 648.66 1009.29 644.66C1007.83 643.763 1004.65 643.797 1000.47 644.66C1000.47 644.66 989.648 665.101 985.286 679.16C978.122 702.247 987.147 718.171 978.286 740.66C971.158 758.749 953.885 762.967 950.786 782.16C946.89 806.287 979.78 816.347 974.286 840.16C970.693 855.732 959.451 860.233 950.786 873.66C934.958 898.185 921.306 910.71 914.786 939.16C909.464 962.38 910.655 976.699 914.786 1000.16C919.752 1028.37 942.286 1068.16 942.286 1068.16H969.786Z" fill="#379341"/>
<path d="M942.286 1068.16H914.786C914.786 1068.16 893.627 1023.16 890.286 992.16C886.359 955.726 891.681 934.082 902.786 899.16C906.719 886.789 909.727 880.116 914.786 868.16C923.157 848.375 939.83 840.118 938.786 818.66C938.033 803.192 924.008 797.629 923.286 782.16C922.222 759.385 945.598 752.862 950.786 730.66C955.362 711.076 942.208 697.351 950.786 679.16C959.56 660.551 986.013 647.646 1000.47 644.66M942.286 1068.16H969.786C969.786 1068.16 921.283 990.906 938.786 944.16C946.268 924.175 958.103 917.018 969.786 899.16C986.047 874.303 1009.82 863.859 1009.29 834.16C1008.88 811.798 985.203 804.526 985.286 782.16C985.367 759.972 1003.51 752.084 1009.29 730.66C1018.03 698.232 1015.79 648.66 1009.29 644.66C1007.83 643.763 1004.65 643.797 1000.47 644.66M942.286 1068.16C942.286 1068.16 919.752 1028.37 914.786 1000.16C910.655 976.699 909.464 962.38 914.786 939.16C921.306 910.71 934.958 898.185 950.786 873.66C959.451 860.233 970.693 855.732 974.286 840.16C979.78 816.347 946.89 806.287 950.786 782.16C953.885 762.967 971.158 758.749 978.286 740.66C987.147 718.171 978.122 702.247 985.286 679.16C989.648 665.101 1000.47 644.66 1000.47 644.66" stroke="black"/>
<path d="M1950.91 750.322C1948.79 770.322 1965.72 778.961 1967.84 798.961C1970.23 821.634 1950.3 835.478 1958.79 856.638C1964.55 871.011 1979.63 871.655 1985.42 886.016C1993.46 905.939 1980.43 919.217 1979.03 940.654C1978.18 953.608 1977.53 960.899 1977.88 973.876C1978.87 1010.51 1980.96 1032.7 1996.64 1065.82C2009.99 1094 2044.76 1129.54 2044.76 1129.54L2070.73 1120.51C2070.73 1120.51 2036.37 1090.33 2022.41 1065.32C2010.8 1044.52 2004.97 1031.39 2002.36 1007.71C1999.17 978.697 2007.95 962.381 2014.83 934.017C2018.6 918.488 2027.74 910.542 2026.02 894.655C2023.38 870.358 1989.01 871.667 1984.76 847.6C1981.38 828.454 1996.31 818.794 1997.09 799.367C1998.07 775.215 1984.31 763.142 1983.49 738.983C1982.99 724.271 1986.5 701.409 1986.5 701.409C1973.82 708.98 1953.08 729.863 1950.91 750.322Z" fill="#067313"/>
<path d="M2096.7 1111.47C2096.7 1111.47 2025.5 1054.45 2026.67 1004.54C2027.17 983.211 2035.99 972.562 2041.16 951.856C2048.35 923.035 2067.37 905.357 2057.1 877.485C2049.37 856.498 2024.62 857.412 2017.34 836.261C2010.13 815.279 2024.67 801.866 2023.09 779.734C2020.68 746.235 2002.27 700.153 1994.82 698.512C1993.15 698.144 1990.16 699.22 1986.5 701.409C1986.5 701.409 1982.99 724.271 1983.49 738.983C1984.31 763.142 1998.07 775.215 1997.09 799.367C1996.31 818.794 1981.38 828.454 1984.76 847.6C1989.01 871.667 2023.38 870.358 2026.02 894.655C2027.74 910.542 2018.6 918.488 2014.83 934.017C2007.95 962.381 1999.17 978.697 2002.36 1007.71C2004.97 1031.39 2010.8 1044.52 2022.41 1065.32C2036.37 1090.33 2070.73 1120.51 2070.73 1120.51L2096.7 1111.47Z" fill="#379341"/>
<path d="M2070.73 1120.51L2044.76 1129.54C2044.76 1129.54 2009.99 1094 1996.64 1065.82C1980.96 1032.7 1978.87 1010.51 1977.88 973.876C1977.53 960.899 1978.18 953.608 1979.03 940.654C1980.43 919.217 1993.46 905.939 1985.42 886.016C1979.63 871.655 1964.55 871.011 1958.79 856.638C1950.3 835.478 1970.23 821.634 1967.84 798.961C1965.72 778.961 1948.79 770.322 1950.91 750.322C1953.08 729.863 1973.82 708.98 1986.5 701.409M2070.73 1120.51L2096.7 1111.47C2096.7 1111.47 2025.5 1054.45 2026.67 1004.54C2027.17 983.211 2035.99 972.562 2041.16 951.856C2048.35 923.035 2067.37 905.357 2057.1 877.485C2049.37 856.498 2024.62 857.412 2017.34 836.261C2010.13 815.279 2024.67 801.866 2023.09 779.734C2020.68 746.235 2002.27 700.153 1994.82 698.512C1993.15 698.144 1990.16 699.22 1986.5 701.409M2070.73 1120.51C2070.73 1120.51 2036.37 1090.33 2022.41 1065.32C2010.8 1044.52 2004.97 1031.39 2002.36 1007.71C1999.17 978.697 2007.95 962.381 2014.83 934.017C2018.6 918.488 2027.74 910.542 2026.02 894.655C2023.38 870.358 1989.01 871.667 1984.76 847.6C1981.38 828.454 1996.31 818.794 1997.09 799.367C1998.07 775.215 1984.31 763.142 1983.49 738.983C1982.99 724.271 1986.5 701.409 1986.5 701.409" stroke="black"/>
<path d="M1471.52 1000.94C1471.52 1000.94 1481.25 966.862 1498.63 955.99C1520.45 942.342 1553.67 935.563 1564.47 958.921C1570.17 971.263 1555.91 981.815 1562.54 993.685C1573.06 1012.51 1599.24 1007.5 1617.69 996.335C1636.08 985.203 1623.16 958.5 1640.95 946.435C1661.97 932.185 1686.43 933.693 1705.88 950.021C1720.79 962.538 1708.17 986.321 1725.04 996.035C1752.78 1012 1741.96 945.384 1767.28 925.812C1782.84 913.788 1793.32 905.079 1812.97 904.674C1833.07 904.261 1847.64 909.225 1860.34 924.807C1873.9 941.459 1872.44 957.856 1869.2 979.088C1859.84 1040.3 1718.85 1029.47 1718.85 1029.47L1539.07 1032.98L1471.52 1000.94Z" fill="#38BA40"/>
<path d="M1640.95 958.921C1661.85 968.928 1673.07 968.587 1692.37 958.921M1767.28 950.021C1800.49 954.53 1816.81 951.582 1836.87 924.807M1471.52 1000.94C1471.52 1000.94 1481.25 966.862 1498.63 955.99C1520.45 942.342 1553.67 935.563 1564.47 958.921C1570.17 971.263 1555.91 981.815 1562.54 993.685C1573.06 1012.51 1599.24 1007.5 1617.69 996.335C1636.08 985.203 1623.16 958.5 1640.95 946.435C1661.97 932.185 1686.43 933.693 1705.88 950.021C1720.79 962.538 1708.17 986.321 1725.04 996.035C1752.78 1012 1741.96 945.384 1767.28 925.812C1782.84 913.788 1793.32 905.079 1812.97 904.674C1833.07 904.261 1847.64 909.225 1860.34 924.807C1873.9 941.459 1872.44 957.856 1869.2 979.088C1859.84 1040.3 1718.85 1029.47 1718.85 1029.47L1539.07 1032.98L1471.52 1000.94Z" stroke="black"/>
<path d="M662 989C679.543 941.953 458.477 892.528 419 861.5C379.68 830.595 280.3 899.569 261.869 853.078C253.809 832.748 273.223 815.318 261.151 797.082C242.398 768.751 174.158 798.196 174.158 798.196L124.034 866.844L164.164 954.837L243.205 1035.63C243.205 1035.63 641.217 1044.74 662 989Z" fill="#E0CF78" stroke="black"/>
<path d="M821.729 936.133C837.24 965.26 821.729 1020.63 821.729 1020.63L849.729 1016.88C849.729 1016.88 862.918 969.761 854.229 941.633C846.893 917.88 822.23 913.668 818.229 889.133C813.976 863.047 829.166 849.272 838.729 824.633C848.623 799.142 866.905 788.444 868.229 761.133C869.71 730.601 847.826 717.815 838.729 688.633C829.565 659.233 822.616 642.414 821.729 611.633C821.168 592.132 826.229 561.881 826.229 561.881C797.173 552.394 799.541 621.823 797.229 659.133C795.673 684.249 793.554 700.586 804.729 723.133C813.572 740.974 832.488 742.223 838.729 761.133C849.145 792.687 816.12 807.917 804.729 839.133C796.241 862.397 778.394 875.98 785.729 899.633C791.66 918.755 812.319 918.461 821.729 936.133Z" fill="#067313"/>
<path d="M854.229 626.133C845.878 601.695 853.727 576.813 831.229 564.133C829.467 563.139 827.802 562.395 826.229 561.881C826.229 561.881 821.168 592.132 821.729 611.633C822.616 642.414 829.565 659.233 838.729 688.633C847.826 717.815 869.71 730.601 868.229 761.133C866.905 788.444 848.623 799.142 838.729 824.633C829.166 849.272 813.976 863.047 818.229 889.133C822.23 913.668 846.893 917.88 854.229 941.633C862.918 969.761 849.729 1016.88 849.729 1016.88L877.729 1013.13C877.729 1013.13 890.181 953.373 877.729 918.633C871.446 901.1 857.085 895.537 854.229 877.133C850.976 856.165 859.482 843.965 868.229 824.633C877.048 805.143 892.436 799.578 898.729 779.133C905.164 758.231 904.065 744.341 898.729 723.133C892.861 699.81 877.581 691.79 868.229 669.633C861.29 653.191 860 643.02 854.229 626.133Z" fill="#379341"/>
<path d="M849.729 1016.88L877.729 1013.13C877.729 1013.13 890.181 953.373 877.729 918.633C871.446 901.1 857.085 895.537 854.229 877.133C850.976 856.165 859.482 843.965 868.229 824.633C877.048 805.143 892.436 799.578 898.729 779.133C905.164 758.231 904.065 744.341 898.729 723.133C892.861 699.81 877.581 691.79 868.229 669.633C861.29 653.191 860 643.02 854.229 626.133C845.878 601.695 853.727 576.813 831.229 564.133C829.467 563.139 827.802 562.395 826.229 561.881M849.729 1016.88L821.729 1020.63C821.729 1020.63 837.24 965.26 821.729 936.133C812.319 918.461 791.66 918.755 785.729 899.633C778.394 875.98 796.241 862.397 804.729 839.133C816.12 807.917 849.145 792.687 838.729 761.133C832.488 742.223 813.572 740.974 804.729 723.133C793.554 700.586 795.673 684.249 797.229 659.133C799.541 621.823 797.173 552.394 826.229 561.881M849.729 1016.88C849.729 1016.88 862.918 969.761 854.229 941.633C846.893 917.88 822.23 913.668 818.229 889.133C813.976 863.047 829.166 849.272 838.729 824.633C848.623 799.142 866.905 788.444 868.229 761.133C869.71 730.601 847.826 717.815 838.729 688.633C829.565 659.233 822.616 642.414 821.729 611.633C821.168 592.132 826.229 561.881 826.229 561.881" stroke="black"/>
<path d="M334.5 940.5C334.5 940.5 291.191 896.613 306 871.5C313.082 859.491 320.656 851.649 334.5 850C360.34 846.921 340.034 918.364 364.5 909.5C380.531 903.692 369.967 877.303 386 871.5C404.926 864.65 429.374 877.404 430.5 897.5C431.437 914.227 403.303 913.266 402.5 930C401.203 957.032 470.228 913.448 471 940.5C471.334 952.213 466.634 959.111 459 968C439.282 990.961 381.5 968 381.5 968L334.5 940.5Z" fill="#CF1C1C"/>
<path d="M386 879.5C395.415 894.358 403.831 899.403 424 903M310 879.5C324.438 879.318 331.615 877.058 341 865M457.5 942.5C447.051 952.43 443.988 958.005 444.5 968M334.5 940.5C334.5 940.5 291.191 896.613 306 871.5C313.082 859.491 320.656 851.649 334.5 850C360.34 846.921 340.034 918.364 364.5 909.5C380.531 903.692 369.967 877.303 386 871.5C404.926 864.65 429.374 877.404 430.5 897.5C431.437 914.227 403.303 913.266 402.5 930C401.203 957.032 470.228 913.448 471 940.5C471.334 952.213 466.634 959.111 459 968C439.282 990.961 381.5 968 381.5 968L334.5 940.5Z" stroke="black"/>
<path fill-rule="evenodd" clip-rule="evenodd" d="M1120 1139H2519.15C2519.15 1139 2606.56 952.05 2519.15 871.285C2440.58 798.694 2347.46 848.271 2241.63 904.616C2175.24 939.965 2103.84 977.978 2027.89 990.159C2010.22 992.992 1993.93 995.716 1978.51 998.294C1907.32 1010.19 1854.73 1018.99 1771.41 1021.13C1665.83 1023.84 1598.38 1013.54 1507.75 999.704C1487.81 996.66 1466.75 993.445 1443.91 990.159C1369.94 979.517 1312.22 962.28 1256.43 945.618C1183.56 923.858 1113.98 903.079 1015.78 899.256C910.474 895.155 832.646 915.386 752.884 936.119C750.924 936.629 748.963 937.139 747 937.648C939.606 999.65 1028.22 1041.28 1120 1139Z" fill="#E0CF78"/>
<path d="M521.238 975.674C313.75 982.785 200.851 928.177 -6.84719 927.725C-11.9837 927.714 -20 927.725 -20 927.725V1139H1120C1028.22 1041.28 939.606 999.65 747 937.648C679.546 955.166 610.197 972.625 521.238 975.674Z" fill="#BFB16A"/>
<path d="M747 937.648C679.546 955.166 610.197 972.625 521.238 975.674C313.75 982.785 200.851 928.177 -6.84719 927.725C-11.9837 927.714 -20 927.725 -20 927.725V1139H1120M747 937.648C939.606 999.65 1028.22 1041.28 1120 1139M747 937.648C748.963 937.139 750.924 936.629 752.884 936.119C832.646 915.386 910.474 895.155 1015.78 899.256C1113.98 903.079 1183.56 923.858 1256.43 945.618C1312.22 962.28 1369.94 979.517 1443.91 990.159C1466.75 993.445 1487.81 996.66 1507.75 999.704C1598.38 1013.54 1665.83 1023.84 1771.41 1021.13C1854.73 1018.99 1907.32 1010.19 1978.51 998.294C1993.93 995.716 2010.22 992.992 2027.89 990.159C2103.84 977.978 2175.24 939.965 2241.63 904.616C2347.46 848.271 2440.58 798.694 2519.15 871.285C2606.56 952.05 2519.15 1139 2519.15 1139H1120" stroke="black"/>
<path fill-rule="evenodd" clip-rule="evenodd" d="M2007.77 944.36C1985.2 949.359 1962.64 954.355 1942 961.5C1942 961.5 2136.79 955.579 2259.5 935C2401.46 911.193 2615.5 839.5 2615.5 839.5C2615.5 839.5 2655.15 535.091 2523 505C2489.68 497.413 2468.62 496.602 2435.5 505C2369.39 521.761 2374.43 572.247 2380.3 631.055C2385.09 679.1 2390.44 732.698 2358 778C2329.13 818.314 2300.36 810.358 2270.6 802.131C2232.87 791.696 2193.56 780.827 2150.5 867.5C2125.24 918.349 2066.46 931.364 2007.77 944.36Z" fill="#E0CF78"/>
<path d="M1942 961.5C1866.9 987.501 1785.14 1020.64 1698 1122.5C1531.67 1316.92 2278 1177 2278 1177H2523L2615.5 839.5C2615.5 839.5 2401.46 911.193 2259.5 935C2136.79 955.579 1942 961.5 1942 961.5Z" fill="#D4BF59"/>
<path d="M1942 961.5C1866.9 987.501 1785.14 1020.64 1698 1122.5C1531.67 1316.92 2278 1177 2278 1177H2523L2615.5 839.5M1942 961.5C1942 961.5 2136.79 955.579 2259.5 935C2401.46 911.193 2615.5 839.5 2615.5 839.5M1942 961.5C1962.64 954.355 1985.2 949.359 2007.77 944.36C2066.46 931.364 2125.24 918.349 2150.5 867.5C2193.56 780.827 2232.87 791.696 2270.6 802.131C2300.36 810.358 2329.13 818.314 2358 778C2390.44 732.698 2385.09 679.1 2380.3 631.055C2374.43 572.247 2369.39 521.761 2435.5 505C2468.62 496.602 2489.68 497.413 2523 505C2655.15 535.091 2615.5 839.5 2615.5 839.5" stroke="black"/>
<path fill-rule="evenodd" clip-rule="evenodd" d="M-18.1142 1003.5C-18.1142 1003.5 133.347 991.622 226 964.5C272.244 950.963 342 922.457 342 922.457C331.746 918.779 320.174 915.155 307 911.5C298.89 909.25 286.508 907.09 272.361 904.621C232.169 897.609 177.727 888.111 166.5 867C157.537 850.146 162.759 833.364 167.868 816.944C173.316 799.436 178.637 782.339 166.5 766C154.027 749.208 136.982 747.846 118.884 746.399C104.499 745.249 89.4494 744.046 75.5 735C54.7994 721.577 45.0247 704.596 35.0561 687.278C26.0735 671.674 16.9335 655.796 -0.500015 642C-102.718 561.111 -49.4966 857.017 -18.1142 1003.5Z" fill="#C9B96A"/>
<path d="M-0.500015 1081C-0.500015 1081 842.012 1135.32 676 1074.5C625.083 1055.85 449.071 1017.64 440 1003.5C415.341 965.066 399.074 942.929 342 922.457C342 922.457 272.244 950.963 226 964.5C133.347 991.622 -18.1142 1003.5 -18.1142 1003.5C-8.22215 1049.67 -0.500015 1081 -0.500015 1081Z" fill="#A4954B"/>
<path d="M342 922.457C399.074 942.929 415.341 965.066 440 1003.5C449.071 1017.64 625.083 1055.85 676 1074.5C842.012 1135.32 -0.500015 1081 -0.500015 1081C-0.500015 1081 -8.22215 1049.67 -18.1142 1003.5M342 922.457C331.746 918.779 320.174 915.155 307 911.5C298.89 909.25 286.508 907.09 272.361 904.621C232.169 897.609 177.727 888.111 166.5 867C157.537 850.146 162.759 833.364 167.868 816.944C173.316 799.436 178.637 782.339 166.5 766C154.027 749.208 136.982 747.846 118.884 746.399C104.499 745.249 89.4494 744.046 75.5 735C54.7994 721.577 45.0247 704.596 35.0561 687.278C26.0735 671.674 16.9335 655.796 -0.500015 642C-102.718 561.111 -49.4966 857.017 -18.1142 1003.5M342 922.457C342 922.457 272.244 950.963 226 964.5C133.347 991.622 -18.1142 1003.5 -18.1142 1003.5" stroke="black"/>
<path d="M408.5 1098.5C394.504 1038.42 237.182 1088.1 219.5 1029C200.5 965.5 145 935 107.5 953C87.6808 962.513 73.9085 857.822 52 856C16.4709 853.045 -33.5 929.5 -33.5 929.5V1049L93 1145C93 1145 428.069 1182.49 408.5 1098.5Z" fill="#9A8E50" stroke="black"/>
<path d="M2576.5 948.5C2576.5 948.5 2477.4 910.808 2417 928C2367.98 941.952 2355.74 980.569 2309.5 1002C2236.75 1035.72 2176.12 995.355 2107 1036C2040.51 1075.09 1981.5 1188.5 1981.5 1188.5L2349.5 1161.5L2614.5 1128L2576.5 948.5Z" fill="#B7A752" stroke="black"/>
</g>
<defs>
<linearGradient id="paint0_linear_2010_101" x1="1250" y1="0" x2="1250" y2="1080" gradientUnits="userSpaceOnUse">
<stop stop-color="#6EC6E0"/>
<stop offset="1" stop-color="#376281"/>
</linearGradient>
<linearGradient id="paint1_linear_2010_101" x1="522.136" y1="-109.65" x2="189.052" y2="1073.05" gradientUnits="userSpaceOnUse">
<stop stop-color="#8DDEF6"/>
<stop offset="1" stop-color="#367FB3"/>
</linearGradient>
<linearGradient id="paint2_linear_2010_101" x1="1030.24" y1="-129.008" x2="973.388" y2="1098.39" gradientUnits="userSpaceOnUse">
<stop stop-color="#8DDEF6"/>
<stop offset="1" stop-color="#367FB3"/>
</linearGradient>
<linearGradient id="paint3_linear_2010_101" x1="1498.66" y1="-97.8076" x2="1671.05" y2="1118.75" gradientUnits="userSpaceOnUse">
<stop stop-color="#8DDEF6"/>
<stop offset="1" stop-color="#367FB3"/>
</linearGradient>
<linearGradient id="paint4_linear_2010_101" x1="2023.78" y1="-134.787" x2="2411.6" y2="1031.12" gradientUnits="userSpaceOnUse">
<stop stop-color="#8DDEF6"/>
<stop offset="1" stop-color="#367FB3"/>
</linearGradient>
<clipPath id="clip0_2010_101">
<rect width="2500" height="1080" fill="white"/>
</clipPath>
</defs>
</svg>
