<svg width="2500" height="1080" viewBox="0 0 2500 1080" fill="none" xmlns="http://www.w3.org/2000/svg">
<g clip-path="url(#clip0_2010_101)">
<rect width="2500" height="1080" fill="url(#paint0_linear_2010_101)"/>
<path d="M392.308 -94.9087L-65.5466 994.864L381.654 1072.65L615.687 -58.0363L392.308 -94.9087Z" fill="url(#paint1_linear_2010_101)" fill-opacity="0.5"/>
<path d="M907.114 -85.2743L707.702 1079.83L1142.17 1130.22L1133.04 -99.8991L907.114 -85.2743Z" fill="url(#paint2_linear_2010_101)" fill-opacity="0.5"/>
<path d="M1385.81 -31.9402L1406.54 1149.93L1842.8 1118.64L1605.08 -88.3242L1385.81 -31.9402Z" fill="url(#paint3_linear_2010_101)" fill-opacity="0.5"/>
<path d="M1097.09 625.207C1071.18 616.444 1029.25 608.127 1029.25 608.127C1029.25 608.127 1030.43 625.465 1033.4 650.419C1033.4 650.419 1050.63 654.179 1061.59 656.926L1062.83 657.236C1088.87 663.76 1103.96 667.539 1129.43 677.258C1157.09 687.814 1172.84 694.006 1198.05 709.79C1212.71 718.968 1233.99 735.816 1233.99 735.816C1231.8 722.361 1235.55 709.02 1226.45 695.964C1215.88 680.792 1188.59 668.312 1188.59 668.312C1188.59 668.312 1134.42 637.83 1097.09 625.207Z" fill="#6D3B14"/>
<path d="M1294.28 787.054C1271.34 774.879 1253.05 772.005 1239.07 749.642C1236.18 745.025 1234.74 740.414 1233.99 735.816C1233.99 735.816 1212.71 718.968 1198.05 709.79C1172.84 694.006 1157.09 687.814 1129.43 677.258C1103.96 667.539 1088.87 663.76 1062.83 657.236L1061.59 656.926C1050.63 654.179 1033.4 650.419 1033.4 650.419C1035.79 670.492 1039.34 695.494 1044.37 720.363C1044.37 720.363 1076.25 727.404 1096.3 733.376L1115.23 726.057L1123.91 733.376L1135.74 730.123L1145.99 739.069L1153.88 736.63V753.709L1167.29 759.402C1186.77 767.938 1216.2 783.469 1216.2 783.469C1217.69 783.197 1219.26 783.037 1220.93 782.988C1231.81 782.667 1239.14 787.613 1245.38 796.814L1295.07 824.97C1296.71 824.077 1298.54 823.366 1300.6 822.84C1308.94 820.709 1315.38 822.758 1321.89 828.533C1324.86 831.168 1326.86 833.823 1328.2 836.824L1372.37 851.305C1372.37 851.305 1382.38 846.084 1388.94 847.239C1393.29 848.005 1395.85 849.152 1399.19 852.119C1401.35 854.037 1402.86 855.948 1403.93 858.069C1419.52 862.711 1427.81 864.81 1441 866.758C1441 866.758 1445.47 863.021 1448.89 861.878C1453.58 860.311 1456.93 859.996 1461.51 861.878C1465.78 863.633 1468.29 866.277 1470.13 870.011C1488.06 871.503 1497.89 871.946 1514.36 870.889C1516.71 864.986 1518.97 858.602 1521.46 851.306C1522.93 846.979 1524.35 841.915 1525.65 836.824C1525.65 836.824 1490.22 834.678 1467.82 830.973C1444.43 827.105 1408.66 817.147 1408.66 817.147C1390.99 826.365 1358.18 812.267 1358.18 812.267C1358.18 812.267 1318.04 799.661 1294.28 787.054Z" fill="#6D3B14"/>
<path d="M1110.5 877.863C1110.5 877.863 1162.09 894.184 1195.69 902.544L1220.93 908.779L1216.2 900.104L1229.6 904.984L1223.29 884.651L1243.01 891.157L1255.63 877.863L1259.58 895.224L1285.61 884.651L1280.88 900.104L1310.85 906.61L1294.28 923.033L1324.26 926.943C1369.32 932.96 1394.82 938.806 1440.21 936.702C1451.94 936.159 1470.18 934.302 1470.18 934.302C1477.37 927.833 1483.98 920.416 1491.48 910.677C1492.76 909.012 1493.98 907.388 1495.14 905.797C1495.14 905.797 1460.65 904.476 1438.63 902.544C1419.18 900.836 1408.21 900.102 1388.94 896.851C1386.24 896.394 1383.18 895.825 1380.09 895.224C1370.44 893.345 1360.54 891.157 1360.54 891.157C1360.54 891.157 1331.95 884.557 1314 878.958C1311.72 878.245 1309.65 877.587 1307.69 876.954C1301.09 877.281 1296.16 875.66 1290.34 870.937C1288.85 870.393 1287.29 869.817 1285.61 869.198C1263.36 860.992 1229.6 845.612 1229.6 845.612C1224.53 846.926 1221.31 846.786 1216.2 845.612C1207.94 843.716 1198.05 833.413 1198.05 833.413L1145.99 817.147L1135.74 824.466L1123.91 817.147L1115.23 822.84L1106.55 806.574L1093.93 813.893L1086.05 800.881L1064.75 791.08C1078.59 826.09 1090.47 849.246 1110.5 877.863Z" fill="#6D3B14"/>
<path d="M1249.32 826.093C1245.7 836.448 1239.96 842.933 1229.6 845.612C1229.6 845.612 1263.36 860.992 1285.61 869.198C1287.29 869.817 1288.85 870.393 1290.34 870.937C1290.34 870.937 1284.73 863.478 1283.24 857.812C1281.39 850.753 1281.4 845.895 1284.03 839.106C1286.56 832.584 1289.82 827.838 1295.07 824.97L1245.38 796.814C1251.8 806.272 1253.12 815.233 1249.32 826.093Z" fill="#6D3B14"/>
<path d="M1145.99 817.147L1198.05 833.413C1198.05 833.413 1193.68 823.768 1193.32 817.147C1192.88 808.994 1193.7 803.638 1198.05 796.814C1202.82 789.327 1208.41 784.885 1216.2 783.469C1216.2 783.469 1186.77 767.938 1167.29 759.402L1160.19 770.788H1148.36L1152.3 786.241L1140.47 783.469L1142.84 796.814L1135.74 804.134L1145.99 817.147Z" fill="#6D3B14"/>
<path d="M1061.59 782.988C1062.66 785.757 1063.71 788.452 1064.75 791.08L1086.05 800.881V782.988L1096.3 779.735L1086.05 768.348L1093.93 759.402L1086.83 747.203L1101.03 743.136L1096.3 733.376C1076.25 727.404 1044.37 720.363 1044.37 720.363C1048.85 742.538 1054.52 764.609 1061.59 782.988Z" fill="#6D3B14"/>
<path d="M1314 878.958C1331.95 884.557 1360.54 891.157 1360.54 891.157C1360.54 891.157 1370.44 893.345 1380.09 895.224C1380.09 895.224 1375.07 893.272 1372.37 891.157C1364.91 885.294 1361.84 877.997 1362.91 868.385C1363.76 860.753 1372.37 851.305 1372.37 851.305L1328.2 836.824C1329.55 839.837 1330.23 843.198 1330.57 847.239C1331.29 855.847 1329.87 861.966 1324.26 868.385C1319.41 873.929 1307.69 876.954 1307.69 876.954C1309.65 877.587 1311.72 878.245 1314 878.958Z" fill="#6D3B14"/>
<path d="M1388.94 896.851C1408.21 900.102 1419.18 900.836 1438.63 902.544C1460.65 904.476 1495.14 905.797 1495.14 905.797C1504 893.609 1509.39 883.315 1514.36 870.889C1497.89 871.946 1488.06 871.503 1470.13 870.011C1470.73 871.245 1471.26 872.599 1471.76 874.078C1473.78 880.087 1473.74 884.662 1470.97 890.344C1468.82 894.758 1466.63 897.179 1462.3 899.29C1458.63 901.076 1456.03 901.67 1452.04 900.917C1448.65 900.277 1446.85 899.067 1444.15 896.851C1438.99 892.595 1436.63 888.207 1436.27 881.398C1435.95 875.381 1441 866.758 1441 866.758C1427.81 864.81 1419.52 862.711 1403.93 858.069C1405.18 860.558 1405.85 863.337 1406.29 866.758C1407.04 872.503 1406.42 876.205 1403.93 881.398C1400.92 887.638 1397.58 891.011 1391.31 893.597C1387.2 895.291 1380.09 895.224 1380.09 895.224C1383.18 895.825 1386.24 896.394 1388.94 896.851Z" fill="#6D3B14"/>
<path d="M1431.53 791.121C1431.53 791.121 1420.53 810.954 1408.66 817.147C1408.66 817.147 1444.43 827.105 1467.82 830.973C1490.22 834.678 1525.65 836.824 1525.65 836.824C1529.15 823.016 1531.71 809.014 1531.71 809.014L1431.53 791.121Z" fill="#6D3B14"/>
<path d="M1232.76 979.808C1278.15 984.246 1304.37 986.442 1349.5 979.808C1385.74 974.48 1408.37 974.042 1440.21 955.408C1452.53 948.196 1461.75 941.904 1470.18 934.302C1470.18 934.302 1451.94 936.159 1440.21 936.702C1394.82 938.806 1369.32 932.96 1324.26 926.943L1294.28 923.033L1290.34 926.943L1295.07 939.956L1280.88 944.022L1276.93 953.782L1263.52 944.022L1243.01 945.649V936.702H1223.29L1224.87 923.69L1210.67 919.623L1223.29 913.117L1220.93 908.779L1195.69 902.544C1162.09 894.184 1110.5 877.863 1110.5 877.863C1114.37 883.404 1118.56 889.149 1123.12 895.224C1138.87 916.207 1148.31 927.733 1167.29 945.649C1181.5 959.056 1205.94 977.231 1205.94 977.231C1214.23 978.066 1223.05 978.858 1232.76 979.808Z" fill="#6D3B14"/>
<path d="M1058.44 924.503C1060.62 925.843 1062.72 927.135 1064.75 928.383C1064.75 928.383 1034.92 893.27 1018.15 866.758L1001.64 887.045C1018.81 901.328 1035.44 910.386 1058.44 924.503Z" fill="#6D3B14"/>
<path d="M1016.63 864.318C1003.64 843.14 994.842 826.33 987.291 808.2C987.291 808.2 978.963 818.334 973.249 824.466C967.612 830.515 958.262 839.386 958.262 839.386C964.503 848.492 971.612 857.402 981.136 867.572C988.315 875.236 995.019 881.53 1001.64 887.045L1018.15 866.758C1017.63 865.936 1017.13 865.122 1016.63 864.318Z" fill="#6D3B14"/>
<path d="M970.094 759.402C967.518 751.153 965.358 743.689 963.496 736.63C963.496 736.63 950.519 746.82 942.486 753.709C933.884 761.086 920.98 773.228 920.98 773.228C924.661 780.718 928.812 788.481 933.809 797.627C942.934 814.329 949.799 827.038 958.262 839.386C958.262 839.386 967.612 830.515 973.249 824.466C978.963 818.334 987.291 808.2 987.291 808.2C981.268 793.737 976.036 778.433 970.094 759.402Z" fill="#6D3B14"/>
<path d="M950.374 665.872C950.374 665.872 934.667 676.83 925.133 684.578C914.457 693.254 898.899 708.164 898.899 708.164C900.008 715.229 901.425 722.605 903.835 730.123C909.464 747.685 914.493 760.032 920.98 773.228C920.98 773.228 933.884 761.086 942.486 753.709C950.519 746.82 963.496 736.63 963.496 736.63C957.323 713.239 954.405 694.282 950.374 665.872Z" fill="#6D3B14"/>
<path d="M925.133 684.578C934.667 676.83 950.374 665.872 950.374 665.872C948.624 653.538 947.257 638.85 946.211 624.689L888.959 668.312C889.485 669.063 889.977 669.872 890.426 670.752C895.69 681.065 896.673 693.989 898.899 708.164C898.899 708.164 914.457 693.254 925.133 684.578Z" fill="#6D3B14"/>
<path d="M1029.25 554.449C1029.25 554.449 1033.03 527.262 1033.99 509.718C1035 491.008 1042.56 478.258 1033.99 461.733C1028.73 451.591 1022.76 446.21 1013.98 441.281C1011.47 441.027 1005.14 440.525 1000.86 441.4C990.381 443.543 984.359 448.02 977.981 456.853C970.44 467.299 969.878 476.404 970.882 489.385C971.915 502.731 973.904 512.086 983.503 521.104C990.273 527.464 1004.8 531.231 1004.8 531.231C1002.54 533.48 1000.86 534.93 1000.86 534.93H940.908C942.486 538.997 943.274 569.089 943.274 569.089C943.274 569.089 944.075 595.79 946.211 624.689C947.257 638.85 948.624 653.538 950.374 665.872C954.405 694.282 957.323 713.239 963.496 736.63C965.358 743.689 967.518 751.153 970.094 759.402C976.036 778.433 981.268 793.737 987.291 808.2C994.842 826.33 1003.64 843.14 1016.63 864.318C1017.13 865.122 1017.63 865.936 1018.15 866.758C1034.92 893.27 1064.75 928.383 1064.75 928.383C1085.38 941.075 1098.93 949.282 1123.12 958.662C1148.14 968.365 1167.41 972.526 1188.59 975.272C1194.19 975.999 1199.93 976.626 1205.94 977.231C1205.94 977.231 1181.5 959.056 1167.29 945.649C1148.31 927.733 1138.87 916.207 1123.12 895.224C1118.56 889.149 1114.37 883.404 1110.5 877.863C1090.47 849.246 1078.59 826.09 1064.75 791.08C1063.71 788.452 1062.66 785.757 1061.59 782.988C1054.52 764.609 1048.85 742.538 1044.37 720.363C1039.34 695.494 1035.79 670.492 1033.4 650.419C1030.43 625.465 1029.25 608.127 1029.25 608.127C1029.25 608.127 1020.58 599.994 1020.58 578.035C1020.58 556.076 1029.25 554.449 1029.25 554.449Z" fill="#AF6A34"/>
<path d="M943.274 569.089C943.274 569.089 897.525 593.488 875.439 622.767C869.314 630.887 868.929 638.852 871.495 648.793C874.109 658.92 883.417 660.396 888.959 668.312L946.211 624.689C944.075 595.79 943.274 569.089 943.274 569.089Z" fill="#AF6A34"/>
<path d="M1531.71 809.014C1531.71 809.014 1535.12 809.462 1537.23 809.014C1540.39 808.344 1543.84 789.741 1537.23 781.361C1531.52 774.113 1523.88 776.508 1515.15 774.042C1495.85 768.597 1484.42 768.296 1464.66 765.095C1442.84 761.561 1415.76 756.962 1408.66 756.962C1397.06 756.962 1385.78 776.482 1385.78 776.482C1385.78 776.482 1351.22 767.432 1329.78 759.402C1316.62 754.472 1303.33 750.322 1292.71 745.535C1286.27 742.634 1280.8 739.499 1276.93 735.816C1266.89 726.254 1263.52 702.471 1263.52 702.471C1263.52 702.471 1263.34 700.554 1262.92 697.591C1262.02 691.156 1260.02 679.783 1256.42 672.379C1249.01 657.116 1239.48 652.001 1226.45 641.473C1207.25 625.962 1171.23 611.381 1171.23 611.381C1171.23 611.381 1134.47 594.383 1110.5 584.542C1079.18 571.685 1029.25 554.449 1029.25 554.449C1029.25 554.449 1020.58 556.076 1020.58 578.035C1020.58 599.994 1029.25 608.127 1029.25 608.127C1029.25 608.127 1071.18 616.444 1097.09 625.207C1134.42 637.83 1188.59 668.312 1188.59 668.312C1188.59 668.312 1215.88 680.792 1226.45 695.964C1235.55 709.02 1231.8 722.361 1233.99 735.816C1234.74 740.414 1236.18 745.025 1239.07 749.642C1253.05 772.005 1271.34 774.879 1294.28 787.054C1318.04 799.661 1358.18 812.267 1358.18 812.267C1358.18 812.267 1390.99 826.365 1408.66 817.147C1420.53 810.954 1431.53 791.121 1431.53 791.121L1531.71 809.014Z" fill="#AF6A34"/>
<path d="M1007.96 438.147C993.666 431.151 983.402 431.079 967.727 433.267C950.772 435.634 939.95 439.06 927.499 451.16C917.349 461.023 911.346 468.645 909.357 482.879C906.697 501.91 912.2 517.428 927.499 528.424C932.247 531.836 939.331 530.864 940.908 534.93H1000.86C1000.86 534.93 1002.54 533.48 1004.8 531.231C1004.8 531.231 990.273 527.464 983.503 521.104C973.904 512.086 971.915 502.731 970.882 489.385C969.878 476.404 970.44 467.299 977.981 456.853C984.359 448.02 990.381 443.543 1000.86 441.4C1005.14 440.525 1011.47 441.027 1013.98 441.281C1012.1 440.229 1010.1 439.199 1007.96 438.147Z" fill="#AF6A34"/>
<path fill-rule="evenodd" clip-rule="evenodd" d="M1198.05 833.413C1198.05 833.413 1207.94 843.716 1216.2 845.612C1221.31 846.786 1224.53 846.926 1229.6 845.612C1239.96 842.933 1245.7 836.448 1249.32 826.093C1253.12 815.233 1251.8 806.272 1245.38 796.814C1239.14 787.613 1231.81 782.667 1220.93 782.988C1219.26 783.037 1217.69 783.197 1216.2 783.469C1208.41 784.885 1202.82 789.327 1198.05 796.814C1193.7 803.638 1192.88 808.994 1193.32 817.147C1193.68 823.768 1198.05 833.413 1198.05 833.413ZM1206.73 804.134C1210.67 797.616 1215.85 793.98 1223.29 794.374C1225.65 794.499 1227.74 795.016 1229.6 795.881C1233.81 797.838 1236.83 801.574 1239.07 806.574C1241.59 812.218 1242.12 817.757 1240.15 822.84C1239.38 824.813 1238.25 826.718 1236.7 828.533C1232.33 833.678 1227.54 835.649 1220.93 835.039C1219.2 834.88 1217.63 834.566 1216.2 834.085C1212.27 832.769 1209.34 830.198 1206.73 826.093C1202.68 819.719 1202.35 813.079 1205.42 806.574C1205.8 805.758 1206.24 804.944 1206.73 804.134Z" fill="#AF6A34"/>
<path fill-rule="evenodd" clip-rule="evenodd" d="M1307.69 876.954C1307.69 876.954 1319.41 873.929 1324.26 868.385C1329.87 861.966 1331.29 855.847 1330.57 847.239C1330.23 843.198 1329.55 839.837 1328.2 836.824C1326.86 833.823 1324.86 831.168 1321.89 828.533C1315.38 822.758 1308.94 820.709 1300.6 822.84C1298.54 823.366 1296.71 824.077 1295.07 824.97C1289.82 827.838 1286.56 832.584 1284.03 839.106C1281.4 845.895 1281.39 850.753 1283.24 857.812C1284.73 863.478 1290.34 870.937 1290.34 870.937C1296.16 875.66 1301.09 877.281 1307.69 876.954ZM1292.71 839.106C1296.32 833.567 1301.24 831.283 1307.69 831.786C1308.8 831.872 1309.85 832.039 1310.85 832.284C1315.98 833.551 1319.64 836.93 1321.89 842.359C1323.81 846.965 1323.97 851.286 1322.37 855.372C1321.72 857.037 1320.77 858.662 1319.53 860.252C1315.89 864.898 1311.9 867.035 1306.12 866.758C1304.51 866.681 1303.05 866.417 1301.71 865.972C1297.87 864.693 1295.06 861.921 1292.71 857.812C1290.14 853.326 1289.22 848.808 1290.34 844.388C1290.79 842.609 1291.57 840.845 1292.71 839.106Z" fill="#AF6A34"/>
<path fill-rule="evenodd" clip-rule="evenodd" d="M1372.37 851.305C1372.37 851.305 1363.76 860.753 1362.91 868.385C1361.84 877.997 1364.91 885.294 1372.37 891.157C1375.07 893.272 1380.09 895.224 1380.09 895.224C1380.09 895.224 1387.2 895.291 1391.31 893.597C1397.58 891.011 1400.92 887.638 1403.93 881.398C1406.42 876.205 1407.04 872.503 1406.29 866.758C1405.85 863.337 1405.18 860.558 1403.93 858.069C1402.86 855.948 1401.35 854.037 1399.19 852.119C1395.85 849.152 1393.29 848.005 1388.94 847.239C1382.38 846.084 1372.37 851.305 1372.37 851.305ZM1372.37 861.878C1375.45 856.826 1380.02 854.861 1385.78 855.372C1386.91 855.472 1387.96 855.661 1388.94 855.942C1392.75 857.037 1395.47 859.519 1397.62 863.505C1399.77 867.503 1400.29 871.596 1399.19 875.455C1398.61 877.519 1397.55 879.517 1396.04 881.398C1392.6 885.663 1388.75 887.837 1383.42 887.091C1382.19 886.919 1381.09 886.604 1380.09 886.161C1376.45 884.544 1374.22 881.224 1372.37 876.954C1370.95 873.648 1370.13 870.593 1370.41 867.572C1370.59 865.678 1371.2 863.798 1372.37 861.878Z" fill="#AF6A34"/>
<path fill-rule="evenodd" clip-rule="evenodd" d="M1441 866.758C1441 866.758 1435.95 875.381 1436.27 881.398C1436.63 888.207 1438.99 892.595 1444.15 896.851C1446.85 899.067 1448.65 900.277 1452.04 900.917C1456.03 901.67 1458.63 901.076 1462.3 899.29C1466.63 897.179 1468.82 894.758 1470.97 890.344C1473.74 884.662 1473.78 880.087 1471.76 874.078C1471.26 872.599 1470.73 871.245 1470.13 870.011C1468.29 866.277 1465.78 863.633 1461.51 861.878C1456.93 859.996 1453.58 860.311 1448.89 861.878C1445.47 863.021 1441 866.758 1441 866.758ZM1444.15 875.705C1446.29 870.982 1449.36 867.816 1454.41 867.572C1454.86 867.55 1455.3 867.55 1455.73 867.572C1459.59 867.769 1462.42 869.735 1464.66 873.265C1466.84 876.69 1467.37 880.277 1466.24 883.78C1465.88 884.895 1465.36 886.001 1464.66 887.091C1462.17 891.012 1458.96 892.676 1454.41 892.784C1454.06 892.792 1453.72 892.792 1453.38 892.784C1449.47 892.685 1446.39 891.398 1444.15 887.904C1442.77 885.741 1442.31 883.598 1442.5 881.398C1442.66 879.555 1443.27 877.673 1444.15 875.705Z" fill="#AF6A34"/>
<path d="M1263.52 702.471C1263.52 702.471 1266.89 726.254 1276.93 735.816C1280.8 739.499 1286.27 742.634 1292.71 745.535L1307.69 524.357L1300.6 530.864L1296.65 522.73L1289.55 527.61V515.411L1284.03 517.037L1279.3 509.718L1262.92 697.591C1263.34 700.554 1263.52 702.471 1263.52 702.471Z" fill="#B77C4F"/>
<path d="M1316.37 524.357H1307.69L1420.49 655.299L1437.84 641.473L1335.3 509.718L1325.05 508.091V517.037L1316.37 515.411V524.357Z" fill="#B77C4F"/>
<path d="M1437.84 641.473L1420.49 655.299C1421.19 659.558 1423.09 662.245 1426.8 664.245C1429.23 665.555 1432.04 665.499 1434.69 664.533C1437.63 663.457 1440.38 661.255 1442.17 658.552C1443.8 656.098 1444.65 653.23 1444.15 650.419C1443.41 646.169 1437.84 641.473 1437.84 641.473Z" fill="#5A3416"/>
<path d="M1434.69 664.533L1458.35 696.778C1459.78 692.973 1461.29 691.386 1466.24 690.271L1442.17 658.552C1440.38 661.255 1437.63 663.457 1434.69 664.533Z" fill="#EFCF4E"/>
<path d="M1466.24 690.271C1461.29 691.386 1459.78 692.973 1458.35 696.778C1458.35 696.778 1457.03 701.585 1458.35 704.097C1460.46 708.094 1465.28 708.168 1469.4 706.537C1472.86 705.166 1475.37 703.027 1475.71 699.218C1475.91 696.915 1475.47 695.379 1474.13 693.524C1472.15 690.78 1466.24 690.271 1466.24 690.271Z" fill="#C7AD2E"/>
<path d="M1086.05 782.988V800.881L1093.93 813.893L1106.55 806.574L1115.23 822.84L1123.91 817.147L1135.74 824.466L1145.99 817.147L1135.74 804.134L1142.84 796.814L1140.47 783.469L1152.3 786.241L1148.36 770.788H1160.19L1167.29 759.402L1153.88 753.709V736.63L1145.99 739.069L1135.74 730.123L1123.91 733.376L1115.23 726.057L1096.3 733.376L1101.03 743.136L1086.83 747.203L1093.93 759.402L1086.05 768.348L1096.3 779.735L1086.05 782.988Z" fill="black"/>
<path d="M1295.07 939.956L1290.34 926.943L1294.28 923.033L1310.85 906.61L1280.88 900.104L1285.61 884.651L1259.58 895.224L1255.63 877.863L1243.01 891.157L1223.29 884.651L1229.6 904.984L1216.2 900.104L1220.93 908.779L1223.29 913.117L1210.67 919.623L1224.87 923.69L1223.29 936.702H1243.01V945.649L1263.52 944.022L1276.93 953.782L1280.88 944.022L1295.07 939.956Z" fill="black"/>
<path d="M943.274 569.089C943.274 569.089 897.525 593.488 875.439 622.767C869.314 630.887 868.929 638.852 871.495 648.793C874.109 658.92 883.417 660.396 888.959 668.312M943.274 569.089C943.274 569.089 942.486 538.997 940.908 534.93M943.274 569.089C943.274 569.089 944.075 595.79 946.211 624.689M1531.71 809.014C1531.71 809.014 1535.12 809.462 1537.23 809.014C1540.39 808.344 1543.84 789.741 1537.23 781.361C1531.52 774.113 1523.88 776.508 1515.15 774.042C1495.85 768.597 1484.42 768.296 1464.66 765.095C1442.84 761.561 1415.76 756.962 1408.66 756.962C1397.06 756.962 1385.78 776.482 1385.78 776.482C1385.78 776.482 1351.22 767.432 1329.78 759.402C1316.62 754.472 1303.33 750.322 1292.71 745.535M1531.71 809.014L1431.53 791.121C1431.53 791.121 1420.53 810.954 1408.66 817.147M1531.71 809.014C1531.71 809.014 1529.15 823.016 1525.65 836.824M1029.25 554.449C1029.25 554.449 1079.18 571.685 1110.5 584.542C1134.47 594.383 1171.23 611.381 1171.23 611.381C1171.23 611.381 1207.25 625.962 1226.45 641.473C1239.48 652.001 1249.01 657.116 1256.42 672.379C1260.02 679.783 1262.02 691.156 1262.92 697.591M1029.25 554.449C1029.25 554.449 1033.03 527.262 1033.99 509.718C1035 491.008 1042.56 478.258 1033.99 461.733C1028.73 451.591 1022.76 446.21 1013.98 441.281M1029.25 554.449C1029.25 554.449 1020.58 556.076 1020.58 578.035C1020.58 599.994 1029.25 608.127 1029.25 608.127M940.908 534.93C939.331 530.864 932.247 531.836 927.499 528.424C912.2 517.428 906.697 501.91 909.357 482.879C911.346 468.645 917.349 461.023 927.499 451.16C939.95 439.06 950.772 435.634 967.727 433.267C983.402 431.079 993.666 431.151 1007.96 438.147C1010.1 439.199 1012.1 440.229 1013.98 441.281M940.908 534.93C964.319 534.93 977.445 534.93 1000.86 534.93M940.908 534.93H1000.86M950.374 665.872C950.374 665.872 934.667 676.83 925.133 684.578C914.457 693.254 898.899 708.164 898.899 708.164M950.374 665.872C954.405 694.282 957.323 713.239 963.496 736.63M950.374 665.872C948.624 653.538 947.257 638.85 946.211 624.689M1064.75 928.383C1062.72 927.135 1060.62 925.843 1058.44 924.503C1035.44 910.386 1018.81 901.328 1001.64 887.045M1064.75 928.383C1085.38 941.075 1098.93 949.282 1123.12 958.662C1148.14 968.365 1167.41 972.526 1188.59 975.272M1064.75 928.383C1064.75 928.383 1034.92 893.27 1018.15 866.758M898.899 708.164C896.673 693.989 895.69 681.065 890.426 670.752C889.977 669.872 889.485 669.063 888.959 668.312M898.899 708.164C900.008 715.229 901.425 722.605 903.835 730.123C909.464 747.685 914.493 760.032 920.98 773.228M963.496 736.63C965.358 743.689 967.518 751.153 970.094 759.402C976.036 778.433 981.268 793.737 987.291 808.2M963.496 736.63C963.496 736.63 950.519 746.82 942.486 753.709C933.884 761.086 920.98 773.228 920.98 773.228M920.98 773.228C924.661 780.718 928.812 788.481 933.809 797.627C942.934 814.329 949.799 827.038 958.262 839.386M987.291 808.2C994.842 826.33 1003.64 843.14 1016.63 864.318C1017.13 865.122 1017.63 865.936 1018.15 866.758M987.291 808.2C987.291 808.2 978.963 818.334 973.249 824.466C967.612 830.515 958.262 839.386 958.262 839.386M958.262 839.386C964.503 848.492 971.612 857.402 981.136 867.572C988.315 875.236 995.019 881.53 1001.64 887.045M1018.15 866.758L1001.64 887.045M1000.86 534.93C1000.86 534.93 1002.54 533.48 1004.8 531.231M997.701 506.464C997.701 506.464 987.54 494.153 989.024 485.318C990.55 476.243 995.89 467.582 1004.8 468.239C1014.18 468.93 1016.62 478.378 1019 487.758C1021.74 498.552 1019.62 507.734 1015.05 517.851C1012.89 522.639 1008.2 527.842 1004.8 531.231M1004.8 531.231C1004.8 531.231 990.273 527.464 983.503 521.104C973.904 512.086 971.915 502.731 970.882 489.385C969.878 476.404 970.44 467.299 977.981 456.853C984.359 448.02 990.381 443.543 1000.86 441.4C1005.14 440.525 1011.47 441.027 1013.98 441.281M1015.05 441.4C1015.05 441.4 1014.66 441.349 1013.98 441.281M1004.8 533.303C1004.8 533.303 1005.92 615.956 1012.69 668.312C1017.03 701.906 1018.8 721.077 1027.67 753.709C1039.12 795.794 1047.91 819.369 1069.48 856.999C1087.16 887.843 1098.16 905.272 1123.12 930.196C1135.22 942.276 1142.05 949.318 1156.25 958.662C1168.14 966.49 1188.59 975.272 1188.59 975.272M1188.59 975.272C1194.19 975.999 1199.93 976.626 1205.94 977.231M1029.25 608.127C1029.25 608.127 1071.18 616.444 1097.09 625.207C1134.42 637.83 1188.59 668.312 1188.59 668.312C1188.59 668.312 1215.88 680.792 1226.45 695.964C1235.55 709.02 1231.8 722.361 1233.99 735.816M1029.25 608.127C1029.25 608.127 1030.43 625.465 1033.4 650.419M1205.94 977.231C1214.23 978.066 1223.05 978.858 1232.76 979.808C1278.15 984.246 1304.37 986.442 1349.5 979.808C1385.74 974.48 1408.37 974.042 1440.21 955.408C1452.53 948.196 1461.75 941.904 1470.18 934.302M1205.94 977.231C1205.94 977.231 1181.5 959.056 1167.29 945.649C1148.31 927.733 1138.87 916.207 1123.12 895.224C1118.56 889.149 1114.37 883.404 1110.5 877.863M1408.66 817.147C1390.99 826.365 1358.18 812.267 1358.18 812.267C1358.18 812.267 1318.04 799.661 1294.28 787.054C1271.34 774.879 1253.05 772.005 1239.07 749.642C1236.18 745.025 1234.74 740.414 1233.99 735.816M1408.66 817.147C1408.66 817.147 1444.43 827.105 1467.82 830.973C1490.22 834.678 1525.65 836.824 1525.65 836.824M1110.5 877.863C1110.5 877.863 1162.09 894.184 1195.69 902.544L1220.93 908.779M1110.5 877.863C1090.47 849.246 1078.59 826.09 1064.75 791.08M1470.18 934.302C1477.37 927.833 1483.98 920.416 1491.48 910.677C1492.76 909.012 1493.98 907.388 1495.14 905.797M1470.18 934.302C1470.18 934.302 1451.94 936.159 1440.21 936.702C1394.82 938.806 1369.32 932.96 1324.26 926.943L1294.28 923.033M1064.75 791.08C1063.71 788.452 1062.66 785.757 1061.59 782.988C1054.52 764.609 1048.85 742.538 1044.37 720.363M1064.75 791.08L1086.05 800.881M1145.99 817.147L1198.05 833.413M1145.99 817.147L1135.74 804.134L1142.84 796.814L1140.47 783.469L1152.3 786.241L1148.36 770.788H1160.19L1167.29 759.402M1145.99 817.147L1135.74 824.466L1123.91 817.147L1115.23 822.84L1106.55 806.574L1093.93 813.893L1086.05 800.881M1198.05 833.413C1198.05 833.413 1207.94 843.716 1216.2 845.612C1221.31 846.786 1224.53 846.926 1229.6 845.612M1198.05 833.413C1198.05 833.413 1193.68 823.768 1193.32 817.147C1192.88 808.994 1193.7 803.638 1198.05 796.814C1202.82 789.327 1208.41 784.885 1216.2 783.469M1229.6 845.612C1239.96 842.933 1245.7 836.448 1249.32 826.093C1253.12 815.233 1251.8 806.272 1245.38 796.814M1229.6 845.612C1229.6 845.612 1263.36 860.992 1285.61 869.198C1287.29 869.817 1288.85 870.393 1290.34 870.937M1245.38 796.814C1239.14 787.613 1231.81 782.667 1220.93 782.988C1219.26 783.037 1217.69 783.197 1216.2 783.469M1245.38 796.814L1295.07 824.97M1495.14 905.797C1495.14 905.797 1460.65 904.476 1438.63 902.544C1419.18 900.836 1408.21 900.102 1388.94 896.851C1386.24 896.394 1383.18 895.825 1380.09 895.224M1495.14 905.797C1504 893.609 1509.39 883.315 1514.36 870.889M1307.69 876.954C1309.65 877.587 1311.72 878.245 1314 878.958C1331.95 884.557 1360.54 891.157 1360.54 891.157C1360.54 891.157 1370.44 893.345 1380.09 895.224M1307.69 876.954C1307.69 876.954 1319.41 873.929 1324.26 868.385C1329.87 861.966 1331.29 855.847 1330.57 847.239C1330.23 843.198 1329.55 839.837 1328.2 836.824M1307.69 876.954C1301.09 877.281 1296.16 875.66 1290.34 870.937M1290.34 870.937C1290.34 870.937 1284.73 863.478 1283.24 857.812C1281.39 850.753 1281.4 845.895 1284.03 839.106C1286.56 832.584 1289.82 827.838 1295.07 824.97M1044.37 720.363C1044.37 720.363 1076.25 727.404 1096.3 733.376M1044.37 720.363C1039.34 695.494 1035.79 670.492 1033.4 650.419M1096.3 733.376L1101.03 743.136L1086.83 747.203L1093.93 759.402L1086.05 768.348L1096.3 779.735L1086.05 782.988V800.881M1096.3 733.376L1115.23 726.057L1123.91 733.376L1135.74 730.123L1145.99 739.069L1153.88 736.63V753.709L1167.29 759.402M1167.29 759.402C1186.77 767.938 1216.2 783.469 1216.2 783.469M1295.07 824.97C1296.71 824.077 1298.54 823.366 1300.6 822.84C1308.94 820.709 1315.38 822.758 1321.89 828.533C1324.86 831.168 1326.86 833.823 1328.2 836.824M1328.2 836.824L1372.37 851.305M1372.37 851.305C1372.37 851.305 1363.76 860.753 1362.91 868.385C1361.84 877.997 1364.91 885.294 1372.37 891.157C1375.07 893.272 1380.09 895.224 1380.09 895.224M1372.37 851.305C1372.37 851.305 1382.38 846.084 1388.94 847.239C1393.29 848.005 1395.85 849.152 1399.19 852.119C1401.35 854.037 1402.86 855.948 1403.93 858.069M1380.09 895.224C1380.09 895.224 1387.2 895.291 1391.31 893.597C1397.58 891.011 1400.92 887.638 1403.93 881.398C1406.42 876.205 1407.04 872.503 1406.29 866.758C1405.85 863.337 1405.18 860.558 1403.93 858.069M1403.93 858.069C1419.52 862.711 1427.81 864.81 1441 866.758M1441 866.758C1441 866.758 1435.95 875.381 1436.27 881.398C1436.63 888.207 1438.99 892.595 1444.15 896.851C1446.85 899.067 1448.65 900.277 1452.04 900.917C1456.03 901.67 1458.63 901.076 1462.3 899.29C1466.63 897.179 1468.82 894.758 1470.97 890.344C1473.74 884.662 1473.78 880.087 1471.76 874.078C1471.26 872.599 1470.73 871.245 1470.13 870.011M1441 866.758C1441 866.758 1445.47 863.021 1448.89 861.878C1453.58 860.311 1456.93 859.996 1461.51 861.878C1465.78 863.633 1468.29 866.277 1470.13 870.011M1470.13 870.011C1488.06 871.503 1497.89 871.946 1514.36 870.889M1514.36 870.889C1516.71 864.986 1518.97 858.602 1521.46 851.306C1522.93 846.979 1524.35 841.915 1525.65 836.824M1033.4 650.419C1033.4 650.419 1050.63 654.179 1061.59 656.926M1061.59 656.926L1062.83 657.236M1061.59 656.926C1062.01 657.03 1062.42 657.133 1062.83 657.236M1233.99 735.816C1233.99 735.816 1212.71 718.968 1198.05 709.79C1172.84 694.006 1157.09 687.814 1129.43 677.258C1103.96 667.539 1088.87 663.76 1062.83 657.236M1262.92 697.591C1263.34 700.554 1263.52 702.471 1263.52 702.471C1263.52 702.471 1266.89 726.254 1276.93 735.816C1280.8 739.499 1286.27 742.634 1292.71 745.535M1262.92 697.591L1279.3 509.718L1284.03 517.037L1289.55 515.411V527.61L1296.65 522.73L1300.6 530.864L1307.69 524.357M1292.71 745.535L1307.69 524.357M1307.69 524.357H1316.37V515.411L1325.05 517.037V508.091L1335.3 509.718L1437.84 641.473M1307.69 524.357C1307.69 524.357 1376.44 604.163 1420.49 655.299M1307.69 524.357L1420.49 655.299M1437.84 641.473C1437.84 641.473 1427.27 649.9 1420.49 655.299M1437.84 641.473C1437.84 641.473 1443.41 646.169 1444.15 650.419C1444.65 653.23 1443.8 656.098 1442.17 658.552M1437.84 641.473L1420.49 655.299M1420.49 655.299C1421.19 659.558 1423.09 662.245 1426.8 664.245C1429.23 665.555 1432.04 665.499 1434.69 664.533M1434.69 664.533L1458.35 696.778M1434.69 664.533C1437.63 663.457 1440.38 661.255 1442.17 658.552M1458.35 696.778C1459.78 692.973 1461.29 691.386 1466.24 690.271M1458.35 696.778C1458.35 696.778 1457.03 701.585 1458.35 704.097C1460.46 708.094 1465.28 708.168 1469.4 706.537C1472.86 705.166 1475.37 703.027 1475.71 699.218C1475.91 696.915 1475.47 695.379 1474.13 693.524C1472.15 690.78 1466.24 690.271 1466.24 690.271M1466.24 690.271L1442.17 658.552M1294.28 923.033L1310.85 906.61L1280.88 900.104L1285.61 884.651L1259.58 895.224L1255.63 877.863L1243.01 891.157L1223.29 884.651L1229.6 904.984L1216.2 900.104L1220.93 908.779M1294.28 923.033L1290.34 926.943L1295.07 939.956L1280.88 944.022L1276.93 953.782L1263.52 944.022L1243.01 945.649V936.702H1223.29L1224.87 923.69L1210.67 919.623L1223.29 913.117L1220.93 908.779M888.959 668.312L946.211 624.689M1229.6 795.881C1233.81 797.838 1236.83 801.574 1239.07 806.574C1241.59 812.218 1242.12 817.757 1240.15 822.84M1229.6 795.881C1227.74 795.016 1225.65 794.499 1223.29 794.374C1215.85 793.98 1210.67 797.616 1206.73 804.134C1206.24 804.944 1205.8 805.758 1205.42 806.574M1229.6 795.881L1216.2 834.085M1216.2 834.085C1212.27 832.769 1209.34 830.198 1206.73 826.093C1202.68 819.719 1202.35 813.079 1205.42 806.574M1216.2 834.085C1217.63 834.566 1219.2 834.88 1220.93 835.039C1227.54 835.649 1232.33 833.678 1236.7 828.533C1238.25 826.718 1239.38 824.813 1240.15 822.84M1205.42 806.574L1240.15 822.84M1290.34 844.388C1290.79 842.609 1291.57 840.845 1292.71 839.106C1296.32 833.567 1301.24 831.283 1307.69 831.786C1308.8 831.872 1309.85 832.039 1310.85 832.284M1290.34 844.388C1289.22 848.808 1290.14 853.326 1292.71 857.812C1295.06 861.921 1297.87 864.693 1301.71 865.972M1290.34 844.388L1322.37 855.372M1322.37 855.372C1321.72 857.037 1320.77 858.662 1319.53 860.252C1315.89 864.898 1311.9 867.035 1306.12 866.758C1304.51 866.681 1303.05 866.417 1301.71 865.972M1322.37 855.372C1323.97 851.286 1323.81 846.965 1321.89 842.359C1319.64 836.93 1315.98 833.551 1310.85 832.284M1310.85 832.284L1301.71 865.972M1370.41 867.572C1370.59 865.678 1371.2 863.798 1372.37 861.878C1375.45 856.826 1380.02 854.861 1385.78 855.372C1386.91 855.472 1387.96 855.661 1388.94 855.942M1370.41 867.572C1370.13 870.593 1370.95 873.648 1372.37 876.954C1374.22 881.224 1376.45 884.544 1380.09 886.161M1370.41 867.572L1399.19 875.455M1399.19 875.455C1398.61 877.519 1397.55 879.517 1396.04 881.398C1392.6 885.663 1388.75 887.837 1383.42 887.091C1382.19 886.919 1381.09 886.604 1380.09 886.161M1399.19 875.455C1400.29 871.596 1399.77 867.503 1397.62 863.505C1395.47 859.519 1392.75 857.037 1388.94 855.942M1388.94 855.942L1380.09 886.161M1442.5 881.398C1442.66 879.555 1443.27 877.673 1444.15 875.705C1446.29 870.982 1449.36 867.816 1454.41 867.572C1454.86 867.55 1455.3 867.55 1455.73 867.572M1442.5 881.398C1442.31 883.598 1442.77 885.741 1444.15 887.904C1446.39 891.398 1449.47 892.685 1453.38 892.784M1442.5 881.398L1466.24 883.78M1466.24 883.78C1465.88 884.895 1465.36 886.001 1464.66 887.091C1462.17 891.012 1458.96 892.676 1454.41 892.784C1454.06 892.792 1453.72 892.792 1453.38 892.784M1466.24 883.78C1467.37 880.277 1466.84 876.69 1464.66 873.265C1462.42 869.735 1459.59 867.769 1455.73 867.572M1455.73 867.572L1453.38 892.784" stroke="black" stroke-width="0.5"/>
<path d="M1924.58 -49.7455L2156.98 1109.23L2580.55 1000.2L2130.18 -144.547L1924.58 -49.7455Z" fill="url(#paint4_linear_2010_101)" fill-opacity="0.5"/>
<path d="M1423.01 1037.14C1436.33 941.634 1547.12 941.876 1641.51 922.136C1711.84 907.425 1756.52 902.025 1825.51 922.136C1882.43 938.729 1941.34 940.094 1957.51 997.136C1963.79 1019.3 1957.51 1056.14 1957.51 1056.14L1689.51 1117.64L1423.01 1079.14C1423.01 1079.14 1420.74 1053.38 1423.01 1037.14Z" fill="#867F58" stroke="black"/>
<path d="M429.907 752.383C429.907 752.383 435.055 683.855 452.981 644.806C470.174 607.354 514.303 601.361 516.029 560.187C517.186 532.611 517.47 504.61 492.128 493.675C459.319 479.517 465.43 568.441 430.429 561.243C409.582 556.956 397.088 544.626 390.183 524.494C379.347 492.901 489.798 419.799 475.372 389.676C459.554 356.648 364.364 424.257 339.054 450.723C313.19 477.771 374.593 523.235 345.167 546.358C331.87 556.806 319.371 564.618 303.602 558.509C284.947 551.281 298.268 525.054 283.762 511.277C268.61 496.886 252.525 486.46 233.08 494.113C205.488 504.972 252.355 550.328 230.155 569.984C199.949 596.73 148.491 546.783 148.699 506.439C148.876 472.268 278.366 428.576 277.393 394.419C276.634 367.764 262.872 346.517 237.662 337.827C202.093 325.566 128.482 457.885 93.171 444.901C71.0253 436.759 55.3191 420.601 56.313 397.027C57.4588 369.85 114.864 379.214 109.855 352.479C105.102 327.109 74.9174 323.961 49.2041 326.212C12.6346 329.413 20.7184 407.014 -14.1801 395.627C-29.9587 390.479 -28.9727 367.393 -45.5645 366.969C-64.694 366.48 -74.3869 384.489 -78.6053 403.153C-82.8502 421.936 -70.3524 432.068 -64.0784 450.273C-41.2063 516.64 14.4028 611.988 14.4028 611.988L265.401 769.409L429.907 752.383Z" fill="#812222"/>
<path d="M396.007 1011.14C409.327 915.634 520.123 915.876 614.507 896.136C684.842 881.425 729.522 876.025 798.507 896.136C855.427 912.729 914.338 914.094 930.507 971.136C936.791 993.303 930.507 1030.14 930.507 1030.14L662.507 1091.64L396.007 1053.14C396.007 1053.14 393.741 1027.38 396.007 1011.14Z" fill="#867F58"/>
<path d="M425.348 903.907C425.348 903.907 473.434 853.473 458.225 822.911C441.625 789.553 383.71 840.12 363.899 808.563C347.169 781.912 346.557 742.95 374.613 728.704C403.154 714.211 415.735 781.151 445.612 769.662C483.75 754.997 397.174 701.625 420.515 668.088C435.908 645.971 463.681 619.456 482.816 638.429C496.965 652.459 481.582 669.644 483.842 689.441C487.269 719.461 477.623 748.559 503.417 764.295C527.144 778.769 554.911 774.376 573.841 754.027C595.165 731.106 548.043 695.039 571.142 673.908C592.082 654.752 622.612 656.432 643.8 675.314C670.769 699.347 648.483 735.104 631.516 766.996C614.093 799.744 542.691 796.467 559.86 829.35C573.017 854.548 617.211 822.089 630.411 847.264C642.497 870.317 634.135 896.589 612.841 911.559C585.843 930.538 565.715 881.246 532.855 884.292C498.089 887.515 456.149 930.222 456.149 930.222L425.348 903.907Z" fill="#126DBD"/>
<path d="M166.062 758.668C169.348 793.342 139.062 843.668 139.062 843.668H163.312C163.312 843.668 173.177 815.648 177.562 797.168C184.34 768.606 197.197 750.397 187.562 722.668C180.185 701.437 160.85 698.402 151.062 678.168C140.407 656.14 134.312 640.673 139.062 616.668C143.139 596.069 157.343 589.271 166.062 570.168C178.17 543.643 198.609 525.652 187.562 498.668C178.581 476.731 148.959 483.709 139.062 462.168C123.477 428.245 183.062 419.168 177.562 374.668C173.716 343.549 175.249 336.637 176.519 335.294C165.458 337.945 155.697 382.014 139.062 408.668C139.062 408.668 102.671 436.592 101.062 462.168C99.052 494.131 156.094 495.541 151.062 527.168C147.718 548.191 127.421 551.302 117.562 570.168C107.177 590.043 100.265 602.758 101.062 625.168C102.168 656.254 125.637 667.11 139.062 695.168C150.693 719.476 163.521 731.842 166.062 758.668Z" fill="#032D08"/>
<path d="M207.562 388.668C207.031 364.721 189.062 335.168 177.562 335.168C177.213 335.168 176.866 335.211 176.519 335.294C175.249 336.637 173.716 343.549 177.562 374.668C183.062 419.168 123.477 428.245 139.062 462.168C148.959 483.709 178.581 476.731 187.562 498.668C198.609 525.652 178.17 543.643 166.062 570.168C157.343 589.271 143.139 596.069 139.062 616.668C134.312 640.673 140.407 656.14 151.062 678.168C160.85 698.402 180.185 701.437 187.562 722.668C197.197 750.397 184.34 768.606 177.562 797.168C173.177 815.648 163.312 843.668 163.312 843.668H187.562C187.562 843.668 203.809 797.819 207.562 767.168C210.98 739.259 218.618 721.021 207.562 695.168C198.163 673.188 170.502 673.658 166.062 650.168C161.678 626.971 179.904 616 187.562 593.668C196.359 568.016 204.074 554.062 207.562 527.168C210.326 505.868 213.92 492.685 207.562 472.168C202.903 457.131 189.572 452.782 187.562 437.168C184.947 416.848 208.017 409.151 207.562 388.668Z" fill="#1E5B25"/>
<path d="M2106.69 770.109C2120.28 802.179 2106.57 859.294 2106.57 859.294L2129.69 851.984C2129.69 851.984 2130.65 822.293 2129.26 803.351C2127.12 774.075 2133.89 752.837 2116.34 729.302C2102.91 711.282 2083.56 714.217 2068.12 697.875C2051.32 680.083 2040.85 667.173 2038.14 642.853C2035.82 621.983 2047.32 611.22 2049.87 590.377C2053.42 561.436 2067.48 538.121 2048.82 515.722C2033.64 497.512 2007.5 513.095 1991.57 495.54C1966.48 467.893 2020.56 441.277 2001.9 400.505C1988.86 371.992 1988.23 364.94 1989.04 363.276C1979.29 369.139 1983.27 414.1 1975.44 444.529C1975.44 444.529 1949.16 482.123 1955.34 506.995C1963.06 538.077 2017.87 522.226 2022.61 553.899C2025.76 574.952 2007.34 584.037 2003.63 604.997C1999.72 627.078 1996.96 641.285 2004.47 662.413C2014.9 691.719 2040.55 694.995 2061.81 717.702C2080.22 737.373 2096.18 745.296 2106.69 770.109Z" fill="#032D08"/>
<path d="M2034.73 404.81C2027 382.137 2000.96 359.376 1990 362.842C1989.66 362.947 1989.34 363.093 1989.04 363.276C1988.23 364.94 1988.86 371.992 2001.9 400.505C2020.56 441.277 1966.48 467.893 1991.57 495.54C2007.5 513.095 2033.64 497.512 2048.82 515.722C2067.48 538.121 2053.42 561.436 2049.87 590.377C2047.32 611.22 2035.82 621.983 2038.14 642.853C2040.85 667.173 2051.32 680.083 2068.12 697.875C2083.56 714.217 2102.91 711.282 2116.34 729.302C2133.89 752.837 2127.12 774.075 2129.26 803.351C2130.65 822.293 2129.69 851.984 2129.69 851.984L2152.82 844.674C2152.82 844.674 2154.49 796.059 2148.83 765.704C2143.67 738.062 2145.46 718.371 2127.12 697.053C2111.53 678.928 2085.3 687.715 2073.99 666.656C2062.81 645.859 2076.88 629.904 2077.45 606.303C2078.11 579.192 2081.26 563.562 2076.48 536.868C2072.69 515.725 2072.14 502.072 2059.9 484.426C2050.92 471.493 2036.9 471.364 2030.28 457.083C2021.66 438.497 2041.34 424.203 2034.73 404.81Z" fill="#1E5B25"/>
<path d="M1567.17 1019.63C1585.67 1046.96 1576.08 1103.66 1576.08 1103.66L1603.53 1096.97C1603.53 1096.97 1611.68 1048.72 1600.07 1021.67C1590.27 998.822 1565.3 997.234 1558.74 973.257C1551.76 947.765 1565.41 932.466 1572.32 906.955C1579.47 880.563 1596.52 867.998 1594.96 840.699C1593.22 810.182 1570.11 799.774 1557.98 771.713C1545.77 743.444 1537.09 727.451 1532.96 696.935C1530.34 677.602 1532.19 646.986 1532.19 646.986C1502.29 640.616 1511.97 709.408 1513.6 746.753C1514.7 771.894 1514.32 788.362 1527.81 809.606C1538.48 826.416 1557.43 825.663 1565.63 843.809C1579.31 874.089 1548.08 892.716 1540.04 924.959C1534.05 948.989 1517.74 964.377 1527.52 987.125C1535.44 1005.52 1555.95 1003.05 1567.17 1019.63Z" fill="#032D08"/>
<path d="M1566.81 707.927C1555.93 684.507 1561.11 658.936 1537.4 648.698C1535.54 647.896 1533.81 647.331 1532.19 646.986C1532.19 646.986 1530.34 677.602 1532.96 696.935C1537.09 727.451 1545.77 743.444 1557.98 771.713C1570.11 799.774 1593.22 810.182 1594.96 840.699C1596.52 867.998 1579.47 880.563 1572.32 906.955C1565.41 932.466 1551.76 947.765 1558.74 973.257C1565.3 997.234 1590.27 998.822 1600.07 1021.67C1611.68 1048.72 1603.53 1096.97 1603.53 1096.97L1630.98 1090.29C1630.98 1090.29 1637.06 1029.55 1621.02 996.319C1612.92 979.547 1598.05 975.529 1593.27 957.528C1587.82 937.02 1595 923.992 1601.66 903.845C1608.37 883.534 1623.09 876.377 1627.19 855.383C1631.38 833.919 1628.83 820.222 1621.29 799.695C1612.99 777.121 1596.95 770.756 1585.32 749.709C1576.68 734.091 1574.33 724.112 1566.81 707.927Z" fill="#1E5B25"/>
<path d="M1727.37 901.687C1747.93 927.504 1742.75 984.775 1742.75 984.775L1769.6 975.992C1769.6 975.992 1774 927.257 1760.33 901.18C1748.8 879.159 1723.78 879.506 1715.38 856.109C1706.45 831.232 1718.88 814.923 1723.8 788.955C1728.89 762.089 1744.92 748.243 1741.25 721.146C1737.15 690.855 1713.3 682.265 1699.04 655.226C1684.68 627.986 1674.79 612.713 1668.31 582.606C1664.21 563.534 1663.68 532.867 1663.68 532.867C1633.39 528.827 1648.35 596.665 1652.87 633.772C1655.91 658.752 1656.8 675.201 1671.89 695.338C1683.83 711.272 1702.66 709.058 1712.24 726.515C1728.23 755.647 1698.52 776.633 1693 809.401C1688.89 833.821 1673.82 850.425 1685.33 872.348C1694.64 890.072 1714.91 886.023 1727.37 901.687Z" fill="#032D08"/>
<path d="M1702.91 590.949C1690.25 568.44 1693.44 542.545 1669.01 534.171C1667.1 533.515 1665.32 533.085 1663.68 532.867C1663.68 532.867 1664.21 563.534 1668.31 582.606C1674.79 612.713 1684.68 627.986 1699.04 655.226C1713.3 682.265 1737.15 690.855 1741.25 721.146C1744.92 748.243 1728.89 762.089 1723.8 788.955C1718.88 814.923 1706.45 831.232 1715.38 856.109C1723.78 879.506 1748.8 879.159 1760.33 901.18C1774 927.257 1769.6 975.992 1769.6 975.992L1796.45 967.208C1796.45 967.208 1797.82 906.181 1779.25 874.287C1769.88 858.19 1754.75 855.334 1748.59 837.757C1741.58 817.731 1747.72 804.187 1752.8 783.586C1757.93 762.817 1772.05 754.543 1774.51 733.294C1777.04 711.571 1773.43 698.113 1764.32 678.23C1754.31 656.364 1737.82 651.259 1724.59 631.174C1714.78 616.271 1711.66 606.504 1702.91 590.949Z" fill="#1E5B25"/>
<path d="M224.96 610.887C235.692 642.092 211.658 694.333 211.658 694.333L239.899 695.037C239.899 695.037 260.341 650.579 256.189 621.434C252.682 596.823 228.99 588.781 228.902 563.922C228.808 537.491 245.976 526.28 259.299 503.453C273.082 479.837 292.82 472.151 298.427 445.388C304.695 415.471 285.097 399.399 280.707 369.148C276.285 338.673 272.07 320.97 276.04 290.432C278.555 271.087 288.316 242.009 288.316 242.009C261.114 228.067 252.524 297.003 244.368 333.483C238.878 358.042 234.214 373.841 241.7 397.866C247.625 416.877 266.107 421.088 269.295 440.744C274.614 473.545 239.603 483.386 223.441 512.42C211.395 534.058 191.634 544.662 195.154 569.175C198 588.992 218.448 591.954 224.96 610.887Z" fill="#032D08"/>
<path d="M305.852 309.867C301.452 284.42 313.12 261.084 292.899 245.02C291.315 243.761 289.788 242.764 288.316 242.009C288.316 242.009 278.555 271.087 276.04 290.432C272.07 320.97 276.285 338.673 280.707 369.148C285.097 399.399 304.695 415.471 298.427 445.388C292.82 472.151 273.082 479.837 259.299 503.453C245.976 526.28 228.808 537.491 228.902 563.922C228.99 588.781 252.682 596.823 256.189 621.434C260.341 650.579 239.899 695.037 239.899 695.037L268.141 695.742C268.141 695.742 289.843 638.687 283.016 602.42C279.571 584.117 266.264 576.363 266.342 557.738C266.43 536.519 276.75 525.811 288.431 508.096C300.208 490.238 316.28 487.164 325.713 467.965C335.357 448.337 336.46 434.447 334.529 412.663C332.405 388.707 318.578 378.382 312.83 355.029C308.565 337.7 308.893 327.452 305.852 309.867Z" fill="#1E5B25"/>
<path d="M370.5 952C370.5 952 353.87 820.31 310.5 744.5C286.961 703.354 200.178 692.901 166.5 659.54C101.302 594.956 35.6181 405.987 -41 456.5C-96.1506 492.86 9.50002 659.54 9.50002 659.54L1.14441e-05 884.54L125.5 930.04L370.5 952Z" fill="#E0CF78" stroke="black"/>
<path d="M2070.07 879.639C2070.07 879.639 2027.66 825.562 2014.57 784.639C2002.01 745.389 2030.56 711.208 2004.07 679.639C1986.33 658.495 1967.66 637.626 1941.57 646.639C1907.79 658.307 1972.27 719.853 1941.57 738.139C1923.28 749.03 1905.74 748.35 1887.07 738.139C1857.76 722.115 1890.03 593.656 1859.07 581.139C1825.12 567.415 1800.41 681.528 1799.57 718.139C1798.71 755.553 1874.71 747.722 1868.57 784.639C1865.79 801.321 1861.83 815.518 1846.07 821.639C1827.42 828.881 1819.57 800.531 1799.57 800.139C1778.68 799.729 1759.77 802.876 1750.57 821.639C1737.51 848.263 1802.71 850.154 1799.57 879.639C1795.3 919.757 1723.62 917.572 1696.57 887.639C1673.66 862.286 1739.82 742.706 1716.07 718.139C1697.53 698.967 1673.04 692.557 1648.57 703.139C1614.03 718.069 1648.9 865.416 1614.07 879.639C1592.22 888.559 1569.73 887.218 1554.57 869.139C1537.09 848.298 1585.79 816.504 1564.07 800.139C1543.45 784.609 1519.04 802.638 1501.57 821.639C1476.72 848.661 1535.02 900.515 1501.57 915.639C1486.44 922.476 1471.61 904.764 1459.07 915.639C1444.61 928.177 1449.6 948.011 1459.07 964.639C1468.6 981.371 1484.66 980.426 1501.57 989.639C1563.21 1023.23 1668.57 1056.14 1668.57 1056.14L1960.07 1003.14L2070.07 879.639Z" fill="#171A40"/>
<path d="M1270.62 953.735C1283.43 880.671 1391.44 912.706 1460.12 940.735C1513.61 962.568 1594.59 988.131 1569.62 1040.24C1549.06 1083.13 1450.62 1066.24 1450.62 1066.24C1450.62 1066.24 1351.01 1087.35 1310.12 1050.24C1279.97 1022.87 1263.59 993.844 1270.62 953.735Z" fill="#F7E89D"/>
<path fill-rule="evenodd" clip-rule="evenodd" d="M2207.47 646.951C2190.54 713.293 2267.77 811.579 2267.77 811.579L2241.48 841.267L2203.66 800.906C2203.66 800.906 2150.56 730.431 2101 725C2075.8 722.239 2040.41 735.075 2026.55 740.635C2051.07 727.852 2023.69 701.018 1992.71 670.646C1957.61 636.246 1917.89 597.308 1943.67 569.104C1945.05 567.594 1946.39 566.102 1947.7 564.639C1959.62 551.363 1969.42 540.45 1987.97 540.485C2006.19 540.52 2005.23 566.601 2004.37 590.2C2003.55 612.687 2002.81 632.92 2018.82 626.21C2031.85 620.748 2036.07 610.678 2040.99 598.948C2042.69 594.875 2044.48 590.602 2046.75 586.253C2054.46 571.5 2053.52 555.573 2052.64 540.52C2051.49 521.081 2050.43 503.098 2068.18 490.977C2093.74 473.524 2122.26 471.945 2147.42 489.968C2166.54 503.663 2150.56 529.021 2135.39 553.096C2120.33 576.997 2106.07 599.633 2127.73 608.341C2137.33 612.2 2153.87 612.69 2153.87 612.69C2172.65 611.511 2175.99 588.616 2179.14 567.08C2182.31 545.369 2185.28 525.039 2203.66 529.735C2228.27 536.026 2238.91 557.386 2241.48 582.661C2243.09 598.442 2234.48 608.065 2225.35 618.279C2218.13 626.354 2210.57 634.799 2207.47 646.951Z" fill="#9E3535"/>
<path d="M2020.66 743.097C1996.19 751.343 1978.33 751.334 1954.57 741.226C1932.64 731.898 1933.59 699.428 1909.76 699.811C1885.34 700.204 1869.97 720.639 1866.29 744.787C1860.62 781.994 1952.76 764.154 1944.64 800.906C1936.72 836.783 1866.15 788.811 1853.24 823.209C1844.54 846.398 1851.87 865.978 1867.81 884.937C1894.95 917.225 1933.82 880.778 1975.82 884.658C2049.84 891.497 2159.8 933.512 2159.8 933.512L2241.48 841.267L2203.66 800.906C2203.66 800.906 2150.56 730.431 2101 725C2075.8 722.239 2040.41 735.075 2026.55 740.635C2024.85 741.525 2022.89 742.347 2020.66 743.097Z" fill="#BB3636"/>
<path fill-rule="evenodd" clip-rule="evenodd" d="M363.305 758.418C295.784 769.768 237.131 880.15 237.131 880.15L199.346 868.113L220.96 817.194C220.96 817.194 263.94 740.133 248.862 692.609C241.196 668.446 215.144 641.271 204.454 630.846C226.059 648.095 239.528 612.206 254.774 571.583C272.041 525.575 291.586 473.497 327.809 485.671C329.748 486.322 331.654 486.944 333.524 487.553C350.484 493.083 364.428 497.629 371.898 514.609C379.234 531.285 354.995 540.96 333.064 549.715C312.165 558.057 293.362 565.563 305.974 577.494C316.241 587.206 327.158 586.991 339.873 586.742C344.288 586.655 348.92 586.564 353.816 586.883C370.425 587.964 384.612 580.664 398.021 573.765C415.336 564.856 431.354 556.615 449.617 567.945C475.915 584.259 488.897 609.708 482.589 640.006C477.795 663.029 448.142 658.672 419.988 654.535C392.038 650.428 365.567 646.538 366.364 669.871C366.718 680.214 372.959 695.537 372.959 695.537C381.632 712.234 403.924 706.033 424.892 700.201C446.031 694.321 465.825 688.815 468.963 707.522C473.165 732.577 457.933 750.948 435.858 763.522C422.074 771.374 409.794 767.395 396.757 763.171C386.451 759.832 375.672 756.339 363.305 758.418Z" fill="#359E3C"/>
<path d="M199.819 626.453C182.382 607.411 175.166 591.071 174.801 565.254C174.463 541.427 204.541 529.157 194.554 507.521C184.317 485.343 159.414 479.558 135.84 485.955C99.516 495.813 153.099 572.869 116.204 580.311C80.1887 587.575 95.5217 503.635 58.8411 505.741C34.1136 507.16 19.1727 521.785 8.27912 544.029C-10.2728 581.911 38.7792 602.716 52.2176 642.698C75.901 713.162 81.9452 830.716 81.9452 830.716L199.346 868.113L220.96 817.194C220.96 817.194 263.94 740.133 248.862 692.609C241.196 668.446 215.144 641.271 204.454 630.846C202.949 629.645 201.405 628.186 199.819 626.453Z" fill="#3ABB36"/>
<path d="M2310.18 602.001C2310.18 602.001 2286.39 569.865 2263.7 563.401C2226.23 552.724 2205.9 629.321 2173.95 607.007C2153.78 592.919 2142.21 571.504 2150.76 548.433C2161.21 520.224 2201.33 546.944 2225.2 528.635C2286.17 481.865 2048.84 469.395 2077.83 398.23L2077.9 398.078C2086.09 377.967 2092.17 363.051 2111.97 354.06C2150.31 336.651 2153.77 412.411 2194.36 423.61C2278.39 446.792 2064.04 253.054 2138.38 207.544C2151.7 199.388 2160.14 195.22 2175.57 192.817C2244.58 182.074 2161.87 353.369 2231.06 362.829C2285.81 370.312 2294.59 250.137 2343.15 276.497C2360.75 286.048 2370.9 295.617 2377.56 314.498C2393.44 359.544 2252.37 363.671 2286.93 396.633C2298.93 408.067 2317.15 399.394 2325.87 413.481C2340.05 436.376 2288.72 442.296 2284.92 468.955C2278.54 513.73 2366.43 551.222 2366.43 551.222L2310.18 602.001Z" fill="#36B03E"/>
<path fill-rule="evenodd" clip-rule="evenodd" d="M2382 438.5C2297.42 452.826 2256.2 507.197 2217 583.5C2217 583.5 2279.77 604.884 2321.5 611.5C2424.99 627.91 2588.35 583.5 2588.35 583.5C2582.24 539.744 2567.82 496.841 2537 473.5C2487.53 436.032 2443.18 428.136 2382 438.5Z" fill="#F4E59B"/>
<path d="M2217 583.5C2184.44 646.889 2187 763.5 2187 763.5H2447L2587 723.5C2587 723.5 2597.99 652.441 2588.35 583.5C2588.35 583.5 2424.99 627.91 2321.5 611.5C2279.77 604.884 2217 583.5 2217 583.5Z" fill="#A69958"/>
<path d="M2322.27 719.195C2224.48 670.645 2145.77 695.695 2081.77 819.195C2069.55 842.783 1854 841.5 1910 887C1966 932.5 1718.06 993.041 1708.5 1025C1693.22 1076.07 1962.77 1048.2 1962.77 1048.2H2304.77L2449.77 886.695C2449.77 886.695 2389.34 752.492 2322.27 719.195Z" fill="#DCCF8C"/>
<path d="M2406.76 780.753C2406.76 780.753 2395.22 736.261 2372.26 724.753C2352.71 714.956 2323.51 704.119 2316.26 724.753C2311.55 738.153 2331.31 745.502 2327.76 759.253C2322.67 778.968 2300.62 780.492 2280.26 780.753C2266.95 780.924 2259.5 767.042 2247.26 772.253C2235.79 777.133 2232.34 786.968 2230.26 799.253C2225.5 827.368 2287.76 844.253 2287.76 844.253L2406.76 780.753Z" fill="#38BA40"/>
<path d="M737.062 1071.67C740.348 1106.34 710.062 1156.67 710.062 1156.67H734.312C734.312 1156.67 744.177 1128.65 748.562 1110.17C755.34 1081.61 768.197 1063.4 758.562 1035.67C751.185 1014.44 731.85 1011.4 722.062 991.168C711.407 969.14 705.312 953.673 710.062 929.668C714.139 909.069 728.343 902.271 737.062 883.168C749.17 856.643 769.609 838.652 758.562 811.668C749.581 789.731 719.959 796.709 710.062 775.168C694.477 741.245 754.062 732.168 748.562 687.668C744.716 656.549 746.249 649.637 747.519 648.294C736.458 650.945 726.697 695.014 710.062 721.668C710.062 721.668 673.671 749.592 672.062 775.168C670.052 807.131 727.094 808.541 722.062 840.168C718.718 861.191 698.421 864.302 688.562 883.168C678.177 903.043 671.265 915.758 672.062 938.168C673.168 969.254 696.637 980.11 710.062 1008.17C721.693 1032.48 734.521 1044.84 737.062 1071.67Z" fill="#067313"/>
<path d="M778.562 701.668C778.031 677.721 760.062 648.168 748.562 648.168C748.213 648.168 747.866 648.211 747.519 648.294C746.249 649.637 744.716 656.549 748.562 687.668C754.062 732.168 694.477 741.245 710.062 775.168C719.959 796.709 749.581 789.731 758.562 811.668C769.609 838.652 749.17 856.643 737.062 883.168C728.343 902.271 714.139 909.069 710.062 929.668C705.312 953.673 711.407 969.14 722.062 991.168C731.85 1011.4 751.185 1014.44 758.562 1035.67C768.197 1063.4 755.34 1081.61 748.562 1110.17C744.177 1128.65 734.312 1156.67 734.312 1156.67H758.562C758.562 1156.67 774.809 1110.82 778.562 1080.17C781.98 1052.26 789.618 1034.02 778.562 1008.17C769.163 986.188 741.502 986.658 737.062 963.168C732.678 939.971 750.904 929 758.562 906.668C767.359 881.016 775.074 867.062 778.562 840.168C781.326 818.868 784.92 805.685 778.562 785.168C773.903 770.131 760.572 765.782 758.562 750.168C755.947 729.848 779.017 722.151 778.562 701.668Z" fill="#379341"/>
<path d="M2153.46 977.903C2163.85 1011.15 2144.64 1066.65 2144.64 1066.65L2168.36 1061.63C2168.36 1061.63 2172.21 1032.18 2172.68 1013.19C2173.4 983.843 2182.21 963.367 2167.04 938.233C2155.43 918.988 2135.89 920.021 2122.12 902.251C2107.14 882.905 2097.97 869.035 2097.65 844.566C2097.38 823.57 2109.87 813.979 2114.44 793.485C2120.8 765.029 2137.07 743.196 2120.68 719.083C2107.35 699.48 2079.82 712.438 2065.68 693.412C2043.41 663.449 2099.82 642.236 2085.23 599.838C2075.03 570.189 2075.1 563.109 2076.06 561.532C2065.79 566.416 2065.36 611.551 2054.6 641.071C2054.6 641.071 2024.78 675.922 2028.5 701.277C2033.15 732.964 2089.25 722.537 2090.87 754.521C2091.95 775.781 2072.73 783.025 2066.99 803.524C2060.95 825.117 2056.82 838.988 2062.24 860.748C2069.75 890.931 2094.96 896.695 2113.9 921.367C2130.31 942.741 2145.42 952.184 2153.46 977.903Z" fill="#067313"/>
<path d="M2117.48 607.326C2112 584.007 2088.31 558.814 2077.06 561.194C2076.71 561.266 2076.38 561.379 2076.06 561.532C2075.1 563.109 2075.03 570.189 2085.23 599.838C2099.82 642.236 2043.41 663.449 2065.68 693.412C2079.82 712.438 2107.35 699.48 2120.68 719.083C2137.07 743.196 2120.8 765.029 2114.44 793.485C2109.87 813.979 2097.38 823.57 2097.65 844.566C2097.97 869.035 2107.14 882.905 2122.12 902.251C2135.89 920.021 2155.43 918.988 2167.04 938.233C2182.21 963.367 2173.4 983.843 2172.68 1013.19C2172.21 1032.18 2168.36 1061.63 2168.36 1061.63L2192.09 1056.61C2192.09 1056.61 2198.49 1008.39 2195.82 977.63C2193.39 949.617 2197.09 930.194 2180.92 907.189C2167.17 887.63 2140.21 893.815 2131 871.753C2121.91 849.965 2137.47 835.459 2140.34 812.026C2143.64 785.108 2148.3 769.86 2146.15 742.827C2144.44 721.416 2145.23 707.774 2134.76 689.018C2127.09 675.271 2113.15 673.775 2107.95 658.915C2101.19 639.577 2122.16 627.271 2117.48 607.326Z" fill="#379341"/>
<path d="M835.5 937.5C835.5 937.5 823.38 908.293 865.5 878C920.405 838.512 1006.24 796.432 1050 848C1074.15 876.456 1083.5 937.5 1083.5 937.5H835.5Z" fill="#FAECA2" stroke="black"/>
<path d="M950.786 679.16C942.208 697.351 955.362 711.076 950.786 730.66C945.598 752.862 922.222 759.385 923.286 782.16C924.008 797.629 938.033 803.192 938.786 818.66C939.83 840.118 923.157 848.375 914.786 868.16C909.727 880.116 906.719 886.789 902.786 899.16C891.681 934.082 886.359 955.726 890.286 992.16C893.627 1023.16 914.786 1068.16 914.786 1068.16H942.286C942.286 1068.16 919.752 1028.37 914.786 1000.16C910.655 976.699 909.464 962.38 914.786 939.16C921.306 910.71 934.958 898.185 950.786 873.66C959.451 860.233 970.693 855.732 974.286 840.16C979.78 816.347 946.89 806.287 950.786 782.16C953.885 762.967 971.158 758.749 978.286 740.66C987.147 718.171 978.122 702.247 985.286 679.16C989.648 665.101 1000.47 644.66 1000.47 644.66C986.013 647.646 959.56 660.551 950.786 679.16Z" fill="#067313"/>
<path d="M969.786 1068.16C969.786 1068.16 921.283 990.906 938.786 944.16C946.268 924.175 958.103 917.018 969.786 899.16C986.047 874.303 1009.82 863.859 1009.29 834.16C1008.88 811.798 985.203 804.526 985.286 782.16C985.367 759.972 1003.51 752.084 1009.29 730.66C1018.03 698.232 1015.79 648.66 1009.29 644.66C1007.83 643.763 1004.65 643.797 1000.47 644.66C1000.47 644.66 989.648 665.101 985.286 679.16C978.122 702.247 987.147 718.171 978.286 740.66C971.158 758.749 953.885 762.967 950.786 782.16C946.89 806.287 979.78 816.347 974.286 840.16C970.693 855.732 959.451 860.233 950.786 873.66C934.958 898.185 921.306 910.71 914.786 939.16C909.464 962.38 910.655 976.699 914.786 1000.16C919.752 1028.37 942.286 1068.16 942.286 1068.16H969.786Z" fill="#379341"/>
<path d="M1950.91 750.322C1948.79 770.322 1965.72 778.961 1967.84 798.961C1970.23 821.634 1950.3 835.478 1958.79 856.638C1964.55 871.011 1979.63 871.655 1985.42 886.016C1993.46 905.939 1980.43 919.217 1979.03 940.654C1978.18 953.608 1977.53 960.899 1977.88 973.876C1978.87 1010.51 1980.96 1032.7 1996.64 1065.82C2009.99 1094 2044.76 1129.54 2044.76 1129.54L2070.73 1120.51C2070.73 1120.51 2036.37 1090.33 2022.41 1065.32C2010.8 1044.52 2004.97 1031.39 2002.36 1007.71C1999.17 978.697 2007.95 962.381 2014.83 934.017C2018.6 918.488 2027.74 910.542 2026.02 894.655C2023.38 870.358 1989.01 871.667 1984.76 847.6C1981.38 828.454 1996.31 818.794 1997.09 799.367C1998.07 775.215 1984.31 763.142 1983.49 738.983C1982.99 724.271 1986.5 701.409 1986.5 701.409C1973.82 708.98 1953.08 729.863 1950.91 750.322Z" fill="#067313"/>
<path d="M2096.7 1111.47C2096.7 1111.47 2025.5 1054.45 2026.67 1004.54C2027.17 983.211 2035.99 972.562 2041.16 951.856C2048.35 923.035 2067.37 905.357 2057.1 877.485C2049.37 856.498 2024.62 857.412 2017.34 836.261C2010.13 815.279 2024.67 801.866 2023.09 779.734C2020.68 746.235 2002.27 700.153 1994.82 698.512C1993.15 698.144 1990.16 699.22 1986.5 701.409C1986.5 701.409 1982.99 724.271 1983.49 738.983C1984.31 763.142 1998.07 775.215 1997.09 799.367C1996.31 818.794 1981.38 828.454 1984.76 847.6C1989.01 871.667 2023.38 870.358 2026.02 894.655C2027.74 910.542 2018.6 918.488 2014.83 934.017C2007.95 962.381 1999.17 978.697 2002.36 1007.71C2004.97 1031.39 2010.8 1044.52 2022.41 1065.32C2036.37 1090.33 2070.73 1120.51 2070.73 1120.51L2096.7 1111.47Z" fill="#379341"/>
<path d="M1471.52 1000.94C1471.52 1000.94 1481.25 966.862 1498.63 955.99C1520.45 942.342 1553.67 935.563 1564.47 958.921C1570.17 971.263 1555.91 981.815 1562.54 993.685C1573.06 1012.51 1599.24 1007.5 1617.69 996.335C1636.08 985.203 1623.16 958.5 1640.95 946.435C1661.97 932.185 1686.43 933.693 1705.88 950.021C1720.79 962.538 1708.17 986.321 1725.04 996.035C1752.78 1012 1741.96 945.384 1767.28 925.812C1782.84 913.788 1793.32 905.079 1812.97 904.674C1833.07 904.261 1847.64 909.225 1860.34 924.807C1873.9 941.459 1872.44 957.856 1869.2 979.088C1859.84 1040.3 1718.85 1029.47 1718.85 1029.47L1539.07 1032.98L1471.52 1000.94Z" fill="#38BA40"/>
<path d="M332.668 906.281C332.668 906.281 397.06 930.433 415.05 903.742C416.958 900.91 418.427 898.065 419.507 895.21C419.507 895.21 390.62 888.079 371.955 889.368C351.557 890.777 321.612 903.744 321.612 903.744C328.452 905.411 332.668 906.281 332.668 906.281Z" fill="#4E4E4E"/>
<path fill-rule="evenodd" clip-rule="evenodd" d="M244.825 810.732C244.825 810.732 312.257 835.424 346.454 864.53C357.04 873.54 371.955 889.368 371.955 889.368C390.62 888.079 419.507 895.21 419.507 895.21C427.538 873.965 413.973 852.188 398.91 831.729C372.283 795.564 332.167 795.879 287.726 802.352C284.839 802.772 282.002 803.159 279.217 803.539C266.584 805.261 255.033 806.836 244.825 810.732Z" fill="#989898"/>
<path d="M218.321 832.109C194.207 869.034 288.554 895.69 321.612 903.744C321.612 903.744 351.557 890.777 371.955 889.368C371.955 889.368 357.04 873.54 346.454 864.53C312.257 835.424 244.825 810.732 244.825 810.732C234.538 814.659 225.614 820.942 218.321 832.109Z" fill="#777777"/>
<path d="M662 989C679.543 941.953 458.477 892.528 419 861.5C379.68 830.595 280.3 899.569 261.869 853.078C253.809 832.748 273.223 815.318 261.151 797.082C242.398 768.751 174.158 798.196 174.158 798.196L124.034 866.844L164.164 954.837L243.205 1035.63C243.205 1035.63 641.217 1044.74 662 989Z" fill="#E0CF78"/>
<path d="M821.729 936.133C837.24 965.26 821.729 1020.63 821.729 1020.63L849.729 1016.88C849.729 1016.88 862.918 969.761 854.229 941.633C846.893 917.88 822.23 913.668 818.229 889.133C813.976 863.047 829.166 849.272 838.729 824.633C848.623 799.142 866.905 788.444 868.229 761.133C869.71 730.601 847.826 717.815 838.729 688.633C829.565 659.233 822.616 642.414 821.729 611.633C821.168 592.132 826.229 561.881 826.229 561.881C797.173 552.394 799.541 621.823 797.229 659.133C795.673 684.249 793.554 700.586 804.729 723.133C813.572 740.974 832.488 742.223 838.729 761.133C849.145 792.687 816.12 807.917 804.729 839.133C796.241 862.397 778.394 875.98 785.729 899.633C791.66 918.755 812.319 918.461 821.729 936.133Z" fill="#067313"/>
<path d="M854.229 626.133C845.878 601.695 853.727 576.813 831.229 564.133C829.467 563.139 827.802 562.395 826.229 561.881C826.229 561.881 821.168 592.132 821.729 611.633C822.616 642.414 829.565 659.233 838.729 688.633C847.826 717.815 869.71 730.601 868.229 761.133C866.905 788.444 848.623 799.142 838.729 824.633C829.166 849.272 813.976 863.047 818.229 889.133C822.23 913.668 846.893 917.88 854.229 941.633C862.918 969.761 849.729 1016.88 849.729 1016.88L877.729 1013.13C877.729 1013.13 890.181 953.373 877.729 918.633C871.446 901.1 857.085 895.537 854.229 877.133C850.976 856.165 859.482 843.965 868.229 824.633C877.048 805.143 892.436 799.578 898.729 779.133C905.164 758.231 904.065 744.341 898.729 723.133C892.861 699.81 877.581 691.79 868.229 669.633C861.29 653.191 860 643.02 854.229 626.133Z" fill="#379341"/>
<path fill-rule="evenodd" clip-rule="evenodd" d="M619.974 974.63C619.974 974.63 641.684 967.048 654.019 959.262C667.701 950.626 685.239 932.028 685.239 932.028C685.181 923.878 681.895 917.003 673.931 913.968C664.003 910.185 656.537 914.096 647.771 918.689C645.642 919.804 643.437 920.96 641.1 922.055C638.489 923.279 635.859 924.376 633.292 925.447C621.906 930.195 611.735 934.437 609.705 947.066C607.882 958.408 611.522 966.851 619.974 974.63Z" fill="#B7B7B7"/>
<path d="M624.322 977.999C638.037 986.811 652.793 981.517 665.531 971.343C676.566 962.53 685.335 945.531 685.239 932.028C685.239 932.028 667.701 950.626 654.019 959.262C641.684 967.048 619.974 974.63 619.974 974.63C621.555 976.085 622.515 976.838 624.322 977.999Z" fill="#808080"/>
<path d="M334.5 940.5C334.5 940.5 291.191 896.613 306 871.5C313.082 859.491 320.656 851.649 334.5 850C360.34 846.921 340.034 918.364 364.5 909.5C380.531 903.692 369.967 877.303 386 871.5C404.926 864.65 429.374 877.404 430.5 897.5C431.437 914.227 403.303 913.266 402.5 930C401.203 957.032 470.228 913.448 471 940.5C471.334 952.213 466.634 959.111 459 968C439.282 990.961 381.5 968 381.5 968L334.5 940.5Z" fill="#CF1C1C"/>
<path fill-rule="evenodd" clip-rule="evenodd" d="M1120 1139H2519.15C2519.15 1139 2606.56 952.05 2519.15 871.285C2440.58 798.694 2347.46 848.271 2241.63 904.616C2175.24 939.965 2103.84 977.978 2027.89 990.159C2010.22 992.992 1993.93 995.716 1978.51 998.294C1907.32 1010.19 1854.73 1018.99 1771.41 1021.13C1665.83 1023.84 1598.38 1013.54 1507.75 999.704C1487.81 996.66 1466.75 993.445 1443.91 990.159C1369.94 979.517 1312.22 962.28 1256.43 945.618C1183.56 923.858 1113.98 903.079 1015.78 899.256C910.474 895.155 832.646 915.386 752.884 936.119C750.924 936.629 748.963 937.139 747 937.648C939.606 999.65 1028.22 1041.28 1120 1139Z" fill="#E0CF78"/>
<path d="M521.238 975.674C313.75 982.785 200.851 928.177 -6.84719 927.725C-11.9837 927.714 -20 927.725 -20 927.725V1139H1120C1028.22 1041.28 939.606 999.65 747 937.648C679.546 955.166 610.197 972.625 521.238 975.674Z" fill="#BFB16A"/>
<path fill-rule="evenodd" clip-rule="evenodd" d="M2097.24 891.373C2096.64 890.613 2095.99 889.867 2095.28 889.139C2085.74 879.297 2065.21 867.301 2060.28 886.456C2058.85 891.988 2057.49 896.075 2056.39 899.385C2053.67 907.534 2052.53 910.965 2055.88 919.636C2058.97 927.634 2062.28 934.28 2069.39 937.252C2069.39 937.252 2086.06 926.424 2091.67 915.695C2096.18 907.058 2097.24 891.373 2097.24 891.373Z" fill="#B7B7B7"/>
<path d="M2073.04 938.371C2084.83 940.844 2093.53 932.263 2098.84 921.444C2103.98 910.96 2104.13 900.134 2097.24 891.373C2097.24 891.373 2096.18 907.058 2091.67 915.695C2086.06 926.424 2069.39 937.252 2069.39 937.252C2070.51 937.718 2071.72 938.094 2073.04 938.371Z" fill="#808080"/>
<path fill-rule="evenodd" clip-rule="evenodd" d="M2299.71 797.646C2299.71 797.646 2322.7 798.118 2336.98 795.128C2352.81 791.812 2375.74 780.505 2375.74 780.505C2378.53 772.849 2377.85 765.258 2371.45 759.634C2363.47 752.624 2355.1 753.683 2345.29 754.927C2342.9 755.229 2340.43 755.541 2337.86 755.752C2334.99 755.988 2332.14 756.098 2329.36 756.205C2317.03 756.68 2306.02 757.105 2299.71 768.231C2294.04 778.223 2294.51 787.406 2299.71 797.646Z" fill="#B7B7B7"/>
<path d="M2302.61 802.32C2312.39 815.365 2328.06 815.555 2343.55 810.469C2356.97 806.062 2371.12 793.193 2375.74 780.505C2375.74 780.505 2352.81 791.812 2336.98 795.128C2322.7 798.118 2299.71 797.646 2299.71 797.646C2300.68 799.561 2301.32 800.602 2302.61 802.32Z" fill="#808080"/>
<path fill-rule="evenodd" clip-rule="evenodd" d="M2007.77 944.36C1985.2 949.359 1962.64 954.355 1942 961.5C1942 961.5 2136.79 955.579 2259.5 935C2401.46 911.193 2615.5 839.5 2615.5 839.5C2615.5 839.5 2655.15 535.091 2523 505C2489.68 497.413 2468.62 496.602 2435.5 505C2369.39 521.761 2374.43 572.247 2380.3 631.055C2385.09 679.1 2390.44 732.698 2358 778C2329.13 818.314 2300.36 810.358 2270.6 802.131C2232.87 791.696 2193.56 780.827 2150.5 867.5C2125.24 918.349 2066.46 931.364 2007.77 944.36Z" fill="#E0CF78"/>
<path d="M1942 961.5C1866.9 987.501 1785.14 1020.64 1698 1122.5C1531.67 1316.92 2278 1177 2278 1177H2523L2615.5 839.5C2615.5 839.5 2401.46 911.193 2259.5 935C2136.79 955.579 1942 961.5 1942 961.5Z" fill="#D4BF59"/>
<path d="M688.837 1096.39C688.837 1096.39 757.263 1103.29 767.837 1072.89C768.959 1069.66 769.652 1066.54 769.967 1063.5C769.967 1063.5 740.217 1063.99 722.5 1070C703.139 1076.57 677.5 1096.76 677.5 1096.76C684.539 1096.62 688.837 1096.39 688.837 1096.39Z" fill="#4E4E4E"/>
<path fill-rule="evenodd" clip-rule="evenodd" d="M579.5 1026.45C579.5 1026.45 651.002 1033.1 691.5 1052.5C704.037 1058.51 722.5 1070 722.5 1070C740.217 1063.99 769.967 1063.5 769.967 1063.5C772.304 1040.91 753.626 1023.32 733.837 1007.39C698.855 979.224 660.15 989.777 618.837 1007.39C616.153 1008.53 613.509 1009.63 610.913 1010.71C599.14 1015.6 588.374 1020.07 579.5 1026.45Z" fill="#989898"/>
<path d="M559.337 1053.89C545.455 1095.75 643.482 1097.42 677.5 1096.76C677.5 1096.76 703.139 1076.57 722.5 1070C722.5 1070 704.037 1058.51 691.5 1052.5C651.002 1033.1 579.5 1026.45 579.5 1026.45C570.557 1032.87 563.535 1041.23 559.337 1053.89Z" fill="#777777"/>
<path d="M2344.26 1013.22C2344.26 1013.22 2408.27 988.081 2403.78 956.208C2403.3 952.827 2402.49 949.73 2401.38 946.886C2401.38 946.886 2375.15 960.917 2362.14 974.366C2347.92 989.063 2334.35 1018.74 2334.35 1018.74C2340.55 1015.4 2344.26 1013.22 2344.26 1013.22Z" fill="#4E4E4E"/>
<path fill-rule="evenodd" clip-rule="evenodd" d="M2215.05 1001.01C2215.05 1001.01 2281.68 974.23 2326.57 972.974C2340.46 972.585 2362.14 974.366 2362.14 974.366C2375.15 960.917 2401.38 946.886 2401.38 946.886C2393.14 925.725 2368.48 918.62 2343.6 913.497C2299.61 904.441 2270.01 931.521 2241.32 966.07C2239.45 968.314 2237.61 970.5 2235.79 972.646C2227.56 982.38 2220.03 991.28 2215.05 1001.01Z" fill="#989898"/>
<path d="M2209.66 1034.63C2216.45 1078.2 2304.4 1034.87 2334.35 1018.74C2334.35 1018.74 2347.92 989.063 2362.14 974.366C2362.14 974.366 2340.46 972.585 2326.57 972.974C2281.68 974.23 2215.05 1001.01 2215.05 1001.01C2210.03 1010.81 2207.6 1021.45 2209.66 1034.63Z" fill="#777777"/>
<path fill-rule="evenodd" clip-rule="evenodd" d="M-18.1142 1003.5C-18.1142 1003.5 133.347 991.622 226 964.5C272.244 950.963 342 922.457 342 922.457C331.746 918.779 320.174 915.155 307 911.5C298.89 909.25 286.508 907.09 272.361 904.621C232.169 897.609 177.727 888.111 166.5 867C157.537 850.146 162.759 833.364 167.868 816.944C173.316 799.436 178.637 782.339 166.5 766C154.027 749.208 136.982 747.846 118.884 746.399C104.499 745.249 89.4494 744.046 75.5 735C54.7994 721.577 45.0247 704.596 35.0561 687.278C26.0735 671.674 16.9335 655.796 -0.500015 642C-102.718 561.111 -49.4966 857.017 -18.1142 1003.5Z" fill="#C9B96A"/>
<path d="M-0.500015 1081C-0.500015 1081 842.012 1135.32 676 1074.5C625.083 1055.85 449.071 1017.64 440 1003.5C415.341 965.066 399.074 942.929 342 922.457C342 922.457 272.244 950.963 226 964.5C133.347 991.622 -18.1142 1003.5 -18.1142 1003.5C-8.22215 1049.67 -0.500015 1081 -0.500015 1081Z" fill="#A4954B"/>
<path fill-rule="evenodd" clip-rule="evenodd" d="M278.853 1067.37C277.756 1067.39 276.605 1067.4 275.379 1067.46C258.129 1068.35 248.199 1061.44 234.196 1051.33C224.335 1044.21 212.541 1028.94 212.541 1028.94C212.541 1028.94 217.235 1025.49 223.347 1022.13C223.347 1022.13 236.825 1035.97 247.271 1042.31C248.413 1043.01 249.491 1043.68 250.527 1044.32C257.374 1048.57 262.328 1051.64 271.076 1052.88C280.177 1054.16 294.468 1050.3 294.468 1050.3C296 1055.82 295.39 1060.93 290.396 1064.51C286.533 1067.27 283.097 1067.32 278.853 1067.37Z" fill="#808080"/>
<path d="M284.294 1031.56C273.571 1016.18 257.357 1013.01 238.855 1016.05C233.875 1016.87 228.169 1019.48 223.347 1022.13C223.347 1022.13 236.825 1035.97 247.271 1042.31C248.413 1043.01 249.491 1043.68 250.527 1044.32C257.374 1048.57 262.328 1051.64 271.076 1052.88C280.177 1054.16 294.468 1050.3 294.468 1050.3C292.736 1044.04 288.264 1037.26 284.294 1031.56Z" fill="#B7B7B7"/>
<path d="M109.786 719.16C101.208 737.351 114.362 751.076 109.786 770.66C104.598 792.862 81.2224 799.385 82.2856 822.16C83.0077 837.629 97.0326 843.192 97.7856 858.66C98.8302 880.118 82.1567 888.375 73.7856 908.16C68.7272 920.116 65.7195 926.789 61.7856 939.16C50.6809 974.082 45.3591 995.726 49.2856 1032.16C52.6269 1063.16 73.7856 1108.16 73.7856 1108.16H101.286C101.286 1108.16 78.7523 1068.37 73.7856 1040.16C69.6551 1016.7 68.4639 1002.38 73.7856 979.16C80.3061 950.71 93.9582 938.185 109.786 913.66C118.451 900.233 129.693 895.732 133.286 880.16C138.78 856.347 105.89 846.287 109.786 822.16C112.885 802.967 130.158 798.749 137.286 780.66C146.147 758.171 137.122 742.247 144.286 719.16C148.648 705.101 159.471 684.66 159.471 684.66C145.013 687.646 118.56 700.551 109.786 719.16Z" fill="#067313"/>
<path d="M128.786 1108.16C128.786 1108.16 80.2834 1030.91 97.7856 984.16C105.268 964.175 117.103 957.018 128.786 939.16C145.047 914.303 168.822 903.859 168.286 874.16C167.882 851.798 144.203 844.526 144.286 822.16C144.367 799.972 162.511 792.084 168.286 770.66C177.026 738.232 174.786 688.66 168.286 684.66C166.828 683.763 163.65 683.797 159.471 684.66C159.471 684.66 148.648 705.101 144.286 719.16C137.122 742.247 146.147 758.171 137.286 780.66C130.158 798.749 112.885 802.967 109.786 822.16C105.89 846.287 138.78 856.347 133.286 880.16C129.693 895.732 118.451 900.233 109.786 913.66C93.9582 938.185 80.3061 950.71 73.7856 979.16C68.4639 1002.38 69.6551 1016.7 73.7856 1040.16C78.7523 1068.37 101.286 1108.16 101.286 1108.16H128.786Z" fill="#379341"/>
<path fill-rule="evenodd" clip-rule="evenodd" d="M314.723 1063.34C358.237 1065.84 401.466 1068.31 408.5 1098.5C417.967 1139.13 344.439 1151.33 266 1153.1C266 1153.1 192.401 1029 147 1029C121 1029 117.5 1039.7 93 1038C84.2115 1037.39 62.5198 1018.35 55 1013C20.3113 988.329 -33.5 989.25 -33.5 989.25V929.5C-33.5 929.5 16.4709 853.045 52 856C62.7317 856.893 71.5112 882.468 80.0054 907.213C88.8519 932.984 97.3891 957.853 107.5 953C145 935 200.5 965.5 219.5 1029C228.296 1058.4 271.649 1060.88 314.723 1063.34Z" fill="#9A8E50"/>
<path d="M-33.5 1049L2.5 1119L93 1145C93 1145 182.296 1154.99 266 1153.1C266 1153.1 192.401 1029 147 1029C121 1029 117.5 1039.7 93 1038C84.2115 1037.39 62.5198 1018.35 55 1013C20.3113 988.329 -33.5 989.25 -33.5 989.25V1049Z" fill="#56502F"/>
<path d="M2576.5 948.5C2576.5 948.5 2477.4 910.808 2417 928C2367.98 941.952 2355.74 980.569 2309.5 1002C2236.75 1035.72 2176.12 995.355 2107 1036C2040.51 1075.09 1981.5 1188.5 1981.5 1188.5L2349.5 1161.5L2614.5 1128L2576.5 948.5Z" fill="#B7A752"/>
<path fill-rule="evenodd" clip-rule="evenodd" d="M1055 984C1055 984 1074.29 996.517 1088 1001.5C1103.21 1007.03 1128.65 1009.5 1128.65 1009.5C1135.06 1004.46 1138.48 997.655 1136 989.5C1132.91 979.335 1125.25 975.829 1116.25 971.712C1114.06 970.712 1111.8 969.676 1109.5 968.5C1106.93 967.185 1104.46 965.778 1102.04 964.405C1091.31 958.312 1081.73 952.87 1070.5 959C1060.42 964.505 1055.97 972.554 1055 984Z" fill="#B7B7B7"/>
<path d="M1055 989.5C1056.43 1005.74 1069.66 1014.16 1085.5 1018C1099.23 1021.33 1118.03 1017.85 1128.65 1009.5C1128.65 1009.5 1103.21 1007.03 1088 1001.5C1074.29 996.517 1055 984 1055 984C1054.82 986.14 1054.81 987.361 1055 989.5Z" fill="#808080"/>
<path fill-rule="evenodd" clip-rule="evenodd" d="M1141.04 1041.35C1141.86 1040.84 1142.67 1040.27 1143.48 1039.65C1154.3 1031.24 1168.48 1012.15 1149.98 1005.15C1144.63 1003.13 1140.72 1001.33 1137.55 999.871C1129.75 996.281 1126.46 994.77 1117.48 997.151C1109.19 999.347 1102.22 1001.91 1098.49 1008.65C1098.49 1008.65 1107.42 1026.4 1117.48 1033.15C1125.57 1038.58 1141.04 1041.35 1141.04 1041.35Z" fill="#B7B7B7"/>
<path d="M1096.98 1012.15C1093.22 1023.6 1100.8 1033.19 1110.98 1039.65C1120.83 1045.91 1131.58 1047.24 1141.04 1041.35C1141.04 1041.35 1125.57 1038.58 1117.48 1033.15C1107.42 1026.4 1098.49 1008.65 1098.49 1008.65C1097.9 1009.71 1097.39 1010.87 1096.98 1012.15Z" fill="#808080"/>
<path fill-rule="evenodd" clip-rule="evenodd" d="M1107.55 1041.83C1106.58 1042.34 1105.56 1042.88 1104.5 1043.5C1089.57 1052.18 1077.58 1050.58 1060.5 1048C1048.47 1046.18 1031 1038 1031 1038C1031 1038 1033.6 1032.79 1037.49 1027C1037.49 1027 1055.81 1033.13 1068 1034C1069.33 1034.09 1070.6 1034.2 1071.81 1034.29C1079.84 1034.94 1085.66 1035.41 1094 1032.5C1102.68 1029.48 1113.62 1019.5 1113.62 1019.5C1117.51 1023.71 1119.31 1028.54 1116.5 1034C1114.33 1038.22 1111.29 1039.84 1107.55 1041.83Z" fill="#808080"/>
<path d="M1096 1007.5C1079.43 998.729 1063.56 1003.33 1048.5 1014.5C1044.45 1017.51 1040.56 1022.43 1037.49 1027C1037.49 1027 1055.81 1033.13 1068 1034C1069.33 1034.09 1070.6 1034.2 1071.81 1034.29C1079.84 1034.94 1085.66 1035.41 1094 1032.5C1102.68 1029.48 1113.62 1019.5 1113.62 1019.5C1109.22 1014.73 1102.14 1010.75 1096 1007.5Z" fill="#B7B7B7"/>
<path d="M85.5 334.5C84.2974 349.897 88.8756 354.519 100 360.5M448 390.5C449.52 400.283 452.479 403.972 462.5 406.5M476 506.5C487.495 514.565 492.921 514.819 500.5 506.5M134 506.5C153.136 520.241 163.864 521.216 183 506.5M13.5 559C42.2759 557.581 56.4598 553.945 66 524.5M342.5 497C335.942 514.943 339.596 522.708 349.5 535.5M446.5 577.5C439.08 604.053 441.658 617.565 456 639.5M446.5 702C443.711 716.251 444.949 723.399 456 733.5M309.5 878.5C323.356 879.359 330.897 877.509 343.5 865.5M389.5 876C397.966 893.198 405.078 898.103 422 899M454.5 936.5C446.326 947.534 447.321 953.386 454.5 963.5M572.5 688C599.725 700.785 615.656 703.683 646 696.5M618 850C594.836 868.159 593.681 880.662 602 905M1505 958.5C1523.7 971.963 1534.33 972.209 1553.5 963M1648.5 955.5C1666.7 969.97 1678 971.358 1698 958.5M1876 749.5C1898.99 741.418 1909.03 734.959 1911.5 713M1841 600C1849.19 610.178 1854.2 610.1 1864 600M1648.5 717.5C1668.63 734.821 1681.03 740.959 1709.5 731.5M1985.5 554.5C1981.78 580.149 1973.97 587.898 1949.5 589.5M2069 503C2093.74 522.567 2109.74 523.943 2141 514M2091 418C2114.6 410.115 2123.96 401.087 2128.5 370.5M2136.5 228.5C2163.07 240.04 2174.03 235.209 2188 210.5M2327.5 287C2328.66 310.774 2337.64 318.826 2365 326" stroke="black" stroke-width="0.5"/>
</g>
<defs>
<linearGradient id="paint0_linear_2010_101" x1="1250" y1="0" x2="1250" y2="1080" gradientUnits="userSpaceOnUse">
<stop stop-color="#6EC6E0"/>
<stop offset="1" stop-color="#376281"/>
</linearGradient>
<linearGradient id="paint1_linear_2010_101" x1="522.136" y1="-109.65" x2="189.052" y2="1073.05" gradientUnits="userSpaceOnUse">
<stop stop-color="#8DDEF6"/>
<stop offset="1" stop-color="#367FB3"/>
</linearGradient>
<linearGradient id="paint2_linear_2010_101" x1="1030.24" y1="-129.008" x2="973.388" y2="1098.39" gradientUnits="userSpaceOnUse">
<stop stop-color="#8DDEF6"/>
<stop offset="1" stop-color="#367FB3"/>
</linearGradient>
<linearGradient id="paint3_linear_2010_101" x1="1498.66" y1="-97.8076" x2="1671.05" y2="1118.75" gradientUnits="userSpaceOnUse">
<stop stop-color="#8DDEF6"/>
<stop offset="1" stop-color="#367FB3"/>
</linearGradient>
<linearGradient id="paint4_linear_2010_101" x1="2023.78" y1="-134.787" x2="2411.6" y2="1031.12" gradientUnits="userSpaceOnUse">
<stop stop-color="#8DDEF6"/>
<stop offset="1" stop-color="#367FB3"/>
</linearGradient>
<clipPath id="clip0_2010_101">
<rect width="2500" height="1080" fill="white"/>
</clipPath>
</defs>
</svg>
