<svg width="600" height="618" viewBox="0 0 600 618" fill="none" xmlns="http://www.w3.org/2000/svg">
<path d="M384.551 50.8865C383.171 52.5065 379.991 51.2765 378.031 51.3765L377.551 50.7165C375.744 47.4631 373.667 44.4431 371.321 41.6565C371.041 41.3239 370.797 40.9689 370.591 40.5965C363.157 27.3031 352.837 16.8031 339.631 9.09647C332.371 4.85647 323.661 3.14646 315.741 6.57646C304.431 12.2265 297.451 20.6865 289.871 30.7565C287.477 33.9431 285.171 37.4565 282.951 41.2965C280.911 44.8365 278.837 48.5065 276.731 52.3065C274.191 53.4531 272.041 53.3165 270.281 51.8965C273.734 45.6365 278.671 37.6931 285.091 28.0665C291.131 19.0198 298.567 11.4565 307.401 5.37646C309.654 3.82979 312.044 2.65313 314.571 1.84646C324.171 -1.21354 333.327 -0.47021 342.041 4.07646C349.574 8.00312 356.104 13.1465 361.631 19.5065C370.381 29.5865 378.241 39.4265 384.551 50.8865Z" fill="#E0A63C"/>
<path d="M377.551 50.7165C374.557 50.2765 371.647 49.6465 368.821 48.8265C365.861 47.9665 359.044 47.1265 348.371 46.3065L337.071 45.8265C339.381 42.5965 340.461 40.4865 338.901 37.2465C336.327 31.8798 332.181 30.2731 326.461 32.4265C322.354 24.0731 318.781 15.4565 315.741 6.57646C323.661 3.14646 332.371 4.85647 339.631 9.09647C352.837 16.8031 363.157 27.3031 370.591 40.5965C370.797 40.9689 371.041 41.3239 371.321 41.6565C373.667 44.4431 375.744 47.4631 377.551 50.7165Z" fill="#F6D662"/>
<path d="M315.741 6.57646C318.781 15.4565 322.354 24.0731 326.461 32.4265C321.694 36.1398 320.964 40.6065 324.271 45.8265C314.457 45.7731 304.707 46.6265 295.021 48.3865C289.274 49.1265 283.177 50.4331 276.731 52.3065C278.837 48.5065 280.911 44.8365 282.951 41.2965C285.171 37.4565 287.477 33.9431 289.871 30.7565C297.451 20.6865 304.431 12.2265 315.741 6.57646Z" fill="#F4CB4B"/>
<path d="M337.071 45.8265C332.391 48.1398 328.124 48.1398 324.271 45.8265C320.964 40.6065 321.694 36.1398 326.461 32.4265C332.181 30.2731 336.327 31.8798 338.901 37.2465C340.461 40.4865 339.381 42.5965 337.071 45.8265Z" fill="#F0B747"/>
<path d="M324.271 45.8265C328.124 48.1398 332.391 48.1398 337.071 45.8265L348.371 46.3065L355.941 84.0464L350.951 83.3965C349.011 81.0631 347.011 79.5231 344.951 78.7765C341.964 77.6898 339.067 78.1831 336.261 80.2565C334.881 81.2765 333.707 82.2265 332.741 83.1065C317.121 82.8198 301.437 83.4398 285.691 84.9665L295.021 48.3865C304.707 46.6265 314.457 45.7731 324.271 45.8265ZM328.433 61.3034C328.264 62.4307 328.335 63.5826 328.641 64.6931C328.947 65.8036 329.483 66.8512 330.217 67.7758C330.951 68.7005 331.869 69.4842 332.919 70.0822C333.97 70.6802 335.131 71.0808 336.338 71.2612C337.544 71.4415 338.772 71.398 339.952 71.1332C341.131 70.8684 342.238 70.3874 343.21 69.7177C344.183 69.0481 345.001 68.2028 345.618 67.2303C346.236 66.2577 346.64 65.1769 346.809 64.0496C346.977 62.9222 346.906 61.7704 346.6 60.6598C346.294 59.5493 345.759 58.5018 345.025 57.5771C344.291 56.6524 343.372 55.8687 342.322 55.2707C341.272 54.6727 340.11 54.2721 338.904 54.0918C337.697 53.9114 336.469 53.9549 335.29 54.2197C334.111 54.4846 333.003 54.9655 332.031 55.6352C331.059 56.3049 330.241 57.1501 329.623 58.1226C329.006 59.0952 328.601 60.176 328.433 61.3034Z" fill="#80D0D5"/>
<path d="M377.551 50.7165L378.031 51.3765C382.077 58.1098 384.864 62.9865 386.391 66.0065C388.097 69.3665 392.124 77.7565 398.471 91.1765L396.831 91.4565C396.64 91.4893 396.441 91.4757 396.251 91.4165C390.837 89.7098 385.321 88.3965 379.701 87.4765C371.801 86.1898 363.881 85.0464 355.941 84.0464L348.371 46.3065C359.044 47.1265 365.861 47.9665 368.821 48.8265C371.647 49.6465 374.557 50.2765 377.551 50.7165Z" fill="#9BDADC"/>
<path d="M295.021 48.3865L285.691 84.9665C284.971 84.8865 284.054 85.0065 282.941 85.3265C271.374 86.3665 260.411 88.5365 250.051 91.8365L270.281 51.8965C272.041 53.3165 274.191 53.4531 276.731 52.3065C283.177 50.4331 289.274 49.1265 295.021 48.3865Z" fill="#64B5BF"/>
<path d="M408.931 101.186L405.171 94.2964C405.019 94.02 404.807 93.7838 404.551 93.6065C403.211 92.6665 401.677 92.1065 399.951 91.9265C398.651 91.5731 398.157 91.3231 398.471 91.1765C392.124 77.7565 388.097 69.3665 386.391 66.0065C384.864 62.9865 382.077 58.1098 378.031 51.3765C379.991 51.2765 383.171 52.5065 384.551 50.8865C388.261 57.4365 391.841 63.8465 395.131 70.7965C398.791 78.5298 402.451 86.2631 406.111 93.9965C407.597 97.1431 408.537 99.5398 408.931 101.186Z" fill="#64B5BF"/>
<path d="M338.904 54.0918C333.829 53.3334 329.141 56.5622 328.433 61.3034C327.724 66.0445 331.263 70.5028 336.338 71.2612C341.412 72.0195 346.1 68.7907 346.809 64.0496C347.517 59.3084 343.978 54.8501 338.904 54.0918Z" fill="#ACA963"/>
<path d="M350.951 83.3965C352.711 89.7498 350.754 94.1498 345.081 96.5965C337.154 97.8698 332.774 94.7998 331.941 87.3865C331.914 87.1813 331.924 86.9714 331.971 86.7664L332.741 83.1065C333.707 82.2265 334.881 81.2765 336.261 80.2565C339.067 78.1831 341.964 77.6898 344.951 78.7765C347.011 79.5231 349.011 81.0631 350.951 83.3965Z" fill="#E0A63C"/>
<path d="M332.741 83.1065L331.971 86.7664C331.924 86.9714 331.914 87.1813 331.941 87.3865C332.774 94.7998 337.154 97.8698 345.081 96.5965L346.531 101.926C341.597 101.266 337.931 102.713 335.531 106.266C329.311 115.496 335.391 130.586 347.741 129.206L335.251 129.746C321.731 128.94 308.187 128.39 294.621 128.096C285.874 127.91 277.187 128.21 268.561 128.996L265.001 128.896C274.621 115.786 279.501 101.036 282.941 85.3265C284.054 85.0065 284.971 84.8865 285.691 84.9665C301.437 83.4398 317.121 82.8198 332.741 83.1065Z" fill="#F4CB4B"/>
<path d="M355.941 84.0464C363.881 85.0464 371.801 86.1898 379.701 87.4765C385.321 88.3965 390.837 89.7098 396.251 91.4165C396.441 91.4757 396.64 91.4893 396.831 91.4565L398.471 91.1765C398.157 91.3231 398.651 91.5731 399.951 91.9265C399.584 91.7598 399.391 91.6865 399.371 91.7065C399.152 91.8759 398.998 92.1153 398.934 92.3846C398.871 92.6539 398.901 92.9369 399.021 93.1865C401.181 97.7798 403.224 102.39 405.151 107.016C406.004 109.076 407.677 113.82 410.171 121.246C412.451 128.066 415.001 134.856 417.821 141.616C417.754 141.683 417.687 141.75 417.621 141.816C411.734 140.036 404.784 138.483 396.771 137.156C380.071 134.386 367.941 132.216 353.381 131.446L335.251 129.746L347.741 129.206C356.971 127.506 359.271 117.106 355.621 109.576C353.714 105.63 350.684 103.08 346.531 101.926L345.081 96.5965C350.754 94.1498 352.711 89.7498 350.951 83.3965L355.941 84.0464Z" fill="#F6D662"/>
<path d="M282.941 85.3265C279.501 101.036 274.621 115.786 265.001 128.896C257.454 129.51 249.921 130.29 242.401 131.236C242.187 131.263 240.094 131.71 236.121 132.576C233.767 133.09 231.467 133.143 229.221 132.736L250.051 91.8365C260.411 88.5365 271.374 86.3665 282.941 85.3265Z" fill="#E0A63C"/>
<path d="M399.951 91.9265C401.677 92.1065 403.211 92.6665 404.551 93.6065C404.807 93.7838 405.019 94.02 405.171 94.2964L408.931 101.186C414.537 114.746 419.681 128.486 424.361 142.406C421.601 142.933 419.421 142.67 417.821 141.616C415.001 134.856 412.451 128.066 410.171 121.246C407.677 113.82 406.004 109.076 405.151 107.016C403.224 102.39 401.181 97.7798 399.021 93.1865C398.901 92.9369 398.871 92.6539 398.934 92.3846C398.998 92.1153 399.152 91.8759 399.371 91.7065C399.391 91.6865 399.584 91.7598 399.951 91.9265Z" fill="#E0A63C"/>
<path d="M346.531 101.926C350.684 103.08 353.714 105.63 355.621 109.576C359.271 117.106 356.971 127.506 347.741 129.206C335.391 130.586 329.311 115.496 335.531 106.266C337.931 102.713 341.597 101.266 346.531 101.926Z" fill="#E0A63C"/>
<path d="M335.251 129.746L353.381 131.446C353.934 135.753 354.331 140.953 354.571 147.046C354.964 157.093 351.914 165.796 345.421 173.156L332.171 172.146C320.064 171.046 307.934 170.07 295.781 169.216C294.841 169.15 293.907 169.09 292.981 169.036C283.067 168.456 273.157 167.963 263.251 167.556L250.751 167.046L251.811 166.886C251.967 166.862 252.114 166.799 252.238 166.703C252.362 166.606 252.459 166.48 252.521 166.336L268.561 128.996C277.187 128.21 285.874 127.91 294.621 128.096C308.187 128.39 321.731 128.94 335.251 129.746Z" fill="#80D0D5"/>
<path d="M265.001 128.896L268.561 128.996L252.521 166.336C252.459 166.48 252.362 166.606 252.238 166.703C252.114 166.799 251.967 166.862 251.811 166.886L250.751 167.046L212.031 168.256C209.224 168.016 206.801 168.496 204.761 169.696C204.555 169.816 204.367 169.967 204.201 170.146C201.107 173.446 197.771 175.536 194.191 176.416C201.191 171.636 207.061 166.093 211.801 159.786C218.081 151.42 223.887 142.403 229.221 132.736C231.467 133.143 233.767 133.09 236.121 132.576C240.094 131.71 242.187 131.263 242.401 131.236C249.921 130.29 257.454 129.51 265.001 128.896Z" fill="#64B5BF"/>
<path d="M417.621 141.816C420.767 150.83 423.821 159.91 426.781 169.056C428.721 175.046 431.051 180.536 433.441 186.246C404.341 180.5 375.001 176.136 345.421 173.156C351.914 165.796 354.964 157.093 354.571 147.046C354.331 140.953 353.934 135.753 353.381 131.446C367.941 132.216 380.071 134.386 396.771 137.156C404.784 138.483 411.734 140.036 417.621 141.816Z" fill="#9BDADC"/>
<path d="M424.361 142.406C426.427 148.933 428.514 155.403 430.621 161.816C434.247 172.83 437.111 180.526 439.211 184.906C440.644 187.886 441.571 189.983 441.991 191.196C440.977 190.283 440.017 189.4 439.111 188.546C437.684 187.206 435.947 186.5 433.901 186.426C433.741 186.273 433.587 186.213 433.441 186.246C431.051 180.536 428.721 175.046 426.781 169.056C423.821 159.91 420.767 150.83 417.621 141.816C417.687 141.75 417.754 141.683 417.821 141.616C419.421 142.67 421.601 142.933 424.361 142.406Z" fill="#64B5BF"/>
<path d="M250.751 167.046L263.251 167.556L254.701 167.756C254.541 167.76 254.384 167.797 254.243 167.866C254.101 167.936 253.977 168.035 253.881 168.156C247.927 175.516 242.517 181.336 237.651 185.616C228.377 193.776 217.217 200.256 204.171 205.056L184.001 186.116C195.367 183.076 204.711 177.123 212.031 168.256L250.751 167.046Z" fill="#F0B747"/>
<path d="M332.171 172.146C334.111 189.936 334.091 208.516 336.441 225.386C338.047 236.94 340.791 255.153 344.671 280.026C345.877 287.733 347.561 295.673 349.721 303.846C353.711 318.926 359.791 333.356 373.241 341.936C384.661 349.226 397.011 352.866 410.061 355.926C408.241 363.066 404.941 369.176 399.181 372.666C392.811 376.516 385.211 378.136 377.831 380.126C365.464 382.706 353.877 383.03 343.071 381.096C326.461 378.126 309.631 372.006 296.481 361.586C296.328 361.466 296.224 361.295 296.187 361.104C296.151 360.913 296.184 360.715 296.281 360.546L299.171 355.546C299.305 355.309 299.352 355.031 299.303 354.761C299.255 354.492 299.115 354.248 298.906 354.072C298.698 353.896 298.436 353.799 298.164 353.798C297.893 353.797 297.63 353.892 297.421 354.066C294.961 356.133 292.154 357.946 289.001 359.506C283.707 362.14 278.671 364.023 273.891 365.156C273.789 365.182 273.697 365.238 273.627 365.316C273.557 365.394 273.511 365.491 273.496 365.595C273.481 365.699 273.497 365.805 273.543 365.899C273.588 365.994 273.66 366.073 273.751 366.126L277.011 368.016C277.274 368.167 277.571 368.248 277.873 368.254C278.176 368.259 278.474 368.188 278.741 368.046C279.561 367.606 280.574 367.456 281.781 367.596C281.935 367.612 282.091 367.595 282.239 367.547C282.387 367.499 282.524 367.42 282.641 367.316C283.127 366.863 284.004 366.616 285.271 366.576C285.515 366.57 285.753 366.515 285.971 366.416L287.771 365.606C287.853 365.57 287.941 365.551 288.03 365.55C288.12 365.549 288.209 365.565 288.292 365.599C288.375 365.632 288.45 365.682 288.513 365.745C288.577 365.808 288.627 365.884 288.661 365.966C290.847 371.493 293.047 376.88 295.261 382.126C301.501 396.936 315.371 412.616 332.021 414.616C340.041 415.576 348.781 415.456 356.051 411.496C364.544 406.863 371.684 400.123 377.471 391.276C379.191 388.643 380.897 386.11 382.591 383.676C390.001 381.426 397.841 379.796 404.061 374.806C407.121 372.36 409.587 369.396 411.461 365.916C416.427 356.683 416.804 346.973 412.591 336.786C413.584 338.133 415.801 337.91 419.241 336.116C417.934 337.303 416.934 338.593 416.241 339.986C416.207 340.052 416.19 340.124 416.193 340.198C416.196 340.271 416.218 340.343 416.257 340.406C416.296 340.47 416.351 340.522 416.417 340.559C416.482 340.596 416.556 340.615 416.631 340.616H417.341C417.557 340.616 417.77 340.561 417.961 340.456L420.691 338.876C421.531 342.496 422.757 346.546 424.371 351.026C429.601 365.596 442.261 375.226 458.291 373.336C460.691 373.056 463.881 372.34 467.861 371.186C462.161 378.006 456.734 383.03 451.581 386.256C440.281 393.336 429.571 399.816 424.201 412.726C421.227 419.866 419.621 427.903 419.381 436.836C419.141 445.89 419.251 454.903 419.711 463.876L417.161 465.866L399.501 477.256C389.541 468.976 379.947 460.376 370.721 451.456C353.521 434.816 334.201 425.476 309.961 430.036C305.187 430.936 297.351 433.863 286.451 438.816C282.757 440.496 273.011 444.773 257.211 451.646C248.884 455.266 241.201 460.06 234.161 466.026C214.881 445.106 194.061 425.396 171.471 408.086L167.301 404.716C172.811 387.706 175.721 370.326 169.601 353.416C167.381 347.296 163.624 340.92 158.331 334.286C148.131 321.506 134.461 309.936 121.671 300.466L122.211 297.746L127.111 278.256L134.611 254.096C156.761 254.676 188.401 245.756 198.701 223.826C201.194 218.52 203.017 212.263 204.171 205.056C217.217 200.256 228.377 193.776 237.651 185.616C242.517 181.336 247.927 175.516 253.881 168.156C253.977 168.035 254.101 167.936 254.243 167.866C254.384 167.797 254.541 167.76 254.701 167.756L263.251 167.556C273.157 167.963 283.067 168.456 292.981 169.036C293.907 169.09 294.841 169.15 295.781 169.216C307.934 170.07 320.064 171.046 332.171 172.146ZM251.581 197.546C263.991 190.336 279.151 187.466 292.771 191.536C292.89 191.57 293.016 191.57 293.136 191.537C293.255 191.503 293.362 191.437 293.446 191.346C293.53 191.254 293.587 191.142 293.611 191.02C293.635 190.898 293.624 190.773 293.581 190.656L290.831 183.446C290.712 183.136 290.532 182.854 290.301 182.616C287.627 179.85 283.971 178.596 279.331 178.856C270.304 179.363 262.367 183.136 255.521 190.176C253.701 192.05 252.207 194.343 251.041 197.056C251.01 197.132 251.003 197.215 251.021 197.294C251.039 197.374 251.08 197.446 251.14 197.5C251.2 197.554 251.274 197.587 251.353 197.596C251.432 197.604 251.512 197.587 251.581 197.546ZM216.011 247.016C204.461 266.006 203.291 289.386 213.461 309.396C211.927 309.736 210.407 310.07 208.901 310.396C206.791 310.856 205.891 312.276 203.711 312.536C203.616 312.545 203.528 312.587 203.461 312.654C203.395 312.721 203.354 312.81 203.346 312.905C203.338 313 203.362 313.096 203.416 313.177C203.47 313.257 203.549 313.317 203.641 313.346C204.567 313.64 205.427 313.743 206.221 313.656C215.381 312.696 223.864 313.066 231.671 314.766C239.824 316.54 246.581 318.523 251.941 320.716C262.301 324.95 271.424 331.17 279.311 339.376C279.362 339.431 279.43 339.466 279.505 339.476C279.579 339.485 279.655 339.468 279.718 339.428C279.781 339.387 279.828 339.326 279.85 339.254C279.873 339.183 279.869 339.106 279.841 339.036L277.941 334.066C277.898 333.957 277.879 333.839 277.885 333.721C277.892 333.604 277.924 333.488 277.979 333.384C278.033 333.279 278.11 333.186 278.204 333.113C278.297 333.039 278.405 332.986 278.521 332.956C289.791 330.116 297.351 322.576 302.541 312.476C307.551 302.716 309.161 293.366 310.221 281.686C310.414 279.56 310.337 277.453 309.991 275.366C309.951 269.986 309.607 265.426 308.961 261.686C307.827 255.14 305.324 248.826 301.451 242.746C296.037 231.106 286.841 223.626 273.861 220.306C266.214 218.353 259.864 217.903 254.811 218.956C251.711 219.606 248.741 220.236 245.791 221.436C237.611 224.756 230.404 229.4 224.171 235.366C223.637 235.873 223.254 236.476 223.021 237.176C222.994 237.256 222.954 237.334 222.901 237.406L216.011 247.016ZM135.342 277.139C135.032 280.36 136.362 283.605 139.04 286.162C141.718 288.718 145.524 290.376 149.621 290.77C153.719 291.165 157.771 290.264 160.888 288.265C164.004 286.267 165.929 283.335 166.239 280.114C166.549 276.893 165.219 273.648 162.541 271.091C159.863 268.535 156.057 266.877 151.96 266.483C147.863 266.088 143.81 266.989 140.694 268.988C137.577 270.986 135.652 273.918 135.342 277.139ZM184.131 333.946L184.561 339.366C184.587 339.716 184.731 340.048 184.971 340.306C193.111 349.176 202.211 356.726 214.311 358.096C223.641 359.146 237.831 354.176 234.741 341.986C232.921 334.866 225.381 330.106 218.501 327.996C206.241 324.236 196.211 327.096 184.561 333.176C184.422 333.247 184.307 333.358 184.23 333.495C184.153 333.632 184.119 333.789 184.131 333.946Z" fill="#F4CB4B"/>
<path d="M212.031 168.256C204.711 177.123 195.367 183.076 184.001 186.116L177.481 188.156C177.401 188.176 177.324 188.193 177.251 188.206C173.517 188.68 169.834 189.39 166.201 190.336C165.174 190.61 164.184 190.57 163.231 190.216C163.991 187.63 166.157 185.496 169.731 183.816C177.997 182.15 186.151 179.683 194.191 176.416C197.771 175.536 201.107 173.446 204.201 170.146C204.367 169.967 204.555 169.816 204.761 169.696C206.801 168.496 209.224 168.016 212.031 168.256Z" fill="#E0A63C"/>
<path d="M345.421 173.156C375.001 176.136 404.341 180.5 433.441 186.246C433.587 186.213 433.741 186.273 433.901 186.426C433.734 187.333 434.007 188.59 434.721 190.196C437.827 197.17 440.144 201.946 441.671 204.526C443.004 206.766 444.514 208.773 446.201 210.546C449.201 213.693 451.104 215.52 451.911 216.026C455.051 218.02 457.527 219.683 459.341 221.016C462.221 223.126 465.501 224.456 468.491 225.546C471.884 226.78 475.151 228.113 478.291 229.546C481.941 231.216 487.661 232.586 493.241 235.286C494.121 235.713 495.031 235.86 495.971 235.726C496.557 236.26 496.987 236.543 497.261 236.576C497.727 238.85 498.924 242.746 500.851 248.266C505.231 260.773 508.647 275.03 511.101 291.036C512.174 298.023 513.111 305.08 513.911 312.206L512.561 307.336L508.981 303.286C505.794 300.366 501.827 299.273 497.081 300.006C496.756 300.06 496.426 300.066 496.101 300.026C485.011 298.656 476.411 299.606 466.961 306.816C466.72 306.999 466.545 307.247 466.461 307.526L463.711 316.226C463.641 316.447 463.489 316.632 463.285 316.742C463.082 316.853 462.843 316.879 462.621 316.816C462.114 316.683 461.587 316.306 461.041 315.686C461.951 312.806 463.331 309.946 463.911 307.196C465.357 300.256 466.037 293.68 465.951 287.466C465.661 267.766 455.291 246.806 436.801 237.656C430.347 234.09 423.431 233.123 416.051 234.756C411.037 235.863 406.631 238.213 402.831 241.806C400.071 244.42 397.997 246.923 396.611 249.316C392.397 256.59 389.671 264.3 388.431 272.446C387.064 281.373 386.514 289.043 386.781 295.456C387.094 303.09 389.414 311.176 393.741 319.716C394.987 322.17 397.274 324.876 400.601 327.836C408.361 334.736 412.701 344.886 410.061 355.926C397.011 352.866 384.661 349.226 373.241 341.936C359.791 333.356 353.711 318.926 349.721 303.846C347.561 295.673 345.877 287.733 344.671 280.026C340.791 255.153 338.047 236.94 336.441 225.386C334.091 208.516 334.111 189.936 332.171 172.146L345.421 173.156ZM439.081 215.436C435.501 205.606 429.051 197.546 418.521 195.096C418.191 195.017 417.851 195.007 417.521 195.066C413.001 195.886 411.741 200.416 411.321 204.196C411.311 204.278 411.318 204.36 411.34 204.439C411.363 204.517 411.401 204.59 411.453 204.653C411.504 204.716 411.568 204.767 411.64 204.804C411.712 204.84 411.79 204.862 411.871 204.866C418.151 205.336 424.021 205.796 429.191 208.906C432.831 211.093 436.027 213.343 438.781 215.656C438.813 215.686 438.855 215.703 438.898 215.705C438.942 215.707 438.985 215.694 439.02 215.668C439.055 215.643 439.081 215.605 439.092 215.563C439.103 215.521 439.099 215.476 439.081 215.436Z" fill="#F6D662"/>
<path d="M251.581 197.546C251.512 197.587 251.432 197.604 251.353 197.596C251.274 197.587 251.2 197.554 251.14 197.5C251.08 197.446 251.039 197.374 251.021 197.294C251.003 197.215 251.01 197.132 251.041 197.056C252.207 194.343 253.701 192.05 255.521 190.176C262.367 183.136 270.304 179.363 279.331 178.856C283.971 178.596 287.627 179.85 290.301 182.616C290.532 182.854 290.712 183.136 290.831 183.446L293.581 190.656C293.624 190.773 293.635 190.898 293.611 191.02C293.587 191.142 293.53 191.254 293.446 191.346C293.362 191.437 293.255 191.503 293.136 191.537C293.016 191.57 292.89 191.57 292.771 191.536C279.151 187.466 263.991 190.336 251.581 197.546Z" fill="#80340C" fill-opacity="0.996"/>
<path d="M169.731 183.816C166.157 185.496 163.991 187.63 163.231 190.216L162.321 190.846C161.734 190.76 160.944 190.803 159.951 190.976C153.677 192.096 146.521 192.936 138.481 193.496C130.887 194.03 123.237 194.483 115.531 194.856L117.131 191.856C117.214 191.699 117.249 191.52 117.234 191.343C117.218 191.165 117.151 190.996 117.042 190.856C116.933 190.716 116.786 190.611 116.619 190.555C116.452 190.498 116.272 190.492 116.101 190.536L115.851 190.606C115.795 190.617 115.737 190.609 115.686 190.583C115.636 190.557 115.595 190.516 115.57 190.465C115.545 190.414 115.537 190.356 115.548 190.3C115.559 190.245 115.588 190.194 115.631 190.156L116.181 189.736C134.131 188.546 151.921 187.266 169.731 183.816Z" fill="#64B5BF"/>
<path d="M184.001 186.116L204.171 205.056C203.017 212.263 201.194 218.52 198.701 223.826C188.401 245.756 156.761 254.676 134.611 254.096C139.577 240.09 143.317 230.406 145.831 225.046C149.504 217.233 153.257 209.46 157.091 201.726C158.884 198.113 160.627 194.486 162.321 190.846L163.231 190.216C164.184 190.57 165.174 190.61 166.201 190.336C169.834 189.39 173.517 188.68 177.251 188.206C177.324 188.193 177.401 188.176 177.481 188.156L184.001 186.116Z" fill="#F6D662"/>
<path d="M441.991 191.196C445.391 197.646 448.071 203.266 453.521 208.396C455.101 210.743 457.147 212.68 459.661 214.206C464.574 217.193 469.104 219.86 473.251 222.206C473.53 222.366 473.825 222.49 474.131 222.576C475.157 222.863 476.664 223.47 478.651 224.396C483.561 226.676 488.691 228.426 493.621 230.556C493.896 230.675 494.14 230.86 494.331 231.096C495.351 232.35 495.897 233.893 495.971 235.726C495.031 235.86 494.121 235.713 493.241 235.286C487.661 232.586 481.941 231.216 478.291 229.546C475.151 228.113 471.884 226.78 468.491 225.546C465.501 224.456 462.221 223.126 459.341 221.016C457.527 219.683 455.051 218.02 451.911 216.026C451.104 215.52 449.201 213.693 446.201 210.546C444.514 208.773 443.004 206.766 441.671 204.526C440.144 201.946 437.827 197.17 434.721 190.196C434.007 188.59 433.734 187.333 433.901 186.426C435.947 186.5 437.684 187.206 439.111 188.546C440.017 189.4 440.977 190.283 441.991 191.196Z" fill="#E0A63C"/>
<path d="M116.181 189.736L115.631 190.156C115.588 190.194 115.559 190.245 115.548 190.3C115.537 190.356 115.545 190.414 115.57 190.465C115.595 190.516 115.636 190.557 115.686 190.583C115.737 190.609 115.795 190.617 115.851 190.606L116.101 190.536C116.272 190.492 116.452 190.498 116.619 190.555C116.786 190.611 116.933 190.716 117.042 190.856C117.151 190.996 117.218 191.165 117.234 191.343C117.249 191.52 117.214 191.699 117.131 191.856L115.531 194.856L114.851 195.376C96.8907 196.943 79.1374 199.346 61.5907 202.586C53.2807 204.116 47.0407 206.306 37.1607 209.606C31.0007 211.66 26.5341 213.513 23.7607 215.166C19.0674 217.966 15.2274 220.903 12.2407 223.976C8.58739 227.743 6.46739 232.686 5.88072 238.806C5.86719 238.965 5.90852 239.122 5.99777 239.254C6.08702 239.385 6.21873 239.481 6.37073 239.526C15.2974 242.18 24.5007 244.403 33.9807 246.196C34.0498 246.209 34.1209 246.208 34.1894 246.193C34.258 246.177 34.3228 246.148 34.3798 246.107C34.4368 246.066 34.4849 246.014 34.5212 245.953C34.5574 245.893 34.5811 245.826 34.5907 245.756C35.9307 235.296 49.9807 235.066 51.5507 245.596C51.6036 245.973 51.5867 246.356 51.5007 246.726L50.8607 249.416C50.8003 249.671 50.824 249.939 50.9285 250.181C51.0329 250.422 51.2125 250.624 51.4407 250.756L59.0907 255.176C59.1778 255.226 59.2755 255.254 59.3756 255.258C59.4757 255.262 59.5753 255.243 59.6662 255.2C59.7572 255.158 59.8368 255.095 59.8984 255.016C59.9601 254.937 60.002 254.845 60.0207 254.746C62.7907 239.596 84.2107 245.186 80.0207 258.696C79.9237 259.014 79.9343 259.355 80.0507 259.666C81.0374 262.306 82.534 264.64 84.5407 266.666L81.1507 280.056C78.1307 292.456 76.0374 304.903 74.8707 317.396C66.9641 315.31 59.8307 311.563 53.4707 306.156C46.9107 300.57 40.3974 294.91 33.9307 289.176C31.6107 287.123 26.8774 283.636 19.7307 278.716C19.6879 278.687 19.6371 278.672 19.5852 278.673C19.5334 278.674 19.4831 278.691 19.4413 278.722C19.3996 278.752 19.3684 278.795 19.3522 278.845C19.336 278.894 19.3354 278.947 19.3507 278.996C19.404 279.17 19.5907 279.316 19.9107 279.436C20.0574 279.49 20.3374 279.78 20.7507 280.306C23.9007 284.306 26.2107 287.776 29.5507 291.036C32.5207 293.926 35.6407 298.166 39.1907 301.476C47.2907 309.01 57.9474 318.433 71.1607 329.746C72.5007 330.893 73.6174 331.52 74.5107 331.626C75.3707 333.86 74.8641 336.21 72.9907 338.676C48.9207 318.926 24.2307 298.076 8.28073 270.836C3.98739 263.51 1.33405 255.63 0.320721 247.196C-0.259279 242.343 -0.0526146 237.776 0.940719 233.496C1.23405 233.356 1.31073 233.093 1.17073 232.706C5.54073 218.736 18.9107 211.006 31.4207 205.636C38.954 202.41 46.1607 200.066 53.0407 198.606C66.7807 195.693 75.8374 194.04 80.2107 193.646C90.9807 192.676 103.731 190.226 116.181 189.736Z" fill="#E0A63C"/>
<path d="M162.321 190.846C160.627 194.486 158.884 198.113 157.091 201.726C153.257 209.46 149.504 217.233 145.831 225.046C143.317 230.406 139.577 240.09 134.611 254.096L127.111 278.256L119.161 274.706C124.761 267.216 118.961 259.736 111.221 257.646C105.391 256.076 96.7807 257.316 94.4607 263.926L86.0507 261.216C86.4841 259.476 87.0041 257.76 87.6107 256.066C91.7841 244.4 95.5007 234.533 98.7607 226.466C100.901 221.166 104.731 213.343 110.251 202.996C110.744 202.063 111.521 200.8 112.581 199.206C113.401 197.98 114.157 196.703 114.851 195.376L115.531 194.856C123.237 194.483 130.887 194.03 138.481 193.496C146.521 192.936 153.677 192.096 159.951 190.976C160.944 190.803 161.734 190.76 162.321 190.846Z" fill="#9BDADC"/>
<path d="M439.081 215.436C439.099 215.476 439.103 215.521 439.092 215.563C439.081 215.605 439.055 215.643 439.02 215.668C438.985 215.694 438.942 215.707 438.898 215.705C438.855 215.703 438.813 215.686 438.781 215.656C436.027 213.343 432.831 211.093 429.191 208.906C424.021 205.796 418.151 205.336 411.871 204.866C411.79 204.862 411.712 204.84 411.64 204.804C411.568 204.767 411.504 204.716 411.453 204.653C411.401 204.59 411.363 204.517 411.34 204.439C411.318 204.36 411.311 204.278 411.321 204.196C411.741 200.416 413.001 195.886 417.521 195.066C417.851 195.007 418.191 195.017 418.521 195.096C429.051 197.546 435.501 205.606 439.081 215.436Z" fill="#80340C" fill-opacity="0.996"/>
<path d="M114.851 195.376C114.157 196.703 113.401 197.98 112.581 199.206C111.521 200.8 110.744 202.063 110.251 202.996C104.731 213.343 100.901 221.166 98.7607 226.466C95.5007 234.533 91.7841 244.4 87.6107 256.066C87.0041 257.76 86.4841 259.476 86.0507 261.216L84.5407 266.666C82.534 264.64 81.0374 262.306 80.0507 259.666C79.9343 259.355 79.9237 259.014 80.0207 258.696C84.2107 245.186 62.7907 239.596 60.0207 254.746C60.002 254.845 59.9601 254.937 59.8984 255.016C59.8368 255.095 59.7572 255.158 59.6662 255.2C59.5753 255.243 59.4757 255.262 59.3756 255.258C59.2755 255.254 59.1778 255.226 59.0907 255.176L51.4407 250.756C51.2125 250.624 51.0329 250.422 50.9285 250.181C50.824 249.939 50.8003 249.671 50.8607 249.416L51.5007 246.726C51.5867 246.356 51.6036 245.973 51.5507 245.596C49.9807 235.066 35.9307 235.296 34.5907 245.756C34.5811 245.826 34.5574 245.893 34.5212 245.953C34.4849 246.014 34.4368 246.066 34.3798 246.107C34.3228 246.148 34.258 246.177 34.1894 246.193C34.1209 246.208 34.0498 246.209 33.9807 246.196C24.5007 244.403 15.2974 242.18 6.37073 239.526C6.21873 239.481 6.08702 239.385 5.99777 239.254C5.90852 239.122 5.86719 238.965 5.88072 238.806C6.46739 232.686 8.58739 227.743 12.2407 223.976C15.2274 220.903 19.0674 217.966 23.7607 215.166C26.5341 213.513 31.0007 211.66 37.1607 209.606C47.0407 206.306 53.2807 204.116 61.5907 202.586C79.1374 199.346 96.8907 196.943 114.851 195.376ZM87.997 218.229C87.9461 217.536 87.6677 216.867 87.1777 216.259C86.6876 215.652 85.9955 215.118 85.1409 214.688C84.2862 214.258 83.2858 213.941 82.1966 213.754C81.1075 213.568 79.9511 213.516 78.7933 213.601C77.6356 213.686 76.4991 213.906 75.449 214.25C74.3988 214.594 73.4554 215.054 72.6727 215.604C71.89 216.154 71.2833 216.783 70.8873 217.456C70.4912 218.128 70.3135 218.831 70.3644 219.524C70.4153 220.217 70.6937 220.886 71.1838 221.494C71.6738 222.101 72.3659 222.635 73.2206 223.065C74.0752 223.495 75.0757 223.812 76.1648 223.998C77.2539 224.185 78.4103 224.237 79.5681 224.152C80.7259 224.067 81.8623 223.847 82.9125 223.503C83.9626 223.159 84.906 222.699 85.6887 222.149C86.4714 221.599 87.0781 220.97 87.4742 220.297C87.8702 219.625 88.0479 218.922 87.997 218.229Z" fill="#F6D662"/>
<path d="M537.261 243.386C537.441 244.093 537.357 244.696 537.011 245.196C536.888 245.384 536.835 245.603 536.861 245.816C536.987 246.93 537.434 247.946 538.201 248.866L497.261 236.576C496.987 236.543 496.557 236.26 495.971 235.726C495.897 233.893 495.351 232.35 494.331 231.096C494.14 230.86 493.896 230.675 493.621 230.556C488.691 228.426 483.561 226.676 478.651 224.396C476.664 223.47 475.157 222.863 474.131 222.576C473.825 222.49 473.53 222.366 473.251 222.206C469.104 219.86 464.574 217.193 459.661 214.206C457.147 212.68 455.101 210.743 453.521 208.396C461.481 215.036 471.691 220.786 480.231 224.196C488.071 227.326 496.291 230.326 504.091 232.806C515.157 236.32 526.214 239.846 537.261 243.386Z" fill="#64B5BF"/>
<path d="M79.5681 224.152C84.4372 223.795 88.211 221.143 87.997 218.229C87.783 215.315 83.6624 213.243 78.7933 213.601C73.9242 213.958 70.1504 216.61 70.3644 219.524C70.5784 222.438 74.699 224.51 79.5681 224.152Z" fill="#F2F0D2"/>
<path d="M301.451 242.746C299.824 241.006 298.254 239.29 296.741 237.596C294.841 235.476 293.161 233.886 291.701 232.826C284.134 227.36 275.797 223.99 266.691 222.716C260.711 221.886 254.471 222.616 248.921 223.936C248.327 224.076 246.274 224.786 242.761 226.066C240.267 226.973 238.277 227.84 236.791 228.666C229.611 232.66 223.651 237.98 218.911 244.626C218.291 245.5 217.324 246.296 216.011 247.016L222.901 237.406C222.954 237.334 222.994 237.256 223.021 237.176C223.254 236.476 223.637 235.873 224.171 235.366C230.404 229.4 237.611 224.756 245.791 221.436C248.741 220.236 251.711 219.606 254.811 218.956C259.864 217.903 266.214 218.353 273.861 220.306C286.841 223.626 296.037 231.106 301.451 242.746Z" fill="#BB7928"/>
<path d="M301.451 242.746C305.324 248.826 307.827 255.14 308.961 261.686C309.607 265.426 309.951 269.986 309.991 275.366L309.351 283.516C309.343 283.63 309.292 283.737 309.209 283.815C309.125 283.893 309.015 283.937 308.901 283.936H308.531C308.406 283.936 308.286 283.891 308.192 283.81C308.098 283.729 308.038 283.618 308.021 283.496L307.441 279.686C307.101 261.486 298.511 242.746 281.841 234.436C268.201 227.636 252.641 228.296 239.601 235.976C217.271 249.136 208.611 272.896 212.611 298.006C213.237 301.913 214.434 305.716 216.201 309.416C215.101 309.236 214.187 309.23 213.461 309.396C203.291 289.386 204.461 266.006 216.011 247.016C217.324 246.296 218.291 245.5 218.911 244.626C223.651 237.98 229.611 232.66 236.791 228.666C238.277 227.84 240.267 226.973 242.761 226.066C246.274 224.786 248.327 224.076 248.921 223.936C254.471 222.616 260.711 221.886 266.691 222.716C275.797 223.99 284.134 227.36 291.701 232.826C293.161 233.886 294.841 235.476 296.741 237.596C298.254 239.29 299.824 241.006 301.451 242.746Z" fill="#491A06"/>
<path d="M307.441 279.686C307.471 297.136 302.011 311.446 289.971 323.426C286.331 327.046 282.204 329.513 277.591 330.826C277.177 330.944 276.739 330.943 276.325 330.825C275.912 330.706 275.54 330.475 275.251 330.156C272.157 326.803 268.621 324.13 264.641 322.136C264.574 322.102 264.516 322.054 264.468 321.996C264.419 321.937 264.383 321.87 264.361 321.796C264.294 321.57 264.337 321.386 264.491 321.246C278.291 320.016 289.871 309.516 294.861 297.166C307.481 265.926 280.431 231.786 246.621 242.866C240.007 245.033 234.687 248.463 230.661 253.156C220.041 265.523 217.184 279.753 222.091 295.846C223.851 301.633 227.107 306.596 231.861 310.736L216.201 309.416C214.434 305.716 213.237 301.913 212.611 298.006C208.611 272.896 217.271 249.136 239.601 235.976C252.641 228.296 268.201 227.636 281.841 234.436C298.511 242.746 307.101 261.486 307.441 279.686Z" fill="#F2F0D2"/>
<path d="M0.940719 233.496C1.23405 233.356 1.31073 233.093 1.17073 232.706L0.940719 233.496Z" fill="#182233"/>
<path d="M436.801 237.656C434.281 237.316 431.804 236.896 429.371 236.396C424.411 235.37 419.671 235.46 415.151 236.666C414.819 236.759 414.5 236.894 414.201 237.066C411.421 238.686 409.764 239.603 409.231 239.816C407.044 240.716 405.277 241.736 403.931 242.876C400.951 245.41 398.484 248.56 396.531 252.326C396.458 252.458 396.417 252.605 396.411 252.756L396.091 257.146C396.086 257.207 396.096 257.268 396.122 257.323C396.147 257.378 396.187 257.426 396.236 257.461C396.285 257.496 396.343 257.518 396.404 257.524C396.464 257.531 396.525 257.521 396.581 257.496L397.391 257.146C396.004 259.22 395.294 261.126 395.261 262.866C394.734 263.753 394.271 264.823 393.871 266.076C391.271 274.29 390.041 282.65 390.181 291.156C390.254 295.85 390.927 300.36 392.201 304.686C393.534 309.22 395.284 313.446 397.451 317.366L407.721 329.206L409.431 330.966C409.924 332.84 410.977 334.78 412.591 336.786C416.804 346.973 416.427 356.683 411.461 365.916C409.587 369.396 407.121 372.36 404.061 374.806C397.841 379.796 390.001 381.426 382.591 383.676L377.831 380.126C385.211 378.136 392.811 376.516 399.181 372.666C404.941 369.176 408.241 363.066 410.061 355.926C412.701 344.886 408.361 334.736 400.601 327.836C397.274 324.876 394.987 322.17 393.741 319.716C389.414 311.176 387.094 303.09 386.781 295.456C386.514 289.043 387.064 281.373 388.431 272.446C389.671 264.3 392.397 256.59 396.611 249.316C397.997 246.923 400.071 244.42 402.831 241.806C406.631 238.213 411.037 235.863 416.051 234.756C423.431 233.123 430.347 234.09 436.801 237.656Z" fill="#BB7928"/>
<path d="M436.801 237.656C455.291 246.806 465.661 267.766 465.951 287.466C466.037 293.68 465.357 300.256 463.911 307.196C463.331 309.946 461.951 312.806 461.041 315.686L456.941 323.156C454.874 324.203 453.851 324.093 453.871 322.826C461.591 303.246 462.731 279.826 452.131 261.256C448.341 254.606 442.231 247.916 435.041 244.736C425.041 240.316 414.271 239.636 405.561 246.766C402.481 249.28 399.757 252.74 397.391 257.146L396.581 257.496C396.525 257.521 396.464 257.531 396.404 257.524C396.343 257.518 396.285 257.496 396.236 257.461C396.187 257.426 396.147 257.378 396.122 257.323C396.096 257.268 396.086 257.207 396.091 257.146L396.411 252.756C396.417 252.605 396.458 252.458 396.531 252.326C398.484 248.56 400.951 245.41 403.931 242.876C405.277 241.736 407.044 240.716 409.231 239.816C409.764 239.603 411.421 238.686 414.201 237.066C414.5 236.894 414.819 236.759 415.151 236.666C419.671 235.46 424.411 235.37 429.371 236.396C431.804 236.896 434.281 237.316 436.801 237.656Z" fill="#491A06"/>
<path d="M538.201 248.866L538.931 249.506C544.544 262.733 548.094 276.66 549.581 291.286C548.527 293.233 548.254 295.223 548.761 297.256C548.86 297.675 548.904 298.108 548.891 298.546C548.804 300.78 549.477 302.773 550.911 304.526C551.175 304.843 551.321 305.246 551.321 305.666L551.401 315.826C540.007 323.393 527.797 329.036 514.771 332.756L513.911 312.206C513.111 305.08 512.174 298.023 511.101 291.036C508.647 275.03 505.231 260.773 500.851 248.266C498.924 242.746 497.727 238.85 497.261 236.576L538.201 248.866ZM521.14 300.703C520.663 303.05 521.232 305.509 522.723 307.541C524.214 309.572 526.505 311.009 529.09 311.535C530.371 311.796 531.685 311.825 532.959 311.621C534.232 311.417 535.44 310.984 536.512 310.346C537.585 309.709 538.501 308.879 539.21 307.905C539.918 306.932 540.405 305.832 540.641 304.67C541.119 302.323 540.549 299.864 539.058 297.832C537.567 295.801 535.277 294.364 532.691 293.838C531.411 293.577 530.096 293.548 528.823 293.752C527.549 293.956 526.342 294.389 525.269 295.027C524.197 295.664 523.28 296.494 522.572 297.467C521.863 298.441 521.377 299.541 521.14 300.703Z" fill="#9BDADC"/>
<path d="M264.491 321.246L262.041 320.456C268.234 319.356 273.691 316.916 278.411 313.136C282.284 310.036 285.317 307.076 287.511 304.256C293.381 296.686 294.381 288.216 294.211 278.566C294.101 272.406 290.451 265.836 287.401 260.136C285.081 255.816 283.111 253.166 278.391 250.806C273.704 248.46 271.257 247.24 271.051 247.146C260.541 242.106 252.401 246.776 242.511 250.416C238.324 251.963 235.361 253.526 233.621 255.106C229.454 258.886 226.634 263.373 225.161 268.566C222.541 277.806 222.214 286.983 224.181 296.096C225.901 300.85 227.221 303.733 228.141 304.746C229.921 306.706 231.697 308.773 233.471 310.946L231.861 310.736C227.107 306.596 223.851 301.633 222.091 295.846C217.184 279.753 220.041 265.523 230.661 253.156C234.687 248.463 240.007 245.033 246.621 242.866C280.431 231.786 307.481 265.926 294.861 297.166C289.871 309.516 278.291 320.016 264.491 321.246Z" fill="#182233"/>
<path d="M453.871 322.826C452.451 323.4 449.267 324.05 444.321 324.776C435.414 326.083 427.054 329.863 419.241 336.116C415.801 337.91 413.584 338.133 412.591 336.786C410.977 334.78 409.924 332.84 409.431 330.966C416.124 331.653 422.201 330.29 427.661 326.876C434.581 322.563 439.584 316.6 442.671 308.986C447.664 296.166 446.814 283.833 440.121 271.986C436.727 265.993 432.061 261.27 426.121 257.816C415.491 251.646 403.801 254.216 395.261 262.866C395.294 261.126 396.004 259.22 397.391 257.146C399.757 252.74 402.481 249.28 405.561 246.766C414.271 239.636 425.041 240.316 435.041 244.736C442.231 247.916 448.341 254.606 452.131 261.256C462.731 279.826 461.591 303.246 453.871 322.826Z" fill="#F2F0D2"/>
<path d="M262.041 320.456L258.381 318.736C264.814 318.523 270.707 316.87 276.061 313.776C276.164 313.719 276.25 313.635 276.31 313.533C276.37 313.431 276.401 313.315 276.401 313.196V306.996C276.401 306.875 276.377 306.755 276.33 306.644C276.283 306.532 276.214 306.431 276.127 306.346C276.041 306.261 275.938 306.194 275.825 306.15C275.712 306.105 275.592 306.084 275.471 306.086L271.051 306.216C276.711 302.716 280.567 297.936 282.621 291.876C285.201 284.29 285.227 276.873 282.701 269.626C283.047 265.733 281.971 262.163 279.471 258.916C275.761 254.096 268.011 251.316 263.951 257.496C263.951 255.99 263.211 255.183 261.731 255.076C257.457 254.756 254.057 254.933 251.531 255.606C243.291 257.816 236.481 265.016 233.741 272.966C231.801 278.6 231.924 284.513 234.111 290.706C232.204 288.886 230.261 287.97 228.281 287.956C227.883 287.953 227.494 288.077 227.171 288.308C226.847 288.54 226.606 288.869 226.481 289.246L224.181 296.096C222.214 286.983 222.541 277.806 225.161 268.566C226.634 263.373 229.454 258.886 233.621 255.106C235.361 253.526 238.324 251.963 242.511 250.416C252.401 246.776 260.541 242.106 271.051 247.146C271.257 247.24 273.704 248.46 278.391 250.806C283.111 253.166 285.081 255.816 287.401 260.136C290.451 265.836 294.101 272.406 294.211 278.566C294.381 288.216 293.381 296.686 287.511 304.256C285.317 307.076 282.284 310.036 278.411 313.136C273.691 316.916 268.234 319.356 262.041 320.456Z" fill="#21436B"/>
<path d="M282.701 269.626C280.767 272.92 278.524 274.613 275.971 274.706C268.081 274.996 260.151 264.986 263.951 257.496C268.011 251.316 275.761 254.096 279.471 258.916C281.971 262.163 283.047 265.733 282.701 269.626Z" fill="#F2F0D2"/>
<path d="M442.671 308.986C441.611 303.466 443.071 296.786 442.881 292.616C442.634 287.316 440.854 281.983 437.541 276.616C434.421 271.546 432.501 268.126 428.691 265.616C427.371 264.75 426.054 263.736 424.741 262.576C420.391 258.746 416.361 257.536 410.351 257.676C402.601 257.846 398.831 263.426 394.951 269.266C394.885 269.374 394.859 269.501 394.877 269.626C394.895 269.751 394.956 269.866 395.05 269.95C395.144 270.035 395.265 270.084 395.391 270.088C395.517 270.093 395.641 270.054 395.741 269.976C402.701 264.326 410.671 263.896 418.991 266.976C410.341 274.636 427.001 292.146 432.261 280.356C434.021 286.476 434.311 292.686 433.131 298.986C432.824 300.633 431.571 303.626 429.371 307.966C427.001 311.636 423.931 315.076 419.941 317.216C417.641 318.456 416.061 319.2 415.201 319.446C410.194 320.853 404.277 320.16 397.451 317.366C395.284 313.446 393.534 309.22 392.201 304.686C390.927 300.36 390.254 295.85 390.181 291.156C390.041 282.65 391.271 274.29 393.871 266.076C394.271 264.823 394.734 263.753 395.261 262.866C403.801 254.216 415.491 251.646 426.121 257.816C432.061 261.27 436.727 265.993 440.121 271.986C446.814 283.833 447.664 296.166 442.671 308.986Z" fill="#182233"/>
<path d="M263.951 257.496C260.151 264.986 268.081 274.996 275.971 274.706C278.524 274.613 280.767 272.92 282.701 269.626C285.227 276.873 285.201 284.29 282.621 291.876C280.567 297.936 276.711 302.716 271.051 306.216L268.121 308.016C267.868 308.169 267.603 308.297 267.331 308.396C257.364 311.783 248.497 309.91 240.731 302.776C240.645 302.698 240.581 302.598 240.545 302.487C240.509 302.375 240.503 302.257 240.527 302.143C240.552 302.029 240.605 301.923 240.683 301.836C240.761 301.749 240.86 301.683 240.971 301.646L242.211 301.236C243.771 300.603 244.734 299.56 245.101 298.106C245.467 296.66 245.034 295.37 243.801 294.236C241.514 292.136 239.351 292.773 237.311 296.146C235.344 296.5 234.277 294.686 234.111 290.706C231.924 284.513 231.801 278.6 233.741 272.966C236.481 265.016 243.291 257.816 251.531 255.606C254.057 254.933 257.457 254.756 261.731 255.076C263.211 255.183 263.951 255.99 263.951 257.496Z" fill="#182233"/>
<path d="M119.161 274.706C111.131 282.716 90.5307 277.326 94.4607 263.926C96.7807 257.316 105.391 256.076 111.221 257.646C118.961 259.736 124.761 267.216 119.161 274.706Z" fill="#ACA963"/>
<path d="M442.671 308.986C439.584 316.6 434.581 322.563 427.661 326.876C422.201 330.29 416.124 331.653 409.431 330.966L407.721 329.206C413.007 329.446 417.591 328.913 421.471 327.606C427.551 325.56 432.284 321.42 435.671 315.186C436.644 313.386 436.987 311.426 436.701 309.306C436.594 308.506 436.107 308.086 435.241 308.046C434.767 308.02 434.317 307.837 433.961 307.526C432.327 306.08 430.797 306.226 429.371 307.966C431.571 303.626 432.824 300.633 433.131 298.986C434.311 292.686 434.021 286.476 432.261 280.356C433.981 273.726 426.581 262.746 418.991 266.976C410.671 263.896 402.701 264.326 395.741 269.976C395.641 270.054 395.517 270.093 395.391 270.088C395.265 270.084 395.144 270.035 395.05 269.95C394.956 269.866 394.895 269.751 394.877 269.626C394.859 269.501 394.885 269.374 394.951 269.266C398.831 263.426 402.601 257.846 410.351 257.676C416.361 257.536 420.391 258.746 424.741 262.576C426.054 263.736 427.371 264.75 428.691 265.616C432.501 268.126 434.421 271.546 437.541 276.616C440.854 281.983 442.634 287.316 442.881 292.616C443.071 296.786 441.611 303.466 442.671 308.986Z" fill="#21436B"/>
<path d="M94.4607 263.926C90.5307 277.326 111.131 282.716 119.161 274.706L127.111 278.256L122.211 297.746C107.884 293.246 94.1974 287.35 81.1507 280.056L84.5407 266.666L86.0507 261.216L94.4607 263.926Z" fill="#80D0D5"/>
<path d="M418.991 266.976C410.341 274.636 427.001 292.146 432.261 280.356C433.981 273.726 426.581 262.746 418.991 266.976Z" fill="#F2F0D2"/>
<path d="M151.96 266.483C143.428 265.661 135.988 270.432 135.342 277.139C134.696 283.846 141.089 289.949 149.621 290.77C158.153 291.592 165.593 286.821 166.239 280.114C166.885 273.407 160.492 267.304 151.96 266.483Z" fill="#E0A63C"/>
<path d="M213.461 309.396C214.187 309.23 215.101 309.236 216.201 309.416L231.861 310.736L233.471 310.946C242.051 312.6 250.354 315.196 258.381 318.736L262.041 320.456L264.491 321.246C264.337 321.386 264.294 321.57 264.361 321.796C264.383 321.87 264.419 321.937 264.468 321.996C264.516 322.054 264.574 322.102 264.641 322.136C268.621 324.13 272.157 326.803 275.251 330.156C275.54 330.475 275.912 330.706 276.325 330.825C276.739 330.943 277.177 330.944 277.591 330.826C282.204 329.513 286.331 327.046 289.971 323.426C302.011 311.446 307.471 297.136 307.441 279.686L308.021 283.496C308.038 283.618 308.098 283.729 308.192 283.81C308.286 283.891 308.406 283.936 308.531 283.936H308.901C309.015 283.937 309.125 283.893 309.209 283.815C309.292 283.737 309.343 283.63 309.351 283.516L309.991 275.366C310.337 277.453 310.414 279.56 310.221 281.686C309.161 293.366 307.551 302.716 302.541 312.476C297.351 322.576 289.791 330.116 278.521 332.956C278.405 332.986 278.297 333.039 278.204 333.113C278.11 333.186 278.033 333.279 277.979 333.384C277.924 333.488 277.892 333.604 277.885 333.721C277.879 333.839 277.898 333.957 277.941 334.066L279.841 339.036C279.869 339.106 279.873 339.183 279.85 339.254C279.828 339.326 279.781 339.387 279.718 339.428C279.655 339.468 279.579 339.485 279.505 339.476C279.43 339.466 279.362 339.431 279.311 339.376C271.424 331.17 262.301 324.95 251.941 320.716C246.581 318.523 239.824 316.54 231.671 314.766C223.864 313.066 215.381 312.696 206.221 313.656C205.427 313.743 204.567 313.64 203.641 313.346C203.549 313.317 203.47 313.257 203.416 313.177C203.362 313.096 203.338 313 203.346 312.905C203.354 312.81 203.395 312.721 203.461 312.654C203.528 312.587 203.616 312.545 203.711 312.536C205.891 312.276 206.791 310.856 208.901 310.396C210.407 310.07 211.927 309.736 213.461 309.396Z" fill="#995A22"/>
<path d="M74.8707 317.396L74.5107 331.626C73.6174 331.52 72.5007 330.893 71.1607 329.746C57.9474 318.433 47.2907 309.01 39.1907 301.476C35.6407 298.166 32.5207 293.926 29.5507 291.036C26.2107 287.776 23.9007 284.306 20.7507 280.306C20.3374 279.78 20.0574 279.49 19.9107 279.436C19.5907 279.316 19.404 279.17 19.3507 278.996C19.3354 278.947 19.336 278.894 19.3522 278.845C19.3684 278.795 19.3996 278.752 19.4413 278.722C19.4831 278.691 19.5334 278.674 19.5852 278.673C19.6371 278.672 19.6879 278.687 19.7307 278.716C26.8774 283.636 31.6107 287.123 33.9307 289.176C40.3974 294.91 46.9107 300.57 53.4707 306.156C59.8307 311.563 66.9641 315.31 74.8707 317.396Z" fill="#F0B747"/>
<path d="M81.1507 280.056C94.1974 287.35 107.884 293.246 122.211 297.746L121.671 300.466C121.011 303.52 120.384 306.593 119.791 309.686C117.617 321.073 115.837 332.52 114.451 344.026C114.057 347.293 113.751 350.79 113.531 354.516C113.331 358.003 113.137 361.51 112.951 365.036L112.831 370.176C112.824 370.477 112.904 370.775 113.061 371.036C114.574 373.616 116.234 375.643 118.041 377.116C119.727 378.49 121.854 378.966 124.421 378.546C129.691 381.016 135.051 383.376 139.981 386.396C149.361 392.15 158.467 398.256 167.301 404.716L171.471 408.086C163.991 418.506 157.744 429.753 152.731 441.826L125.971 419.866C124.664 418.273 123.041 417.426 121.101 417.326C124.154 410.74 125.757 404.023 125.911 397.176C126.071 390.376 121.491 382.446 116.731 377.226C114.291 374.556 111.911 371.566 108.961 368.906C97.3141 358.42 85.3241 348.343 72.9907 338.676C74.8641 336.21 75.3707 333.86 74.5107 331.626L74.8707 317.396C76.0374 304.903 78.1307 292.456 81.1507 280.056Z" fill="#64B5BF"/>
<path d="M234.111 290.706C234.277 294.686 235.344 296.5 237.311 296.146C237.457 299.333 239.091 301.03 242.211 301.236L240.971 301.646C240.86 301.683 240.761 301.749 240.683 301.836C240.605 301.923 240.552 302.029 240.527 302.143C240.503 302.257 240.509 302.375 240.545 302.487C240.581 302.598 240.645 302.698 240.731 302.776C248.497 309.91 257.364 311.783 267.331 308.396C267.603 308.297 267.868 308.169 268.121 308.016L271.051 306.216L275.471 306.086C275.592 306.084 275.712 306.105 275.825 306.15C275.938 306.194 276.041 306.261 276.127 306.346C276.214 306.431 276.283 306.532 276.33 306.644C276.377 306.755 276.401 306.875 276.401 306.996V313.196C276.401 313.315 276.37 313.431 276.31 313.533C276.25 313.635 276.164 313.719 276.061 313.776C270.707 316.87 264.814 318.523 258.381 318.736C250.354 315.196 242.051 312.6 233.471 310.946C231.697 308.773 229.921 306.706 228.141 304.746C227.221 303.733 225.901 300.85 224.181 296.096L226.481 289.246C226.606 288.869 226.847 288.54 227.171 288.308C227.494 288.077 227.883 287.953 228.281 287.956C230.261 287.97 232.204 288.886 234.111 290.706Z" fill="#64B5BF"/>
<path d="M508.981 303.286C502.947 299.933 497.147 299.453 491.581 301.846C487.707 303.513 485.327 305.916 484.441 309.056C483.474 312.483 484.381 315.666 487.161 318.606C487.413 318.878 487.702 319.114 488.021 319.306C494.714 323.333 501.037 323.48 506.991 319.746C511.284 317.053 513.141 312.916 512.561 307.336L513.911 312.206L514.771 332.756C514.877 344.15 514.561 351.97 513.821 356.216C512.674 362.796 511.674 369.103 510.821 375.136C497.607 382.463 486.164 391.173 476.491 401.266C476.399 401.361 476.278 401.423 476.147 401.442C476.016 401.462 475.883 401.439 475.768 401.376C475.652 401.314 475.562 401.215 475.51 401.096C475.458 400.976 475.448 400.843 475.481 400.716C476.914 394.856 478.557 388.38 480.411 381.286C480.924 379.32 480.777 377.226 479.971 375.006C479.951 374.952 479.918 374.904 479.875 374.865C479.832 374.826 479.781 374.798 479.725 374.783C479.669 374.769 479.61 374.768 479.554 374.78C479.497 374.793 479.445 374.819 479.401 374.856C478.514 375.583 477.841 376.516 477.381 377.656L478.401 371.486C478.426 371.333 478.419 371.176 478.379 371.026C478.339 370.876 478.268 370.736 478.171 370.616C475.504 367.37 472.067 367.56 467.861 371.186C463.881 372.34 460.691 373.056 458.291 373.336C442.261 375.226 429.601 365.596 424.371 351.026C422.757 346.546 421.531 342.496 420.691 338.876C429.957 332.87 440.137 329.096 451.231 327.556C455.564 326.95 460.004 326.513 464.551 326.246C464.681 326.236 464.805 326.184 464.903 326.098C465.002 326.012 465.07 325.897 465.098 325.769C465.126 325.641 465.112 325.508 465.059 325.389C465.005 325.269 464.915 325.17 464.801 325.106C462.754 324.033 460.134 323.383 456.941 323.156L461.041 315.686C461.587 316.306 462.114 316.683 462.621 316.816C462.843 316.879 463.082 316.853 463.285 316.742C463.489 316.632 463.641 316.447 463.711 316.226L466.461 307.526C466.545 307.247 466.72 306.999 466.961 306.816C476.411 299.606 485.011 298.656 496.101 300.026C496.426 300.066 496.756 300.06 497.081 300.006C501.827 299.273 505.794 300.366 508.981 303.286ZM468.721 348.196C466.221 344.263 462.817 342.25 458.511 342.156C453.884 342.063 450.524 343.69 448.431 347.036C445.421 351.856 448.831 356.826 454.391 357.226C461.577 357.74 466.387 355.106 468.821 349.326C468.895 349.144 468.925 348.946 468.908 348.749C468.89 348.553 468.826 348.363 468.721 348.196Z" fill="#F0B747"/>
<path d="M242.211 301.236C239.091 301.03 237.457 299.333 237.311 296.146C239.351 292.773 241.514 292.136 243.801 294.236C245.034 295.37 245.467 296.66 245.101 298.106C244.734 299.56 243.771 300.603 242.211 301.236Z" fill="#F2F0D2"/>
<path d="M167.301 404.716C158.467 398.256 149.361 392.15 139.981 386.396C135.051 383.376 129.691 381.016 124.421 378.546C121.227 373.28 117.404 368.776 112.951 365.036C113.137 361.51 113.331 358.003 113.531 354.516C113.751 350.79 114.057 347.293 114.451 344.026C115.837 332.52 117.617 321.073 119.791 309.686C120.384 306.593 121.011 303.52 121.671 300.466C134.461 309.936 148.131 321.506 158.331 334.286C163.624 340.92 167.381 347.296 169.601 353.416C175.721 370.326 172.811 387.706 167.301 404.716Z" fill="#E0A63C"/>
<path d="M508.981 303.286L512.561 307.336C513.141 312.916 511.284 317.053 506.991 319.746C501.037 323.48 494.714 323.333 488.021 319.306C487.702 319.114 487.413 318.878 487.161 318.606C484.381 315.666 483.474 312.483 484.441 309.056C485.327 305.916 487.707 303.513 491.581 301.846C497.147 299.453 502.947 299.933 508.981 303.286Z" fill="#E0A63C"/>
<path d="M407.721 329.206L397.451 317.366C404.277 320.16 410.194 320.853 415.201 319.446C416.061 319.2 417.641 318.456 419.941 317.216C423.931 315.076 427.001 311.636 429.371 307.966C430.797 306.226 432.327 306.08 433.961 307.526C434.317 307.837 434.767 308.02 435.241 308.046C436.107 308.086 436.594 308.506 436.701 309.306C436.987 311.426 436.644 313.386 435.671 315.186C432.284 321.42 427.551 325.56 421.471 327.606C417.591 328.913 413.007 329.446 407.721 329.206Z" fill="#64B5BF"/>
<path d="M551.401 315.826C551.621 326.78 550.717 337.583 548.691 348.236C548.671 348.329 548.641 348.417 548.601 348.496C547.874 349.943 547.734 351.323 548.181 352.636C548.219 352.754 548.286 352.86 548.375 352.945C548.465 353.03 548.574 353.091 548.694 353.123C548.813 353.154 548.938 353.156 549.058 353.127C549.178 353.098 549.289 353.039 549.381 352.956C550.974 351.523 552.907 350.54 555.181 350.006C550.811 353.646 545.001 356.736 541.311 359.346C533.091 365.173 524.734 370.79 516.241 376.196C515.074 376.943 512.901 378.776 509.721 381.696C507.007 384.183 502.274 387.29 495.521 391.016L508.631 381.206C508.829 381.055 508.995 380.864 509.121 380.646C509.847 379.36 510.414 377.523 510.821 375.136C511.674 369.103 512.674 362.796 513.821 356.216C514.561 351.97 514.877 344.15 514.771 332.756C527.797 329.036 540.007 323.393 551.401 315.826Z" fill="#64B5BF"/>
<path d="M184.561 333.176C196.211 327.096 206.241 324.236 218.501 327.996C225.381 330.106 232.921 334.866 234.741 341.986C237.831 354.176 223.641 359.146 214.311 358.096C202.211 356.726 193.111 349.176 184.971 340.306C184.731 340.048 184.587 339.716 184.561 339.366L184.131 333.946C184.119 333.789 184.153 333.632 184.23 333.495C184.307 333.358 184.422 333.247 184.561 333.176ZM192.028 336.84C191.455 338.935 192.159 341.288 193.986 343.38C195.813 345.472 198.613 347.133 201.77 347.996C204.926 348.86 208.182 348.856 210.819 347.985C213.456 347.114 215.26 345.448 215.833 343.353C216.406 341.257 215.702 338.905 213.875 336.813C212.048 334.721 209.249 333.06 206.092 332.197C202.935 331.333 199.68 331.337 197.042 332.208C194.405 333.079 192.601 334.745 192.028 336.84Z" fill="#E0A63C"/>
<path d="M453.871 322.826C453.851 324.093 454.874 324.203 456.941 323.156C460.134 323.383 462.754 324.033 464.801 325.106C464.915 325.17 465.005 325.269 465.059 325.389C465.112 325.508 465.126 325.641 465.098 325.769C465.07 325.897 465.002 326.012 464.903 326.098C464.805 326.184 464.681 326.236 464.551 326.246C460.004 326.513 455.564 326.95 451.231 327.556C440.137 329.096 429.957 332.87 420.691 338.876L417.961 340.456C417.77 340.561 417.557 340.616 417.341 340.616H416.631C416.556 340.615 416.482 340.596 416.417 340.559C416.351 340.522 416.296 340.47 416.257 340.406C416.218 340.343 416.196 340.271 416.193 340.198C416.19 340.124 416.207 340.052 416.241 339.986C416.934 338.593 417.934 337.303 419.241 336.116C427.054 329.863 435.414 326.083 444.321 324.776C449.267 324.05 452.451 323.4 453.871 322.826Z" fill="#995A22"/>
<path d="M206.092 332.197C199.518 330.398 193.222 332.477 192.028 336.84C190.835 341.203 195.196 346.198 201.77 347.996C208.343 349.794 214.64 347.716 215.833 343.353C217.027 338.99 212.665 333.995 206.092 332.197Z" fill="#EF854B"/>
<path d="M468.821 349.326C466.387 355.106 461.577 357.74 454.391 357.226C448.831 356.826 445.421 351.856 448.431 347.036C450.524 343.69 453.884 342.063 458.511 342.156C462.817 342.25 466.221 344.263 468.721 348.196C468.826 348.363 468.89 348.553 468.908 348.749C468.925 348.946 468.895 349.144 468.821 349.326Z" fill="#EF854B"/>
<path d="M377.831 380.126L382.591 383.676C380.897 386.11 379.191 388.643 377.471 391.276C371.684 400.123 364.544 406.863 356.051 411.496C348.781 415.456 340.041 415.576 332.021 414.616C315.371 412.616 301.501 396.936 295.261 382.126C293.047 376.88 290.847 371.493 288.661 365.966C288.627 365.884 288.577 365.808 288.513 365.745C288.45 365.682 288.375 365.632 288.292 365.599C288.209 365.565 288.12 365.549 288.03 365.55C287.941 365.551 287.853 365.57 287.771 365.606L285.971 366.416C285.753 366.515 285.515 366.57 285.271 366.576C284.004 366.616 283.127 366.863 282.641 367.316C282.524 367.42 282.387 367.499 282.239 367.547C282.091 367.595 281.935 367.612 281.781 367.596C280.574 367.456 279.561 367.606 278.741 368.046C278.474 368.188 278.176 368.259 277.873 368.254C277.571 368.248 277.274 368.167 277.011 368.016L273.751 366.126C273.66 366.073 273.588 365.994 273.543 365.899C273.497 365.805 273.481 365.699 273.496 365.595C273.511 365.491 273.557 365.394 273.627 365.316C273.697 365.238 273.789 365.182 273.891 365.156C278.671 364.023 283.707 362.14 289.001 359.506C292.154 357.946 294.961 356.133 297.421 354.066C297.63 353.892 297.893 353.797 298.164 353.798C298.436 353.799 298.698 353.896 298.906 354.072C299.115 354.248 299.255 354.492 299.303 354.761C299.352 355.031 299.305 355.309 299.171 355.546L296.281 360.546C296.184 360.715 296.151 360.913 296.187 361.104C296.224 361.295 296.328 361.466 296.481 361.586C309.631 372.006 326.461 378.126 343.071 381.096C353.877 383.03 365.464 382.706 377.831 380.126ZM303.641 387.316C305.721 392.156 308.867 396.573 313.081 400.566C322.261 409.246 335.011 413.606 347.521 410.006C347.658 409.967 347.784 409.897 347.889 409.801C347.994 409.705 348.076 409.586 348.127 409.453C348.178 409.321 348.198 409.178 348.185 409.036C348.172 408.894 348.126 408.757 348.051 408.636L343.991 402.006C345.717 403.566 347.177 405.523 348.371 407.876C348.434 408.008 348.532 408.12 348.656 408.2C348.78 408.279 348.923 408.323 349.071 408.326C356.411 408.596 363.771 402.596 368.371 397.066C372.011 392.686 375.624 388.336 379.211 384.016C379.261 383.954 379.293 383.878 379.303 383.798C379.313 383.717 379.3 383.636 379.265 383.563C379.231 383.49 379.176 383.428 379.108 383.385C379.04 383.341 378.961 383.317 378.881 383.316C375.801 383.376 372.771 383.72 369.791 384.346C364.221 385.516 359.941 385.706 355.451 385.326C344.811 384.426 335.901 384.236 328.441 381.176C316.841 376.403 310.417 373.733 309.171 373.166C305.504 371.493 302.684 369.833 300.711 368.186C298.117 366.013 295.611 364.18 293.191 362.686C293.063 362.609 292.916 362.567 292.766 362.566C292.616 362.565 292.469 362.604 292.34 362.68C292.211 362.756 292.104 362.866 292.032 362.997C291.96 363.128 291.925 363.277 291.931 363.426C292.221 369.486 295.191 375.126 298.251 381.386C299.351 383.64 301.147 385.616 303.641 387.316Z" fill="#80340C" fill-opacity="0.996"/>
<path d="M343.991 402.006C338.044 396.506 332.211 392.646 326.491 390.426C320.297 388.02 312.681 386.983 303.641 387.316C301.147 385.616 299.351 383.64 298.251 381.386C295.191 375.126 292.221 369.486 291.931 363.426C291.925 363.277 291.96 363.128 292.032 362.997C292.104 362.866 292.211 362.756 292.34 362.68C292.469 362.604 292.616 362.565 292.766 362.566C292.916 362.567 293.063 362.609 293.191 362.686C295.611 364.18 298.117 366.013 300.711 368.186C302.684 369.833 305.504 371.493 309.171 373.166C310.417 373.733 316.841 376.403 328.441 381.176C335.901 384.236 344.811 384.426 355.451 385.326C359.941 385.706 364.221 385.516 369.791 384.346C372.771 383.72 375.801 383.376 378.881 383.316C378.961 383.317 379.04 383.341 379.108 383.385C379.176 383.428 379.231 383.49 379.265 383.563C379.3 383.636 379.313 383.717 379.303 383.798C379.293 383.878 379.261 383.954 379.211 384.016C375.624 388.336 372.011 392.686 368.371 397.066C363.771 402.596 356.411 408.596 349.071 408.326C348.923 408.323 348.78 408.279 348.656 408.2C348.532 408.12 348.434 408.008 348.371 407.876C347.177 405.523 345.717 403.566 343.991 402.006Z" fill="#491A06"/>
<path d="M124.421 378.546C121.854 378.966 119.727 378.49 118.041 377.116C116.234 375.643 114.574 373.616 113.061 371.036C112.904 370.775 112.824 370.477 112.831 370.176L112.951 365.036C117.404 368.776 121.227 373.28 124.421 378.546Z" fill="#BB7928"/>
<path d="M477.381 377.656C475.947 382.983 474.504 388.346 473.051 393.746C471.611 399.1 470.427 406.416 469.501 415.696C469.361 417.07 469.301 418.443 469.321 419.816C469.324 419.976 469.362 420.134 469.433 420.277C469.504 420.421 469.606 420.547 469.731 420.646L470.221 421.036C469.941 421.143 469.654 421.376 469.361 421.736C464.581 426.89 461.407 430.246 459.841 431.806C448.947 442.64 435.571 453.33 419.711 463.876C419.251 454.903 419.141 445.89 419.381 436.836C419.621 427.903 421.227 419.866 424.201 412.726C429.571 399.816 440.281 393.336 451.581 386.256C456.734 383.03 462.161 378.006 467.861 371.186C472.067 367.56 475.504 367.37 478.171 370.616C478.268 370.736 478.339 370.876 478.379 371.026C478.419 371.176 478.426 371.333 478.401 371.486L477.381 377.656Z" fill="#F6D662"/>
<path d="M510.821 375.136C510.414 377.523 509.847 379.36 509.121 380.646C508.995 380.864 508.829 381.055 508.631 381.206L495.521 391.016C492.034 394.21 488.487 397.41 484.881 400.616C482.287 402.923 480.044 405.266 478.151 407.646C477.231 408.803 476.6 410.161 476.311 411.606L475.081 417.656L470.221 421.036L469.731 420.646C469.606 420.547 469.504 420.421 469.433 420.277C469.362 420.134 469.324 419.976 469.321 419.816C469.301 418.443 469.361 417.07 469.501 415.696C470.427 406.416 471.611 399.1 473.051 393.746C474.504 388.346 475.947 382.983 477.381 377.656C477.841 376.516 478.514 375.583 479.401 374.856C479.445 374.819 479.497 374.793 479.554 374.78C479.61 374.768 479.669 374.769 479.725 374.783C479.781 374.798 479.832 374.826 479.875 374.865C479.918 374.904 479.951 374.952 479.971 375.006C480.777 377.226 480.924 379.32 480.411 381.286C478.557 388.38 476.914 394.856 475.481 400.716C475.448 400.843 475.458 400.976 475.51 401.096C475.562 401.215 475.652 401.314 475.768 401.376C475.883 401.439 476.016 401.462 476.147 401.442C476.278 401.423 476.399 401.361 476.491 401.266C486.164 391.173 497.607 382.463 510.821 375.136Z" fill="#E0A63C"/>
<path d="M343.991 402.006L348.051 408.636C348.126 408.757 348.172 408.894 348.185 409.036C348.198 409.178 348.178 409.321 348.127 409.453C348.076 409.586 347.994 409.705 347.889 409.801C347.784 409.897 347.658 409.967 347.521 410.006C335.011 413.606 322.261 409.246 313.081 400.566C308.867 396.573 305.721 392.156 303.641 387.316C312.681 386.983 320.297 388.02 326.491 390.426C332.211 392.646 338.044 396.506 343.991 402.006Z" fill="#E3645A"/>
<path d="M171.471 408.086C194.061 425.396 214.881 445.106 234.161 466.026L249.551 483.706L250.951 485.616C239.884 493.696 227.844 499.846 214.831 504.066L191.591 478.956C197.611 478.736 202.011 476.436 204.791 472.056C207.321 468.066 207.791 462.156 203.951 458.856C201.884 457.076 199.714 456.27 197.441 456.436C189.461 457.01 184.867 461.71 183.661 470.536L154.011 442.816L152.731 441.826C157.744 429.753 163.991 418.506 171.471 408.086Z" fill="#80D0D5"/>
<path d="M125.971 419.866C124.977 422.206 124.047 424.54 123.181 426.866C122.061 429.88 121.144 432.22 120.431 433.886C116.831 442.273 113.161 450.543 109.421 458.696C107.627 457.063 106.547 455.206 106.181 453.126L121.101 417.326C123.041 417.426 124.664 418.273 125.971 419.866Z" fill="#BB7928"/>
<path d="M475.081 417.656C474.447 419.443 474.144 420.87 474.171 421.936C474.537 435.43 476.091 448.753 478.831 461.906L473.721 465.576C471.754 453.19 470.231 440.663 469.151 427.996C468.971 425.863 469.041 423.776 469.361 421.736C469.654 421.376 469.941 421.143 470.221 421.036L475.081 417.656Z" fill="#64B5BF"/>
<path d="M125.971 419.866L152.731 441.826L154.011 442.816C146.177 456.71 137.311 469.816 127.411 482.136L109.421 458.696C113.161 450.543 116.831 442.273 120.431 433.886C121.144 432.22 122.061 429.88 123.181 426.866C124.047 424.54 124.977 422.206 125.971 419.866Z" fill="#E0A63C"/>
<path d="M469.361 421.736C469.041 423.776 468.971 425.863 469.151 427.996C470.231 440.663 471.754 453.19 473.721 465.576C473.434 466.263 473.101 466.8 472.721 467.186C467.801 472.206 462.687 477.01 457.381 481.596C449.054 488.79 440.427 495.576 431.501 501.956L422.801 507.126L422.931 505.126C426.424 503.96 428.481 501.636 429.101 498.156C430.281 491.55 427.907 486.71 421.981 483.636L417.161 465.866L419.711 463.876C435.571 453.33 448.947 442.64 459.841 431.806C461.407 430.246 464.581 426.89 469.361 421.736Z" fill="#9BDADC"/>
<path d="M399.501 477.256L378.321 489.896L374.231 492.246C367.611 486.313 361.327 481.49 355.381 477.776C326.981 460.036 289.621 463.226 260.551 477.846C256.804 479.733 253.137 481.686 249.551 483.706L234.161 466.026C241.201 460.06 248.884 455.266 257.211 451.646C273.011 444.773 282.757 440.496 286.451 438.816C297.351 433.863 305.187 430.936 309.961 430.036C334.201 425.476 353.521 434.816 370.721 451.456C379.947 460.376 389.541 468.976 399.501 477.256Z" fill="#F0B747"/>
<path d="M183.661 470.536C185.487 474.223 188.131 477.03 191.591 478.956L214.831 504.066C215.084 504.493 215.411 504.863 215.811 505.176C201.197 513.536 187.794 523.493 175.601 535.046L170.701 530.106L161.131 520.686L160.551 519.706C161.824 517.286 162.521 515.24 162.641 513.566C163.191 506.086 155.231 501.116 149.001 506.016C148.747 506.216 148.301 506.336 147.661 506.376L128.281 483.186L127.411 482.136C137.311 469.816 146.177 456.71 154.011 442.816L183.661 470.536ZM184.507 480.157C182.309 478.1 179.12 477.282 175.643 477.883C172.165 478.484 168.683 480.455 165.963 483.361C164.617 484.801 163.497 486.426 162.669 488.146C161.842 489.865 161.321 491.645 161.139 493.382C160.956 495.12 161.114 496.782 161.604 498.274C162.094 499.766 162.907 501.058 163.995 502.076C166.193 504.133 169.381 504.951 172.859 504.35C176.336 503.749 179.818 501.778 182.538 498.872C183.885 497.432 185.004 495.807 185.832 494.087C186.66 492.368 187.18 490.588 187.363 488.851C187.546 487.113 187.387 485.45 186.897 483.959C186.407 482.467 185.595 481.175 184.507 480.157Z" fill="#F4CB4B"/>
<path d="M109.421 458.696L127.411 482.136L128.281 483.186C119.431 491.976 113.521 501.846 107.361 512.546L95.1907 494.666C94.9907 492.766 93.5807 491.806 90.9607 491.786C95.1341 479 98.7574 469.34 101.831 462.806C104.131 457.9 105.581 454.673 106.181 453.126C106.547 455.206 107.627 457.063 109.421 458.696Z" fill="#64B5BF"/>
<path d="M191.591 478.956C188.131 477.03 185.487 474.223 183.661 470.536C184.867 461.71 189.461 457.01 197.441 456.436C199.714 456.27 201.884 457.076 203.951 458.856C207.791 462.156 207.321 468.066 204.791 472.056C202.011 476.436 197.611 478.736 191.591 478.956Z" fill="#ACA963"/>
<path d="M478.831 461.906L483.901 490.416C483.754 491.13 483.837 491.713 484.151 492.166L485.721 502.826C484.641 504.633 483.087 506.03 481.061 507.016C479.334 499.476 478.327 494.45 478.041 491.936C477.394 486.163 476.487 480.436 475.321 474.756C474.771 472.116 474.611 468.646 473.721 465.576L478.831 461.906Z" fill="#E0A63C"/>
<path d="M374.231 492.246C356.437 502.6 338.051 511.606 319.071 519.266C315.071 516.26 310.824 514.03 306.331 512.576C300.371 510.643 294.284 509.99 288.071 510.616C288.029 510.619 287.987 510.609 287.95 510.587C287.914 510.565 287.885 510.533 287.869 510.495C287.852 510.457 287.848 510.415 287.857 510.376C287.867 510.337 287.889 510.302 287.921 510.276C290.781 508.01 294.411 506.006 298.811 504.266C299.16 504.124 299.45 503.862 299.631 503.526C300.097 502.633 300.467 501.45 300.741 499.976C300.755 499.892 300.746 499.806 300.715 499.727C300.683 499.648 300.63 499.579 300.562 499.528C300.493 499.477 300.412 499.446 300.327 499.439C300.242 499.432 300.157 499.448 300.081 499.486L275.461 512.036C275.368 512.083 275.281 512.137 275.201 512.196L271.621 514.826L270.301 511.846C269.822 510.776 269.225 509.763 268.521 508.826L250.951 485.616L249.551 483.706C253.137 481.686 256.804 479.733 260.551 477.846C289.621 463.226 326.981 460.036 355.381 477.776C361.327 481.49 367.611 486.313 374.231 492.246Z" fill="#E0A63C"/>
<path d="M473.721 465.576C474.611 468.646 474.771 472.116 475.321 474.756C476.487 480.436 477.394 486.163 478.041 491.936C478.327 494.45 479.334 499.476 481.061 507.016C480.794 507.643 480.654 508.256 480.641 508.856L478.051 510.886C477.964 510.953 477.881 511.027 477.801 511.106C469.701 519.833 460.474 527.683 450.121 534.656L444.451 534.356C444.338 534.35 444.223 534.363 444.111 534.396C441.997 534.943 440.237 536.02 438.831 537.626C437.564 536.293 436.784 534.723 436.491 532.916C440.944 531.976 443.514 529.41 444.201 525.216C445.474 517.39 442.314 511.9 434.721 508.746L431.501 501.956C440.427 495.576 449.054 488.79 457.381 481.596C462.687 477.01 467.801 472.206 472.721 467.186C473.101 466.8 473.434 466.263 473.721 465.576Z" fill="#F6D662"/>
<path d="M417.161 465.866L421.981 483.636C414.581 481.596 409.141 487.366 410.211 494.686C410.864 499.193 412.917 502.47 416.371 504.516C418.451 505.743 420.637 505.946 422.931 505.126L422.801 507.126L410.571 514.836L402.751 519.216L378.321 489.896L399.501 477.256L417.161 465.866Z" fill="#80D0D5"/>
<path d="M182.538 498.872C188.202 492.819 189.084 484.44 184.507 480.157C179.93 475.874 171.628 477.308 165.963 483.361C160.299 489.414 159.418 497.793 163.995 502.076C168.572 506.359 176.874 504.925 182.538 498.872Z" fill="#E0A63C"/>
<path d="M147.661 506.376C142.891 511.126 142.501 518.286 148.511 522.126C152.011 524.366 157.111 523.046 159.951 520.446C160.048 520.356 160.173 520.3 160.305 520.289C160.438 520.279 160.57 520.313 160.681 520.386L161.131 520.686L170.701 530.106C162.511 538.956 153.021 544.956 142.421 550.436L140.801 549.076C136.521 544.846 132.251 540.836 128.291 536.306C123.684 531.02 119.037 525.773 114.351 520.566C111.951 517.893 109.621 515.22 107.361 512.546C113.521 501.846 119.431 491.976 128.281 483.186L147.661 506.376ZM132.581 523.937C131.778 524.549 131.107 525.318 130.608 526.202C130.108 527.086 129.79 528.067 129.67 529.089C129.551 530.11 129.632 531.152 129.911 532.156C130.189 533.159 130.659 534.104 131.294 534.937C132.574 536.618 134.447 537.74 136.5 538.055C138.553 538.37 140.618 537.852 142.24 536.616C143.044 536.004 143.714 535.234 144.214 534.35C144.713 533.466 145.032 532.486 145.151 531.464C145.271 530.443 145.189 529.401 144.911 528.397C144.632 527.394 144.162 526.449 143.528 525.616C142.247 523.935 140.374 522.813 138.321 522.498C136.268 522.183 134.203 522.701 132.581 523.937Z" fill="#80D0D5"/>
<path d="M421.981 483.636C427.907 486.71 430.281 491.55 429.101 498.156C428.481 501.636 426.424 503.96 422.931 505.126C420.637 505.946 418.451 505.743 416.371 504.516C412.917 502.47 410.864 499.193 410.211 494.686C409.141 487.366 414.581 481.596 421.981 483.636Z" fill="#ACA963"/>
<path d="M271.621 514.826C272.261 516.126 273.231 517.14 274.531 517.866C274.68 517.95 274.847 517.997 275.019 518.004C275.191 518.011 275.363 517.978 275.521 517.906L278.311 516.636C278.468 516.571 278.636 516.543 278.801 516.556C279.921 516.65 281.144 516.546 282.471 516.246C288.431 514.906 292.201 515.526 297.811 515.926C300.924 516.153 304.464 517.09 308.431 518.736C308.643 518.823 308.848 518.93 309.041 519.056C313.061 521.716 316.404 521.786 319.071 519.266C338.051 511.606 356.437 502.6 374.231 492.246L378.321 489.896L402.751 519.216C389.617 526.21 376.157 532.56 362.371 538.266L350.071 541.956C347.731 542.323 346.361 543.556 345.961 545.656C339.401 539.976 332.191 534.363 324.331 528.816C312.771 520.656 300.641 515.196 286.341 516.596C283.734 516.85 281.307 517.336 279.061 518.056C276.281 518.946 272.891 519.636 269.621 521.116C258.294 526.27 247.754 531.466 238.001 536.706C235.994 537.78 233.867 538.756 231.621 539.636C233.287 537.856 235.101 536.563 237.061 535.756C237.506 535.574 237.864 535.227 238.061 534.788C238.258 534.349 238.28 533.851 238.121 533.396C237.627 531.976 237.081 531.003 236.481 530.476C234.461 528.696 233.221 526.526 231.431 524.276C226.237 517.783 221.031 511.416 215.811 505.176C215.411 504.863 215.084 504.493 214.831 504.066C227.844 499.846 239.884 493.696 250.951 485.616L268.521 508.826C269.225 509.763 269.822 510.776 270.301 511.846L271.621 514.826Z" fill="#64B5BF"/>
<path d="M483.901 490.416C483.754 491.13 483.837 491.713 484.151 492.166C484.311 491.333 484.227 490.75 483.901 490.416Z" fill="#995A22"/>
<path d="M90.9607 491.786C93.5807 491.806 94.9907 492.766 95.1907 494.666C89.4441 511.153 86.0307 522.236 84.9507 527.916C84.1041 532.336 83.2274 538.38 82.3207 546.046C81.2307 555.346 82.7807 566.356 89.3407 573.486C89.4428 573.595 89.5788 573.665 89.7263 573.685C89.8737 573.705 90.0235 573.674 90.1507 573.596C106.231 563.91 123.114 555.736 140.801 549.076L142.421 550.436L158.981 564.386C153.087 566.593 147.411 569.193 141.951 572.186C140.884 572.766 140.121 573.4 139.661 574.086C139.62 574.146 139.594 574.215 139.586 574.287C139.578 574.359 139.587 574.431 139.614 574.499C139.641 574.566 139.684 574.625 139.739 574.672C139.794 574.719 139.86 574.751 139.931 574.766C141.124 575.046 142.457 574.923 143.931 574.396C150.257 572.136 156.614 569.856 163.001 567.556L168.321 570.856C154.231 577.066 139.701 581.936 124.641 584.876C117.941 586.183 110.581 586.51 102.561 585.856C98.0607 585.49 94.3841 584.416 91.5307 582.636C87.5841 580.176 84.6107 577.65 82.6107 575.056C75.6507 566.046 76.4308 550.506 78.1608 539.526C80.2074 526.58 83.6941 512.663 88.6207 497.776C89.5274 495.05 90.3074 493.053 90.9607 491.786Z" fill="#E0A63C"/>
<path d="M95.1907 494.666L107.361 512.546C109.621 515.22 111.951 517.893 114.351 520.566C119.037 525.773 123.684 531.02 128.291 536.306C132.251 540.836 136.521 544.846 140.801 549.076C123.114 555.736 106.231 563.91 90.1507 573.596C90.0235 573.674 89.8737 573.705 89.7263 573.685C89.5788 573.665 89.4428 573.595 89.3407 573.486C82.7807 566.356 81.2307 555.346 82.3207 546.046C83.2274 538.38 84.1041 532.336 84.9507 527.916C86.0307 522.236 89.4441 511.153 95.1907 494.666ZM126.42 536.681C124.568 535.841 122.448 535.792 120.526 536.545C118.605 537.298 117.04 538.792 116.176 540.698C115.311 542.604 115.218 544.765 115.917 546.707C116.616 548.648 118.049 550.211 119.901 551.052C121.754 551.892 123.874 551.941 125.795 551.188C127.716 550.434 129.281 548.941 130.146 547.035C131.01 545.129 131.103 542.968 130.405 541.026C129.706 539.084 128.273 537.521 126.42 536.681Z" fill="#F0B747"/>
<path d="M319.071 519.266C316.404 521.786 313.061 521.716 309.041 519.056C308.848 518.93 308.643 518.823 308.431 518.736C304.464 517.09 300.924 516.153 297.811 515.926C292.201 515.526 288.431 514.906 282.471 516.246C281.144 516.546 279.921 516.65 278.801 516.556C278.636 516.543 278.468 516.571 278.311 516.636L275.521 517.906C275.363 517.978 275.191 518.011 275.019 518.004C274.847 517.997 274.68 517.95 274.531 517.866C273.231 517.14 272.261 516.126 271.621 514.826L275.201 512.196C275.281 512.137 275.368 512.083 275.461 512.036L300.081 499.486C300.157 499.448 300.242 499.432 300.327 499.439C300.412 499.446 300.493 499.477 300.562 499.528C300.63 499.579 300.683 499.648 300.715 499.727C300.746 499.806 300.755 499.892 300.741 499.976C300.467 501.45 300.097 502.633 299.631 503.526C299.45 503.862 299.16 504.124 298.811 504.266C294.411 506.006 290.781 508.01 287.921 510.276C287.889 510.302 287.867 510.337 287.857 510.376C287.848 510.415 287.852 510.457 287.869 510.495C287.885 510.533 287.914 510.565 287.95 510.587C287.987 510.609 288.029 510.619 288.071 510.616C294.284 509.99 300.371 510.643 306.331 512.576C310.824 514.03 315.071 516.26 319.071 519.266Z" fill="#BB7928"/>
<path d="M431.501 501.956L434.721 508.746C418.021 505.756 419.831 532.796 436.491 532.916C436.784 534.723 437.564 536.293 438.831 537.626C438.271 538.686 438.061 539.75 438.201 540.816C438.234 541.086 438.206 541.36 438.121 541.616C437.807 542.536 437.481 543.203 437.141 543.616L428.721 548.276L410.571 514.836L422.801 507.126L431.501 501.956Z" fill="#F4CB4B"/>
<path d="M485.721 502.826C487.787 517.193 489.241 531.563 490.081 545.936C488.787 545.69 487.201 546.04 485.321 546.986C484.474 534.146 482.914 521.436 480.641 508.856C480.654 508.256 480.794 507.643 481.061 507.016C483.087 506.03 484.641 504.633 485.721 502.826Z" fill="#64B5BF"/>
<path d="M160.551 519.706C156.151 517.356 152.221 511.706 149.651 508.226C149.284 507.726 148.621 507.11 147.661 506.376C148.301 506.336 148.747 506.216 149.001 506.016C155.231 501.116 163.191 506.086 162.641 513.566C162.521 515.24 161.824 517.286 160.551 519.706Z" fill="#E0A63C"/>
<path d="M215.811 505.176C221.031 511.416 226.237 517.783 231.431 524.276C233.221 526.526 234.461 528.696 236.481 530.476C237.081 531.003 237.627 531.976 238.121 533.396C238.28 533.851 238.258 534.349 238.061 534.788C237.864 535.227 237.506 535.574 237.061 535.756C235.101 536.563 233.287 537.856 231.621 539.636L200.651 555.706C191.697 549.113 183.347 542.226 175.601 535.046C187.794 523.493 201.197 513.536 215.811 505.176Z" fill="#E0A63C"/>
<path d="M147.661 506.376C148.621 507.11 149.284 507.726 149.651 508.226C152.221 511.706 156.151 517.356 160.551 519.706L161.131 520.686L160.681 520.386C160.57 520.313 160.438 520.279 160.305 520.289C160.173 520.3 160.048 520.356 159.951 520.446C157.111 523.046 152.011 524.366 148.511 522.126C142.501 518.286 142.891 511.126 147.661 506.376Z" fill="#ACA963"/>
<path d="M434.721 508.746C442.314 511.9 445.474 517.39 444.201 525.216C443.514 529.41 440.944 531.976 436.491 532.916C419.831 532.796 418.021 505.756 434.721 508.746Z" fill="#E0A63C"/>
<path d="M480.641 508.856C482.914 521.436 484.474 534.146 485.321 546.986C484.921 547.733 484.801 548.396 484.961 548.976L484.111 549.176C483.818 549.242 483.552 549.395 483.351 549.616C478.491 554.876 473.614 559.403 468.721 563.196C465.934 565.363 464.144 566.8 463.351 567.506L453.281 574.006C455.547 571.693 456.317 569.186 455.591 566.486C458.604 565.62 460.364 563.84 460.871 561.146C461.837 555.986 459.611 553.253 454.191 552.946L451.981 548.676C454.074 546.083 454.644 543 453.691 539.426C453.191 537.553 452.001 535.963 450.121 534.656C460.474 527.683 469.701 519.833 477.801 511.106C477.881 511.027 477.964 510.953 478.051 510.886L480.641 508.856Z" fill="#9BDADC"/>
<path d="M410.571 514.836L428.721 548.276C416.727 555.103 404.294 560.646 391.421 564.906C380.807 556.866 371.124 547.986 362.371 538.266C376.157 532.56 389.617 526.21 402.751 519.216L410.571 514.836Z" fill="#E0A63C"/>
<path d="M143.528 525.616C140.861 522.115 135.959 521.363 132.581 523.937C129.203 526.51 128.626 531.435 131.294 534.937C133.961 538.438 138.862 539.19 142.24 536.616C145.619 534.043 146.195 529.118 143.528 525.616Z" fill="#ACA963"/>
<path d="M175.601 535.046C183.347 542.226 191.697 549.113 200.651 555.706C191.071 560.873 181.694 565.48 172.521 569.526C171.074 570.166 169.674 570.61 168.321 570.856L163.001 567.556L158.981 564.386L142.421 550.436C153.021 544.956 162.511 538.956 170.701 530.106L175.601 535.046Z" fill="#64B5BF"/>
<path d="M450.121 534.656C452.001 535.963 453.191 537.553 453.691 539.426C454.644 543 454.074 546.083 451.981 548.676C448.394 551.023 444.914 551.09 441.541 548.876C439.787 547.723 438.321 545.97 437.141 543.616C437.481 543.203 437.807 542.536 438.121 541.616C438.206 541.36 438.234 541.086 438.201 540.816C438.061 539.75 438.271 538.686 438.831 537.626C440.237 536.02 441.997 534.943 444.111 534.396C444.223 534.363 444.338 534.35 444.451 534.356L450.121 534.656Z" fill="#ACA963"/>
<path d="M130.146 547.035C131.946 543.067 130.278 538.431 126.42 536.681C122.562 534.931 117.976 536.73 116.176 540.698C114.376 544.666 116.044 549.302 119.901 551.052C123.759 552.802 128.346 551.003 130.146 547.035Z" fill="#E0A63C"/>
<path d="M362.371 538.266C371.124 547.986 380.807 556.866 391.421 564.906L381.421 567.966C381.101 568.04 380.791 568.05 380.491 567.996C380.484 567.996 380.479 567.995 380.473 567.994C380.468 567.992 380.464 567.989 380.461 567.986L357.991 548.426C357.678 548.154 357.337 547.909 356.971 547.696C354.317 546.143 352.017 544.23 350.071 541.956L362.371 538.266Z" fill="#F0B747"/>
<path d="M350.071 541.956C352.017 544.23 354.317 546.143 356.971 547.696C357.337 547.909 357.678 548.154 357.991 548.426L380.461 567.986C380.464 567.989 380.468 567.992 380.473 567.994C380.479 567.995 380.484 567.996 380.491 567.996C380.791 568.05 381.101 568.04 381.421 567.966C381.441 568.053 381.434 568.143 381.401 568.236C381.392 568.26 381.379 568.282 381.361 568.301C381.343 568.319 381.322 568.333 381.298 568.343C381.275 568.352 381.249 568.356 381.224 568.355C381.198 568.354 381.173 568.348 381.151 568.336C380.611 568.063 380.054 568.023 379.481 568.216C377.767 568.803 375.674 569.103 373.201 569.116L345.961 545.656C346.361 543.556 347.731 542.323 350.071 541.956Z" fill="#E0A63C"/>
<path d="M437.141 543.616C438.321 545.97 439.787 547.723 441.541 548.876C444.914 551.09 448.394 551.023 451.981 548.676L454.191 552.946C444.271 553.866 445.201 568.716 455.591 566.486C456.317 569.186 455.547 571.693 453.281 574.006C443.561 580.16 433.281 585.256 422.441 589.296C417.127 591.276 412.397 592.606 408.251 593.286C408.024 593.324 407.816 593.433 407.655 593.597C407.494 593.762 407.391 593.973 407.359 594.199C407.328 594.426 407.37 594.656 407.481 594.856C407.591 595.055 407.763 595.213 407.971 595.306C409.431 595.98 410.847 597.036 412.221 598.476C412.477 598.746 412.785 598.951 413.121 599.076C414.587 599.636 416.057 600.513 417.531 601.706C417.83 601.946 418.152 602.157 418.491 602.336C421.977 604.176 423.964 605.34 424.451 605.826C425.664 607.026 426.787 607.87 427.821 608.356C432.281 610.463 435.934 612.333 438.781 613.966C430.041 611.426 422.251 606.446 414.451 601.486C410.071 598.7 405.384 595.313 400.391 591.326C391.391 584.133 382.327 576.73 373.201 569.116C375.674 569.103 377.767 568.803 379.481 568.216C380.054 568.023 380.611 568.063 381.151 568.336C381.173 568.348 381.198 568.354 381.224 568.355C381.249 568.356 381.275 568.352 381.298 568.343C381.322 568.333 381.343 568.319 381.361 568.301C381.379 568.282 381.392 568.26 381.401 568.236C381.434 568.143 381.441 568.053 381.421 567.966L391.421 564.906C404.294 560.646 416.727 555.103 428.721 548.276L437.141 543.616Z" fill="#64B5BF"/>
<path d="M490.081 545.936C491.151 563.136 490.091 581.886 483.821 597.756C482.341 601.506 478.841 606.766 475.781 609.576C471.001 613.976 465.144 616.446 458.211 616.986C457.451 616.673 456.837 616.713 456.371 617.106C450.344 617.266 444.481 616.22 438.781 613.966C435.934 612.333 432.281 610.463 427.821 608.356C426.787 607.87 425.664 607.026 424.451 605.826C423.964 605.34 421.977 604.176 418.491 602.336C418.152 602.157 417.83 601.946 417.531 601.706C416.057 600.513 414.587 599.636 413.121 599.076C412.785 598.951 412.477 598.746 412.221 598.476C410.847 597.036 409.431 595.98 407.971 595.306C407.763 595.213 407.591 595.055 407.481 594.856C407.37 594.656 407.328 594.426 407.359 594.199C407.391 593.973 407.494 593.762 407.655 593.597C407.816 593.433 408.024 593.324 408.251 593.286C412.397 592.606 417.127 591.276 422.441 589.296C433.281 585.256 443.561 580.16 453.281 574.006L463.351 567.506C465.101 568.666 467.521 569.746 468.491 571.456C469.631 573.463 469.641 575.586 468.521 577.826C467.101 580.66 464.497 582.16 460.711 582.326C460.663 582.329 460.616 582.344 460.575 582.37C460.535 582.395 460.501 582.43 460.478 582.471C460.455 582.512 460.443 582.558 460.443 582.605C460.444 582.651 460.457 582.697 460.481 582.736C464.627 589.656 469.184 596.256 474.151 602.536C474.195 602.59 474.253 602.631 474.319 602.654C474.384 602.677 474.455 602.681 474.523 602.667C474.591 602.653 474.654 602.62 474.705 602.572C474.756 602.524 474.792 602.464 474.811 602.396C475.004 601.71 475.377 601.18 475.931 600.806C476.174 600.642 476.376 600.419 476.521 600.156C479.407 594.836 481.481 589.03 482.741 582.736C484.014 576.383 484.677 571.783 484.731 568.936C484.857 562.283 484.934 555.63 484.961 548.976C484.801 548.396 484.921 547.733 485.321 546.986C487.201 546.04 488.787 545.69 490.081 545.936Z" fill="#E0A63C"/>
<path d="M484.961 548.976C484.934 555.63 484.857 562.283 484.731 568.936C484.677 571.783 484.014 576.383 482.741 582.736C481.481 589.03 479.407 594.836 476.521 600.156C476.376 600.419 476.174 600.642 475.931 600.806C475.377 601.18 475.004 601.71 474.811 602.396C474.792 602.464 474.756 602.524 474.705 602.572C474.654 602.62 474.591 602.653 474.523 602.667C474.455 602.681 474.384 602.677 474.319 602.654C474.253 602.631 474.195 602.59 474.151 602.536C469.184 596.256 464.627 589.656 460.481 582.736C460.457 582.697 460.444 582.651 460.443 582.605C460.443 582.558 460.455 582.512 460.478 582.471C460.501 582.43 460.535 582.395 460.575 582.37C460.616 582.344 460.663 582.329 460.711 582.326C464.497 582.16 467.101 580.66 468.521 577.826C469.641 575.586 469.631 573.463 468.491 571.456C467.521 569.746 465.101 568.666 463.351 567.506C464.144 566.8 465.934 565.363 468.721 563.196C473.614 559.403 478.491 554.876 483.351 549.616C483.552 549.395 483.818 549.242 484.111 549.176L484.961 548.976Z" fill="#F6D662"/>
<path d="M454.191 552.946C459.611 553.253 461.837 555.986 460.871 561.146C460.364 563.84 458.604 565.62 455.591 566.486C445.201 568.716 444.271 553.866 454.191 552.946Z" fill="#ACA963"/>
<path d="M158.981 564.386L163.001 567.556C156.614 569.856 150.257 572.136 143.931 574.396C142.457 574.923 141.124 575.046 139.931 574.766C139.86 574.751 139.794 574.719 139.739 574.672C139.684 574.625 139.641 574.566 139.614 574.499C139.587 574.431 139.578 574.359 139.586 574.287C139.594 574.215 139.62 574.146 139.661 574.086C140.121 573.4 140.884 572.766 141.951 572.186C147.411 569.193 153.087 566.593 158.981 564.386Z" fill="#F0B747"/>
<path d="M458.211 616.986L456.371 617.106C456.837 616.713 457.451 616.673 458.211 616.986Z" fill="#995A22"/>
</svg>
