<svg width="919" height="466" viewBox="0 0 919 466" fill="none" xmlns="http://www.w3.org/2000/svg">
<path d="M853.423 146.509L850.923 120.009L837.423 109.009L805.923 86.0091L779.423 75.0091L736.423 62.5091L717.923 59.5091L652.923 60.5091L597.423 65.5091L540.423 79.0091L498.923 89.5091L466.423 101.509L404.923 128.009L326.423 175.509L288.423 195.509L261.423 201.509L234.923 205.509L206.923 201.509L189.423 211.009L177.499 221.939L192.423 226.009H231.423L250.923 222.509L276.923 217.509L303.923 208.509L344.423 191.509L385.423 170.509L440.423 147.009L497.423 127.509L533.923 117.509L572.423 109.509L607.423 104.509L641.923 102.509L681.423 103.509L717.923 109.009L743.923 115.009L769.923 125.509L801.423 146.509L814.423 151.509L828.923 159.009H842.423L849.423 156.509L853.423 146.509Z" fill="url(#paint0_linear_84_98)"/>
<path d="M603.923 271.009L525.423 228.009L492.423 219.509L470.923 221.009L464.423 232.509L466.923 256.509V275.509L470.923 290.509L482.923 307.509L494.923 322.009L507.423 341.009L520.423 346.009L547.423 344.509L596.423 324.009L585.423 322.009L575.423 309.509L571.423 295.509L575.423 282.509L589.423 271.509L603.923 271.009Z" fill="url(#paint1_linear_84_98)"/>
<path d="M177.423 329.509L210.923 309.509L192.423 303.509L180.423 290.509L169.923 274.009L167.423 256.009L168.423 239.509L174.923 222.509L175.98 221.525L189.423 209.009L206.923 199.509L124.923 155.009L71.9227 136.509L24.4227 134.009L4.42273 139.509L1.42273 144.009L45.4227 169.509L77.9227 215.509L94.4227 262.509L87.4227 290.509L64.4227 338.009L30.4227 370.509L18.4227 381.509L24.9227 387.009H64.4227L84.9227 381.509L110.423 370.509L136.423 357.009L177.423 329.509Z" fill="url(#paint2_linear_84_98)"/>
<path d="M422.423 370.353L360.423 349.009L275.423 314.056L264.423 322.509L264.104 322.641L249.923 328.509L249.423 333.009L281.923 355.009L307.423 368.509L357.423 382.009H387.423L422.423 370.353Z" fill="url(#paint3_linear_84_98)"/>
<path d="M264.923 178.509L303.423 185.009L426.923 115.009H373.423L359.423 117.009L329.423 128.509L281.423 160.509L264.923 178.509Z" fill="url(#paint4_linear_84_98)"/>
<path d="M500.923 86.0091L593.923 64.0091L653.923 58.5091H724.423L673.423 29.0091L612.423 7.00908L578.423 1.00908L563.923 2.50908L546.423 31.5091L519.423 58.5091L496.923 76.5091L472.423 89.5091L470.923 97.7658L500.923 86.0091Z" fill="url(#paint5_linear_84_98)"/>
<path fill-rule="evenodd" clip-rule="evenodd" d="M705.923 221.009L704.423 217.009L703.423 212.509V203.009L704.423 200.009L706.423 193.509L709.923 187.009L714.423 182.009L719.423 177.509L725.923 174.009L732.423 172.009L738.923 171.509L746.423 172.009L756.423 176.009L765.423 184.509L767.923 189.009L770.923 193.509L773.423 203.509V211.509L771.923 219.509L769.423 226.509L765.923 231.509L760.923 235.509L754.923 239.009L747.923 242.009L740.923 243.009L727.923 241.509L717.423 236.509L710.423 229.509L705.923 221.009ZM759.423 183.009L755.423 179.009H748.423L746.923 180.009L744.423 182.009L742.423 185.509L741.923 190.009L742.923 192.509L744.923 195.509L749.423 198.509H754.423L758.423 196.509L761.423 191.509V187.509L759.423 183.009ZM728.923 227.309V224.609L727.923 222.359L724.923 221.009H723.923L721.923 221.909L719.923 224.609V227.309L722.923 230.009L725.029 229.977L727.923 229.109L728.923 227.309Z" fill="#090909"/>
<path d="M755.423 179.009L759.423 183.009L761.423 187.509V191.509L758.423 196.509L754.423 198.509H749.423L744.923 195.509L742.923 192.509L741.923 190.009L742.423 185.509L744.423 182.009L746.923 180.009L748.423 179.009H755.423Z" fill="#EAEAEA"/>
<path d="M728.923 224.609V227.309L727.923 229.109L725.029 229.977L722.923 230.009L719.923 227.309V224.609L721.923 221.909L723.923 221.009H724.923L727.923 222.359L728.923 224.609Z" fill="#ECECEC"/>
<path fill-rule="evenodd" clip-rule="evenodd" d="M788.923 219.009L779.423 239.509L757.923 255.509L761.923 262.509L748.923 249.509L729.923 244.509H712.923L694.923 251.009L704.923 244.509L697.923 236.009L692.923 227.009L690.423 218.509L689.923 207.509V196.009L693.923 185.009L697.923 178.009L704.923 171.009L717.923 160.509L735.423 156.509L751.923 157.509L763.423 163.509L769.923 168.009L775.423 172.509L782.923 183.009L787.423 193.509L788.923 206.009V219.009ZM704.423 217.009L705.923 221.009L710.423 229.509L717.423 236.509L727.923 241.509L740.923 243.009L747.923 242.009L754.923 239.009L760.923 235.509L765.923 231.509L769.423 226.509L771.923 219.509L773.423 211.509V203.509L770.923 193.509L767.923 189.009L765.423 184.509L756.423 176.009L746.423 172.009L738.923 171.509L732.423 172.009L725.923 174.009L719.423 177.509L714.423 182.009L709.923 187.009L706.423 193.509L704.423 200.009L703.423 203.009V212.509L704.423 217.009Z" fill="#F1F1F1"/>
<path d="M898.23 176.009L900.692 178.881L901.923 182.112V184.983L900.077 188.573L897.615 190.009H894.538L891.769 187.855L890.538 185.701L889.923 183.907L890.23 180.676L891.461 178.163L893 176.727L893.923 176.009H898.23Z" fill="#FEFEFB"/>
<path d="M894.423 210.009H895.923L896.923 211.009V215.009L894.923 216.009H893.923L892.423 211.509L894.423 210.009Z" fill="white"/>
<path fill-rule="evenodd" clip-rule="evenodd" d="M908.423 194.509L907.423 190.009L905.923 186.009L903.423 181.509L900.423 177.009L896.923 173.509L892.923 171.009L887.923 169.009L884.423 168.509H880.923L879.799 169.009L895.575 227.009L896.423 226.009L900.923 223.009L904.923 218.509L907.423 212.009L908.923 204.509V199.509L908.423 194.509ZM895.923 210.009H894.423L892.423 211.509L893.923 216.009H894.923L896.923 215.009V211.009L895.923 210.009ZM900.692 178.881L898.23 176.009H893.923L893 176.727L891.461 178.163L890.23 180.676L889.923 183.907L890.538 185.701L891.769 187.855L894.538 190.009H897.615L900.077 188.573L901.923 184.983V182.112L900.692 178.881Z" fill="#121212"/>
<path d="M877.423 278.009L856.423 281.009H818.923L786.923 273.009L808.923 289.009L838.423 302.009H870.423L877.423 297.009V278.009Z" fill="#131313"/>
<path fill-rule="evenodd" clip-rule="evenodd" d="M543.923 457.009L547.423 462.509L563.923 461.509L582.423 456.009L615.923 439.509L623.575 431.509L654.662 399.009L686.923 395.989L713.423 393.509L763.923 385.009L800.423 374.009L815.673 367.259L830.923 360.509L862.923 336.009L873.423 322.009L883.923 317.009L894.923 305.009V293.509L890.423 287.009V275.842L877.423 278.009V297.009L870.423 302.009H838.423L808.923 289.009L786.923 273.009L775.923 279.009L791.923 262.509L786.923 273.009L818.923 281.009H856.423L877.423 278.009L890.423 275.842L904.423 273.509L909.923 261.509L906.423 253.509L902.923 250.509L901.423 248.509L895.575 227.009L879.799 169.009L875.923 154.759L857.423 123.759L839.923 107.009L820.423 92.5091L798.423 80.5091L775.423 70.0091L730.423 58.5091H724.423H653.923L593.923 64.0091L500.923 86.0091L470.923 97.7658L426.923 115.009L303.423 185.009L287.423 194.009L232.923 204.509L206.923 199.509L189.423 209.009L175.98 221.525L177.499 221.939L189.423 211.009L206.923 201.509L234.923 205.509L261.423 201.509L288.423 195.509L326.423 175.509L404.923 128.009L466.423 101.509L498.923 89.5091L540.423 79.0091L597.423 65.5091L652.923 60.5091L717.923 59.5091L736.423 62.5091L779.423 75.0091L805.923 86.0091L837.423 109.009L850.923 120.009L853.423 146.509L849.423 156.509L842.423 159.009H828.923L814.423 151.509L801.423 146.509L769.923 125.509L743.923 115.009L717.923 109.009L681.423 103.509L641.923 102.509L607.423 104.509L572.423 109.509L533.923 117.509L497.423 127.509L440.423 147.009L385.423 170.509L344.423 191.509L303.923 208.509L276.923 217.509L250.923 222.509L231.423 226.009H192.423L177.499 221.939L175.98 221.525L174.923 222.509L168.423 239.509L167.423 256.009L169.923 274.009L180.423 290.509L192.423 303.509L210.923 309.509L221.923 305.009H253.423L275.423 314.056L360.423 349.009L422.423 370.353L451.923 380.509L509.423 391.009L581.423 399.009L618.423 388.009L572.923 409.009L560.423 437.509L543.923 457.009ZM779.423 239.509L788.923 219.009V206.009L787.423 193.509L782.923 183.009L775.423 172.509L769.923 168.009L763.423 163.509L751.923 157.509L735.423 156.509L717.923 160.509L704.923 171.009L697.923 178.009L693.923 185.009L689.923 196.009V207.509L690.423 218.509L692.923 227.009L697.923 236.009L704.923 244.509L694.923 251.009L712.923 244.509H729.923L748.923 249.509L761.923 262.509L757.923 255.509L779.423 239.509ZM525.423 228.009L603.923 271.009L589.423 271.509L575.423 282.509L571.423 295.509L575.423 309.509L585.423 322.009L596.423 324.009L547.423 344.509L520.423 346.009L507.423 341.009L494.923 322.009L482.923 307.509L470.923 290.509L466.923 275.509V256.509L464.423 232.509L470.923 221.009L492.423 219.509L525.423 228.009Z" fill="url(#paint6_linear_84_98)"/>
<path d="M654.662 399.009L623.575 431.509L626.423 439.509L619.423 460.009L623.575 464.509L643.423 456.009L660.923 443.009L671.423 431.509L680.923 419.509L686.923 395.989L654.662 399.009Z" fill="url(#paint7_linear_84_98)"/>
<path d="M917.923 195.009L909.923 173.509L901.423 164.009L892.423 157.509L884.423 154.759H875.923L879.799 169.009L880.923 168.509H884.423L887.923 169.009L892.923 171.009L896.923 173.509L900.423 177.009L903.423 181.509L905.923 186.009L907.423 190.009L908.423 194.509L908.923 199.509V204.509L907.423 212.009L904.923 218.509L900.923 223.009L896.423 226.009L895.575 227.009L901.423 248.509V238.009L908.923 229.509L915.232 219.009L917.923 208.009V195.009Z" fill="white"/>
<path d="M890.423 275.509V279.009M659.923 393.509L654.662 399.009M210.923 309.509L221.923 305.009H253.423L275.423 314.056M210.923 309.509L177.423 329.509L136.423 357.009L110.423 370.509L84.9227 381.509L64.4227 387.009H24.9227L18.4227 381.509L30.4227 370.509L64.4227 338.009L87.4227 290.509L94.4227 262.509L77.9227 215.509L45.4227 169.509L1.42273 144.009L4.42273 139.509L24.4227 134.009L71.9227 136.509L124.923 155.009L206.923 199.509M210.923 309.509L192.423 303.509L180.423 290.509L169.923 274.009L167.423 256.009L168.423 239.509L174.923 222.509L175.98 221.525M206.923 199.509L232.923 204.509L287.423 194.009L303.423 185.009M206.923 199.509L189.423 209.009L175.98 221.525M303.423 185.009L264.923 178.509L281.423 160.509L329.423 128.509L359.423 117.009L373.423 115.009H426.923M303.423 185.009L426.923 115.009M426.923 115.009L470.923 97.7658M875.923 154.759L857.423 123.759L839.923 107.009L820.423 92.5091L798.423 80.5091L775.423 70.0091L730.423 58.5091H724.423M875.923 154.759H884.423L892.423 157.509L901.423 164.009L909.923 173.509L917.923 195.009V208.009L915.232 219.009L908.923 229.509L901.423 238.009V248.509M875.923 154.759L879.799 169.009M901.423 248.509L902.923 250.509M901.423 248.509L895.575 227.009M877.423 278.009L856.423 281.009H818.923L786.923 273.009M877.423 278.009V297.009L870.423 302.009H838.423L808.923 289.009L786.923 273.009M877.423 278.009L890.423 275.842M786.923 273.009L791.923 262.509L775.923 279.009L786.923 273.009ZM654.662 399.009L623.575 431.509M654.662 399.009L686.923 395.989M623.575 431.509L615.923 439.509L582.423 456.009L563.923 461.509L547.423 462.509L543.923 457.009L560.423 437.509L572.923 409.009L618.423 388.009L581.423 399.009L509.423 391.009L451.923 380.509L422.423 370.353M623.575 431.509L626.423 439.509L619.423 460.009L623.575 464.509L643.423 456.009L660.923 443.009L671.423 431.509L680.923 419.509L686.923 395.989M686.923 395.989L713.423 393.509L763.923 385.009L800.423 374.009L815.673 367.259M470.923 97.7658L500.923 86.0091L593.923 64.0091L653.923 58.5091H724.423M470.923 97.7658L472.423 89.5091L496.923 76.5091L519.423 58.5091L546.423 31.5091L563.923 2.50908L578.423 1.00908L612.423 7.00908L673.423 29.0091L724.423 58.5091M422.423 370.353L360.423 349.009L275.423 314.056M422.423 370.353L387.423 382.009H357.423L307.423 368.509L281.923 355.009L249.423 333.009L249.923 328.509L264.104 322.641M275.423 314.056L264.423 322.509L264.104 322.641M275.423 314.056L264.104 322.641M642.423 177.009L626.423 215.509L620.423 264.009L629.923 295.509L652.423 327.009L688.923 350.009L716.923 361.009L755.423 368.509L815.673 367.259M815.673 367.259L830.923 360.509L862.923 336.009L873.423 322.009L883.923 317.009L894.923 305.009V293.509L890.423 287.009V275.842M902.923 250.509L906.423 253.509L909.923 261.509L904.423 273.509L890.423 275.842M902.923 250.509H890.423L880.423 252.509L847.423 262.509L833.423 265.509L807.423 267.009M850.923 120.009L853.423 146.509L849.423 156.509L842.423 159.009H828.923L814.423 151.509L801.423 146.509L769.923 125.509L743.923 115.009L717.923 109.009L681.423 103.509L641.923 102.509L607.423 104.509L572.423 109.509L533.923 117.509L497.423 127.509L440.423 147.009L385.423 170.509L344.423 191.509L303.923 208.509L276.923 217.509L250.923 222.509L231.423 226.009H192.423L177.499 221.939M850.923 120.009L837.423 109.009L805.923 86.0091L779.423 75.0091L736.423 62.5091L717.923 59.5091L652.923 60.5091L597.423 65.5091L540.423 79.0091L498.923 89.5091L466.423 101.509L404.923 128.009L326.423 175.509L288.423 195.509L261.423 201.509L234.923 205.509L206.923 201.509L189.423 211.009L177.499 221.939M850.923 120.009V118.509M175.923 221.509L175.98 221.525M177.423 222.009L177.499 221.939M67.9227 188.009L90.9227 194.009L113.923 203.509L137.923 215.009L162.423 231.009M19.4227 147.509L43.9227 149.509L69.4227 155.009L94.0794 163.228C96.6374 164.081 99.1223 165.139 101.51 166.392L134.116 183.511C136.649 184.84 139.063 186.385 141.332 188.128L172.423 212.009M259.423 333.009L269.218 331.05C272.678 330.358 276.055 329.302 279.293 327.899L289.423 323.509M275.923 348.009L287.573 345.918C292.773 344.985 297.793 343.233 302.445 340.728L314.923 334.009M303.923 361.009L318.296 356.47C321.373 355.498 324.349 354.231 327.182 352.686L339.423 346.009M333.423 372.509L349.923 365.509L365.923 356.509M366.923 379.009L380.423 373.009L392.923 365.509M97.9227 262.509L151.923 258.509M85.4227 230.009L102.923 231.009L119.923 234.009L153.423 243.509M477.923 291.009L528.423 294.509L563.923 298.509M498.923 316.009L522.923 315.009C524.561 314.824 526.875 314.827 529.176 314.753C533.363 314.617 537.538 313.881 541.719 313.627L569.923 311.918M514.923 333.509L540.96 330.569C544.26 330.197 547.515 329.496 550.677 328.478L575.423 320.509M472.923 258.009L522.923 268.009L568.923 284.009M478.923 230.009L527.001 245.119C529.942 246.044 532.792 247.239 535.514 248.688L577.423 271.009M593.923 443.509L615.589 427.043C617.808 425.357 619.881 423.488 621.789 421.456L641.923 400.009M574.923 421.694L594.867 413.469C597.429 412.412 599.898 411.145 602.25 409.679L621.923 397.417M561.923 447.009L594.464 428.42C596.725 427.129 598.881 425.663 600.913 424.036L630.923 400.009M636.923 437.509L650.923 424.009L664.423 408.509M670.423 413.009L663.874 424.142C661.584 428.035 658.776 431.601 655.529 434.74L645.423 444.509M725.029 229.977L727.923 229.109L728.923 227.309V224.609L727.923 222.359L724.923 221.009H723.923L721.923 221.909L719.923 224.609V227.309L722.923 230.009L725.029 229.977ZM725.029 229.977L724.923 230.009M520.423 65.5089L522.636 65.9516C527.795 66.9834 532.758 68.8227 537.344 71.4019L538.423 72.0089M581.923 60.5091L560.423 51.0091L540.923 45.5091M628.923 55.5091L590.923 37.5091L556.423 26.0091M674.923 55.0091L633.923 32.0091L601.423 18.5091L583.923 13.0091L567.423 8.50908M391.423 129.509L372.423 126.009L356.423 123.009M362.423 145.009L336.923 141.509L319.923 140.509M332.423 164.509L306.923 163.509H286.923M88.9227 298.009L122.923 289.009L155.423 274.009M165.423 292.509L139.423 309.009L119.423 320.009L94.4227 331.009L70.4227 337.509M176.923 303.509L161.923 319.009L145.423 331.009L125.923 345.509L106.423 355.509L87.4227 364.009L66.9227 371.009L46.9227 375.009L27.9227 378.009M177.499 221.939L175.98 221.525M879.799 169.009L880.923 168.509H884.423L887.923 169.009L892.923 171.009L896.923 173.509L900.423 177.009L903.423 181.509L905.923 186.009L907.423 190.009L908.423 194.509L908.923 199.509V204.509L907.423 212.009L904.923 218.509L900.923 223.009L896.423 226.009L895.575 227.009M879.799 169.009L895.575 227.009M693.923 185.009L689.923 196.009V207.509L690.423 218.509L692.923 227.009L697.923 236.009L704.923 244.509L694.923 251.009L712.923 244.509H729.923L748.923 249.509L761.923 262.509L757.923 255.509L779.423 239.509L788.923 219.009V206.009L787.423 193.509L782.923 183.009L775.423 172.509L769.923 168.009L763.423 163.509L751.923 157.509L735.423 156.509L717.923 160.509L704.923 171.009L697.923 178.009L693.923 185.009ZM603.923 271.009L525.423 228.009L492.423 219.509L470.923 221.009L464.423 232.509L466.923 256.509V275.509L470.923 290.509L482.923 307.509L494.923 322.009L507.423 341.009L520.423 346.009L547.423 344.509L596.423 324.009L585.423 322.009L575.423 309.509L571.423 295.509L575.423 282.509L589.423 271.509L603.923 271.009ZM894.423 210.009H895.923L896.923 211.009V215.009L894.923 216.009H893.923L892.423 211.509L894.423 210.009ZM755.423 179.009L759.423 183.009L761.423 187.509V191.509L758.423 196.509L754.423 198.509H749.423L744.923 195.509L742.923 192.509L741.923 190.009L742.423 185.509L744.423 182.009L746.923 180.009L748.423 179.009H755.423ZM898.23 176.009L900.692 178.881L901.923 182.112V184.983L900.077 188.573L897.615 190.009H894.538L891.769 187.855L890.538 185.701L889.923 183.907L890.23 180.676L891.461 178.163L893 176.727L893.923 176.009H898.23ZM705.923 221.009L704.423 217.009L703.423 212.509V203.009L704.423 200.009L706.423 193.509L709.923 187.009L714.423 182.009L719.423 177.509L725.923 174.009L732.423 172.009L738.923 171.509L746.423 172.009L756.423 176.009L765.423 184.509L767.923 189.009L770.923 193.509L773.423 203.509V211.509L771.923 219.509L769.423 226.509L765.923 231.509L760.923 235.509L754.923 239.009L747.923 242.009L740.923 243.009L727.923 241.509L717.423 236.509L710.423 229.509L705.923 221.009Z" stroke="black" stroke-width="2"/>
<defs>
<linearGradient id="paint0_linear_84_98" x1="457.099" y1="464.509" x2="462.246" y2="1.00909" gradientUnits="userSpaceOnUse">
<stop stop-color="#F9F29E"/>
<stop offset="1" stop-color="#FBDC50"/>
</linearGradient>
<linearGradient id="paint1_linear_84_98" x1="459.673" y1="1.00908" x2="459.673" y2="464.509" gradientUnits="userSpaceOnUse">
<stop stop-color="#62AFC8"/>
<stop offset="1" stop-color="#9F6DC2"/>
</linearGradient>
<linearGradient id="paint2_linear_84_98" x1="459.673" y1="1.00908" x2="459.673" y2="464.509" gradientUnits="userSpaceOnUse">
<stop stop-color="#62AFC8"/>
<stop offset="1" stop-color="#9F6DC2"/>
</linearGradient>
<linearGradient id="paint3_linear_84_98" x1="459.673" y1="1.00908" x2="459.673" y2="464.509" gradientUnits="userSpaceOnUse">
<stop stop-color="#62AFC8"/>
<stop offset="1" stop-color="#9F6DC2"/>
</linearGradient>
<linearGradient id="paint4_linear_84_98" x1="459.673" y1="1.00908" x2="459.673" y2="464.509" gradientUnits="userSpaceOnUse">
<stop stop-color="#62AFC8"/>
<stop offset="1" stop-color="#9F6DC2"/>
</linearGradient>
<linearGradient id="paint5_linear_84_98" x1="459.673" y1="1.00908" x2="459.673" y2="464.509" gradientUnits="userSpaceOnUse">
<stop stop-color="#62AFC8"/>
<stop offset="1" stop-color="#9F6DC2"/>
</linearGradient>
<linearGradient id="paint6_linear_84_98" x1="457.099" y1="464.509" x2="462.246" y2="1.00909" gradientUnits="userSpaceOnUse">
<stop stop-color="#62AFC8"/>
<stop offset="1" stop-color="#3759A0"/>
</linearGradient>
<linearGradient id="paint7_linear_84_98" x1="459.673" y1="1.00908" x2="459.673" y2="464.509" gradientUnits="userSpaceOnUse">
<stop stop-color="#62AFC8"/>
<stop offset="1" stop-color="#305662"/>
</linearGradient>
</defs>
</svg>
