<svg width="738" height="391" viewBox="0 0 738 391" fill="none" xmlns="http://www.w3.org/2000/svg">
<g clip-path="url(#clip0_2007_228)">
<path d="M685.339 122.929L683.331 100.694L672.49 91.4648L647.194 72.1666L625.913 62.937L591.382 52.4488L576.526 49.9316L524.328 50.7707L479.759 54.966L433.985 66.2932L400.659 75.1033L374.56 85.1719L325.172 107.407L262.133 147.262L231.617 164.043L209.935 169.077L188.654 172.434L166.169 169.077L152.116 177.049L142.54 186.219L154.525 189.634H185.844L201.503 186.698L222.382 182.502L244.064 174.951L276.588 160.687L309.513 143.067L353.68 123.349L399.454 106.987L428.765 98.5968L459.682 91.8844L487.789 87.6891L515.494 86.011L547.215 86.85L576.526 91.4648L597.405 96.4992L618.284 105.309L643.58 122.929L654.02 127.125L665.664 133.418H676.505L682.126 131.32L685.339 122.929Z" fill="url(#paint0_linear_2007_228)"/>
<path d="M484.978 227.392L421.939 191.313L395.439 184.181L378.173 185.439L372.953 195.088L374.961 215.226V231.168L378.173 243.754L387.81 258.018L397.446 270.184L407.484 286.126L417.924 290.321L439.606 289.063L478.956 271.862L470.122 270.184L462.092 259.696L458.879 247.949L462.092 237.041L473.334 227.812L484.978 227.392Z" fill="url(#paint1_linear_2007_228)"/>
<path d="M142.479 276.477L169.381 259.696L154.525 254.661L144.888 243.754L136.456 229.909L134.449 214.806L135.252 200.962L140.471 186.698L141.32 185.872L152.116 175.371L166.169 167.4L100.319 130.062L57.7574 114.539L19.6126 112.441L3.55172 117.056L1.14258 120.832L36.4766 142.228L62.5756 180.824L75.8259 220.26L70.2046 243.754L51.7345 283.609L24.4309 310.878L14.7944 320.108L20.0142 324.723H51.7345L68.197 320.108L88.6749 310.878L109.554 299.551L142.479 276.477Z" fill="url(#paint2_linear_2007_228)"/>
<path d="M339.225 310.747L289.437 292.838L221.178 263.511L212.344 270.603L212.088 270.714L200.7 275.638L200.298 279.413L226.397 297.873L246.875 309.2L287.027 320.527H311.119L339.225 310.747Z" fill="url(#paint3_linear_2007_228)"/>
<path d="M212.746 149.779L243.663 155.233L342.839 96.499H299.876L288.634 98.1771L264.542 107.826L225.996 134.676L212.746 149.779Z" fill="url(#paint4_linear_2007_228)"/>
<path d="M402.264 72.1664L476.948 53.7072L525.131 49.0924H581.745L540.79 24.3403L491.804 5.88101L464.501 0.84668L452.856 2.10526L438.803 26.4379L417.121 49.0924L399.052 64.1954L379.378 75.1031L378.173 82.031L402.264 72.1664Z" fill="url(#paint5_linear_2007_228)"/>
<path fill-rule="evenodd" clip-rule="evenodd" d="M566.889 185.439L565.685 182.082L564.882 178.307V170.336L565.685 167.818L567.291 162.365L570.101 156.911L573.715 152.715L577.73 148.94L582.95 146.003L588.17 144.325L593.39 143.905L599.413 144.325L607.443 147.681L614.67 154.813L616.678 158.589L619.087 162.365L621.095 170.755V177.468L619.89 184.18L617.883 190.053L615.072 194.249L611.057 197.605L606.238 200.542L600.617 203.059L594.996 203.898L584.556 202.639L576.124 198.444L570.503 192.571L566.889 185.439ZM609.852 153.554L606.64 150.198H601.019L599.814 151.037L597.807 152.715L596.2 155.652L595.799 159.428L596.602 161.525L598.208 164.043L601.822 166.56H605.837L609.049 164.882L611.458 160.686V157.33L609.852 153.554ZM585.359 190.725V188.459L584.556 186.571L582.147 185.439H581.344L579.738 186.194L578.132 188.459V190.725L580.541 192.99L582.232 192.963L584.556 192.235L585.359 190.725Z" fill="#090909"/>
<path d="M606.64 150.198L609.852 153.554L611.458 157.33V160.686L609.049 164.882L605.837 166.56H601.822L598.208 164.043L596.602 161.525L595.799 159.428L596.2 155.652L597.806 152.715L599.814 151.037L601.019 150.198H606.64Z" fill="#EAEAEA"/>
<path d="M585.359 188.459V190.725L584.556 192.235L582.232 192.963L580.541 192.99L578.132 190.725V188.459L579.738 186.194L581.344 185.438H582.147L584.556 186.571L585.359 188.459Z" fill="#ECECEC"/>
<path fill-rule="evenodd" clip-rule="evenodd" d="M633.542 183.761C632.426 191.024 630.33 195.088 625.913 200.961C620.78 207.787 608.648 214.386 608.648 214.386L611.86 220.26C611.86 220.26 606.465 212.405 601.42 209.352C596.134 206.152 592.295 205.922 586.162 205.157C580.872 204.496 577.766 204.259 572.511 205.157C566.563 206.172 558.056 210.61 558.056 210.61L566.086 205.157C566.086 205.157 562.395 201 560.465 198.025C558.647 195.222 557.669 193.582 556.45 190.473C555.393 187.779 554.936 186.192 554.442 183.341C553.826 179.786 554.121 177.718 554.041 174.111C553.957 170.344 553.416 168.178 554.041 164.462C554.673 160.699 555.651 158.697 557.253 155.233C558.35 152.86 558.948 151.488 560.465 149.359C562.308 146.774 563.802 145.691 566.086 143.486C569.925 139.781 576.526 134.676 576.526 134.676C576.526 134.676 584.954 131.766 590.579 131.32C595.748 130.909 598.887 130.593 603.829 132.159C607.745 133.399 609.624 134.949 613.065 137.193C615.172 138.567 616.311 139.409 618.284 140.969C620.065 142.376 621.12 143.116 622.701 144.744C625.604 147.735 626.768 149.874 628.724 153.555C630.469 156.838 631.385 158.77 632.338 162.365C633.393 166.35 633.303 168.737 633.542 172.853C633.79 177.105 634.189 179.55 633.542 183.761ZM565.685 182.082L566.889 185.439L570.503 192.571L576.124 198.444L584.556 202.639L594.996 203.898L600.617 203.059L606.239 200.542L611.057 197.605L615.072 194.249L617.883 190.053L619.89 184.18L621.095 177.468V170.755L619.087 162.365L616.678 158.589L614.671 154.813L607.443 147.681L599.413 144.325L593.39 143.905L588.17 144.325L582.95 146.003L577.73 148.94L573.715 152.716L570.102 156.911L567.291 162.365L565.685 167.819L564.882 170.336V178.307L565.685 182.082Z" fill="#F1F1F1"/>
<path d="M721.321 147.682L723.298 150.091L724.286 152.802V155.211L722.804 158.224L720.827 159.428H718.356L716.132 157.621L715.144 155.814L714.65 154.308L714.896 151.598L715.885 149.489L717.121 148.284L717.862 147.682H721.321Z" fill="#FEFEFB"/>
<path d="M718.264 176.209H719.468L720.271 177.048V180.404L718.665 181.243H717.862L716.657 177.468L718.264 176.209Z" fill="white"/>
<path fill-rule="evenodd" clip-rule="evenodd" d="M729.506 163.204L728.703 159.428L727.499 156.072L725.491 152.296L723.082 148.521L720.271 145.584L717.059 143.486L713.044 141.808L710.233 141.389H707.422L706.52 141.808L719.189 190.473L719.87 189.634L723.483 187.117L726.695 183.341L728.703 177.888L729.908 171.595V167.399L729.506 163.204ZM719.468 176.209H718.264L716.657 177.468L717.862 181.244H718.665L720.271 180.405V177.049L719.468 176.209ZM723.298 150.091L721.321 147.682H717.862L717.121 148.284L715.885 149.489L714.896 151.597L714.65 154.308L715.144 155.814L716.132 157.621L718.356 159.428H720.827L722.804 158.223L724.286 155.211V152.802L723.298 150.091Z" fill="#121212"/>
<path d="M704.612 233.265L687.748 235.782H657.634L631.936 229.069L649.603 242.494L673.293 253.402H698.99L704.612 249.207V233.265Z" fill="#131313"/>
<path fill-rule="evenodd" clip-rule="evenodd" d="M436.796 383.456L439.606 388.071L452.856 387.232L467.713 382.617L494.615 368.773L500.76 362.061L525.724 334.791L551.631 332.257L572.912 330.176L613.466 323.044L642.777 313.815L655.024 308.151L667.27 302.488L692.967 281.931L701.399 270.184L709.831 265.989L718.665 255.92V246.271L715.051 240.817V231.447L704.612 233.265V249.208L698.99 253.403H673.293L649.603 242.495L631.936 229.07L623.102 234.105L635.951 220.26L631.936 229.07L657.633 235.783H687.748L704.612 233.265L715.051 231.447L726.294 229.49L730.711 219.421L727.9 212.709L725.089 210.191L723.885 208.513L719.189 190.474L706.52 141.808L703.407 129.852L688.551 103.841L674.497 89.7869L658.838 77.6207L641.171 67.552L622.701 58.7419L586.564 49.0928H581.745H525.131L476.948 53.7076L402.265 72.1668L378.173 82.0313L342.839 96.4993L243.663 155.233L230.814 162.785L187.048 171.595L166.169 167.4L152.116 175.371L141.32 185.872L142.54 186.22L152.116 177.049L166.169 169.078L188.654 172.434L209.935 169.078L231.617 164.043L262.133 147.262L325.172 107.407L374.559 85.1721L400.658 75.1035L433.985 66.2934L479.759 54.9662L524.328 50.7709L576.526 49.9318L591.382 52.449L625.913 62.9372L647.194 72.1668L672.49 91.465L683.331 100.695L685.339 122.93L682.126 131.32L676.505 133.418H665.664L654.02 127.125L643.58 122.93L618.284 105.309L597.405 96.4993L576.526 91.465L547.215 86.8502L515.494 86.0111L487.789 87.6893L459.682 91.8845L428.765 98.597L399.454 106.988L353.68 123.349L309.513 143.067L276.588 160.687L244.064 174.951L222.382 182.503L201.503 186.698L185.843 189.635H154.525L142.54 186.22L141.32 185.872L140.471 186.698L135.252 200.962L134.448 214.806L136.456 229.909L144.888 243.754L154.525 254.661L169.381 259.696L178.215 255.92H203.511L221.178 263.511L289.437 292.838L339.225 310.747L362.915 319.269L409.09 328.079L466.91 334.791L496.623 325.562L460.084 343.182L450.046 367.095L436.796 383.456ZM625.913 200.962L633.542 183.761V172.853L632.337 162.365L628.724 153.555L622.701 144.745L618.284 140.969L613.064 137.194L603.829 132.159L590.579 131.32L576.526 134.676L566.086 143.486L560.465 149.36L557.253 155.233L554.04 164.463V174.112L554.442 183.342L556.45 190.474L560.465 198.025L566.086 205.157L558.056 210.611L572.51 205.157H586.162L601.42 209.352L611.86 220.26L608.648 214.387L625.913 200.962ZM421.939 191.313L484.978 227.392L473.334 227.812L462.092 237.041L458.879 247.949L462.092 259.696L470.122 270.184L478.956 271.862L439.606 289.063L417.924 290.321L407.484 286.126L397.446 270.184L387.81 258.018L378.173 243.754L374.961 231.168V215.226L372.953 195.088L378.173 185.439L395.439 184.181L421.939 191.313Z" fill="url(#paint6_linear_2007_228)"/>
<path d="M525.724 334.791L500.76 362.06L503.047 368.773L497.426 385.973L500.76 389.749L516.699 382.617L530.752 371.709L539.184 362.06L546.813 351.991L551.631 332.257L525.724 334.791Z" fill="url(#paint7_linear_2007_228)"/>
<path d="M737.135 163.624L730.711 145.584L723.885 137.613L716.657 132.159L710.233 129.852H703.407L706.52 141.808L707.422 141.389H710.233L713.044 141.808L717.059 143.486L720.271 145.584L723.082 148.521L725.491 152.296L727.499 156.072L728.703 159.428L729.506 163.204L729.908 167.399V171.595L728.703 177.888L726.696 183.341L723.483 187.117L719.87 189.634L719.189 190.473L723.885 208.513V199.703L729.908 192.571L734.974 183.761L737.135 174.531V163.624Z" fill="white"/>
<path d="M715.051 231.167V234.104M529.949 330.176L525.724 334.791M525.724 334.791L500.76 362.06M525.724 334.791L551.631 332.257M169.381 259.695L178.215 255.92H203.511L221.178 263.511M169.381 259.695L142.479 276.476L109.554 299.55L88.6749 310.878L68.197 320.107L51.7345 324.722H20.0142L14.7944 320.107L24.4309 310.878L51.7345 283.608L70.2046 243.753L75.8259 220.26L62.5756 180.824C62.5756 180.824 49.8253 154.593 36.4766 142.228C24.6423 131.265 1.14258 120.832 1.14258 120.832L3.55172 117.056L19.6126 112.441L57.7574 114.539L100.319 130.061L166.169 167.399M169.381 259.695L154.525 254.661L144.888 243.753L136.456 229.909L134.449 214.806L135.252 200.961L140.471 186.697L141.32 185.872M221.178 263.511L289.437 292.838L339.226 310.747M221.178 263.511L212.344 270.603L212.088 270.714M221.178 263.511L212.088 270.714M166.169 167.399L187.048 171.594L230.814 162.784L243.663 155.233M166.169 167.399L152.116 175.37L141.32 185.872M141.32 185.872L141.274 185.858M141.32 185.872L142.54 186.219M243.663 155.233L212.746 149.779L225.996 134.676L264.542 107.826L288.634 98.1771L299.876 96.499H342.839M243.663 155.233L342.839 96.499M342.839 96.499L378.173 82.031M378.173 82.031L402.265 72.1664L476.948 53.7072L525.131 49.0924H581.746M378.173 82.031L379.378 75.1031L399.052 64.1954L417.121 49.0924L438.803 26.4379L452.857 2.10526L464.501 0.84668L491.804 5.88101L540.79 24.3403L581.746 49.0924M703.407 129.851L688.551 103.841L674.498 89.7865L658.838 77.6203L641.171 67.5516L622.701 58.7416L586.564 49.0924H581.746M703.407 129.851H710.233L716.658 132.159L723.885 137.613L730.711 145.584L737.135 163.623V174.531L734.974 183.761L729.908 192.571L723.885 199.703V208.513M703.407 129.851L706.52 141.808M723.885 208.513L725.09 210.191M723.885 208.513L719.189 190.473M706.52 141.808L707.422 141.388H710.233L713.044 141.808L717.059 143.486L720.271 145.584L723.082 148.52L725.491 152.296L727.499 156.072L728.703 159.428L729.506 163.204L729.908 167.399V171.594L728.703 177.887L726.696 183.341L723.483 187.117L719.87 189.634L719.189 190.473M706.52 141.808L719.189 190.473M725.09 210.191L727.9 212.708L730.711 219.421L726.294 229.489L715.051 231.447M725.09 210.191H715.051L707.021 211.869L680.52 220.26L669.278 222.777L648.399 224.035M704.612 233.265L687.748 235.782C687.748 235.782 669.286 237.374 657.634 235.782C647.357 234.378 631.936 229.07 631.936 229.07M704.612 233.265V249.207L698.99 253.402C698.99 253.402 683.099 255.535 673.293 253.402C663.341 251.238 649.603 242.495 649.603 242.495L631.936 229.07M704.612 233.265L715.051 231.447M631.936 229.07L635.951 220.26L623.103 234.104L631.936 229.07ZM715.051 231.447V240.817L718.665 246.27V255.92L709.832 265.988L701.4 270.184L692.968 281.93L667.27 302.487L655.024 308.151M500.76 362.06L494.615 368.773L467.713 382.617L452.857 387.232L439.606 388.071L436.796 383.456L450.046 367.094L460.084 343.181L496.623 325.561L466.91 334.791L409.091 328.078L362.915 319.268L339.226 310.747M500.76 362.06L503.047 368.773L497.426 385.973L500.76 389.749L516.699 382.617L530.752 371.709L539.184 362.06L546.813 351.991L551.631 332.257M551.631 332.257L572.912 330.176L613.466 323.044L642.777 313.814L655.024 308.151M339.226 310.747L311.119 320.527H287.027L246.875 309.2L226.397 297.872L200.298 279.413L200.7 275.637L212.088 270.714M655.024 308.151C655.024 308.151 625.419 311.332 606.64 309.2C594.397 307.809 587.467 306.635 575.723 302.907C566.676 300.034 561.707 297.962 553.237 293.677C541.008 287.491 533.614 284.073 523.926 274.379C515.088 265.535 511.049 259.323 505.858 247.949C501.397 238.175 499.529 232.182 498.229 221.518C496.292 205.633 498.949 196.294 503.047 180.824C506.524 167.7 515.896 148.52 515.896 148.52M683.331 100.694L685.339 122.929L682.127 131.32L676.505 133.417H665.664L654.02 127.125L643.58 122.929L618.284 105.309L597.405 96.499L576.526 91.4646L547.215 86.8498L515.494 86.0108L487.789 87.6889L459.683 91.8842L428.765 98.5966L399.454 106.987L353.68 123.349L309.513 143.067L276.588 160.687L244.064 174.951L222.382 182.502L201.503 186.697L185.844 189.634H154.525L142.54 186.219M683.331 100.694L672.49 91.4646L647.194 72.1664L625.913 62.9368L591.382 52.4486L576.526 49.9315L524.328 50.7705L479.759 54.9658L433.985 66.2931L400.659 75.1031L374.56 85.1717L325.172 107.407L262.133 147.262L231.617 164.043L209.935 169.077L188.654 172.434L166.169 169.077L152.116 177.048L142.54 186.219M683.331 100.694V99.4357M142.54 186.219L142.479 186.278M54.5452 157.75L73.0152 162.784L91.4856 170.755L110.759 180.405L130.433 193.829M15.5974 123.768L35.272 125.446L55.7497 130.061L75.5502 136.957C77.6044 137.673 79.5999 138.561 81.5174 139.612L107.701 153.976C109.736 155.091 111.674 156.387 113.496 157.85L138.464 177.887M208.329 279.413L216.195 277.769C218.973 277.189 221.685 276.303 224.285 275.126L232.42 271.442M221.579 291.999L230.935 290.245C235.11 289.462 239.142 287.992 242.878 285.89L252.898 280.252M244.064 302.907L255.607 299.098C258.078 298.283 260.468 297.22 262.743 295.923L272.573 290.321M267.754 312.556L281.005 306.682L293.853 299.131M294.656 318.01L305.498 312.975L315.536 306.682M78.6366 220.26L122.001 216.903M68.5985 192.99L82.652 193.829L96.3038 196.347L123.206 204.318M383.795 244.173L424.348 247.109L452.857 250.466M400.659 265.149L419.932 264.31C421.247 264.155 423.105 264.157 424.953 264.095C428.316 263.981 431.668 263.364 435.026 263.151L457.675 261.717M413.507 279.833L434.416 277.366C437.066 277.054 439.68 276.466 442.219 275.611L462.092 268.925M379.779 216.484L419.932 224.875L456.872 238.299M384.598 192.99L423.207 205.669C425.568 206.445 427.857 207.447 430.043 208.663L463.698 227.392M476.948 372.129L494.347 358.313C496.129 356.898 497.794 355.33 499.326 353.625L515.494 335.63M461.69 353.825L477.706 346.924C479.764 346.037 481.746 344.974 483.635 343.744L499.433 333.455M451.251 375.066L477.382 359.468C479.198 358.385 480.93 357.155 482.561 355.79L506.661 335.63M511.479 367.094L522.722 355.767L533.563 342.762M538.381 346.538L533.122 355.879C531.283 359.145 529.028 362.137 526.421 364.771L518.305 372.968M582.232 192.964L584.556 192.235L585.359 190.725V188.459L584.556 186.572L582.147 185.439H581.344L579.738 186.194L578.132 188.459V190.725L580.541 192.99L582.232 192.964ZM582.232 192.964L582.147 192.99M417.924 54.9656L419.701 55.3371C423.844 56.2028 427.83 57.7461 431.512 59.9102L432.379 60.4195M467.311 50.7705L450.046 42.7995L434.387 38.1847M505.055 46.5752L474.539 31.4722L446.834 21.8231M541.995 46.1557L509.07 26.8574L482.971 15.5302L468.918 10.9154L455.667 7.1396M314.331 108.665L299.073 105.729L286.224 103.211M291.043 121.671L270.565 118.734L256.913 117.895M266.951 138.032L246.474 137.193H230.413M71.4092 250.046L98.713 242.495L124.812 229.909M132.842 245.431L111.963 259.276L95.9023 268.505L75.8259 277.735L56.5528 283.189M142.078 254.661L130.032 267.666L116.782 277.735L101.122 289.901L85.4627 298.292L70.2046 305.424L53.7421 311.297L37.6812 314.653L22.4233 317.171M557.253 155.233L554.041 164.463V174.112L554.442 183.341L556.45 190.473L560.465 198.025L566.086 205.157L558.056 210.611L572.511 205.157H586.162L601.42 209.352L611.86 220.26L608.648 214.386L625.913 200.961L633.542 183.761V172.853L632.338 162.365L628.724 153.555L622.701 144.745L618.284 140.969L613.064 137.193L603.829 132.159L590.579 131.32L576.526 134.676L566.086 143.486L560.465 149.359L557.253 155.233ZM484.978 227.392C484.978 227.392 448.746 200.587 421.939 191.312C411.811 187.808 395.439 184.18 395.439 184.18C395.439 184.18 383.361 181.104 378.173 185.439C374.886 188.186 374.175 190.982 372.953 195.088C370.7 202.663 374.615 207.33 374.961 215.225C375.234 221.445 374.961 231.167 374.961 231.167L378.173 243.753C378.173 243.753 383.828 252.601 387.81 258.017C391.4 262.9 397.446 270.184 397.446 270.184C397.446 270.184 401.471 281.887 407.485 286.126C411.076 288.657 413.649 289.307 417.924 290.321C426.177 292.279 431.256 290.55 439.606 289.062C456.117 286.12 478.956 271.862 478.956 271.862L470.122 270.184L462.092 259.695L458.879 247.949L462.092 237.041L473.334 227.811L484.978 227.392ZM718.264 176.209H719.468L720.271 177.048V180.405L718.665 181.244H717.862L716.658 177.468L718.264 176.209ZM606.64 150.199L609.852 153.555L611.458 157.331V160.687L609.049 164.882L605.837 166.56H601.822L598.208 164.043L596.602 161.526L595.799 159.428L596.2 155.652L597.807 152.716L599.814 151.038L601.019 150.199H606.64ZM721.321 147.681L723.298 150.091L724.286 152.802V155.211L722.804 158.223L720.827 159.428H718.356L716.132 157.621L715.144 155.814L714.65 154.308L714.896 151.597L715.885 149.489L717.121 148.284L717.862 147.681H721.321ZM566.889 185.439L565.685 182.083L564.882 178.307V170.336L565.685 167.819L567.291 162.365L570.101 156.911L573.715 152.716L577.73 148.94L582.95 146.003L588.17 144.325L593.39 143.906L599.413 144.325L607.443 147.681L614.671 154.813L616.678 158.589L619.087 162.365L621.095 170.755V177.468L619.89 184.18L617.883 190.054L615.072 194.249L611.057 197.605L606.239 200.542L600.617 203.059L594.996 203.898L584.556 202.64L576.124 198.444L570.503 192.571L566.889 185.439Z" stroke="black"/>
</g>
<defs>
<linearGradient id="paint0_linear_2007_228" x1="367.072" y1="389.749" x2="371.584" y2="0.851259" gradientUnits="userSpaceOnUse">
<stop stop-color="#F9F29E"/>
<stop offset="1" stop-color="#FBDC50"/>
</linearGradient>
<linearGradient id="paint1_linear_2007_228" x1="369.139" y1="0.847036" x2="369.139" y2="389.749" gradientUnits="userSpaceOnUse">
<stop stop-color="#62AFC8"/>
<stop offset="1" stop-color="#9F6DC2"/>
</linearGradient>
<linearGradient id="paint2_linear_2007_228" x1="369.139" y1="0.847054" x2="369.139" y2="389.749" gradientUnits="userSpaceOnUse">
<stop stop-color="#62AFC8"/>
<stop offset="1" stop-color="#9F6DC2"/>
</linearGradient>
<linearGradient id="paint3_linear_2007_228" x1="369.139" y1="0.846905" x2="369.139" y2="389.749" gradientUnits="userSpaceOnUse">
<stop stop-color="#62AFC8"/>
<stop offset="1" stop-color="#9F6DC2"/>
</linearGradient>
<linearGradient id="paint4_linear_2007_228" x1="369.139" y1="0.846723" x2="369.139" y2="389.749" gradientUnits="userSpaceOnUse">
<stop stop-color="#62AFC8"/>
<stop offset="1" stop-color="#9F6DC2"/>
</linearGradient>
<linearGradient id="paint5_linear_2007_228" x1="369.139" y1="0.84668" x2="369.139" y2="389.749" gradientUnits="userSpaceOnUse">
<stop stop-color="#62AFC8"/>
<stop offset="1" stop-color="#9F6DC2"/>
</linearGradient>
<linearGradient id="paint6_linear_2007_228" x1="367.072" y1="389.749" x2="371.584" y2="0.851461" gradientUnits="userSpaceOnUse">
<stop stop-color="#62AFC8"/>
<stop offset="1" stop-color="#3759A0"/>
</linearGradient>
<linearGradient id="paint7_linear_2007_228" x1="369.139" y1="0.846679" x2="369.139" y2="389.749" gradientUnits="userSpaceOnUse">
<stop stop-color="#62AFC8"/>
<stop offset="1" stop-color="#305662"/>
</linearGradient>
<clipPath id="clip0_2007_228">
<rect width="738" height="391" fill="white"/>
</clipPath>
</defs>
</svg>
