<svg width="252" height="179" viewBox="0 0 252 179" fill="none" xmlns="http://www.w3.org/2000/svg">
<path fill-rule="evenodd" clip-rule="evenodd" d="M156.419 102.068C155.141 101.948 152.293 100.442 148.563 98.4689C140.542 94.2262 128.437 87.8235 119.061 88.3977C117.48 88.2044 113.979 90.0921 112.628 99.1887C110.939 110.56 115.872 118.163 120.598 118.599C122.47 121.105 127.018 126.193 130.239 126.493C133.461 126.794 131.922 126.576 130.751 126.429C136.957 125.039 147.598 122.141 155.052 118.768C154.352 118.24 152.426 116.869 150.33 115.605C147.709 114.025 148.108 110.304 149.17 106.354C150.02 103.193 154.357 102.179 156.419 102.068ZM149.775 102.901C141.21 98.5314 123.035 90.2826 118.851 92.2416C113.621 94.6904 147.804 103.735 149.775 102.901ZM147.249 104.832C137.643 101.926 117.834 96.5391 115.451 98.2474C113.069 99.9557 135.657 103.349 147.249 104.832ZM145.002 107.61C135.549 106.74 116.513 105.338 115.991 106.696C115.469 108.053 135.114 107.871 145.002 107.61ZM143.643 110.571C142.961 110.656 116.06 111.386 117.282 112.848C118.259 114.017 135.263 111.817 143.643 110.571ZM144.078 114.04C137.016 115.219 123.388 117.662 125.368 118.001C127.844 118.424 143.505 114.993 144.078 114.04ZM147.525 116.691C142.206 118.435 131.622 122.062 131.831 122.623C132.092 123.325 149.069 117.966 147.525 116.691Z" fill="#E6A22D"/>
<path d="M149.775 102.901C141.21 98.5314 123.035 90.2826 118.851 92.2416C113.621 94.6904 147.804 103.735 149.775 102.901Z" fill="#DD9B2A"/>
<path d="M147.249 104.832C137.643 101.926 117.834 96.5391 115.451 98.2474C113.069 99.9557 135.657 103.349 147.249 104.832Z" fill="#DD9B2A"/>
<path d="M145.002 107.61C135.549 106.74 116.513 105.338 115.991 106.696C115.469 108.053 135.114 107.871 145.002 107.61Z" fill="#DD9B2A"/>
<path d="M143.643 110.571C142.961 110.656 116.06 111.386 117.282 112.848C118.259 114.017 135.263 111.817 143.643 110.571Z" fill="#DD9B2A"/>
<path d="M147.525 116.691C142.206 118.435 131.622 122.062 131.831 122.623C132.092 123.325 149.069 117.966 147.525 116.691Z" fill="#DD9B2A"/>
<path d="M144.078 114.04C137.016 115.219 123.388 117.662 125.368 118.001C127.844 118.424 143.505 114.993 144.078 114.04Z" fill="#DD9B2A"/>
<path d="M120.065 60.5211C118.433 62.6834 116.307 66.9828 120.862 66.8816C125.418 66.7803 126.242 64.2493 126.085 62.9965L120.065 60.5211Z" fill="#E6A22D"/>
<path d="M143.374 49.0826C141.367 50.5577 138.521 53.7141 143.193 54.538C147.864 55.3619 148.454 52.8016 148.166 51.4184L143.374 49.0826Z" fill="#E6A22D"/>
<path d="M132.29 49.0039C130.457 50.9467 128.018 54.6785 132.925 54.0634C137.831 53.4483 138.074 50.9707 137.582 49.8087L132.29 49.0039Z" fill="#E6A22D"/>
<path d="M143.348 36.4584C140.896 37.5979 137.094 40.1204 141.507 41.0941C145.92 42.0679 148.072 39.6348 148.597 38.2965L143.348 36.4584Z" fill="#E6A22D"/>
<path d="M131.221 40.475C128.547 41.6912 124.795 44.4228 131.174 45.6199C137.553 46.817 138.109 43.429 137.589 41.5854L131.221 40.475Z" fill="#E6A22D"/>
<path d="M121.982 45.4509C119.089 47.6735 114.444 52.1223 119.014 52.1367C123.583 52.1511 124.545 50.7091 124.454 49.9863C125.442 49.1283 127.216 47.1733 126.404 46.218C125.592 45.2626 123.118 45.3085 121.982 45.4509Z" fill="#E6A22D"/>
<path d="M110.757 53.906C108.952 56.5306 106.414 61.4983 110.703 60.3734C114.991 59.2484 116.092 58.2783 116.107 57.9339L116.991 55.3269L110.757 53.906Z" fill="#E6A22D"/>
<path d="M109.648 63.0017C108.422 64.7216 107.108 68.1362 111.663 68.0349C116.219 67.9336 117.043 65.4027 116.886 64.1498L109.648 63.0017Z" fill="#E6A22D"/>
<path d="M100.362 66.2215C98.6913 68.5356 96.5152 73.0762 101.178 72.7266C105.84 72.377 105.928 71.0543 105.389 70.4366C105.688 70.0566 106.033 68.9464 105.027 67.5455C104.021 66.1446 101.498 66.0791 100.362 66.2215Z" fill="#E6A22D"/>
<path d="M102.551 74.0227C101.218 75.805 99.757 79.3359 104.585 79.2004C109.534 79.0616 108.728 77.5706 107.856 75.9577C107.664 75.6039 107.47 75.2442 107.332 74.8916C106.72 73.3238 103.89 73.6591 102.551 74.0227Z" fill="#E6A22D"/>
<path d="M111.678 79.1921C109.537 80.9778 106.67 84.5185 112.33 84.3962C117.99 84.2739 117.997 81.2876 117.292 79.8097L111.678 79.1921Z" fill="#845B28"/>
<path d="M91.8048 71.112C89.873 72.7246 87.3098 76.1098 92.5116 76.7497C97.7135 77.3896 95.9114 73.0443 94.3601 70.7916L91.8048 71.112Z" fill="#845B28"/>
<path d="M111.863 69.625C109.33 71.5087 105.934 75.3312 112.606 75.5519C119.278 75.7726 118.904 73.3429 117.883 72.1005L111.863 69.625Z" fill="#845B28"/>
<path d="M131.609 55.9903C129.054 58.611 125.236 63.9545 130.409 64.3632C135.582 64.7718 137.139 60.5339 137.27 58.3639L131.609 55.9903Z" fill="#845B28"/>
<path d="M89.0141 83.3551C87.6416 85.2891 85.6803 89.0589 88.8148 88.6659C91.9492 88.2729 93.8661 86.1728 94.4327 85.1718L89.0141 83.3551Z" fill="#E6A22D"/>
<path d="M85.4366 76.9026C83.6063 78.4046 81.1598 81.4326 86.0166 81.5284C90.8734 81.6243 90.4396 78.6246 89.6157 77.1128L85.4366 76.9026Z" fill="#E6A22D"/>
<path d="M228.314 84.8314C223.872 89.1471 218.062 89.5428 215.712 89.2012C215.572 89.2693 215.38 89.323 215.272 89.2563C214.633 89.2189 213.944 90.3528 213.679 90.9244C214.582 91.692 216.496 93.2435 216.919 93.3079C224.855 94.7796 229.229 93.967 230.424 93.3767C231.986 92.4956 235.797 90.4125 238.543 89.1285C239.448 88.5256 241.496 87.29 242.45 87.1704C242.937 86.9135 244.395 86.3979 246.332 86.39C246.721 86.7328 246.554 87.8891 242.776 89.7724C243.064 90.2258 243.589 91.2856 243.389 91.898C243.538 92.1729 242.99 92.8584 239.597 93.4012C237.042 93.7215 231.63 94.1651 230.424 93.3767C229.229 93.967 224.855 94.7796 216.919 93.3079C219.037 94.5596 223.409 97.0459 223.954 96.9776C226.433 97.8903 231.589 99.6324 232.377 99.2986C233.385 99.5148 236.184 99.8491 239.318 99.4562C245.88 97.6938 247.243 95.0366 247.104 93.9284C247.423 90.9518 246.553 90.914 246.176 90.6676C245.874 90.4705 246.103 90.0894 246.256 89.9235C247.818 89.1402 249.785 86.7891 250.572 85.7115C251.738 82.8637 250.778 80.4488 250.152 79.5974C249.972 79.2675 247.576 77.9136 246.4 77.2779C245.393 77.1033 244.391 77.0795 243.443 77.151C241.06 77.3307 239.017 78.1122 238.089 78.6136C237.767 78.8009 231.327 82.6427 228.314 84.8314Z" fill="#F1BF3D"/>
<path d="M215.299 88.6656C215.63 88.0858 215.853 87.0104 214.095 87.3482C213.71 87.4944 212.628 88.0608 211.381 89.1569C210.733 89.9722 209.74 91.8 210.946 92.5885C211.613 92.8474 212.944 93.072 212.936 91.8985C213.019 91.6433 213.284 91.0913 213.679 90.9244C213.944 90.3528 214.633 89.2189 215.272 89.2563C215.171 89.1939 215.143 89.0259 215.299 88.6656Z" fill="#CD9757"/>
<path d="M238.543 89.1285C235.797 90.4125 231.986 92.4956 230.424 93.3767C231.63 94.1651 237.042 93.7215 239.597 93.4012C242.99 92.8584 243.538 92.1729 243.389 91.898C243.589 91.2856 243.064 90.2258 242.776 89.7724C246.554 87.8891 246.721 86.7328 246.332 86.39C244.395 86.3979 242.937 86.9135 242.45 87.1704C241.496 87.29 239.448 88.5256 238.543 89.1285Z" fill="#781B17"/>
<path d="M155.027 52.3202C152.498 55.3388 150.721 67.2004 150.148 72.7538C149.872 72.9144 150.297 75.6079 150.91 78.769C151.012 76.9926 152.23 74.3804 152.965 73.1348C153.78 72.7389 150.873 78.5361 152.102 78.6757C152.166 78.0804 152.145 78.6214 152.126 78.9663C152.323 80.1588 153.572 84.0558 154.237 86.0432C154.075 93.5812 155.027 96.0264 155.524 96.3068C156.008 99.0652 163.856 107.106 167.72 110.782C172.919 114.711 179.989 116.634 182.874 117.105C179.206 115.45 174.339 111.127 172.363 109.172C168.109 103.95 165.065 96.0405 164.074 92.7387C162.038 88.6477 160.945 79.2801 160.652 75.1076C160.037 71.3084 161.232 63.6311 161.906 60.2674C162.901 52.7425 169.035 44.4459 171.978 41.2382C173.46 38.7032 178.627 34.923 181.025 33.3498C183.722 30.1551 191.487 27.9459 195.329 27.1737C193.517 26.4623 190.731 25.4498 187.816 24.5541C183.424 24.1227 173.296 31.251 168.76 34.8876C164.436 36.8392 157.803 47.3225 155.027 52.3202Z" fill="#F3F5F3"/>
<path d="M184.846 67.9631C185.147 68.1603 184.441 69.3353 184.059 69.9705C183.781 71.0626 181.768 71.4813 180.797 71.5541C180.017 73.6097 179.543 78.1131 183.892 79.6822C188.242 81.2512 191.801 79.278 193.037 78.0952C195.942 72.5625 194.03 69.4546 192.711 68.5922C189.868 66.321 186.336 67.164 184.8 67.9207C184.816 67.935 184.831 67.9491 184.846 67.9631Z" fill="#0D0E10"/>
<path d="M184.059 69.9705C184.441 69.3353 185.147 68.1603 184.846 67.9631C184.831 67.9491 184.816 67.935 184.8 67.9207C184.045 67.2311 182.136 66.3028 180.155 67.817C179.472 68.3432 178.643 69.8274 180.797 71.5541C181.768 71.4813 183.781 71.0626 184.059 69.9705Z" fill="#FBFCF9"/>
<path fill-rule="evenodd" clip-rule="evenodd" d="M178.47 68.1751C176.495 70.821 174.312 77.2419 181.384 81.7586C184.232 83.3103 191.222 84.8714 196.401 78.7013C197.905 76.8976 199.661 71.8614 194.653 66.1462C191.751 64.1607 184.452 61.7869 178.47 68.1751ZM180.797 71.5541C178.643 69.8274 179.472 68.3432 180.155 67.817C182.136 66.3028 184.045 67.2311 184.8 67.9207C186.336 67.164 189.868 66.321 192.711 68.5922C194.03 69.4546 195.942 72.5625 193.037 78.0952C191.801 79.278 188.242 81.2512 183.892 79.6822C179.543 78.1131 180.017 73.6097 180.797 71.5541Z" fill="#44ACD6"/>
<path fill-rule="evenodd" clip-rule="evenodd" d="M196.357 65.9326C193.051 61.6485 186.039 61.8424 182.946 62.4749C177.251 63.4238 174.226 68.3647 173.425 70.7165C171.795 75.3844 174.812 79.9397 176.524 81.6338C179.728 85.1084 186.058 84.9903 188.822 84.4969C192.883 84.104 196.156 81.0385 197.325 79.5089C197.338 79.493 197.349 79.4773 197.361 79.4618C201.664 72.9317 198.485 67.7215 196.357 65.9326ZM181.384 81.7586C174.312 77.2419 176.495 70.821 178.47 68.1751C184.452 61.7869 191.751 64.1607 194.653 66.1462C199.661 71.8614 197.905 76.8976 196.401 78.7013C191.222 84.8714 184.232 83.3103 181.384 81.7586Z" fill="#372324"/>
<path d="M182.946 62.4749C186.039 61.8424 193.051 61.6485 196.357 65.9326C198.485 67.7215 201.664 72.9317 197.361 79.4618C197.349 79.4773 197.338 79.493 197.325 79.5089C199.243 78.5768 199.75 75.0512 200.355 71.5982C200.839 68.8358 197.925 65.0997 196.408 63.5769C193.053 60.0038 185.854 59.9079 182.674 60.3065C179.908 61.2407 174.006 64.0363 172.533 67.7448C171.704 69.4149 170.252 73.2874 171.073 75.4163C172.011 77.8436 174.195 82.6599 175.422 82.5061C177.444 83.9166 182.296 86.5484 185.523 85.7914C189.012 85.7739 196.256 84.493 197.325 79.5089C196.156 81.0385 192.883 84.104 188.822 84.4969C186.058 84.9903 179.728 85.1084 176.524 81.6338C174.812 79.9397 171.795 75.3844 173.425 70.7165C174.226 68.3647 177.251 63.4238 182.946 62.4749Z" fill="#ECF3EB"/>
<path d="M163.016 113.281C162.159 109.668 159.64 102.369 156.419 102.068C154.357 102.179 150.02 103.193 149.17 106.354C148.108 110.304 147.709 114.025 150.33 115.605C152.426 116.869 154.352 118.24 155.052 118.768C158.917 117.019 161.926 115.142 163.016 113.281Z" fill="#F7C742"/>
<path d="M150.181 3.84808C151.17 5.06053 168.723 15.4668 177.817 20.7743C175.229 18.2352 171.41 14.7229 168.596 12.8836C164.085 10.0232 154.25 4.16932 150.999 3.63713C150.765 3.6665 150.456 3.73413 150.181 3.84808Z" fill="#F7EA8D"/>
<path d="M169.55 21.8675C164.405 17.1777 153.885 7.88576 152.96 8.23666C152.035 8.58755 160.281 17.4012 164.519 21.7641C165.506 21.8847 167.131 22.0435 168.269 22.0532L168.486 22.0486C168.614 22.0459 168.743 22.0432 168.873 22.0404C169.241 22.0176 169.492 21.9642 169.55 21.8675Z" fill="#E8AE2E"/>
<path fill-rule="evenodd" clip-rule="evenodd" d="M152.96 8.23666C153.885 7.88576 164.405 17.1777 169.55 21.8675C169.492 21.9642 169.241 22.0176 168.873 22.0404L169.021 22.0372C173.093 21.9494 178.084 21.8418 179.502 22.4649C179.042 21.9912 178.469 21.4136 177.817 20.7743C168.723 15.4668 151.17 5.06053 150.181 3.84808C149.723 4.03802 149.359 4.35664 149.593 4.84125C150.306 5.92652 151.599 8.14305 151.068 8.32704C147.695 7.18378 140.983 4.89297 141.119 4.87588C141.289 4.85452 115.149 -2.14626 104.428 0.666204C104.142 1.14259 103.788 2.18538 104.664 2.54545C105.454 3.32736 106.653 5.43822 105.128 7.62632C104.417 8.40059 103.004 10.007 103.033 10.2382C103.77 11.5163 104.583 14.5956 101.938 16.6891C101.108 17.4295 99.2098 18.94 98.2559 19.0596C98.4697 20.3053 98.7953 22.8096 98.3864 22.8608C98.3755 23.6942 97.6601 25.6242 94.8852 26.6769C93.526 27.3367 90.928 28.7881 91.4093 29.3151C91.6014 29.9273 91.9211 31.1891 91.6631 31.3389C91.3405 31.5262 92.1234 33.6305 87.571 35.9632C86.642 36.3733 84.6657 37.3552 84.193 38.0018C84.2329 38.7799 83.8864 40.8007 82.1815 42.6589C81.5098 43.2815 79.6661 44.6775 77.6654 45.2807C77.0033 46.4405 75.3189 48.9226 73.8778 49.5732C70.8079 51.769 64.5231 56.3843 63.9432 57.2792C61.6561 59.279 56.866 64.0397 56.002 67.0846C55.6722 68.5943 55.2213 72.1747 56.0564 74.4193C57.6512 77.939 60.6473 85.0909 59.8731 85.5403C60.4748 88.4994 62.9497 94.3461 68.0356 94.0609C70.6247 92.1701 75.7339 87.8392 75.4585 85.6419C77.4712 81.9146 81.5881 74.3604 81.9535 73.9622C82.0091 73.9015 82.3015 73.473 82.7841 72.7657C85.2903 69.0923 92.9264 57.8999 99.1791 51.6655C95.4768 52.295 74.343 51.682 74.6064 51.2438C74.8927 50.7674 101.101 48.6561 100.924 49.9999C100.771 50.1031 100.505 50.3267 100.245 50.639C102.245 48.7874 104.055 47.5517 105.44 47.378C111.057 42.9541 122.816 34.158 124.918 34.3643C129.016 32.0885 137.34 27.7266 137.85 28.4848C141.976 26.8908 150.412 23.797 151.152 24.1742C153.059 23.6895 155.962 22.9938 158.459 22.4852C155.381 21.8871 129.065 9.0363 126.473 9.50195C124.307 9.89097 113.554 4.90587 108.448 2.36468C109.629 -3.6473 142.356 13.2193 158.65 22.4465C161.045 21.9639 163.027 21.6661 163.326 21.9136C163.592 22.1329 165.67 22.1076 168.269 22.0532C167.131 22.0435 165.506 21.8847 164.519 21.7641C160.281 17.4012 152.035 8.58755 152.96 8.23666ZM144.751 25.564C145.267 25.2644 118.93 15.5866 105.697 10.7852C103.403 11.807 140.905 26.6335 141.775 26.6712C142.645 26.709 144.106 25.9385 144.751 25.564ZM129.245 31.6192C129.231 31.5036 131.313 30.6259 132.355 30.2015C122.556 27.0252 102.634 20.86 101.344 21.609C99.7311 22.5454 129.264 31.7638 129.245 31.6192ZM116.476 38.7997C116.297 38.4698 118.199 37.3601 119.173 36.8465C119.405 35.9364 93.5297 32.4263 92.7142 32.8223C91.8987 33.2182 116.701 39.212 116.476 38.7997ZM107.267 45.387C107.316 44.6761 108.188 43.999 108.619 43.7493C108.51 42.8819 84.9071 42.3172 84.2801 42.8363C83.653 43.3554 107.205 46.2758 107.267 45.387ZM92.1744 58.8788C91.7365 58.6987 92.6902 57.9331 93.2218 57.5728C93.1131 56.7055 67.8794 56.9326 67.082 57.473C66.2846 58.0135 92.7217 59.1038 92.1744 58.8788ZM86.9805 64.3753C86.6224 64.8652 86.0514 65.7864 86.3604 65.8983C86.473 65.8993 86.5157 65.9019 86.4803 65.9063C86.4309 65.9125 86.3912 65.9094 86.3604 65.8983C84.3041 65.8786 58.9505 66.3527 60.5725 64.8965C62.2832 63.3605 86.2991 64.4608 86.9805 64.3753ZM81.3518 73.3035C81.3228 73.0722 81.7867 72.1722 82.0223 71.7511C80.0324 72.4411 58.4014 71.0418 59.2641 72.402C60.1267 73.7621 81.388 73.5926 81.3518 73.3035ZM77.8979 79.5963C77.9843 79.5345 78.0671 79.479 78.1405 79.4325C78.0909 79.4943 78.009 79.5486 77.8979 79.5963C77.4181 79.9389 76.8253 80.4734 77.0931 80.7384C77.4881 81.1294 60.917 81.445 61.2649 80.0799C61.5964 78.7795 75.6614 80.5545 77.8979 79.5963ZM73.8112 86.7507C73.8292 86.7408 73.8468 86.7315 73.8637 86.7228C73.855 86.7323 73.8374 86.7416 73.8112 86.7507C73.4259 86.9614 72.823 87.4322 73.1388 87.8415C73.552 88.377 62.3342 88.6088 62.2436 87.886C62.1555 87.1838 72.9188 87.0614 73.8112 86.7507Z" fill="#EDAB31"/>
<path d="M158.65 22.4465C142.356 13.2193 109.629 -3.6473 108.448 2.36468C113.554 4.90587 124.307 9.89097 126.473 9.50195C129.065 9.0363 155.381 21.8871 158.459 22.4852C158.523 22.4722 158.586 22.4593 158.65 22.4465Z" fill="#EBB936"/>
<path d="M105.697 10.7852C118.93 15.5866 145.267 25.2644 144.751 25.564C144.106 25.9385 142.645 26.709 141.775 26.6712C140.905 26.6335 103.403 11.807 105.697 10.7852Z" fill="#DB9825"/>
<path d="M132.355 30.2015C131.313 30.6259 129.231 31.5036 129.245 31.6192C129.264 31.7638 99.7311 22.5454 101.344 21.609C102.634 20.86 122.556 27.0252 132.355 30.2015Z" fill="#E29D28"/>
<path d="M119.173 36.8465C118.199 37.3601 116.297 38.4698 116.476 38.7997C116.701 39.212 91.8987 33.2182 92.7142 32.8223C93.5297 32.4263 119.405 35.9364 119.173 36.8465Z" fill="#E3A129"/>
<path d="M108.619 43.7493C108.188 43.999 107.316 44.6761 107.267 45.387C107.205 46.2758 83.653 43.3554 84.2801 42.8363C84.9071 42.3172 108.51 42.8819 108.619 43.7493Z" fill="#DF9928"/>
<path d="M100.245 50.639C100.505 50.3267 100.771 50.1031 100.924 49.9999C101.101 48.6561 74.8927 50.7674 74.6064 51.2438C74.343 51.682 95.4768 52.295 99.1791 51.6655C99.5396 51.3061 99.8954 50.9631 100.245 50.639Z" fill="#DDA127"/>
<path d="M93.2218 57.5728C92.6902 57.9331 91.7365 58.6987 92.1744 58.8788C92.7217 59.1038 66.2846 58.0135 67.082 57.473C67.8794 56.9326 93.1131 56.7055 93.2218 57.5728Z" fill="#E3A22C"/>
<path d="M86.3604 65.8983C86.0514 65.7864 86.6224 64.8652 86.9805 64.3753C86.2991 64.4608 62.2832 63.3605 60.5725 64.8965C58.9505 66.3527 84.3041 65.8786 86.3604 65.8983Z" fill="#DA9424"/>
<path d="M82.0223 71.7511C81.7867 72.1722 81.3228 73.0722 81.3518 73.3035C81.388 73.5926 60.1267 73.7621 59.2641 72.402C58.4014 71.0418 80.0324 72.4411 82.0223 71.7511Z" fill="#E19F29"/>
<path d="M77.0931 80.7384C76.8253 80.4734 77.4181 79.9389 77.8979 79.5963C75.6614 80.5545 61.5964 78.7795 61.2649 80.0799C60.917 81.445 77.4881 81.1294 77.0931 80.7384Z" fill="#DB9523"/>
<path d="M73.1388 87.8415C72.823 87.4322 73.4259 86.9614 73.8112 86.7507C72.9188 87.0614 62.1555 87.1838 62.2436 87.886C62.3342 88.6088 73.552 88.377 73.1388 87.8415Z" fill="#E09F27"/>
<path d="M113.465 136.232C111.752 136.916 99.5847 129.945 93.7154 126.374C92.3312 126.314 84.3666 120.185 80.4945 117.078C72.5594 112.545 59.1834 116.323 53.4598 118.794C54.9338 121.715 57.942 123.023 59.0906 124.842C58.7303 125.021 59.6698 124.334 59.0906 124.842C60.2758 123.714 63.6002 121.34 67.416 120.862C69.4276 120.805 73.4798 120.924 73.5958 121.849C75.1423 122.683 80.5839 126.523 89.9787 135.212C96.9643 139.867 113.493 149.149 123.723 149.041C128.941 150.038 142.854 151.554 157.033 149.712C157.113 149.702 157.194 149.691 157.275 149.681C157.306 149.677 157.338 149.672 157.369 149.668C157.352 149.677 157.301 149.682 157.244 149.687C157.159 149.693 157.059 149.699 157.033 149.712C157.096 149.71 157.166 149.701 157.244 149.687C157.254 149.685 157.264 149.683 157.275 149.681C158.385 149.455 160.79 148.103 161.921 147.336C164.379 147.442 166.014 146.004 166.718 145.015C167.337 143.823 169.322 141.397 172.817 140.39C175.41 139.918 180.57 139.3 180.457 140.607C181.167 140.829 181.891 142.159 179.723 145.69C185.627 144.243 191.209 141.705 193.262 140.616C200.039 138.357 210.17 130.568 214.389 126.955C214.47 126.893 214.573 126.807 214.695 126.701C210.286 128.171 200.59 128.226 196.187 128.063C197.272 128.984 186.684 131.848 181.254 133.165C180.605 135.713 163.569 138.857 155.133 140.111C151.758 143.001 125.948 138.729 113.465 136.232Z" fill="#EDB32E"/>
<path d="M174.698 145.734C171.955 149.161 166.209 156.136 165.162 156.62C161.264 160.401 153.899 167.422 151.295 169.485C156.21 166.21 165.156 159.751 167.681 156.011C170.379 152.687 175.559 145.978 174.698 145.734Z" fill="#E6B331"/>
<path d="M172.142 146.054C164.685 152.813 148.878 166.679 145.314 168.065C148.965 166.824 156.951 163.17 159.685 158.481C164.235 154.289 173.096 145.934 172.142 146.054Z" fill="#E6B331"/>
<path d="M168.449 146.958C163.107 150.809 151.952 158.629 150.073 159.099C150.348 159.456 151.055 160.033 151.679 159.485C157.063 155.971 167.927 148.315 168.449 146.958Z" fill="#E6B331"/>
<path fill-rule="evenodd" clip-rule="evenodd" d="M180.457 140.607C180.57 139.3 175.41 139.918 172.817 140.39C169.322 141.397 167.337 143.823 166.718 145.015C166.014 146.004 164.379 147.442 161.921 147.336C160.79 148.103 158.385 149.455 157.275 149.681C157.306 149.677 157.338 149.672 157.369 149.668C157.352 149.677 157.301 149.682 157.244 149.687C157.166 149.701 157.096 149.71 157.033 149.712C154.944 150.824 151.322 152.986 151.751 153.162C150.754 154.413 148.738 157.005 148.645 157.369C147.995 158.625 146.751 161.307 146.974 161.984C145.684 165.033 142.324 171.817 139.207 174.557C138.356 175.594 136.826 177.645 137.507 177.56C137.541 178.29 138.663 179.324 142.879 177.621C147.148 176.253 156.305 172.648 158.776 169.167C162.302 166.473 170.27 159.826 173.929 154.787C174.551 153.534 176.267 150.454 178.005 147.935C178.035 147.892 178.064 147.85 178.094 147.807C178.644 147.017 179.194 146.287 179.71 145.693L179.723 145.69C181.891 142.159 181.167 140.829 180.457 140.607ZM165.162 156.62C166.209 156.136 171.955 149.161 174.698 145.734C175.559 145.978 170.379 152.687 167.681 156.011C165.156 159.751 156.21 166.21 151.295 169.485C150.841 169.845 150.532 170.054 150.41 170.069C150.687 169.888 150.983 169.693 151.295 169.485C153.899 167.422 161.264 160.401 165.162 156.62ZM145.314 168.065C148.878 166.679 164.685 152.813 172.142 146.054C173.096 145.934 164.235 154.289 159.685 158.481C156.951 163.17 148.965 166.824 145.314 168.065ZM150.073 159.099C151.952 158.629 163.107 150.809 168.449 146.958C167.927 148.315 157.063 155.971 151.679 159.485C151.055 160.033 150.348 159.456 150.073 159.099Z" fill="#F5D94A" fill-opacity="0.9"/>
<path fill-rule="evenodd" clip-rule="evenodd" d="M173.929 154.787C174.369 157.374 175.086 162.629 174.433 162.946C174.083 164.752 173.112 168.691 172.03 170.001C171.981 170.986 172.42 172.83 174.571 172.326C178.105 170.61 185.969 165.523 189.152 158.898C191.18 154.826 194.703 145.487 193.262 140.616C191.209 141.705 185.627 144.243 179.723 145.69C179.507 146.041 178.37 147.411 178.094 147.807C178.064 147.85 178.035 147.892 178.005 147.935C176.267 150.454 174.551 153.534 173.929 154.787ZM180.814 164.448C183.702 161.845 187.505 151.16 189.091 145.985C189.363 145.951 188.535 150.753 188.087 153.158C187.6 157.764 183.203 162.454 180.814 164.448C180.719 164.533 180.626 164.61 180.533 164.677C180.623 164.605 180.717 164.529 180.814 164.448ZM176.307 162.711C179.068 161.543 184.163 151.301 186.365 146.327C186.696 146.755 184.835 151.608 183.864 153.982C183.232 158.877 178.563 161.841 176.307 162.711ZM175.802 156.459C176.778 156.095 181.151 149.893 183.299 146.711C183.4 147.52 181.553 151.188 180.617 152.92C179.705 155.321 177.093 156.266 175.802 156.459C175.762 156.474 175.727 156.479 175.698 156.474C175.732 156.469 175.767 156.465 175.802 156.459Z" fill="#F5D94A"/>
<path d="M189.091 145.985C187.505 151.16 183.702 161.845 180.814 164.448C183.203 162.454 187.6 157.764 188.087 153.158C188.535 150.753 189.363 145.951 189.091 145.985Z" fill="#E6B331"/>
<path d="M186.365 146.327C184.163 151.301 179.068 161.543 176.307 162.711C178.563 161.841 183.232 158.877 183.864 153.982C184.835 151.608 186.696 146.755 186.365 146.327Z" fill="#E6B331"/>
<path d="M183.299 146.711C181.151 149.893 176.778 156.095 175.802 156.459C177.093 156.266 179.705 155.321 180.617 152.92C181.553 151.188 183.4 147.52 183.299 146.711Z" fill="#E6B331"/>
<path fill-rule="evenodd" clip-rule="evenodd" d="M49.9312 94.5687L2.50112 72.1881C1.35587 72.3418 0.470763 72.6239 -1.96781e-05 73.0781C0.0338156 73.808 0.388548 75.3493 1.53679 75.6751C5.00184 78.471 11.8573 84.5712 11.5586 86.6055C12.8115 89.2382 15.3202 95.3548 15.3318 98.7598C16.1921 100.561 17.9843 104.183 18.2714 104.264C19.9604 106.696 23.2007 111.84 22.6498 112.966C23.1561 113.783 23.6111 117.045 21.3814 123.55C21.0854 125.789 20.6275 131.338 21.164 135.617C21.2909 136.629 21.2539 139.923 20.0912 145.002C19.3229 147.154 17.423 152.149 15.9703 154.916C15.6695 155.736 15.6238 157.396 17.8478 157.47C21.0724 156.968 28.7988 154.834 33.9079 150.317C37.8851 147.078 45.986 140.111 46.5717 138.158C49.2915 134.827 54.6754 128.515 57.6579 125.9C50.4816 124.914 47.5088 114.35 46.9194 109.189C45.5623 102.781 48.3618 96.7722 49.9312 94.5687ZM20.5661 151.55C29.7143 147.231 43.1912 131.436 48.7862 124.078C52.6369 128.294 33.6867 143.493 23.7303 150.566C22.8343 151.148 21.2475 151.464 20.5661 151.55ZM23.1031 137.283C24.869 138.118 40.2336 125.787 47.6952 119.516C50.7361 120.31 29.4859 135.748 26.7349 137.268C24.5341 138.483 23.3967 137.784 23.1031 137.283ZM26.1548 125.741C26.8652 125.887 40.0112 118.033 46.4954 114.087C47.967 114.784 29.6344 125.892 27.6264 126.437C25.6184 126.983 25.2668 125.559 26.1548 125.741ZM44.7882 111.512C38.6616 112.329 26.5433 114.21 27.0826 115.2C27.7568 116.437 45.6328 112.727 44.7882 111.512ZM23.4725 104.347C24.0669 103.567 37.921 105.961 44.7737 107.255C44.8824 108.123 25.0528 105.91 24.1648 105.728C23.2768 105.546 22.7295 105.321 23.4725 104.347ZM17.1187 93.6904C20.1226 92.2566 37.4497 99.9022 45.7378 103.904C44.3677 105.398 22.0081 95.4267 19.2281 95.3347C17.0042 95.2612 16.8952 94.2079 17.1187 93.6904ZM44.7011 99.7762C36.941 94.9249 21.0033 85.4801 19.3332 86.5118C27.0486 91.4666 42.9237 101.056 44.7011 99.7762ZM12.8489 78.9554C17.8188 77.745 36.7151 91.2825 45.542 98.2025C43.173 96.9725 25.5238 86.6655 16.9953 81.6658C14.9801 82.1534 13.3914 80.0621 12.8489 78.9554Z" fill="#F4CE47"/>
<path d="M49.9312 94.5687C41.8489 88.4898 21.0581 75.5088 2.51834 72.1858L2.50112 72.1881L49.9312 94.5687Z" fill="#F6C540"/>
<path d="M45.542 98.2025C36.7151 91.2825 17.8188 77.745 12.8489 78.9554C13.3914 80.0621 14.9801 82.1534 16.9953 81.6658C25.5238 86.6655 43.173 96.9725 45.542 98.2025Z" fill="#E4A632"/>
<path d="M44.7011 99.7762C36.941 94.9249 21.0033 85.4801 19.3332 86.5118C27.0486 91.4666 42.9237 101.056 44.7011 99.7762Z" fill="#E0A42C"/>
<path d="M45.7378 103.904C37.4497 99.9022 20.1226 92.2566 17.1187 93.6904C16.8952 94.2079 17.0042 95.2612 19.2281 95.3347C22.0081 95.4267 44.3677 105.398 45.7378 103.904Z" fill="#DEA12B"/>
<path d="M44.7737 107.255C37.921 105.961 24.0669 103.567 23.4725 104.347C22.7295 105.321 23.2768 105.546 24.1648 105.728C25.0528 105.91 44.8824 108.123 44.7737 107.255Z" fill="#F1B338"/>
<path d="M44.7882 111.512C38.6616 112.329 26.5433 114.21 27.0826 115.2C27.7568 116.437 45.6328 112.727 44.7882 111.512Z" fill="#DF9B2C"/>
<path d="M46.4954 114.087C40.0112 118.033 26.8652 125.887 26.1548 125.741C25.2668 125.559 25.6184 126.983 27.6264 126.437C29.6344 125.892 47.967 114.784 46.4954 114.087Z" fill="#D38C21"/>
<path d="M47.6952 119.516C40.2336 125.787 24.869 138.118 23.1031 137.283C23.3967 137.784 24.5341 138.483 26.7349 137.268C29.4859 135.748 50.7361 120.31 47.6952 119.516Z" fill="#D38C22"/>
<path d="M48.7862 124.078C43.1912 131.436 29.7143 147.231 20.5661 151.55C21.2475 151.464 22.8343 151.148 23.7303 150.566C33.6867 143.493 52.6369 128.294 48.7862 124.078Z" fill="#D49021"/>
<path d="M50.0564 94.4151L49.9312 94.5687C48.3618 96.7722 45.5623 102.781 46.9194 109.189C47.5088 114.35 50.4816 124.914 57.6579 125.9C57.6595 125.899 59.089 124.843 59.0906 124.842C57.942 123.023 54.9338 121.715 53.4598 118.794C51.5154 114.94 49.8506 110.865 49.9495 108.515C49.4529 104.947 48.5579 97.5961 50.0564 94.4151Z" fill="#D68421"/>
<path fill-rule="evenodd" clip-rule="evenodd" d="M168.269 22.0532C168.492 22.0551 168.696 22.0513 168.873 22.0404L169.021 22.0372C173.093 21.9494 178.084 21.8418 179.502 22.4649C179.565 22.5294 179.625 22.592 179.684 22.6526C179.726 22.6573 179.768 22.6623 179.81 22.6673C182.102 22.9428 185.019 23.6947 187.816 24.5541C183.424 24.1227 173.296 31.251 168.76 34.8876C164.436 36.8392 157.803 47.3225 155.027 52.3202C152.498 55.3388 150.721 67.2004 150.148 72.7538C149.872 72.9144 150.297 75.6079 150.91 78.769C151.44 81.5056 152.111 84.5928 152.588 86.6904C153.327 87.0676 152.599 92.758 152.142 95.5561C151.246 96.1383 153.847 98.5726 155.259 99.717C157.579 101.658 161.817 106.481 163.646 108.65C163.87 109.327 169.906 115.794 172.896 118.943C175.842 122.567 189.651 126.533 196.187 128.063C197.272 128.984 186.684 131.848 181.254 133.165C180.605 135.713 163.569 138.857 155.133 140.111C151.758 143.001 125.948 138.729 113.465 136.232C111.752 136.916 99.5847 129.945 93.7154 126.374C92.3312 126.314 84.3666 120.185 80.4945 117.078C72.5594 112.545 59.1834 116.323 53.4598 118.794C51.5154 114.94 49.8506 110.865 49.9495 108.515C49.4529 104.947 48.5579 97.5961 50.0564 94.4151L51.0612 93.181C53.3153 94.431 55.1876 95.2069 56.2835 95.5514C55.8732 95.5317 56.3175 95.5532 58.7206 95.6692C58.7747 95.6718 58.8286 95.6743 58.8824 95.6765C63.5341 95.8703 66.9165 94.685 68.0356 94.0609C70.6247 92.1701 75.7339 87.8392 75.4585 85.6419C77.4712 81.9146 81.5881 74.3604 81.9535 73.9622C82.0091 73.9015 82.3015 73.473 82.7841 72.7657C85.2903 69.0923 92.9264 57.8999 99.1791 51.6655C99.5016 51.6106 99.6919 51.5464 99.7241 51.4717C99.8615 51.1536 100.052 50.8717 100.245 50.639C102.245 48.7874 104.055 47.5517 105.44 47.378C111.057 42.9541 122.816 34.158 124.918 34.3643C129.016 32.0885 137.34 27.7266 137.85 28.4848C141.976 26.8908 150.412 23.797 151.152 24.1742C153.059 23.6895 155.962 22.9938 158.459 22.4852C158.595 22.5117 158.686 22.5141 158.727 22.4903L158.65 22.4465C161.045 21.9639 163.027 21.6661 163.326 21.9136C163.592 22.1329 165.67 22.1076 168.269 22.0532ZM85.4366 76.9026C83.6063 78.4046 81.1598 81.4326 86.0166 81.5284C90.8734 81.6243 90.4396 78.6246 89.6157 77.1128L85.4366 76.9026ZM91.8048 71.112C89.873 72.7246 87.3098 76.1098 92.5116 76.7497C97.7135 77.3896 95.9114 73.0443 94.3601 70.7916L91.8048 71.112ZM102.551 74.0227C101.218 75.805 99.757 79.3359 104.585 79.2004C109.534 79.0616 108.728 77.5706 107.856 75.9577C107.664 75.6039 107.47 75.2442 107.332 74.8916C106.72 73.3238 103.89 73.6591 102.551 74.0227ZM100.362 66.2215C98.6913 68.5356 96.5152 73.0762 101.178 72.7266C105.84 72.377 105.928 71.0543 105.389 70.4366C105.688 70.0566 106.033 68.9464 105.027 67.5455C104.021 66.1446 101.498 66.0791 100.362 66.2215ZM110.757 53.906C108.952 56.5306 106.414 61.4983 110.703 60.3734C114.991 59.2484 116.092 58.2783 116.107 57.9339L116.991 55.3269L110.757 53.906ZM109.648 63.0017C108.422 64.7216 107.108 68.1362 111.663 68.0349C116.219 67.9336 117.043 65.4027 116.886 64.1498L109.648 63.0017ZM120.065 60.5211C118.433 62.6834 116.307 66.9828 120.862 66.8816C125.418 66.7803 126.242 64.2493 126.085 62.9965L120.065 60.5211ZM121.982 45.4509C119.089 47.6735 114.444 52.1223 119.014 52.1367C123.583 52.1511 124.545 50.7091 124.454 49.9863C125.442 49.1283 127.216 47.1733 126.404 46.218C125.592 45.2626 123.118 45.3085 121.982 45.4509ZM132.29 49.0039C130.457 50.9467 128.018 54.6785 132.925 54.0634C137.831 53.4483 138.074 50.9707 137.582 49.8087L132.29 49.0039ZM131.609 55.9903C129.054 58.611 125.236 63.9545 130.409 64.3632C135.582 64.7718 137.139 60.5339 137.27 58.3639L131.609 55.9903ZM143.374 49.0826C141.367 50.5577 138.521 53.7141 143.193 54.538C147.864 55.3619 148.454 52.8016 148.166 51.4184L143.374 49.0826ZM131.221 40.475C128.547 41.6912 124.795 44.4228 131.174 45.6199C137.553 46.817 138.109 43.429 137.589 41.5854L131.221 40.475ZM143.348 36.4584C140.896 37.5979 137.094 40.1204 141.507 41.0941C145.92 42.0679 148.072 39.6348 148.597 38.2965L143.348 36.4584ZM111.863 69.625C109.33 71.5087 105.934 75.3312 112.606 75.5519C119.278 75.7726 118.904 73.3429 117.883 72.1005L111.863 69.625ZM89.0141 83.3551C87.6416 85.2891 85.6803 89.0589 88.8148 88.6659C91.9492 88.2729 93.8661 86.1728 94.4327 85.1718L89.0141 83.3551ZM111.678 79.1921C109.537 80.9778 106.67 84.5185 112.33 84.3962C117.99 84.2739 117.997 81.2876 117.292 79.8097L111.678 79.1921ZM163.016 113.281C162.159 109.668 159.64 102.369 156.419 102.068C155.141 101.948 152.293 100.442 148.563 98.4689C140.542 94.2262 128.437 87.8235 119.061 88.3977C117.48 88.2044 113.979 90.0921 112.628 99.1887C110.939 110.56 115.872 118.163 120.598 118.599C122.47 121.105 127.018 126.193 130.239 126.493C133.461 126.794 131.922 126.576 130.751 126.429C136.957 125.039 147.598 122.141 155.052 118.768C158.917 117.019 161.926 115.142 163.016 113.281Z" fill="#F4C134"/>
<path d="M51.0612 93.181C48.2516 91.623 44.8487 89.3283 41.6166 86.2141C36.1266 82.4486 23.586 74.614 17.3432 73.3998C13.5426 72.6631 6.48317 71.6595 2.51834 72.1858C21.0581 75.5088 41.8489 88.4898 49.9312 94.5687L50.0564 94.4151C50.3151 93.8657 50.6453 93.4407 51.0612 93.181Z" fill="#F8E890"/>
<path fill-rule="evenodd" clip-rule="evenodd" d="M89.9787 135.212C80.5839 126.523 75.1423 122.683 73.5958 121.849C71.2327 122.781 66.7673 125.348 67.8112 128.153C67.1431 131.565 65.9961 139.07 66.753 141.794C67.7606 144.311 71.4569 149.78 78.1811 151.521C82.6489 153.114 92.6588 156.313 96.956 156.361C99.3711 156.303 105.252 155.733 109.453 153.914C109 154.9 108.336 156.873 109.305 156.869C110.408 156.926 113.092 156.717 115.006 155.42C117.378 154.095 122.441 150.964 123.723 149.041C113.493 149.149 96.9643 139.867 89.9787 135.212ZM103.777 154.185C104.989 153.915 110.094 149.82 112.494 147.806C113.613 147.901 108.423 152.134 105.687 154.239C104.899 154.573 104.085 154.342 103.777 154.185ZM92.8712 152.762C94.6573 152.656 102.08 147.546 105.568 145.004C106.867 145.428 98.6257 150.817 94.3427 153.459C93.108 153.271 91.085 152.869 92.8712 152.762ZM82.3674 150.409L97.7533 142.019C97.8801 143.031 87.1372 149.811 84.8429 150.832C83.0075 151.65 82.4278 150.89 82.3674 150.409ZM74.7849 146.514C76.629 146.87 86.8568 141.134 91.7402 138.221C94.0998 139.1 79.3844 145.937 77.5468 146.461C76.0767 146.88 75.093 146.671 74.7849 146.514ZM70.1165 142.401C70.7051 142.679 80.8945 137.281 85.9156 134.547C86.9921 134.852 73.2191 142.305 72.081 142.888C70.9429 143.472 69.3807 142.052 70.1165 142.401ZM68.1447 136.334C68.8841 136.711 76.9244 132.297 80.8521 130.042C81.8742 129.914 71.9468 136.298 70.2433 136.512C68.8805 136.682 68.2764 136.464 68.1447 136.334ZM69.0508 129.76C69.7757 130.022 74.5624 127.258 76.8652 125.844C77.9235 126.005 71.4719 129.75 70.468 130.023C69.6648 130.241 69.1885 129.939 69.0508 129.76Z" fill="#EEBF31"/>
<path d="M85.9156 134.547C80.8945 137.281 70.7051 142.679 70.1165 142.401C69.3807 142.052 70.9429 143.472 72.081 142.888C73.2191 142.305 86.9921 134.852 85.9156 134.547Z" fill="#E6B331"/>
<path d="M97.7533 142.019L82.3674 150.409C82.4278 150.89 83.0075 151.65 84.8429 150.832C87.1372 149.811 97.8801 143.031 97.7533 142.019Z" fill="#E6B331"/>
<path d="M105.568 145.004C102.08 147.546 94.6573 152.656 92.8712 152.762C91.085 152.869 93.108 153.271 94.3427 153.459C98.6257 150.817 106.867 145.428 105.568 145.004Z" fill="#E6B331"/>
<path d="M112.494 147.806C110.094 149.82 104.989 153.915 103.777 154.185C104.085 154.342 104.899 154.573 105.687 154.239C108.423 152.134 113.613 147.901 112.494 147.806Z" fill="#E6B331"/>
<path d="M91.7402 138.221C86.8568 141.134 76.629 146.87 74.7849 146.514C75.093 146.671 76.0767 146.88 77.5468 146.461C79.3844 145.937 94.0998 139.1 91.7402 138.221Z" fill="#D0A130"/>
<path d="M80.8521 130.042C76.9244 132.297 68.8841 136.711 68.1447 136.334C68.2764 136.464 68.8805 136.682 70.2433 136.512C71.9468 136.298 81.8742 129.914 80.8521 130.042Z" fill="#E6B331"/>
<path d="M76.8652 125.844C74.5624 127.258 69.7757 130.022 69.0508 129.76C69.1885 129.939 69.6648 130.241 70.468 130.023C71.4719 129.75 77.9235 126.005 76.8652 125.844Z" fill="#E6B331"/>
<path fill-rule="evenodd" clip-rule="evenodd" d="M235.183 70.6087C235.932 69.6828 237.338 67.3726 236.969 65.5393C236.492 64.033 235.364 61.0127 234.668 60.9825C234.135 60.4131 232.971 59.3159 232.576 59.4828C232.084 59.6914 231.993 58.9686 229.401 58.9999C229.763 60.9613 231.425 66.029 235.183 70.6087ZM231.42 59.9214C234.039 59.8281 233.954 61.2678 233.584 61.9994C233.082 62.4147 232.604 62.4648 232.428 62.438C232.019 62.4893 231.354 61.6917 231.072 61.2865C230.333 60.9093 230.996 60.2193 231.42 59.9214Z" fill="#0E1619"/>
<path d="M233.584 61.9994C233.954 61.2678 234.039 59.8281 231.42 59.9214C230.996 60.2193 230.333 60.9093 231.072 61.2865C231.354 61.6917 232.019 62.4893 232.428 62.438C232.604 62.4648 233.082 62.4147 233.584 61.9994Z" fill="#F3EEF4"/>
<path d="M231.58 58.4331C230.991 58.1545 229.72 58.3236 229.159 58.443L229.401 58.9999C231.993 58.9686 232.084 59.6914 232.576 59.4828C232.971 59.3159 234.135 60.4131 234.668 60.9825C235.364 61.0127 236.492 64.033 236.969 65.5393C237.338 67.3726 235.932 69.6828 235.183 70.6087L236.727 71.8835C237.272 71.8151 238.039 69.4676 238.354 68.3023C238.774 66.1353 237.543 63.216 236.875 62.0273C234.189 58.5464 232.315 58.7813 231.58 58.4331Z" fill="#1F6182"/>
<path d="M237.839 72.4781C238.558 71.3112 239.814 68.3542 239.086 65.8613C238.797 64.4781 237.979 61.4484 237.016 60.3944C236.127 59.2823 232.692 57.4454 228.609 56.9L229.159 58.443C229.72 58.3236 230.991 58.1545 231.58 58.4331C232.315 58.7813 234.189 58.5464 236.875 62.0273C237.543 63.216 238.774 66.1353 238.354 68.3023C238.039 69.4676 237.272 71.8151 236.727 71.8835L237.839 72.4781Z" fill="#D9E4E6"/>
<path d="M229.159 58.443L228.609 56.9C227.497 54.9348 225.775 50.498 225.23 50.5663C225.433 52.6454 225.914 56.8529 226.215 57.05C227.01 59.2507 228.748 63.7217 229.336 64.0003C230.633 65.5997 234.608 70.4458 235.183 70.6087C231.425 66.029 229.763 60.9613 229.401 58.9999L229.159 58.443Z" fill="#4F363A"/>
<path fill-rule="evenodd" clip-rule="evenodd" d="M196.426 43.0185C197.655 39.5754 202.696 37.8275 205.063 37.3839C208.239 36.4482 211.69 37.2407 213.376 37.8788C213.01 37.6261 212.654 37.4015 212.308 37.2097C209.169 34.7156 201.483 29.2579 195.849 27.38C195.686 27.3146 195.513 27.2457 195.329 27.1737C191.487 27.9459 183.722 30.1551 181.025 33.3498C178.627 34.923 173.46 38.7032 171.978 41.2382C169.035 44.4459 162.901 52.7425 161.906 60.2674C161.232 63.6311 160.037 71.3084 160.652 75.1076C160.945 79.2801 162.038 88.6477 164.074 92.7387C165.065 96.0405 168.109 103.95 172.363 109.172C174.339 111.127 179.206 115.45 182.874 117.105C179.989 116.634 172.919 114.711 167.72 110.782C163.856 107.106 156.008 99.0652 155.524 96.3068C155.027 96.0264 154.075 93.5812 154.237 86.0432C153.572 84.0558 152.323 80.1588 152.126 78.9663C152.104 78.8341 152.096 78.7351 152.102 78.6757C150.873 78.5361 153.78 72.7389 152.965 73.1348C152.23 74.3804 151.012 76.9926 150.91 78.769C151.44 81.5056 152.111 84.5928 152.588 86.6904C153.327 87.0676 152.599 92.758 152.142 95.5561C151.246 96.1383 153.847 98.5726 155.259 99.717C157.579 101.658 161.817 106.481 163.646 108.65C163.87 109.327 169.906 115.794 172.896 118.943C175.842 122.567 189.651 126.533 196.187 128.063C200.59 128.226 210.286 128.171 214.695 126.701C216.488 125.143 222.521 119.15 225.495 116.166C225.539 116.126 225.584 116.086 225.628 116.046C220.768 117.736 214.958 116.543 212.635 115.723C208.961 115.126 205.162 111.325 203.722 109.499C201.791 108.449 201.146 103.214 201.065 100.728C200.468 99.2761 201.099 96.8574 201.49 95.8297C201.71 94.275 206.245 86.3747 208.485 82.6189C211.059 76.6579 211.114 72.3049 210.819 70.8736C210.723 69.0062 209.81 65.1269 209.365 63.4207C209.249 62.4955 207.178 59.7794 206.158 58.537C206.343 57.8089 202.847 55.1345 201.076 53.8882C199.606 54.3075 197.351 51.3207 196.408 49.775C195.1 48.177 195.875 44.6049 196.426 43.0185ZM182.602 39.0254C181.761 38.2987 180.904 36.8008 184.204 36.6221C184.892 37.5146 185.536 39.2448 182.602 39.0254ZM181.098 40.8291C179.998 41.2606 178.35 42.3775 180.554 43.3933C183.309 44.6631 182.729 40.0373 181.098 40.8291ZM177.564 40.2443C176.509 40.5723 174.848 41.4951 176.643 42.5622C178.438 43.6292 178.005 41.4615 177.564 40.2443ZM171.34 47.1914C170.877 46.7112 170.395 45.7241 172.181 45.6177C173.968 45.5112 172.365 46.6225 171.34 47.1914ZM183.095 45.7177C182.499 45.1072 181.69 43.897 183.218 43.9403C185.128 43.9945 184.117 45.5896 183.095 45.7177ZM185.161 41.4943C184.257 40.7266 183.142 39.1926 185.911 39.1978C189.372 39.2043 185.842 41.4089 185.161 41.4943ZM189.34 41.7045C188.467 42.1075 187.127 43.0979 188.742 43.8351C190.357 44.5723 189.813 42.7219 189.34 41.7045ZM194.896 39.0991C193.746 39.5859 191.774 40.6945 193.087 41.2346C194.729 41.9097 196.313 39.3619 194.896 39.0991ZM191.387 37.3365C190.545 37.9805 189.216 39.3413 190.637 39.633C192.413 39.9977 192.446 37.4975 191.387 37.3365ZM188.288 33.3202C187.503 33.957 186.288 35.3036 187.709 35.5953C189.485 35.96 190.576 33.6207 188.288 33.3202ZM185.222 33.7046C184.848 33.0174 184.443 31.6292 185.82 31.574C187.542 31.505 186.433 33.6997 185.222 33.7046ZM194.262 34.0396C193.472 33.2577 192.375 31.6919 194.312 31.6839C196.734 31.674 195.831 34.1365 194.262 34.0396ZM196.676 35.3521C195.765 35.9068 194.407 37.1341 196.266 37.6058C198.589 38.1955 197.393 35.5557 196.676 35.3521ZM200.423 34.8822C200.019 33.9541 199.677 32.2447 201.551 32.8321C203.892 33.5663 201.141 35.0859 200.423 34.8822ZM182.674 60.3065C185.854 59.9079 193.053 60.0038 196.408 63.5769C197.925 65.0997 200.839 68.8358 200.355 71.5982C199.75 75.0512 199.243 78.5768 197.325 79.5089C196.256 84.493 189.012 85.7739 185.523 85.7914C182.296 86.5484 177.444 83.9166 175.422 82.5061C174.195 82.6599 172.011 77.8436 171.073 75.4163C170.252 73.2874 171.704 69.4149 172.533 67.7448C174.006 64.0363 179.908 61.2407 182.674 60.3065Z" fill="#392427"/>
<path d="M205.063 37.3839C202.696 37.8275 197.655 39.5754 196.426 43.0185C195.875 44.6049 195.1 48.177 196.408 49.775C197.351 51.3207 199.606 54.3075 201.076 53.8882C202.847 55.1345 206.343 57.8089 206.158 58.537C207.178 59.7794 209.249 62.4955 209.365 63.4207C209.81 65.1269 210.723 69.0062 210.819 70.8736C211.114 72.3049 211.059 76.6579 208.485 82.6189C206.245 86.3747 201.71 94.275 201.49 95.8297C201.099 96.8574 200.468 99.2761 201.065 100.728C201.146 103.214 201.791 108.449 203.722 109.499C205.162 111.325 208.961 115.126 212.635 115.723C214.958 116.543 220.768 117.736 225.628 116.046C232.286 110.054 237.523 102.501 239.318 99.4562C236.184 99.8491 233.385 99.5148 232.377 99.2986C231.589 99.6324 226.433 97.8903 223.954 96.9776C223.409 97.0459 219.037 94.5596 216.919 93.3079C216.496 93.2435 214.582 91.692 213.679 90.9244C213.284 91.0913 213.019 91.6433 212.936 91.8985C212.944 93.072 211.613 92.8474 210.946 92.5885C209.74 91.8 210.733 89.9722 211.381 89.1569C212.628 88.0608 213.71 87.4944 214.095 87.3482C215.853 87.0104 215.63 88.0858 215.299 88.6656C215.143 89.0259 215.171 89.1939 215.272 89.2563C215.38 89.323 215.572 89.2693 215.712 89.2012C218.062 89.5428 223.872 89.1471 228.314 84.8314C231.327 82.6427 237.767 78.8009 238.089 78.6136C239.017 78.1122 241.06 77.3307 243.443 77.151C241.656 75.779 238.034 72.9236 237.839 72.4781L236.727 71.8835L235.183 70.6087C234.608 70.4458 230.633 65.5997 229.336 64.0003C228.748 63.7217 227.01 59.2507 226.215 57.05C225.914 56.8529 225.433 52.6454 225.23 50.5663C222.921 47.3889 217.576 40.7816 213.376 37.8788C211.69 37.2407 208.239 36.4482 205.063 37.3839Z" fill="#EEF0EF"/>
<path d="M200.423 34.8822C200.019 33.9541 199.677 32.2447 201.551 32.8321C203.892 33.5663 201.141 35.0859 200.423 34.8822Z" fill="#513B3E"/>
<path d="M196.676 35.3521C195.765 35.9068 194.407 37.1341 196.266 37.6058C198.589 38.1955 197.393 35.5557 196.676 35.3521Z" fill="#513B3E"/>
<path d="M194.896 39.0991C193.746 39.5859 191.774 40.6945 193.087 41.2346C194.729 41.9097 196.313 39.3619 194.896 39.0991Z" fill="#513B3E"/>
<path d="M189.34 41.7045C188.467 42.1075 187.127 43.0979 188.742 43.8351C190.357 44.5723 189.813 42.7219 189.34 41.7045Z" fill="#513B3E"/>
<path d="M183.095 45.7177C182.499 45.1072 181.69 43.897 183.218 43.9403C185.128 43.9945 184.117 45.5896 183.095 45.7177Z" fill="#513B3E"/>
<path d="M185.161 41.4943C184.257 40.7266 183.142 39.1926 185.911 39.1978C189.372 39.2043 185.842 41.4089 185.161 41.4943Z" fill="#513B3E"/>
<path d="M171.34 47.1914C170.877 46.7112 170.395 45.7241 172.181 45.6177C173.968 45.5112 172.365 46.6225 171.34 47.1914Z" fill="#513B3E"/>
<path d="M177.564 40.2443C176.509 40.5723 174.848 41.4951 176.643 42.5622C178.438 43.6292 178.005 41.4615 177.564 40.2443Z" fill="#513B3E"/>
<path d="M181.098 40.8291C179.998 41.2606 178.35 42.3775 180.554 43.3933C183.309 44.6631 182.729 40.0373 181.098 40.8291Z" fill="#513B3E"/>
<path d="M182.602 39.0254C181.761 38.2987 180.904 36.8008 184.204 36.6221C184.892 37.5146 185.536 39.2448 182.602 39.0254Z" fill="#513B3E"/>
<path d="M191.387 37.3365C190.545 37.9805 189.216 39.3413 190.637 39.633C192.413 39.9977 192.446 37.4975 191.387 37.3365Z" fill="#513B3E"/>
<path d="M188.288 33.3202C187.503 33.957 186.288 35.3036 187.709 35.5953C189.485 35.96 190.576 33.6207 188.288 33.3202Z" fill="#513B3E"/>
<path d="M185.222 33.7046C184.848 33.0174 184.443 31.6292 185.82 31.574C187.542 31.505 186.433 33.6997 185.222 33.7046Z" fill="#513B3E"/>
<path d="M194.262 34.0396C193.472 33.2577 192.375 31.6919 194.312 31.6839C196.734 31.674 195.831 34.1365 194.262 34.0396Z" fill="#513B3E"/>
</svg>
