<svg width="543" height="644" viewBox="0 0 543 644" fill="none" xmlns="http://www.w3.org/2000/svg">
<path d="M126 98.5L3.5 103.5V192L49 211.5L31 216.325L0.5 224.5V258.5V292.5L21.5 300.5L0.5 306.5V333.5L524.5 328.5V262V236.364L501.5 228L440.5 218.5L524.5 199.5V94H501.5L492 111L483.5 94L303 96.5L241 98.5H144L135.5 116.5L126 98.5Z" fill="#C3742D"/>
<path d="M501.5 228L539 213.185L524.5 199.5L440.5 218.5L501.5 228Z" fill="#662B00"/>
<path d="M540 348V242L524.5 236.364V262V328.5L0.5 333.5V336.5L21.5 355.5L239.5 351.5H257H301L540 348Z" fill="#662B00"/>
<path d="M542 108L529 94H524.5V199.5L539 213.185L542 212V108Z" fill="#662B00"/>
<path d="M49 211.5L3.5 192V203.5L31 216.325L49 211.5Z" fill="#662B00"/>
<path d="M301 643V351.5H257H239.5V643H301Z" fill="#A24905"/>
<path d="M244 24L241 98.5L303 96.5L301 28C301 28 295.5 17 290.5 11.5C285.5 6.00003 280 0.49997 271.5 0.5C263 0.50003 244 24 244 24Z" fill="#A24905"/>
<path d="M241 98.5H144L135.5 116.5L126 98.5L3.5 103.5V192M241 98.5L244 24C244 24 263 0.50003 271.5 0.5C280 0.49997 285.5 6.00003 290.5 11.5C295.5 17 301 28 301 28L303 96.5M241 98.5L303 96.5M303 96.5L483.5 94L492 111L501.5 94H524.5M501.5 228L539 213.185M501.5 228L440.5 218.5L524.5 199.5M501.5 228L524.5 236.364M301 351.5L540 348V242L524.5 236.364M301 351.5V643H239.5V351.5M301 351.5H257H239.5M239.5 351.5L21.5 355.5L0.5 336.5V333.5M3.5 192L49 211.5L31 216.325M3.5 192V203.5L31 216.325M524.5 94H529L542 108V212L539 213.185M524.5 94V199.5M524.5 199.5L539 213.185M524.5 236.364V262V328.5L0.5 333.5M0.5 333.5V306.5L21.5 300.5L0.5 292.5V258.5V224.5L31 216.325" stroke="black"/>
<path d="M15 139H195M374 125C432.774 125 465.726 125 524.5 125M278.5 169.5H400.5M524.5 153.5C506.536 153.5 496.464 153.5 478.5 153.5M95 229C148.111 229 177.889 229 231 229M345.5 255C403.493 255 436.007 255 494 255M1 263.5C21.3073 263.5 32.6927 263.5 53 263.5M40 296C72.4135 296 90.5865 296 123 296M256.5 304C309.416 304 339.084 304 392 304M246.5 367C246.5 391.017 246.5 404.483 246.5 428.5M268 399.5C268 424.298 268 438.202 268 463M256.5 468.5C256.5 485.097 256.5 494.403 256.5 511M286.5 428.5V485M275 506C275 531.189 275 545.311 275 570.5M246.5 545.5V599M286.5 555.5V599M268 604C268 617.083 268 624.417 268 637.5M255.5 26C255.5 35.1773 255.5 40.3227 255.5 49.5M274.5 11.5C274.5 19.1152 274.5 23.3848 274.5 31M285.5 43C285.5 53.1536 285.5 58.8464 285.5 69M267.5 59C267.5 69.1536 267.5 74.8464 267.5 85" stroke="black"/>
<path d="M90.4676 147.447C90.4676 151.603 88.7357 154.626 85.2717 156.516C81.8708 158.342 76.297 159.444 68.5504 159.822C68.8023 162.845 68.9283 166.75 68.9283 171.537C68.9283 178.213 68.5504 183.566 67.7947 187.597C67.1019 191.564 65.8737 194.525 64.1103 196.477C62.3468 198.366 59.8906 199.311 56.7416 199.311C53.6555 199.311 51.2938 198.303 49.6563 196.288C48.0188 194.273 46.8851 191.281 46.2553 187.313C45.6255 183.346 45.3106 178.087 45.3106 171.537C45.3106 167.128 45.4051 163.223 45.594 159.822C40.3667 159.57 36.147 159.035 32.935 158.216C29.7859 157.335 27.4557 156.043 25.9441 154.343C24.4326 152.643 23.6768 150.344 23.6768 147.447C23.6768 143.92 24.8735 141.149 27.2667 139.133C29.66 137.118 33.2499 135.701 38.0364 134.882C42.8229 134.063 49.0895 133.654 56.836 133.654C64.6456 133.654 70.9752 134.063 75.8247 134.882C80.6742 135.701 84.327 137.118 86.7833 139.133C89.2395 141.149 90.4676 143.92 90.4676 147.447ZM96.7964 199.5C92.7657 199.5 90.0575 197.138 88.6719 192.415C87.3493 187.691 86.6881 181.173 86.6881 172.859C86.6881 169.08 86.8455 165.931 87.1604 163.412C87.5383 160.83 88.3885 158.657 89.7111 156.894C91.0967 155.067 93.2065 154.154 96.0407 154.154C97.8041 154.154 99.3471 154.563 100.67 155.382C102.055 156.201 102.937 157.366 103.315 158.878C104.7 157.618 106.495 156.673 108.7 156.043C110.904 155.414 113.266 155.099 115.785 155.099C117.8 155.099 119.847 155.603 121.926 156.61C124.067 157.618 125.83 159.004 127.216 160.767C128.665 162.467 129.389 164.325 129.389 166.341C129.389 168.356 128.665 170.151 127.216 171.726C125.83 173.237 123.972 173.993 121.642 173.993C120.886 173.993 120.162 173.898 119.469 173.709C118.84 173.521 118.273 173.332 117.769 173.143C116.509 172.639 115.502 172.387 114.746 172.387C112.29 172.387 110.117 173.363 108.227 175.315C106.401 177.205 105.488 179.661 105.488 182.684C105.488 186.022 105.362 188.793 105.11 190.998C104.858 193.202 104.102 195.186 102.843 196.949C101.583 198.65 99.5676 199.5 96.7964 199.5ZM148.039 213.482C144.638 213.482 141.804 212.82 139.537 211.498C137.27 210.175 136.136 208.223 136.136 205.641C136.136 203.562 137.112 201.925 139.065 200.728C141.017 199.531 143.316 198.996 145.961 199.122C148.732 199.248 150.874 199.122 152.385 198.744C153.96 198.366 155.156 197.674 155.975 196.666C150.181 196.666 145.552 195.847 142.088 194.21C138.624 192.509 136.105 189.895 134.53 186.369C133.019 182.779 132.263 178.055 132.263 172.198C132.263 167.16 133.019 163.097 134.53 160.011C136.105 156.862 138.561 155.288 141.899 155.288C144.859 155.288 147.032 156.138 148.417 157.838C149.866 159.476 150.59 161.617 150.59 164.262L150.496 168.419C150.433 169.238 150.401 170.435 150.401 172.009C150.401 175.032 150.779 177.331 151.535 178.905C152.291 180.417 153.802 181.173 156.069 181.173C158.337 181.173 159.848 180.417 160.604 178.905C161.36 177.331 161.738 175.064 161.738 172.103C161.738 170.529 161.706 169.332 161.643 168.514L161.549 164.451C161.549 161.617 162.241 159.381 163.627 157.744C165.076 156.106 167.28 155.288 170.24 155.288C173.578 155.288 176.034 156.862 177.609 160.011C179.183 163.16 179.97 167.223 179.97 172.198C179.97 179.63 178.9 186.463 176.758 192.698C174.68 198.87 171.248 203.877 166.461 207.719C161.738 211.561 155.597 213.482 148.039 213.482ZM221.98 176.071C222.925 177.268 224.437 179.504 226.515 182.779C228.971 186.683 230.199 189.99 230.199 192.698C230.199 194.902 229.475 196.571 228.027 197.705C226.578 198.776 224.878 199.311 222.925 199.311C221.099 199.311 219.241 198.555 217.351 197.044C215.525 195.532 213.604 193.485 211.589 190.903C209.447 188.069 208.03 186.054 207.337 184.857C206.519 185.172 205.606 185.487 204.598 185.802C204.157 190.525 203.275 193.958 201.953 196.099C200.63 198.24 198.615 199.311 195.907 199.311C193.135 199.311 190.931 198.177 189.294 195.91C187.656 193.643 186.459 190.116 185.704 185.329C185.011 180.543 184.665 174.213 184.665 166.341C184.665 158.846 184.885 152.831 185.326 148.297C185.83 143.699 186.9 140.078 188.538 137.433C190.175 134.725 192.632 133.371 195.907 133.371C198.615 133.371 200.63 134.315 201.953 136.205C203.338 138.094 204.22 140.708 204.598 144.046C205.039 147.321 205.259 151.729 205.259 157.272V163.223L205.543 163.034C209.195 160.578 212.407 158.657 215.179 157.272C218.013 155.886 220.563 155.193 222.831 155.193C225.413 155.193 227.428 156.075 228.877 157.838C230.388 159.539 231.144 161.46 231.144 163.601C231.144 165.868 230.388 167.947 228.877 169.836C227.365 171.726 225.066 173.804 221.98 176.071ZM273.826 213.009C270.74 213.009 268.504 211.435 267.118 208.286C265.733 205.2 264.882 201.673 264.568 197.705C264.316 193.737 264.19 188.51 264.19 182.023C264.19 177.047 264.379 172.67 264.756 168.891C265.197 165.113 266.174 161.838 267.685 159.067C269.197 156.295 271.495 154.91 274.581 154.91C277.793 154.91 280.124 156.169 281.572 158.689C283.021 157.618 284.816 156.768 286.957 156.138C289.161 155.445 291.46 155.099 293.853 155.099C297.884 155.099 301.6 156.106 305.001 158.122C308.402 160.137 311.11 162.845 313.125 166.246C315.141 169.647 316.149 173.363 316.149 177.394C316.149 181.425 315.141 185.172 313.125 188.636C311.11 192.037 308.402 194.745 305.001 196.76C301.6 198.776 297.884 199.783 293.853 199.783C291.397 199.783 289.098 199.469 286.957 198.839C284.816 198.146 282.989 197.233 281.478 196.099C281.478 200.13 281.352 203.247 281.1 205.452C280.848 207.656 280.155 209.451 279.022 210.836C277.951 212.285 276.219 213.009 273.826 213.009ZM293.381 184.101C295.019 184.101 296.436 183.503 297.632 182.306C298.892 181.047 299.522 179.598 299.522 177.961C299.522 176.323 298.892 174.906 297.632 173.709C296.436 172.45 295.019 171.82 293.381 171.82C291.744 171.82 290.295 172.45 289.035 173.709C287.839 174.906 287.241 176.323 287.241 177.961C287.241 179.598 287.839 181.047 289.035 182.306C290.295 183.503 291.744 184.101 293.381 184.101ZM337.84 199.5C332.927 199.5 328.897 198.398 325.748 196.194C322.599 193.926 321.024 190.683 321.024 186.463C321.024 182.81 322.63 179.913 325.842 177.772C329.054 175.63 333.053 174.56 337.84 174.56C339.603 174.56 341.241 174.717 342.752 175.032C344.327 175.284 345.398 175.599 345.964 175.977C345.964 174.402 345.303 173.111 343.98 172.103C342.658 171.033 340.643 170.497 337.934 170.497C336.738 170.497 335.762 170.592 335.006 170.781C334.25 170.97 333.431 171.253 332.55 171.631C331.668 172.009 330.849 172.292 330.093 172.481C329.401 172.67 328.456 172.765 327.259 172.765C325.244 172.765 323.669 172.261 322.536 171.253C321.402 170.183 320.835 168.577 320.835 166.435C320.835 163.979 321.717 161.901 323.48 160.2C325.307 158.5 327.574 157.24 330.282 156.421C332.99 155.54 335.699 155.099 338.407 155.099C343.76 155.099 348.232 156.106 351.822 158.122C355.474 160.074 358.151 162.688 359.852 165.963C361.615 169.238 362.497 172.859 362.497 176.827C362.497 178.968 362.308 180.952 361.93 182.779C361.615 184.605 361.174 186.022 360.607 187.03C361.489 187.786 362.15 188.667 362.591 189.675C363.095 190.683 363.347 191.722 363.347 192.793C363.347 194.619 362.717 196.194 361.458 197.516C360.261 198.839 358.655 199.5 356.64 199.5C355.128 199.5 353.9 199.28 352.955 198.839C352.01 198.398 351.003 197.705 349.932 196.76C348.358 197.705 346.626 198.398 344.736 198.839C342.91 199.28 340.611 199.5 337.84 199.5ZM339.729 189.958C341.052 189.958 342.091 189.675 342.847 189.108C343.666 188.541 344.075 187.849 344.075 187.03C344.075 186.211 343.666 185.518 342.847 184.952C342.091 184.385 341.052 184.101 339.729 184.101C338.407 184.101 337.336 184.385 336.517 184.952C335.762 185.518 335.384 186.211 335.384 187.03C335.384 187.849 335.762 188.541 336.517 189.108C337.336 189.675 338.407 189.958 339.729 189.958ZM341.146 152.926C338.312 152.926 335.825 151.887 333.683 149.808C331.542 147.667 330.471 145.148 330.471 142.251C330.471 140.424 330.944 138.692 331.888 137.055C332.896 135.417 334.219 134.126 335.856 133.182C337.556 132.174 339.32 131.67 341.146 131.67C342.973 131.67 344.705 132.174 346.342 133.182C348.043 134.126 349.365 135.417 350.31 137.055C351.318 138.692 351.822 140.424 351.822 142.251C351.822 145.148 350.751 147.667 348.61 149.808C346.468 151.887 343.98 152.926 341.146 152.926ZM341.146 145.368C341.902 145.368 342.563 145.085 343.13 144.518C343.697 143.888 343.98 143.195 343.98 142.44C343.98 141.684 343.697 141.023 343.13 140.456C342.563 139.826 341.902 139.511 341.146 139.511C340.391 139.511 339.698 139.826 339.068 140.456C338.501 141.023 338.218 141.684 338.218 142.44C338.218 143.195 338.501 143.888 339.068 144.518C339.698 145.085 340.391 145.368 341.146 145.368ZM420.105 199.5C415.445 199.5 411.32 198.587 407.73 196.76C404.14 194.934 401.337 192.383 399.322 189.108C397.369 185.77 396.393 182.023 396.393 177.866C396.393 173.772 397.369 169.994 399.322 166.53C401.337 163.066 404.108 160.295 407.635 158.216C411.162 156.138 415.161 155.099 419.633 155.099C423.664 155.099 427.222 155.918 430.308 157.555C433.394 159.192 435.756 161.365 437.394 164.073C439.031 166.719 439.85 169.49 439.85 172.387C439.85 177.11 438.055 180.574 434.465 182.779C430.938 184.92 426.718 185.991 421.806 185.991C418.531 185.991 415.76 185.581 413.492 184.763C415.382 187.849 418.499 189.392 422.845 189.392C424.609 189.392 426.498 189.171 428.513 188.73C429.269 188.541 429.993 188.447 430.686 188.447C432.072 188.447 433.174 188.793 433.993 189.486C434.874 190.179 435.315 191.124 435.315 192.32C435.315 194.273 434.119 195.973 431.725 197.422C429.332 198.807 425.459 199.5 420.105 199.5ZM413.776 173.237C414.343 174.119 415.098 174.78 416.043 175.221C417.051 175.599 418.153 175.788 419.35 175.788C420.735 175.788 421.932 175.473 422.94 174.843C424.01 174.213 424.546 173.395 424.546 172.387C424.546 171.253 424.073 170.277 423.129 169.458C422.247 168.64 420.956 168.23 419.255 168.23C417.555 168.23 416.201 168.766 415.193 169.836C414.248 170.844 413.776 171.978 413.776 173.237ZM480.022 199.5C477.755 199.5 476.054 198.87 474.921 197.611C473.85 196.351 473.189 194.808 472.937 192.982C472.685 191.155 472.559 188.793 472.559 185.896C472.559 182.18 472.055 179.315 471.047 177.299C470.04 175.284 468.402 174.276 466.135 174.276C464.056 174.276 462.482 175.284 461.411 177.299C460.404 179.252 459.9 181.96 459.9 185.424C459.9 188.762 459.805 191.281 459.616 192.982C459.427 194.682 458.798 196.194 457.727 197.516C456.656 198.776 454.893 199.406 452.437 199.406C448.847 199.406 446.327 197.107 444.879 192.509C443.43 187.849 442.706 182.401 442.706 176.166C442.706 161.05 445.887 153.493 452.248 153.493C454.011 153.493 455.46 153.934 456.593 154.815C457.727 155.634 458.514 156.831 458.955 158.405C459.774 157.524 461.033 156.736 462.734 156.043C464.497 155.351 466.355 155.004 468.308 155.004C475.235 155.004 480.4 157.524 483.801 162.562C487.265 167.6 488.997 174.434 488.997 183.062C488.997 188.164 488.335 192.194 487.013 195.154C485.69 198.051 483.36 199.5 480.022 199.5ZM55.6733 293.5C50.7608 293.5 46.73 292.398 43.581 290.194C40.432 287.926 38.8575 284.683 38.8575 280.463C38.8575 276.81 40.4635 273.913 43.6755 271.772C46.8875 269.63 50.8867 268.56 55.6733 268.56C57.4367 268.56 59.0742 268.717 60.5857 269.032C62.1602 269.284 63.2309 269.599 63.7977 269.977C63.7977 268.402 63.1364 267.111 61.8139 266.103C60.4913 265.033 58.4759 264.497 55.7677 264.497C54.5711 264.497 53.5949 264.592 52.8391 264.781C52.0834 264.97 51.2646 265.253 50.3829 265.631C49.5012 266.009 48.6824 266.292 47.9267 266.481C47.2339 266.67 46.2892 266.765 45.0925 266.765C43.0772 266.765 41.5027 266.261 40.369 265.253C39.2354 264.183 38.6685 262.577 38.6685 260.435C38.6685 257.979 39.5503 255.901 41.3137 254.2C43.1401 252.5 45.4074 251.24 48.1156 250.421C50.8238 249.54 53.5319 249.099 56.2401 249.099C61.5934 249.099 66.065 250.106 69.6549 252.122C73.3078 254.074 75.9845 256.688 77.6849 259.963C79.4484 263.238 80.3301 266.859 80.3301 270.827C80.3301 272.968 80.1412 274.952 79.7633 276.779C79.4484 278.605 79.0075 280.022 78.4407 281.03C79.3224 281.786 79.9837 282.667 80.4246 283.675C80.9284 284.683 81.1803 285.722 81.1803 286.793C81.1803 288.619 80.5505 290.194 79.2909 291.516C78.0943 292.839 76.4883 293.5 74.4729 293.5C72.9614 293.5 71.7333 293.28 70.7886 292.839C69.8439 292.398 68.8362 291.705 67.7655 290.76C66.191 291.705 64.459 292.398 62.5696 292.839C60.7432 293.28 58.4444 293.5 55.6733 293.5ZM57.5627 283.958C58.8853 283.958 59.9244 283.675 60.6802 283.108C61.499 282.541 61.9083 281.849 61.9083 281.03C61.9083 280.211 61.499 279.518 60.6802 278.952C59.9244 278.385 58.8853 278.101 57.5627 278.101C56.2401 278.101 55.1694 278.385 54.3507 278.952C53.5949 279.518 53.217 280.211 53.217 281.03C53.217 281.849 53.5949 282.541 54.3507 283.108C55.1694 283.675 56.2401 283.958 57.5627 283.958ZM112.802 255.901C118.974 256.027 123.414 256.688 126.123 257.885C128.894 259.081 130.279 261.38 130.279 264.781C130.279 268.119 128.862 270.386 126.028 271.583C123.257 272.716 118.911 273.346 112.991 273.472L113.086 280.935C113.149 282.132 113.18 283.801 113.18 285.942C113.18 288.651 112.424 290.571 110.913 291.705C109.401 292.776 107.638 293.311 105.622 293.311C102.158 293.311 99.6393 291.579 98.0648 288.115C96.4903 284.651 95.5141 279.707 95.1362 273.283C91.0424 272.968 87.9879 272.181 85.9725 270.922C84.0201 269.662 83.0439 267.615 83.0439 264.781C83.0439 261.947 84.0201 259.9 85.9725 258.64C87.9879 257.318 91.0424 256.467 95.1362 256.09C95.5141 249.98 96.4273 244.848 97.8758 240.691C99.3244 236.534 101.686 233.291 104.961 230.96C108.236 228.567 112.645 227.371 118.187 227.371C121.651 227.371 124.517 228.189 126.784 229.827C129.114 231.401 130.279 233.7 130.279 236.723C130.279 239.872 129.303 242.265 127.351 243.903C125.461 245.477 122.848 246.58 119.51 247.209C117.305 247.65 115.699 248.626 114.692 250.138C113.684 251.586 113.054 253.507 112.802 255.901ZM192.604 255.901C198.776 256.027 203.216 256.688 205.924 257.885C208.696 259.081 210.081 261.38 210.081 264.781C210.081 268.119 208.664 270.386 205.83 271.583C203.059 272.716 198.713 273.346 192.793 273.472L192.888 280.935C192.951 282.132 192.982 283.801 192.982 285.942C192.982 288.651 192.226 290.571 190.715 291.705C189.203 292.776 187.44 293.311 185.424 293.311C181.96 293.311 179.441 291.579 177.867 288.115C176.292 284.651 175.316 279.707 174.938 273.283C170.844 272.968 167.79 272.181 165.774 270.922C163.822 269.662 162.846 267.615 162.846 264.781C162.846 261.947 163.822 259.9 165.774 258.64C167.79 257.318 170.844 256.467 174.938 256.09C175.316 249.98 176.229 244.848 177.678 240.691C179.126 236.534 181.488 233.291 184.763 230.96C188.038 228.567 192.447 227.371 197.989 227.371C201.453 227.371 204.318 228.189 206.586 229.827C208.916 231.401 210.081 233.7 210.081 236.723C210.081 239.872 209.105 242.265 207.153 243.903C205.263 245.477 202.649 246.58 199.312 247.209C197.107 247.65 195.501 248.626 194.494 250.138C193.486 251.586 192.856 253.507 192.604 255.901ZM225.102 247.682C222.016 247.682 219.402 246.58 217.261 244.375C215.12 242.108 214.049 239.368 214.049 236.156C214.049 233.007 215.12 230.331 217.261 228.126C219.402 225.859 222.016 224.725 225.102 224.725C228.125 224.725 230.707 225.859 232.849 228.126C235.053 230.331 236.155 233.007 236.155 236.156C236.155 239.368 235.053 242.108 232.849 244.375C230.707 246.58 228.125 247.682 225.102 247.682ZM225.102 293.5C222.52 293.5 220.599 292.776 219.339 291.327C218.143 289.816 217.324 287.58 216.883 284.62C216.505 281.597 216.316 277.314 216.316 271.772C216.316 267.111 216.537 263.427 216.978 260.719C217.481 258.011 218.363 255.995 219.623 254.673C220.882 253.35 222.709 252.689 225.102 252.689C227.684 252.689 229.574 253.444 230.77 254.956C232.03 256.405 232.849 258.64 233.227 261.663C233.667 264.623 233.888 268.875 233.888 274.417C233.888 279.077 233.636 282.762 233.132 285.47C232.691 288.178 231.841 290.194 230.581 291.516C229.322 292.839 227.495 293.5 225.102 293.5ZM259.033 293.5C253.491 293.5 249.082 292.587 245.807 290.76C242.532 288.934 240.895 286.572 240.895 283.675C240.895 281.786 241.525 280.337 242.784 279.329C244.107 278.259 245.776 277.723 247.791 277.723C248.925 277.723 249.838 277.881 250.531 278.196C251.224 278.511 251.916 278.952 252.609 279.518C253.113 279.959 253.522 280.274 253.837 280.463C254.215 280.652 254.656 280.746 255.16 280.746C256.483 280.746 257.144 280.274 257.144 279.329C257.144 278.448 256.797 277.786 256.105 277.346C255.412 276.842 254.215 276.243 252.515 275.551C250.94 274.921 249.901 274.48 249.397 274.228C246.5 272.842 244.359 271.205 242.973 269.315C241.588 267.426 240.895 265.411 240.895 263.269C240.895 260.876 241.745 258.609 243.446 256.467C245.209 254.263 247.665 252.5 250.814 251.177C254.026 249.792 257.711 249.099 261.867 249.099C265.457 249.099 268.701 249.603 271.598 250.61C274.558 251.618 276.888 253.004 278.589 254.767C280.289 256.467 281.139 258.357 281.139 260.435C281.139 262.388 280.51 263.868 279.25 264.875C278.053 265.883 276.416 266.387 274.338 266.387C273.519 266.387 272.857 266.324 272.354 266.198C271.913 266.009 271.314 265.726 270.559 265.348C270.118 265.096 269.645 264.875 269.142 264.686C268.701 264.497 268.197 264.403 267.63 264.403C267.126 264.403 266.685 264.592 266.307 264.97C265.93 265.285 265.741 265.694 265.741 266.198C265.741 267.143 266.433 267.835 267.819 268.276C271.472 269.473 274.4 270.984 276.605 272.811C278.872 274.637 280.006 277.157 280.006 280.369C280.006 284.462 278.085 287.674 274.243 290.005C270.464 292.335 265.394 293.5 259.033 293.5ZM321.295 270.071C322.239 271.268 323.751 273.504 325.829 276.779C328.285 280.683 329.514 283.99 329.514 286.698C329.514 288.902 328.789 290.571 327.341 291.705C325.892 292.776 324.192 293.311 322.239 293.311C320.413 293.311 318.555 292.555 316.666 291.044C314.839 289.532 312.918 287.485 310.903 284.903C308.762 282.069 307.344 280.054 306.652 278.857C305.833 279.172 304.92 279.487 303.912 279.802C303.471 284.525 302.589 287.958 301.267 290.099C299.944 292.24 297.929 293.311 295.221 293.311C292.45 293.311 290.245 292.177 288.608 289.91C286.97 287.643 285.774 284.116 285.018 279.329C284.325 274.543 283.979 268.213 283.979 260.341C283.979 252.846 284.199 246.831 284.64 242.297C285.144 237.699 286.215 234.078 287.852 231.433C289.49 228.725 291.946 227.371 295.221 227.371C297.929 227.371 299.944 228.315 301.267 230.205C302.652 232.094 303.534 234.708 303.912 238.046C304.353 241.321 304.573 245.729 304.573 251.272V257.223L304.857 257.034C308.51 254.578 311.722 252.657 314.493 251.272C317.327 249.886 319.878 249.193 322.145 249.193C324.727 249.193 326.742 250.075 328.191 251.838C329.703 253.539 330.458 255.46 330.458 257.601C330.458 259.868 329.703 261.947 328.191 263.836C326.679 265.726 324.381 267.804 321.295 270.071ZM356.033 293.5C351.373 293.5 347.247 292.587 343.658 290.76C340.068 288.934 337.265 286.383 335.25 283.108C333.297 279.77 332.321 276.023 332.321 271.866C332.321 267.772 333.297 263.994 335.25 260.53C337.265 257.066 340.036 254.295 343.563 252.216C347.09 250.138 351.089 249.099 355.561 249.099C359.592 249.099 363.15 249.918 366.236 251.555C369.322 253.192 371.684 255.365 373.321 258.073C374.959 260.719 375.778 263.49 375.778 266.387C375.778 271.11 373.983 274.574 370.393 276.779C366.866 278.92 362.646 279.991 357.734 279.991C354.459 279.991 351.688 279.581 349.42 278.763C351.31 281.849 354.427 283.392 358.773 283.392C360.536 283.392 362.426 283.171 364.441 282.73C365.197 282.541 365.921 282.447 366.614 282.447C368 282.447 369.102 282.793 369.92 283.486C370.802 284.179 371.243 285.124 371.243 286.32C371.243 288.273 370.046 289.973 367.653 291.422C365.26 292.807 361.387 293.5 356.033 293.5ZM349.704 267.237C350.271 268.119 351.026 268.78 351.971 269.221C352.979 269.599 354.081 269.788 355.277 269.788C356.663 269.788 357.86 269.473 358.867 268.843C359.938 268.213 360.473 267.395 360.473 266.387C360.473 265.253 360.001 264.277 359.056 263.458C358.175 262.64 356.884 262.23 355.183 262.23C353.483 262.23 352.128 262.766 351.121 263.836C350.176 264.844 349.704 265.978 349.704 267.237ZM415.95 293.5C413.683 293.5 411.982 292.87 410.848 291.611C409.778 290.351 409.116 288.808 408.865 286.982C408.613 285.155 408.487 282.793 408.487 279.896C408.487 276.18 407.983 273.315 406.975 271.299C405.967 269.284 404.33 268.276 402.063 268.276C399.984 268.276 398.41 269.284 397.339 271.299C396.331 273.252 395.828 275.96 395.828 279.424C395.828 282.762 395.733 285.281 395.544 286.982C395.355 288.682 394.725 290.194 393.655 291.516C392.584 292.776 390.821 293.406 388.364 293.406C384.774 293.406 382.255 291.107 380.807 286.509C379.358 281.849 378.634 276.401 378.634 270.166C378.634 255.05 381.814 247.493 388.175 247.493C389.939 247.493 391.387 247.934 392.521 248.815C393.655 249.634 394.442 250.831 394.883 252.405C395.702 251.524 396.961 250.736 398.662 250.043C400.425 249.351 402.283 249.004 404.235 249.004C411.163 249.004 416.328 251.524 419.729 256.562C423.193 261.6 424.925 268.434 424.925 277.062C424.925 282.164 424.263 286.194 422.941 289.154C421.618 292.051 419.288 293.5 415.95 293.5ZM451.519 293.5C446.858 293.5 442.733 292.587 439.143 290.76C435.553 288.934 432.751 286.383 430.735 283.108C428.783 279.77 427.807 276.023 427.807 271.866C427.807 267.772 428.783 263.994 430.735 260.53C432.751 257.066 435.522 254.295 439.049 252.216C442.576 250.138 446.575 249.099 451.046 249.099C455.077 249.099 458.636 249.918 461.722 251.555C464.808 253.192 467.169 255.365 468.807 258.073C470.444 260.719 471.263 263.49 471.263 266.387C471.263 271.11 469.468 274.574 465.878 276.779C462.351 278.92 458.132 279.991 453.219 279.991C449.944 279.991 447.173 279.581 444.906 278.763C446.795 281.849 449.913 283.392 454.258 283.392C456.022 283.392 457.911 283.171 459.927 282.73C460.682 282.541 461.407 282.447 462.1 282.447C463.485 282.447 464.587 282.793 465.406 283.486C466.288 284.179 466.729 285.124 466.729 286.32C466.729 288.273 465.532 289.973 463.139 291.422C460.745 292.807 456.872 293.5 451.519 293.5ZM445.189 267.237C445.756 268.119 446.512 268.78 447.457 269.221C448.464 269.599 449.566 269.788 450.763 269.788C452.149 269.788 453.345 269.473 454.353 268.843C455.424 268.213 455.959 267.395 455.959 266.387C455.959 265.253 455.487 264.277 454.542 263.458C453.66 262.64 452.369 262.23 450.669 262.23C448.968 262.23 447.614 262.766 446.606 263.836C445.662 264.844 445.189 265.978 445.189 267.237ZM480.027 231.811C481.853 228.851 484.908 227.371 489.19 227.371C493.284 227.371 496.244 228.788 498.071 231.622C499.96 234.456 500.905 237.888 500.905 241.919C500.905 245.257 500.59 248.973 499.96 253.067C499.33 257.097 498.449 260.719 497.315 263.931C496.748 265.505 495.772 266.891 494.386 268.087C493.064 269.221 491.332 269.788 489.19 269.788C487.049 269.788 485.286 269.221 483.9 268.087C482.515 266.891 481.538 265.505 480.971 263.931C479.838 260.782 478.956 257.255 478.326 253.35C477.697 249.382 477.382 245.792 477.382 242.58C477.382 238.298 478.263 234.708 480.027 231.811ZM495.992 290.099C494.04 292.051 491.741 293.028 489.096 293.028C486.451 293.028 484.152 292.051 482.2 290.099C480.247 288.147 479.271 285.848 479.271 283.203C479.271 280.558 480.247 278.259 482.2 276.306C484.152 274.354 486.451 273.378 489.096 273.378C491.741 273.378 494.04 274.354 495.992 276.306C497.945 278.259 498.921 280.558 498.921 283.203C498.921 285.848 497.945 288.147 495.992 290.099Z" fill="#FFF700"/>
</svg>
