<svg width="197" height="271" viewBox="0 0 197 271" fill="none" xmlns="http://www.w3.org/2000/svg">
<path d="M192.242 118.615C181.739 149.229 155.222 172.137 122.859 176.125C111.96 177.462 101.089 177.267 90.2454 175.54C85.8399 174.83 81.8102 173.202 77.6552 171.635C67.8279 168.113 59.0376 163.018 51.2843 156.349C29.5557 137.694 19.5196 113.422 21.176 83.5323C22.1782 65.2671 28.8458 48.9649 41.1786 34.6256C53.3722 20.4673 65.4823 9.98429 82.7705 4.3669C119.999 -7.72405 160.359 5.76601 181.739 38.9691C197.594 63.6104 201.095 90.159 192.242 118.615ZM124.989 55.9466C133.466 57.0325 142.841 54.4639 146.724 46.4868C148.381 43.1039 148.597 39.5887 147.372 35.9412C145.158 29.3284 140.015 24.0521 131.942 20.1123C124.564 14.112 115.788 10.6525 105.613 9.73368C96.9686 8.94015 88.4985 10.4437 80.2024 14.2443C64.4314 21.4557 52.1195 32.4051 43.2665 47.0924C29.7923 69.4923 27.9271 93.7369 37.6709 119.826C39.3691 124.378 41.8537 128.256 45.1249 131.458C45.2426 131.574 45.3826 131.666 45.5366 131.727C45.6906 131.789 45.8554 131.818 46.0211 131.814C46.1868 131.81 46.35 131.773 46.5009 131.705C46.6519 131.636 46.7875 131.538 46.8996 131.416C49.5025 128.618 52.9059 126.599 57.1097 125.36C72.9642 120.696 86.0766 124.699 96.4467 137.367C99.0914 140.611 100.386 144.453 100.33 148.894C100.268 156.057 95.2147 160.15 88.7838 161.487C88.5122 161.543 88.2678 161.687 88.0874 161.897C87.907 162.106 87.8006 162.37 87.7841 162.649C87.7676 162.927 87.8419 163.204 87.9959 163.439C88.1499 163.674 88.3752 163.854 88.6378 163.951C97.5533 167.062 110.812 166.665 120.646 165.6C140.217 163.498 156.127 155.055 168.377 140.27C185.345 119.763 190.648 95.5537 184.287 67.6408C184.258 67.5063 184.194 67.3823 184.101 67.2809C184.008 67.1794 183.89 67.1039 183.757 67.0618C183.625 67.0197 183.483 67.0125 183.345 67.0408C183.207 67.069 183.078 67.1319 182.971 67.2231C175.643 73.5714 169.086 76.474 160.902 73.2164C152.278 69.7708 144.031 64.4666 134.886 60.4154C131.601 58.9676 128.302 57.478 124.989 55.9466Z" fill="#94DBDD"/>
<path d="M132.178 20.5268C125.872 18.5745 119.977 18.3599 114.491 19.883C105.45 22.3961 99.2625 30.8492 102.992 40.0084C106.7 49.1054 114.116 54.4915 125.24 56.1669C128.546 57.69 131.837 59.1715 135.115 60.6115C144.239 64.6408 152.468 69.9161 161.072 73.3431C169.238 76.5831 175.78 73.6962 183.092 67.3823C183.198 67.2915 183.327 67.229 183.464 67.2009C183.602 67.1728 183.743 67.18 183.876 67.2219C184.008 67.2637 184.126 67.3388 184.219 67.4397C184.311 67.5406 184.375 67.664 184.404 67.7977C190.751 95.5593 185.459 119.638 168.53 140.033C156.308 154.738 140.434 163.136 120.907 165.226C111.095 166.286 97.8668 166.68 88.9714 163.586C88.7095 163.489 88.4846 163.31 88.331 163.077C88.1773 162.843 88.1032 162.567 88.1197 162.29C88.1361 162.014 88.2423 161.751 88.4223 161.543C88.6022 161.334 88.8461 161.191 89.1172 161.135C95.5335 159.806 100.575 155.735 100.637 148.611C100.693 144.194 99.4014 140.372 96.7627 137.146C86.416 124.546 73.3333 120.566 57.5146 125.204C53.3204 126.436 49.9247 128.444 47.3276 131.227C47.2158 131.349 47.0805 131.446 46.9299 131.514C46.7793 131.582 46.6165 131.62 46.4512 131.623C46.2858 131.627 46.1214 131.598 45.9678 131.537C45.8141 131.476 45.6744 131.385 45.5569 131.269C42.2932 128.084 39.8142 124.228 38.1198 119.7C28.3981 93.7523 30.2591 69.6392 43.7028 47.3607C52.5357 32.753 64.8198 21.863 80.5551 14.6907C88.8325 10.9106 97.2834 9.41525 105.908 10.2045C116.06 11.1183 124.817 14.5591 132.178 20.5268Z" fill="#56BECA"/>
<path d="M131.987 19.6661C139.962 23.6347 145.042 28.9494 147.228 35.6104C148.438 39.2845 148.225 42.8254 146.589 46.233C142.753 54.2683 133.493 56.8556 125.12 55.7617C114.106 54.0649 106.764 48.6099 103.093 39.3967C99.4014 30.1204 105.527 21.5592 114.478 19.014C119.909 17.4715 125.745 17.6888 131.987 19.6661Z" fill="#DEF5EC"/>
<g filter="url(#filter0_d_329_119)">
<path d="M61.784 75.388C61.784 75.916 61.564 76.3 61.124 76.54C60.692 76.772 59.984 76.912 59 76.96C59.032 77.344 59.048 77.84 59.048 78.448C59.048 79.296 59 79.976 58.904 80.488C58.816 80.992 58.66 81.368 58.436 81.616C58.212 81.856 57.9 81.976 57.5 81.976C57.108 81.976 56.808 81.848 56.6 81.592C56.392 81.336 56.248 80.956 56.168 80.452C56.088 79.948 56.048 79.28 56.048 78.448C56.048 77.888 56.06 77.392 56.084 76.96C55.42 76.928 54.884 76.86 54.476 76.756C54.076 76.644 53.78 76.48 53.588 76.264C53.396 76.048 53.3 75.756 53.3 75.388C53.3 74.94 53.452 74.588 53.756 74.332C54.06 74.076 54.516 73.896 55.124 73.792C55.732 73.688 56.528 73.636 57.512 73.636C58.504 73.636 59.308 73.688 59.924 73.792C60.54 73.896 61.004 74.076 61.316 74.332C61.628 74.588 61.784 74.94 61.784 75.388ZM63.5479 82C63.0359 82 62.6919 81.7 62.5159 81.1C62.3479 80.5 62.2639 79.672 62.2639 78.616C62.2639 78.136 62.2839 77.736 62.3239 77.416C62.3719 77.088 62.4799 76.812 62.6479 76.588C62.8239 76.356 63.0919 76.24 63.4519 76.24C63.6759 76.24 63.8719 76.292 64.0399 76.396C64.2159 76.5 64.3279 76.648 64.3759 76.84C64.5519 76.68 64.7799 76.56 65.0599 76.48C65.3399 76.4 65.6399 76.36 65.9599 76.36C66.2159 76.36 66.4759 76.424 66.7399 76.552C67.0119 76.68 67.2359 76.856 67.4119 77.08C67.5959 77.296 67.6879 77.532 67.6879 77.788C67.6879 78.044 67.5959 78.272 67.4119 78.472C67.2359 78.664 66.9999 78.76 66.7039 78.76C66.6079 78.76 66.5159 78.748 66.4279 78.724C66.3479 78.7 66.2759 78.676 66.2119 78.652C66.0519 78.588 65.9239 78.556 65.8279 78.556C65.5159 78.556 65.2399 78.68 64.9999 78.928C64.7679 79.168 64.6519 79.48 64.6519 79.864C64.6519 80.288 64.6359 80.64 64.6039 80.92C64.5719 81.2 64.4759 81.452 64.3159 81.676C64.1559 81.892 63.8999 82 63.5479 82ZM71.017 83.776C70.585 83.776 70.225 83.692 69.937 83.524C69.649 83.356 69.505 83.108 69.505 82.78C69.505 82.516 69.629 82.308 69.877 82.156C70.125 82.004 70.417 81.936 70.753 81.952C71.105 81.968 71.377 81.952 71.569 81.904C71.769 81.856 71.921 81.768 72.025 81.64C71.289 81.64 70.701 81.536 70.261 81.328C69.821 81.112 69.501 80.78 69.301 80.332C69.109 79.876 69.013 79.276 69.013 78.532C69.013 77.892 69.109 77.376 69.301 76.984C69.501 76.584 69.813 76.384 70.237 76.384C70.613 76.384 70.889 76.492 71.065 76.708C71.249 76.916 71.341 77.188 71.341 77.524L71.329 78.052C71.321 78.156 71.317 78.308 71.317 78.508C71.317 78.892 71.365 79.184 71.461 79.384C71.557 79.576 71.749 79.672 72.037 79.672C72.325 79.672 72.517 79.576 72.613 79.384C72.709 79.184 72.757 78.896 72.757 78.52C72.757 78.32 72.753 78.168 72.745 78.064L72.733 77.548C72.733 77.188 72.821 76.904 72.997 76.696C73.181 76.488 73.461 76.384 73.837 76.384C74.261 76.384 74.573 76.584 74.773 76.984C74.973 77.384 75.073 77.9 75.073 78.532C75.073 79.476 74.937 80.344 74.665 81.136C74.401 81.92 73.965 82.556 73.357 83.044C72.757 83.532 71.977 83.776 71.017 83.776ZM81.3692 79.024C81.4892 79.176 81.6812 79.46 81.9452 79.876C82.2572 80.372 82.4132 80.792 82.4132 81.136C82.4132 81.416 82.3212 81.628 82.1372 81.772C81.9532 81.908 81.7372 81.976 81.4892 81.976C81.2572 81.976 81.0212 81.88 80.7812 81.688C80.5492 81.496 80.3052 81.236 80.0492 80.908C79.7772 80.548 79.5972 80.292 79.5092 80.14C79.4052 80.18 79.2892 80.22 79.1612 80.26C79.1052 80.86 78.9932 81.296 78.8252 81.568C78.6572 81.84 78.4012 81.976 78.0572 81.976C77.7052 81.976 77.4252 81.832 77.2172 81.544C77.0092 81.256 76.8572 80.808 76.7612 80.2C76.6732 79.592 76.6292 78.788 76.6292 77.788C76.6292 76.836 76.6572 76.072 76.7132 75.496C76.7772 74.912 76.9132 74.452 77.1212 74.116C77.3292 73.772 77.6412 73.6 78.0572 73.6C78.4012 73.6 78.6572 73.72 78.8252 73.96C79.0012 74.2 79.1132 74.532 79.1612 74.956C79.2172 75.372 79.2452 75.932 79.2452 76.636V77.392L79.2812 77.368C79.7452 77.056 80.1532 76.812 80.5052 76.636C80.8652 76.46 81.1892 76.372 81.4772 76.372C81.8052 76.372 82.0612 76.484 82.2452 76.708C82.4372 76.924 82.5332 77.168 82.5332 77.44C82.5332 77.728 82.4372 77.992 82.2452 78.232C82.0532 78.472 81.7612 78.736 81.3692 79.024ZM89.8748 83.716C89.4828 83.716 89.1988 83.516 89.0228 83.116C88.8468 82.724 88.7388 82.276 88.6988 81.772C88.6668 81.268 88.6508 80.604 88.6508 79.78C88.6508 79.148 88.6748 78.592 88.7228 78.112C88.7788 77.632 88.9028 77.216 89.0948 76.864C89.2868 76.512 89.5788 76.336 89.9708 76.336C90.3788 76.336 90.6748 76.496 90.8588 76.816C91.0428 76.68 91.2708 76.572 91.5428 76.492C91.8228 76.404 92.1148 76.36 92.4188 76.36C92.9308 76.36 93.4028 76.488 93.8348 76.744C94.2668 77 94.6108 77.344 94.8668 77.776C95.1228 78.208 95.2508 78.68 95.2508 79.192C95.2508 79.704 95.1228 80.18 94.8668 80.62C94.6108 81.052 94.2668 81.396 93.8348 81.652C93.4028 81.908 92.9308 82.036 92.4188 82.036C92.1068 82.036 91.8148 81.996 91.5428 81.916C91.2708 81.828 91.0388 81.712 90.8468 81.568C90.8468 82.08 90.8308 82.476 90.7988 82.756C90.7668 83.036 90.6788 83.264 90.5348 83.44C90.3988 83.624 90.1788 83.716 89.8748 83.716ZM92.3588 80.044C92.5668 80.044 92.7468 79.968 92.8988 79.816C93.0588 79.656 93.1388 79.472 93.1388 79.264C93.1388 79.056 93.0588 78.876 92.8988 78.724C92.7468 78.564 92.5668 78.484 92.3588 78.484C92.1508 78.484 91.9668 78.564 91.8068 78.724C91.6548 78.876 91.5788 79.056 91.5788 79.264C91.5788 79.472 91.6548 79.656 91.8068 79.816C91.9668 79.968 92.1508 80.044 92.3588 80.044ZM98.9661 82C98.3421 82 97.8301 81.86 97.4301 81.58C97.0301 81.292 96.8301 80.88 96.8301 80.344C96.8301 79.88 97.0341 79.512 97.4421 79.24C97.8501 78.968 98.3581 78.832 98.9661 78.832C99.1901 78.832 99.3981 78.852 99.5901 78.892C99.7901 78.924 99.9261 78.964 99.9981 79.012C99.9981 78.812 99.9141 78.648 99.7461 78.52C99.5781 78.384 99.3221 78.316 98.9781 78.316C98.8261 78.316 98.7021 78.328 98.6061 78.352C98.5101 78.376 98.4061 78.412 98.2941 78.46C98.1821 78.508 98.0781 78.544 97.9821 78.568C97.8941 78.592 97.7741 78.604 97.6221 78.604C97.3661 78.604 97.1661 78.54 97.0221 78.412C96.8781 78.276 96.8061 78.072 96.8061 77.8C96.8061 77.488 96.9181 77.224 97.1421 77.008C97.3741 76.792 97.6621 76.632 98.0061 76.528C98.3501 76.416 98.6941 76.36 99.0381 76.36C99.7181 76.36 100.286 76.488 100.742 76.744C101.206 76.992 101.546 77.324 101.762 77.74C101.986 78.156 102.098 78.616 102.098 79.12C102.098 79.392 102.074 79.644 102.026 79.876C101.986 80.108 101.93 80.288 101.858 80.416C101.97 80.512 102.054 80.624 102.11 80.752C102.174 80.88 102.206 81.012 102.206 81.148C102.206 81.38 102.126 81.58 101.966 81.748C101.814 81.916 101.61 82 101.354 82C101.162 82 101.006 81.972 100.886 81.916C100.766 81.86 100.638 81.772 100.502 81.652C100.302 81.772 100.082 81.86 99.8421 81.916C99.6101 81.972 99.3181 82 98.9661 82ZM99.2061 80.788C99.3741 80.788 99.5061 80.752 99.6021 80.68C99.7061 80.608 99.7581 80.52 99.7581 80.416C99.7581 80.312 99.7061 80.224 99.6021 80.152C99.5061 80.08 99.3741 80.044 99.2061 80.044C99.0381 80.044 98.9021 80.08 98.7981 80.152C98.7021 80.224 98.6541 80.312 98.6541 80.416C98.6541 80.52 98.7021 80.608 98.7981 80.68C98.9021 80.752 99.0381 80.788 99.2061 80.788ZM99.3861 76.084C99.0261 76.084 98.7101 75.952 98.4381 75.688C98.1661 75.416 98.0301 75.096 98.0301 74.728C98.0301 74.496 98.0901 74.276 98.2101 74.068C98.3381 73.86 98.5061 73.696 98.7141 73.576C98.9301 73.448 99.1541 73.384 99.3861 73.384C99.6181 73.384 99.8381 73.448 100.046 73.576C100.262 73.696 100.43 73.86 100.55 74.068C100.678 74.276 100.742 74.496 100.742 74.728C100.742 75.096 100.606 75.416 100.334 75.688C100.062 75.952 99.7461 76.084 99.3861 76.084ZM99.3861 75.124C99.4821 75.124 99.5661 75.088 99.6381 75.016C99.7101 74.936 99.7461 74.848 99.7461 74.752C99.7461 74.656 99.7101 74.572 99.6381 74.5C99.5661 74.42 99.4821 74.38 99.3861 74.38C99.2901 74.38 99.2021 74.42 99.1221 74.5C99.0501 74.572 99.0141 74.656 99.0141 74.752C99.0141 74.848 99.0501 74.936 99.1221 75.016C99.2021 75.088 99.2901 75.124 99.3861 75.124ZM112.368 82C112 82 111.748 81.876 111.612 81.628C111.476 81.38 111.408 81 111.408 80.488C111.408 80.112 111.404 79.844 111.396 79.684C111.388 79.516 111.356 79.376 111.3 79.264C111.252 79.152 111.164 79.096 111.036 79.096C110.884 79.096 110.772 79.148 110.7 79.252C110.628 79.348 110.584 79.476 110.568 79.636C110.56 79.788 110.556 80.02 110.556 80.332C110.556 80.716 110.54 81.02 110.508 81.244C110.476 81.46 110.392 81.64 110.256 81.784C110.12 81.92 109.908 81.988 109.62 81.988C108.756 81.988 108.324 80.892 108.324 78.7C108.324 77.956 108.388 77.38 108.516 76.972C108.652 76.556 108.904 76.296 109.272 76.192C109.408 76.152 109.532 76.132 109.644 76.132C109.812 76.132 109.964 76.168 110.1 76.24C110.236 76.312 110.332 76.412 110.388 76.54C110.5 76.476 110.612 76.428 110.724 76.396C110.836 76.364 110.996 76.348 111.204 76.348C111.46 76.348 111.7 76.412 111.924 76.54C112.156 76.66 112.32 76.832 112.416 77.056C112.624 76.816 112.832 76.64 113.04 76.528C113.256 76.408 113.532 76.348 113.868 76.348C114.364 76.348 114.796 76.496 115.164 76.792C115.54 77.08 115.828 77.48 116.028 77.992C116.236 78.496 116.34 79.056 116.34 79.672C116.34 80.36 116.248 80.92 116.064 81.352C115.88 81.784 115.56 82 115.104 82C114.8 82 114.58 81.924 114.444 81.772C114.316 81.62 114.236 81.432 114.204 81.208C114.18 80.976 114.168 80.64 114.168 80.2C114.168 79.816 114.14 79.536 114.084 79.36C114.028 79.184 113.896 79.096 113.688 79.096C113.536 79.096 113.44 79.18 113.4 79.348C113.36 79.508 113.34 79.776 113.34 80.152C113.332 80.224 113.328 80.336 113.328 80.488C113.312 81 113.236 81.38 113.1 81.628C112.964 81.876 112.72 82 112.368 82ZM119.067 76.18C118.675 76.18 118.343 76.04 118.071 75.76C117.799 75.472 117.663 75.124 117.663 74.716C117.663 74.316 117.799 73.976 118.071 73.696C118.343 73.408 118.675 73.264 119.067 73.264C119.451 73.264 119.779 73.408 120.051 73.696C120.331 73.976 120.471 74.316 120.471 74.716C120.471 75.124 120.331 75.472 120.051 75.76C119.779 76.04 119.451 76.18 119.067 76.18ZM119.067 82C118.739 82 118.495 81.908 118.335 81.724C118.183 81.532 118.079 81.248 118.023 80.872C117.975 80.488 117.951 79.944 117.951 79.24C117.951 78.648 117.979 78.18 118.035 77.836C118.099 77.492 118.211 77.236 118.371 77.068C118.531 76.9 118.763 76.816 119.067 76.816C119.395 76.816 119.635 76.912 119.787 77.104C119.947 77.288 120.051 77.572 120.099 77.956C120.155 78.332 120.183 78.872 120.183 79.576C120.183 80.168 120.151 80.636 120.087 80.98C120.031 81.324 119.923 81.58 119.763 81.748C119.603 81.916 119.371 82 119.067 82ZM124.414 84.052C123.95 84.052 123.57 83.964 123.274 83.788C122.978 83.62 122.83 83.388 122.83 83.092C122.83 82.828 122.93 82.612 123.13 82.444C123.338 82.284 123.598 82.204 123.91 82.204C123.966 82.204 124.058 82.212 124.186 82.228C124.346 82.252 124.494 82.264 124.63 82.264C124.974 82.264 125.27 82.204 125.518 82.084C125.774 81.972 125.93 81.82 125.986 81.628C125.858 81.7 125.678 81.76 125.446 81.808C125.214 81.856 124.966 81.88 124.702 81.88C124.022 81.88 123.462 81.748 123.022 81.484C122.59 81.22 122.278 80.896 122.086 80.512C121.894 80.12 121.798 79.736 121.798 79.36C121.798 78.736 121.934 78.196 122.206 77.74C122.486 77.284 122.846 76.936 123.286 76.696C123.726 76.456 124.186 76.336 124.666 76.336C124.826 76.336 125.01 76.348 125.218 76.372C125.434 76.396 125.614 76.424 125.758 76.456C125.822 76.24 125.93 76.072 126.082 75.952C126.242 75.832 126.478 75.772 126.79 75.772C127.31 75.772 127.686 76.096 127.918 76.744C128.158 77.392 128.278 78.192 128.278 79.144C128.278 79.592 128.254 80.016 128.206 80.416C128.086 81.544 127.69 82.432 127.018 83.08C126.346 83.728 125.478 84.052 124.414 84.052ZM124.858 80.08C125.106 80.08 125.322 79.992 125.506 79.816C125.69 79.632 125.782 79.416 125.782 79.168C125.782 78.92 125.69 78.704 125.506 78.52C125.322 78.336 125.106 78.244 124.858 78.244C124.61 78.244 124.394 78.336 124.21 78.52C124.034 78.704 123.946 78.92 123.946 79.168C123.946 79.416 124.034 79.632 124.21 79.816C124.394 79.992 124.61 80.08 124.858 80.08ZM137.382 82.012C136.806 82.02 136.29 81.9 135.834 81.652C135.386 81.404 135.034 81.064 134.778 80.632C134.53 80.192 134.398 79.704 134.382 79.168C134.374 78.632 134.498 78.152 134.754 77.728C135.01 77.304 135.366 76.968 135.822 76.72C136.286 76.472 136.806 76.348 137.382 76.348C137.942 76.348 138.446 76.468 138.894 76.708C139.35 76.948 139.71 77.284 139.974 77.716C140.238 78.148 140.378 78.632 140.394 79.168C140.402 79.688 140.278 80.164 140.022 80.596C139.766 81.02 139.406 81.36 138.942 81.616C138.486 81.872 137.966 82.004 137.382 82.012ZM137.418 80.26C137.634 80.26 137.822 80.176 137.982 80.008C138.142 79.84 138.222 79.644 138.222 79.42C138.222 79.196 138.142 79.004 137.982 78.844C137.822 78.676 137.634 78.592 137.418 78.592C137.202 78.592 137.014 78.676 136.854 78.844C136.694 79.004 136.614 79.196 136.614 79.42C136.614 79.644 136.694 79.84 136.854 80.008C137.014 80.176 137.202 80.26 137.418 80.26ZM144.334 84.052C143.87 84.052 143.49 83.964 143.194 83.788C142.898 83.62 142.75 83.388 142.75 83.092C142.75 82.828 142.85 82.612 143.05 82.444C143.258 82.284 143.518 82.204 143.83 82.204C143.886 82.204 143.978 82.212 144.106 82.228C144.266 82.252 144.414 82.264 144.55 82.264C144.894 82.264 145.19 82.204 145.438 82.084C145.694 81.972 145.85 81.82 145.906 81.628C145.778 81.7 145.598 81.76 145.366 81.808C145.134 81.856 144.886 81.88 144.622 81.88C143.942 81.88 143.382 81.748 142.942 81.484C142.51 81.22 142.198 80.896 142.006 80.512C141.814 80.12 141.718 79.736 141.718 79.36C141.718 78.736 141.854 78.196 142.126 77.74C142.406 77.284 142.766 76.936 143.206 76.696C143.646 76.456 144.106 76.336 144.586 76.336C144.746 76.336 144.93 76.348 145.138 76.372C145.354 76.396 145.534 76.424 145.678 76.456C145.742 76.24 145.85 76.072 146.002 75.952C146.162 75.832 146.398 75.772 146.71 75.772C147.23 75.772 147.606 76.096 147.838 76.744C148.078 77.392 148.198 78.192 148.198 79.144C148.198 79.592 148.174 80.016 148.126 80.416C148.006 81.544 147.61 82.432 146.938 83.08C146.266 83.728 145.398 84.052 144.334 84.052ZM144.778 80.08C145.026 80.08 145.242 79.992 145.426 79.816C145.61 79.632 145.702 79.416 145.702 79.168C145.702 78.92 145.61 78.704 145.426 78.52C145.242 78.336 145.026 78.244 144.778 78.244C144.53 78.244 144.314 78.336 144.13 78.52C143.954 78.704 143.866 78.92 143.866 79.168C143.866 79.416 143.954 79.632 144.13 79.816C144.314 79.992 144.53 80.08 144.778 80.08ZM57.344 94C56.976 94 56.724 93.876 56.588 93.628C56.452 93.38 56.384 93 56.384 92.488C56.384 92.112 56.38 91.844 56.372 91.684C56.364 91.516 56.332 91.376 56.276 91.264C56.228 91.152 56.14 91.096 56.012 91.096C55.86 91.096 55.748 91.148 55.676 91.252C55.604 91.348 55.56 91.476 55.544 91.636C55.536 91.788 55.532 92.02 55.532 92.332C55.532 92.716 55.516 93.02 55.484 93.244C55.452 93.46 55.368 93.64 55.232 93.784C55.096 93.92 54.884 93.988 54.596 93.988C53.732 93.988 53.3 92.892 53.3 90.7C53.3 89.956 53.364 89.38 53.492 88.972C53.628 88.556 53.88 88.296 54.248 88.192C54.384 88.152 54.508 88.132 54.62 88.132C54.788 88.132 54.94 88.168 55.076 88.24C55.212 88.312 55.308 88.412 55.364 88.54C55.476 88.476 55.588 88.428 55.7 88.396C55.812 88.364 55.972 88.348 56.18 88.348C56.436 88.348 56.676 88.412 56.9 88.54C57.132 88.66 57.296 88.832 57.392 89.056C57.6 88.816 57.808 88.64 58.016 88.528C58.232 88.408 58.508 88.348 58.844 88.348C59.34 88.348 59.772 88.496 60.14 88.792C60.516 89.08 60.804 89.48 61.004 89.992C61.212 90.496 61.316 91.056 61.316 91.672C61.316 92.36 61.224 92.92 61.04 93.352C60.856 93.784 60.536 94 60.08 94C59.776 94 59.556 93.924 59.42 93.772C59.292 93.62 59.212 93.432 59.18 93.208C59.156 92.976 59.144 92.64 59.144 92.2C59.144 91.816 59.116 91.536 59.06 91.36C59.004 91.184 58.872 91.096 58.664 91.096C58.512 91.096 58.416 91.18 58.376 91.348C58.336 91.508 58.316 91.776 58.316 92.152C58.308 92.224 58.304 92.336 58.304 92.488C58.288 93 58.212 93.38 58.076 93.628C57.94 93.876 57.696 94 57.344 94ZM64.0429 88.18C63.6509 88.18 63.3189 88.04 63.0469 87.76C62.7749 87.472 62.6389 87.124 62.6389 86.716C62.6389 86.316 62.7749 85.976 63.0469 85.696C63.3189 85.408 63.6509 85.264 64.0429 85.264C64.4269 85.264 64.7549 85.408 65.0269 85.696C65.3069 85.976 65.4469 86.316 65.4469 86.716C65.4469 87.124 65.3069 87.472 65.0269 87.76C64.7549 88.04 64.4269 88.18 64.0429 88.18ZM64.0429 94C63.7149 94 63.4709 93.908 63.3109 93.724C63.1589 93.532 63.0549 93.248 62.9989 92.872C62.9509 92.488 62.9269 91.944 62.9269 91.24C62.9269 90.648 62.9549 90.18 63.0109 89.836C63.0749 89.492 63.1869 89.236 63.3469 89.068C63.5069 88.9 63.7389 88.816 64.0429 88.816C64.3709 88.816 64.6109 88.912 64.7629 89.104C64.9229 89.288 65.0269 89.572 65.0749 89.956C65.1309 90.332 65.1589 90.872 65.1589 91.576C65.1589 92.168 65.1269 92.636 65.0629 92.98C65.0069 93.324 64.8989 93.58 64.7389 93.748C64.5789 93.916 64.3469 94 64.0429 94ZM71.6319 94C71.3439 94 71.1279 93.92 70.9839 93.76C70.8479 93.6 70.7639 93.404 70.7319 93.172C70.6999 92.94 70.6839 92.64 70.6839 92.272C70.6839 91.8 70.6199 91.436 70.4919 91.18C70.3639 90.924 70.1559 90.796 69.8679 90.796C69.6039 90.796 69.4039 90.924 69.2679 91.18C69.1399 91.428 69.0759 91.772 69.0759 92.212C69.0759 92.636 69.0639 92.956 69.0399 93.172C69.0159 93.388 68.9359 93.58 68.7999 93.748C68.6639 93.908 68.4399 93.988 68.1279 93.988C67.6719 93.988 67.3519 93.696 67.1679 93.112C66.9839 92.52 66.8919 91.828 66.8919 91.036C66.8919 89.116 67.2959 88.156 68.1039 88.156C68.3279 88.156 68.5119 88.212 68.6559 88.324C68.7999 88.428 68.8999 88.58 68.9559 88.78C69.0599 88.668 69.2199 88.568 69.4359 88.48C69.6599 88.392 69.8959 88.348 70.1439 88.348C71.0239 88.348 71.6799 88.668 72.1119 89.308C72.5519 89.948 72.7719 90.816 72.7719 91.912C72.7719 92.56 72.6879 93.072 72.5199 93.448C72.3519 93.816 72.0559 94 71.6319 94ZM77.11 94C76.518 94 75.994 93.884 75.538 93.652C75.082 93.42 74.726 93.096 74.47 92.68C74.222 92.256 74.098 91.78 74.098 91.252C74.098 90.732 74.222 90.252 74.47 89.812C74.726 89.372 75.078 89.02 75.526 88.756C75.974 88.492 76.482 88.36 77.05 88.36C77.562 88.36 78.014 88.464 78.406 88.672C78.798 88.88 79.098 89.156 79.306 89.5C79.514 89.836 79.618 90.188 79.618 90.556C79.618 91.156 79.39 91.596 78.934 91.876C78.486 92.148 77.95 92.284 77.326 92.284C76.91 92.284 76.558 92.232 76.27 92.128C76.51 92.52 76.906 92.716 77.458 92.716C77.682 92.716 77.922 92.688 78.178 92.632C78.274 92.608 78.366 92.596 78.454 92.596C78.63 92.596 78.77 92.64 78.874 92.728C78.986 92.816 79.042 92.936 79.042 93.088C79.042 93.336 78.89 93.552 78.586 93.736C78.282 93.912 77.79 94 77.11 94ZM76.306 90.664C76.378 90.776 76.474 90.86 76.594 90.916C76.722 90.964 76.862 90.988 77.014 90.988C77.19 90.988 77.342 90.948 77.47 90.868C77.606 90.788 77.674 90.684 77.674 90.556C77.674 90.412 77.614 90.288 77.494 90.184C77.382 90.08 77.218 90.028 77.002 90.028C76.786 90.028 76.614 90.096 76.486 90.232C76.366 90.36 76.306 90.504 76.306 90.664ZM88.8168 93.988C88.6248 93.988 88.4448 93.964 88.2768 93.916C88.1168 93.868 87.9288 93.76 87.7128 93.592C87.4648 93.392 87.1848 93.056 86.8728 92.584C86.5608 92.104 86.2928 91.588 86.0688 91.036C85.8448 90.476 85.7328 89.972 85.7328 89.524C85.7328 89.188 85.8288 88.912 86.0208 88.696C86.2208 88.472 86.4528 88.36 86.7168 88.36C87.0368 88.36 87.3088 88.484 87.5328 88.732C87.7648 88.972 87.9568 89.272 88.1088 89.632C88.2688 89.984 88.4488 90.46 88.6488 91.06C88.6728 91.132 88.6968 91.212 88.7208 91.3C88.7528 91.38 88.7848 91.464 88.8168 91.552L88.9368 91.204C89.1608 90.564 89.3528 90.06 89.5128 89.692C89.6728 89.316 89.8728 89 90.1128 88.744C90.3528 88.48 90.6328 88.352 90.9528 88.36C91.2088 88.368 91.4248 88.464 91.6008 88.648C91.7848 88.832 91.8768 89.1 91.8768 89.452C91.8768 89.932 91.7728 90.436 91.5648 90.964C91.3568 91.492 91.1128 91.972 90.8328 92.404C90.5528 92.828 90.3128 93.14 90.1128 93.34C89.9368 93.54 89.7288 93.7 89.4888 93.82C89.2568 93.932 89.0328 93.988 88.8168 93.988ZM96.0681 94C95.4761 94 94.9521 93.884 94.4961 93.652C94.0401 93.42 93.6841 93.096 93.4281 92.68C93.1801 92.256 93.0561 91.78 93.0561 91.252C93.0561 90.732 93.1801 90.252 93.4281 89.812C93.6841 89.372 94.0361 89.02 94.4841 88.756C94.9321 88.492 95.4401 88.36 96.0081 88.36C96.5201 88.36 96.9721 88.464 97.3641 88.672C97.7561 88.88 98.0561 89.156 98.2641 89.5C98.4721 89.836 98.5761 90.188 98.5761 90.556C98.5761 91.156 98.3481 91.596 97.8921 91.876C97.4441 92.148 96.9081 92.284 96.2841 92.284C95.8681 92.284 95.5161 92.232 95.2281 92.128C95.4681 92.52 95.8641 92.716 96.4161 92.716C96.6401 92.716 96.8801 92.688 97.1361 92.632C97.2321 92.608 97.3241 92.596 97.4121 92.596C97.5881 92.596 97.7281 92.64 97.8321 92.728C97.9441 92.816 98.0001 92.936 98.0001 93.088C98.0001 93.336 97.8481 93.552 97.5441 93.736C97.2401 93.912 96.7481 94 96.0681 94ZM95.2641 90.664C95.3361 90.776 95.4321 90.86 95.5521 90.916C95.6801 90.964 95.8201 90.988 95.9721 90.988C96.1481 90.988 96.3001 90.948 96.4281 90.868C96.5641 90.788 96.6321 90.684 96.6321 90.556C96.6321 90.412 96.5721 90.288 96.4521 90.184C96.3401 90.08 96.1761 90.028 95.9601 90.028C95.7441 90.028 95.5721 90.096 95.4441 90.232C95.3241 90.36 95.2641 90.504 95.2641 90.664ZM104.639 94C104.351 94 104.135 93.92 103.991 93.76C103.855 93.6 103.771 93.404 103.739 93.172C103.707 92.94 103.691 92.64 103.691 92.272C103.691 91.8 103.627 91.436 103.499 91.18C103.371 90.924 103.163 90.796 102.875 90.796C102.611 90.796 102.411 90.924 102.275 91.18C102.147 91.428 102.083 91.772 102.083 92.212C102.083 92.636 102.071 92.956 102.047 93.172C102.023 93.388 101.943 93.58 101.807 93.748C101.671 93.908 101.447 93.988 101.135 93.988C100.679 93.988 100.359 93.696 100.175 93.112C99.9909 92.52 99.8989 91.828 99.8989 91.036C99.8989 89.116 100.303 88.156 101.111 88.156C101.335 88.156 101.519 88.212 101.663 88.324C101.807 88.428 101.907 88.58 101.963 88.78C102.067 88.668 102.227 88.568 102.443 88.48C102.667 88.392 102.903 88.348 103.151 88.348C104.031 88.348 104.687 88.668 105.119 89.308C105.559 89.948 105.779 90.816 105.779 91.912C105.779 92.56 105.695 93.072 105.527 93.448C105.359 93.816 105.063 94 104.639 94ZM112.079 94C111.791 94 111.575 93.92 111.431 93.76C111.295 93.6 111.211 93.404 111.179 93.172C111.147 92.94 111.131 92.64 111.131 92.272C111.131 91.8 111.067 91.436 110.939 91.18C110.811 90.924 110.603 90.796 110.315 90.796C110.051 90.796 109.851 90.924 109.715 91.18C109.587 91.428 109.523 91.772 109.523 92.212C109.523 92.636 109.511 92.956 109.487 93.172C109.463 93.388 109.383 93.58 109.247 93.748C109.111 93.908 108.887 93.988 108.575 93.988C108.119 93.988 107.799 93.696 107.615 93.112C107.431 92.52 107.339 91.828 107.339 91.036C107.339 89.116 107.743 88.156 108.551 88.156C108.775 88.156 108.959 88.212 109.103 88.324C109.247 88.428 109.347 88.58 109.403 88.78C109.507 88.668 109.667 88.568 109.883 88.48C110.107 88.392 110.343 88.348 110.591 88.348C111.471 88.348 112.127 88.668 112.559 89.308C112.999 89.948 113.219 90.816 113.219 91.912C113.219 92.56 113.135 93.072 112.967 93.448C112.799 93.816 112.503 94 112.079 94ZM117.557 94C116.965 94 116.441 93.884 115.985 93.652C115.529 93.42 115.173 93.096 114.917 92.68C114.669 92.256 114.545 91.78 114.545 91.252C114.545 90.732 114.669 90.252 114.917 89.812C115.173 89.372 115.525 89.02 115.973 88.756C116.421 88.492 116.929 88.36 117.497 88.36C118.009 88.36 118.461 88.464 118.853 88.672C119.245 88.88 119.545 89.156 119.753 89.5C119.961 89.836 120.065 90.188 120.065 90.556C120.065 91.156 119.837 91.596 119.381 91.876C118.933 92.148 118.397 92.284 117.773 92.284C117.357 92.284 117.005 92.232 116.717 92.128C116.957 92.52 117.353 92.716 117.905 92.716C118.129 92.716 118.369 92.688 118.625 92.632C118.721 92.608 118.813 92.596 118.901 92.596C119.077 92.596 119.217 92.64 119.321 92.728C119.433 92.816 119.489 92.936 119.489 93.088C119.489 93.336 119.337 93.552 119.033 93.736C118.729 93.912 118.237 94 117.557 94ZM116.753 90.664C116.825 90.776 116.921 90.86 117.041 90.916C117.169 90.964 117.309 90.988 117.461 90.988C117.637 90.988 117.789 90.948 117.917 90.868C118.053 90.788 118.121 90.684 118.121 90.556C118.121 90.412 118.061 90.288 117.941 90.184C117.829 90.08 117.665 90.028 117.449 90.028C117.233 90.028 117.061 90.096 116.933 90.232C116.813 90.36 116.753 90.504 116.753 90.664ZM122.789 94C122.277 94 121.933 93.7 121.757 93.1C121.589 92.5 121.505 91.672 121.505 90.616C121.505 90.136 121.525 89.736 121.565 89.416C121.613 89.088 121.721 88.812 121.889 88.588C122.065 88.356 122.333 88.24 122.693 88.24C122.917 88.24 123.113 88.292 123.281 88.396C123.457 88.5 123.569 88.648 123.617 88.84C123.793 88.68 124.021 88.56 124.301 88.48C124.581 88.4 124.881 88.36 125.201 88.36C125.457 88.36 125.717 88.424 125.981 88.552C126.253 88.68 126.477 88.856 126.653 89.08C126.837 89.296 126.929 89.532 126.929 89.788C126.929 90.044 126.837 90.272 126.653 90.472C126.477 90.664 126.241 90.76 125.945 90.76C125.849 90.76 125.757 90.748 125.669 90.724C125.589 90.7 125.517 90.676 125.453 90.652C125.293 90.588 125.165 90.556 125.069 90.556C124.757 90.556 124.481 90.68 124.241 90.928C124.009 91.168 123.893 91.48 123.893 91.864C123.893 92.288 123.877 92.64 123.845 92.92C123.813 93.2 123.717 93.452 123.557 93.676C123.397 93.892 123.141 94 122.789 94ZM136.827 89.224C137.611 89.24 138.175 89.324 138.519 89.476C138.871 89.628 139.047 89.92 139.047 90.352C139.047 90.776 138.867 91.064 138.507 91.216C138.155 91.36 137.603 91.44 136.851 91.456L136.863 92.404C136.871 92.556 136.875 92.768 136.875 93.04C136.875 93.384 136.779 93.628 136.587 93.772C136.395 93.908 136.171 93.976 135.915 93.976C135.475 93.976 135.155 93.756 134.955 93.316C134.755 92.876 134.631 92.248 134.583 91.432C134.063 91.392 133.675 91.292 133.419 91.132C133.171 90.972 133.047 90.712 133.047 90.352C133.047 89.992 133.171 89.732 133.419 89.572C133.675 89.404 134.063 89.296 134.583 89.248C134.631 88.472 134.747 87.82 134.931 87.292C135.115 86.764 135.415 86.352 135.831 86.056C136.247 85.752 136.807 85.6 137.511 85.6C137.951 85.6 138.315 85.704 138.603 85.912C138.899 86.112 139.047 86.404 139.047 86.788C139.047 87.188 138.923 87.492 138.675 87.7C138.435 87.9 138.103 88.04 137.679 88.12C137.399 88.176 137.195 88.3 137.067 88.492C136.939 88.676 136.859 88.92 136.827 89.224ZM143.182 94.012C142.606 94.02 142.09 93.9 141.634 93.652C141.186 93.404 140.834 93.064 140.578 92.632C140.33 92.192 140.198 91.704 140.182 91.168C140.174 90.632 140.298 90.152 140.554 89.728C140.81 89.304 141.166 88.968 141.622 88.72C142.086 88.472 142.606 88.348 143.182 88.348C143.742 88.348 144.246 88.468 144.694 88.708C145.15 88.948 145.51 89.284 145.774 89.716C146.038 90.148 146.178 90.632 146.194 91.168C146.202 91.688 146.078 92.164 145.822 92.596C145.566 93.02 145.206 93.36 144.742 93.616C144.286 93.872 143.766 94.004 143.182 94.012ZM143.218 92.26C143.434 92.26 143.622 92.176 143.782 92.008C143.942 91.84 144.022 91.644 144.022 91.42C144.022 91.196 143.942 91.004 143.782 90.844C143.622 90.676 143.434 90.592 143.218 90.592C143.002 90.592 142.814 90.676 142.654 90.844C142.494 91.004 142.414 91.196 142.414 91.42C142.414 91.644 142.494 91.84 142.654 92.008C142.814 92.176 143.002 92.26 143.218 92.26ZM148.919 94C148.407 94 148.063 93.7 147.887 93.1C147.719 92.5 147.635 91.672 147.635 90.616C147.635 90.136 147.655 89.736 147.695 89.416C147.743 89.088 147.851 88.812 148.019 88.588C148.195 88.356 148.463 88.24 148.823 88.24C149.047 88.24 149.243 88.292 149.411 88.396C149.587 88.5 149.699 88.648 149.747 88.84C149.923 88.68 150.151 88.56 150.431 88.48C150.711 88.4 151.011 88.36 151.331 88.36C151.587 88.36 151.847 88.424 152.111 88.552C152.383 88.68 152.607 88.856 152.783 89.08C152.967 89.296 153.059 89.532 153.059 89.788C153.059 90.044 152.967 90.272 152.783 90.472C152.607 90.664 152.371 90.76 152.075 90.76C151.979 90.76 151.887 90.748 151.799 90.724C151.719 90.7 151.647 90.676 151.583 90.652C151.423 90.588 151.295 90.556 151.199 90.556C150.887 90.556 150.611 90.68 150.371 90.928C150.139 91.168 150.023 91.48 150.023 91.864C150.023 92.288 150.007 92.64 149.975 92.92C149.943 93.2 149.847 93.452 149.687 93.676C149.527 93.892 149.271 94 148.919 94ZM55.46 106C54.836 106 54.324 105.86 53.924 105.58C53.524 105.292 53.324 104.88 53.324 104.344C53.324 103.88 53.528 103.512 53.936 103.24C54.344 102.968 54.852 102.832 55.46 102.832C55.684 102.832 55.892 102.852 56.084 102.892C56.284 102.924 56.42 102.964 56.492 103.012C56.492 102.812 56.408 102.648 56.24 102.52C56.072 102.384 55.816 102.316 55.472 102.316C55.32 102.316 55.196 102.328 55.1 102.352C55.004 102.376 54.9 102.412 54.788 102.46C54.676 102.508 54.572 102.544 54.476 102.568C54.388 102.592 54.268 102.604 54.116 102.604C53.86 102.604 53.66 102.54 53.516 102.412C53.372 102.276 53.3 102.072 53.3 101.8C53.3 101.488 53.412 101.224 53.636 101.008C53.868 100.792 54.156 100.632 54.5 100.528C54.844 100.416 55.188 100.36 55.532 100.36C56.212 100.36 56.78 100.488 57.236 100.744C57.7 100.992 58.04 101.324 58.256 101.74C58.48 102.156 58.592 102.616 58.592 103.12C58.592 103.392 58.568 103.644 58.52 103.876C58.48 104.108 58.424 104.288 58.352 104.416C58.464 104.512 58.548 104.624 58.604 104.752C58.668 104.88 58.7 105.012 58.7 105.148C58.7 105.38 58.62 105.58 58.46 105.748C58.308 105.916 58.104 106 57.848 106C57.656 106 57.5 105.972 57.38 105.916C57.26 105.86 57.132 105.772 56.996 105.652C56.796 105.772 56.576 105.86 56.336 105.916C56.104 105.972 55.812 106 55.46 106ZM55.7 104.788C55.868 104.788 56 104.752 56.096 104.68C56.2 104.608 56.252 104.52 56.252 104.416C56.252 104.312 56.2 104.224 56.096 104.152C56 104.08 55.868 104.044 55.7 104.044C55.532 104.044 55.396 104.08 55.292 104.152C55.196 104.224 55.148 104.312 55.148 104.416C55.148 104.52 55.196 104.608 55.292 104.68C55.396 104.752 55.532 104.788 55.7 104.788ZM65.6355 100.804C65.6355 101.22 65.4395 101.504 65.0475 101.656C64.6555 101.8 64.1195 101.876 63.4395 101.884C63.4315 102.084 63.4275 102.408 63.4275 102.856C63.4275 103.312 63.4595 103.636 63.5235 103.828C63.5635 103.964 63.6235 104.052 63.7035 104.092C63.7915 104.132 63.9195 104.16 64.0875 104.176C64.1435 104.184 64.2035 104.196 64.2675 104.212C64.3395 104.22 64.4195 104.232 64.5075 104.248C64.6915 104.288 64.8355 104.388 64.9395 104.548C65.0435 104.7 65.0955 104.896 65.0955 105.136C65.0955 105.408 64.9555 105.62 64.6755 105.772C64.3955 105.924 64.0115 106 63.5235 106C63.0755 106 62.6475 105.872 62.2395 105.616C61.8315 105.352 61.5515 105 61.3995 104.56C61.2395 104.088 61.1595 103.196 61.1595 101.884C60.5995 101.868 60.1475 101.796 59.8035 101.668C59.4675 101.532 59.2995 101.292 59.2995 100.948C59.2995 100.516 59.4595 100.228 59.7795 100.084C60.0995 99.932 60.5595 99.852 61.1595 99.844C61.1835 99.204 61.2835 98.672 61.4595 98.248C61.6355 97.816 61.9515 97.6 62.4075 97.6C62.8715 97.6 63.1715 97.8 63.3075 98.2C63.4515 98.6 63.5155 99.148 63.4995 99.844C64.2275 99.836 64.7635 99.892 65.1075 100.012C65.4595 100.132 65.6355 100.396 65.6355 100.804ZM75.5342 101.224C76.3182 101.24 76.8822 101.324 77.2262 101.476C77.5782 101.628 77.7542 101.92 77.7542 102.352C77.7542 102.776 77.5742 103.064 77.2142 103.216C76.8622 103.36 76.3102 103.44 75.5582 103.456L75.5702 104.404C75.5782 104.556 75.5822 104.768 75.5822 105.04C75.5822 105.384 75.4862 105.628 75.2942 105.772C75.1022 105.908 74.8782 105.976 74.6222 105.976C74.1822 105.976 73.8622 105.756 73.6622 105.316C73.4622 104.876 73.3382 104.248 73.2902 103.432C72.7702 103.392 72.3822 103.292 72.1262 103.132C71.8782 102.972 71.7542 102.712 71.7542 102.352C71.7542 101.992 71.8782 101.732 72.1262 101.572C72.3822 101.404 72.7702 101.296 73.2902 101.248C73.3382 100.472 73.4542 99.82 73.6382 99.292C73.8222 98.764 74.1222 98.352 74.5382 98.056C74.9542 97.752 75.5142 97.6 76.2182 97.6C76.6582 97.6 77.0222 97.704 77.3102 97.912C77.6062 98.112 77.7542 98.404 77.7542 98.788C77.7542 99.188 77.6302 99.492 77.3822 99.7C77.1422 99.9 76.8102 100.04 76.3862 100.12C76.1062 100.176 75.9022 100.3 75.7742 100.492C75.6462 100.676 75.5662 100.92 75.5342 101.224ZM79.6622 100.18C79.2702 100.18 78.9382 100.04 78.6662 99.76C78.3942 99.472 78.2582 99.124 78.2582 98.716C78.2582 98.316 78.3942 97.976 78.6662 97.696C78.9382 97.408 79.2702 97.264 79.6622 97.264C80.0462 97.264 80.3742 97.408 80.6462 97.696C80.9262 97.976 81.0662 98.316 81.0662 98.716C81.0662 99.124 80.9262 99.472 80.6462 99.76C80.3742 100.04 80.0462 100.18 79.6622 100.18ZM79.6622 106C79.3342 106 79.0902 105.908 78.9302 105.724C78.7782 105.532 78.6742 105.248 78.6182 104.872C78.5702 104.488 78.5462 103.944 78.5462 103.24C78.5462 102.648 78.5742 102.18 78.6302 101.836C78.6942 101.492 78.8062 101.236 78.9662 101.068C79.1262 100.9 79.3582 100.816 79.6622 100.816C79.9902 100.816 80.2302 100.912 80.3822 101.104C80.5422 101.288 80.6462 101.572 80.6942 101.956C80.7502 102.332 80.7782 102.872 80.7782 103.576C80.7782 104.168 80.7462 104.636 80.6822 104.98C80.6262 105.324 80.5182 105.58 80.3582 105.748C80.1982 105.916 79.9662 106 79.6622 106ZM87.3683 106C87.0803 106 86.8643 105.92 86.7203 105.76C86.5843 105.6 86.5003 105.404 86.4683 105.172C86.4363 104.94 86.4203 104.64 86.4203 104.272C86.4203 103.8 86.3563 103.436 86.2283 103.18C86.1003 102.924 85.8923 102.796 85.6043 102.796C85.3403 102.796 85.1403 102.924 85.0043 103.18C84.8763 103.428 84.8123 103.772 84.8123 104.212C84.8123 104.636 84.8003 104.956 84.7763 105.172C84.7523 105.388 84.6723 105.58 84.5363 105.748C84.4003 105.908 84.1763 105.988 83.8643 105.988C83.4083 105.988 83.0883 105.696 82.9043 105.112C82.7203 104.52 82.6283 103.828 82.6283 103.036C82.6283 101.116 83.0323 100.156 83.8403 100.156C84.0643 100.156 84.2483 100.212 84.3923 100.324C84.5363 100.428 84.6363 100.58 84.6923 100.78C84.7963 100.668 84.9563 100.568 85.1723 100.48C85.3963 100.392 85.6323 100.348 85.8803 100.348C86.7603 100.348 87.4163 100.668 87.8483 101.308C88.2883 101.948 88.5083 102.816 88.5083 103.912C88.5083 104.56 88.4243 105.072 88.2563 105.448C88.0883 105.816 87.7923 106 87.3683 106ZM92.6904 106C92.1224 106 91.6184 105.864 91.1784 105.592C90.7464 105.312 90.4144 104.952 90.1824 104.512C89.9504 104.064 89.8344 103.588 89.8344 103.084C89.8344 102.492 89.9544 101.992 90.1944 101.584C90.4424 101.168 90.7584 100.86 91.1424 100.66C91.5344 100.46 91.9544 100.36 92.4024 100.36C92.8504 100.36 93.2504 100.456 93.6024 100.648C93.5864 100.48 93.5544 100.3 93.5064 100.108C93.4664 99.916 93.4384 99.796 93.4224 99.748C93.3584 99.5 93.3104 99.292 93.2784 99.124C93.2464 98.956 93.2304 98.788 93.2304 98.62C93.2304 98.284 93.3304 98.028 93.5304 97.852C93.7304 97.676 93.9704 97.588 94.2504 97.588C94.6984 97.588 95.0624 97.812 95.3424 98.26C95.6224 98.708 95.8224 99.264 95.9424 99.928C96.0704 100.592 96.1344 101.264 96.1344 101.944C96.1344 102.864 95.9224 103.772 95.4984 104.668C95.0824 105.556 94.1464 106 92.6904 106ZM92.7624 104.104C92.9784 104.104 93.1664 104.024 93.3264 103.864C93.4864 103.696 93.5664 103.5 93.5664 103.276C93.5664 103.052 93.4864 102.856 93.3264 102.688C93.1664 102.52 92.9784 102.436 92.7624 102.436C92.5464 102.436 92.3544 102.52 92.1864 102.688C92.0264 102.856 91.9464 103.052 91.9464 103.276C91.9464 103.5 92.0264 103.696 92.1864 103.864C92.3544 104.024 92.5464 104.104 92.7624 104.104ZM100.474 106C99.8823 106 99.3583 105.884 98.9023 105.652C98.4463 105.42 98.0903 105.096 97.8343 104.68C97.5863 104.256 97.4623 103.78 97.4623 103.252C97.4623 102.732 97.5863 102.252 97.8343 101.812C98.0903 101.372 98.4423 101.02 98.8903 100.756C99.3383 100.492 99.8463 100.36 100.414 100.36C100.926 100.36 101.378 100.464 101.77 100.672C102.162 100.88 102.462 101.156 102.67 101.5C102.878 101.836 102.982 102.188 102.982 102.556C102.982 103.156 102.754 103.596 102.298 103.876C101.85 104.148 101.314 104.284 100.69 104.284C100.274 104.284 99.9223 104.232 99.6343 104.128C99.8743 104.52 100.27 104.716 100.822 104.716C101.046 104.716 101.286 104.688 101.542 104.632C101.638 104.608 101.73 104.596 101.818 104.596C101.994 104.596 102.134 104.64 102.238 104.728C102.35 104.816 102.406 104.936 102.406 105.088C102.406 105.336 102.254 105.552 101.95 105.736C101.646 105.912 101.154 106 100.474 106ZM99.6703 102.664C99.7423 102.776 99.8383 102.86 99.9583 102.916C100.086 102.964 100.226 102.988 100.378 102.988C100.554 102.988 100.706 102.948 100.834 102.868C100.97 102.788 101.038 102.684 101.038 102.556C101.038 102.412 100.978 102.288 100.858 102.184C100.746 102.08 100.582 102.028 100.366 102.028C100.15 102.028 99.9783 102.096 99.8503 102.232C99.7303 102.36 99.6703 102.504 99.6703 102.664ZM112.001 106C111.417 106 110.905 105.856 110.465 105.568C110.025 105.272 109.685 104.864 109.445 104.344C109.213 103.816 109.097 103.208 109.097 102.52C109.097 101.848 109.205 101.32 109.421 100.936C109.637 100.552 109.937 100.36 110.321 100.36C111.001 100.36 111.341 100.708 111.341 101.404C111.341 101.548 111.337 101.676 111.329 101.788C111.321 101.892 111.313 101.984 111.305 102.064C111.273 102.384 111.257 102.64 111.257 102.832C111.257 103.184 111.329 103.452 111.473 103.636C111.617 103.82 111.793 103.912 112.001 103.912C112.217 103.912 112.393 103.824 112.529 103.648C112.673 103.464 112.745 103.192 112.745 102.832C112.745 102.576 112.733 102.34 112.709 102.124C112.701 102.052 112.693 101.948 112.685 101.812C112.677 101.668 112.673 101.536 112.673 101.416C112.673 100.712 113.013 100.36 113.693 100.36C114.077 100.36 114.373 100.552 114.581 100.936C114.797 101.312 114.905 101.84 114.905 102.52C114.905 103.584 114.657 104.432 114.161 105.064C113.665 105.688 112.945 106 112.001 106ZM119.124 106C118.556 106 118.052 105.864 117.612 105.592C117.18 105.312 116.848 104.952 116.616 104.512C116.384 104.064 116.268 103.588 116.268 103.084C116.268 102.492 116.388 101.992 116.628 101.584C116.876 101.168 117.192 100.86 117.576 100.66C117.968 100.46 118.388 100.36 118.836 100.36C119.284 100.36 119.684 100.456 120.036 100.648C120.02 100.48 119.988 100.3 119.94 100.108C119.9 99.916 119.872 99.796 119.856 99.748C119.792 99.5 119.744 99.292 119.712 99.124C119.68 98.956 119.664 98.788 119.664 98.62C119.664 98.284 119.764 98.028 119.964 97.852C120.164 97.676 120.404 97.588 120.684 97.588C121.132 97.588 121.496 97.812 121.776 98.26C122.056 98.708 122.256 99.264 122.376 99.928C122.504 100.592 122.568 101.264 122.568 101.944C122.568 102.864 122.356 103.772 121.932 104.668C121.516 105.556 120.58 106 119.124 106ZM119.196 104.104C119.412 104.104 119.6 104.024 119.76 103.864C119.92 103.696 120 103.5 120 103.276C120 103.052 119.92 102.856 119.76 102.688C119.6 102.52 119.412 102.436 119.196 102.436C118.98 102.436 118.788 102.52 118.62 102.688C118.46 102.856 118.38 103.052 118.38 103.276C118.38 103.5 118.46 103.696 118.62 103.864C118.788 104.024 118.98 104.104 119.196 104.104ZM130.848 106C130.224 106 129.712 105.86 129.312 105.58C128.912 105.292 128.712 104.88 128.712 104.344C128.712 103.88 128.916 103.512 129.324 103.24C129.732 102.968 130.24 102.832 130.848 102.832C131.072 102.832 131.28 102.852 131.472 102.892C131.672 102.924 131.808 102.964 131.88 103.012C131.88 102.812 131.796 102.648 131.628 102.52C131.46 102.384 131.204 102.316 130.86 102.316C130.708 102.316 130.584 102.328 130.488 102.352C130.392 102.376 130.288 102.412 130.176 102.46C130.064 102.508 129.96 102.544 129.864 102.568C129.776 102.592 129.656 102.604 129.504 102.604C129.248 102.604 129.048 102.54 128.904 102.412C128.76 102.276 128.688 102.072 128.688 101.8C128.688 101.488 128.8 101.224 129.024 101.008C129.256 100.792 129.544 100.632 129.888 100.528C130.232 100.416 130.576 100.36 130.92 100.36C131.6 100.36 132.168 100.488 132.624 100.744C133.088 100.992 133.428 101.324 133.644 101.74C133.868 102.156 133.98 102.616 133.98 103.12C133.98 103.392 133.956 103.644 133.908 103.876C133.868 104.108 133.812 104.288 133.74 104.416C133.852 104.512 133.936 104.624 133.992 104.752C134.056 104.88 134.088 105.012 134.088 105.148C134.088 105.38 134.008 105.58 133.848 105.748C133.696 105.916 133.492 106 133.236 106C133.044 106 132.888 105.972 132.768 105.916C132.648 105.86 132.52 105.772 132.384 105.652C132.184 105.772 131.964 105.86 131.724 105.916C131.492 105.972 131.2 106 130.848 106ZM131.088 104.788C131.256 104.788 131.388 104.752 131.484 104.68C131.588 104.608 131.64 104.52 131.64 104.416C131.64 104.312 131.588 104.224 131.484 104.152C131.388 104.08 131.256 104.044 131.088 104.044C130.92 104.044 130.784 104.08 130.68 104.152C130.584 104.224 130.536 104.312 130.536 104.416C130.536 104.52 130.584 104.608 130.68 104.68C130.784 104.752 130.92 104.788 131.088 104.788ZM139.065 101.224C139.849 101.24 140.413 101.324 140.757 101.476C141.109 101.628 141.285 101.92 141.285 102.352C141.285 102.776 141.105 103.064 140.745 103.216C140.393 103.36 139.841 103.44 139.089 103.456L139.101 104.404C139.109 104.556 139.113 104.768 139.113 105.04C139.113 105.384 139.017 105.628 138.825 105.772C138.633 105.908 138.409 105.976 138.153 105.976C137.713 105.976 137.393 105.756 137.193 105.316C136.993 104.876 136.869 104.248 136.821 103.432C136.301 103.392 135.913 103.292 135.657 103.132C135.409 102.972 135.285 102.712 135.285 102.352C135.285 101.992 135.409 101.732 135.657 101.572C135.913 101.404 136.301 101.296 136.821 101.248C136.869 100.472 136.985 99.82 137.169 99.292C137.353 98.764 137.653 98.352 138.069 98.056C138.485 97.752 139.045 97.6 139.749 97.6C140.189 97.6 140.553 97.704 140.841 97.912C141.137 98.112 141.285 98.404 141.285 98.788C141.285 99.188 141.161 99.492 140.913 99.7C140.673 99.9 140.341 100.04 139.917 100.12C139.637 100.176 139.433 100.3 139.305 100.492C139.177 100.676 139.097 100.92 139.065 101.224ZM151.386 106C151.018 106 150.766 105.876 150.63 105.628C150.494 105.38 150.426 105 150.426 104.488C150.426 104.112 150.422 103.844 150.414 103.684C150.406 103.516 150.374 103.376 150.318 103.264C150.27 103.152 150.182 103.096 150.054 103.096C149.902 103.096 149.79 103.148 149.718 103.252C149.646 103.348 149.602 103.476 149.586 103.636C149.578 103.788 149.574 104.02 149.574 104.332C149.574 104.716 149.558 105.02 149.526 105.244C149.494 105.46 149.41 105.64 149.274 105.784C149.138 105.92 148.926 105.988 148.638 105.988C147.774 105.988 147.342 104.892 147.342 102.7C147.342 101.956 147.406 101.38 147.534 100.972C147.67 100.556 147.922 100.296 148.29 100.192C148.426 100.152 148.55 100.132 148.662 100.132C148.83 100.132 148.982 100.168 149.118 100.24C149.254 100.312 149.35 100.412 149.406 100.54C149.518 100.476 149.63 100.428 149.742 100.396C149.854 100.364 150.014 100.348 150.222 100.348C150.478 100.348 150.718 100.412 150.942 100.54C151.174 100.66 151.338 100.832 151.434 101.056C151.642 100.816 151.85 100.64 152.058 100.528C152.274 100.408 152.55 100.348 152.886 100.348C153.382 100.348 153.814 100.496 154.182 100.792C154.558 101.08 154.846 101.48 155.046 101.992C155.254 102.496 155.358 103.056 155.358 103.672C155.358 104.36 155.266 104.92 155.082 105.352C154.898 105.784 154.578 106 154.122 106C153.818 106 153.598 105.924 153.462 105.772C153.334 105.62 153.254 105.432 153.222 105.208C153.198 104.976 153.186 104.64 153.186 104.2C153.186 103.816 153.158 103.536 153.102 103.36C153.046 103.184 152.914 103.096 152.706 103.096C152.554 103.096 152.458 103.18 152.418 103.348C152.378 103.508 152.358 103.776 152.358 104.152C152.35 104.224 152.346 104.336 152.346 104.488C152.33 105 152.254 105.38 152.118 105.628C151.982 105.876 151.738 106 151.386 106ZM159.692 106C159.1 106 158.576 105.884 158.12 105.652C157.664 105.42 157.308 105.096 157.052 104.68C156.804 104.256 156.68 103.78 156.68 103.252C156.68 102.732 156.804 102.252 157.052 101.812C157.308 101.372 157.66 101.02 158.108 100.756C158.556 100.492 159.064 100.36 159.632 100.36C160.144 100.36 160.596 100.464 160.988 100.672C161.38 100.88 161.68 101.156 161.888 101.5C162.096 101.836 162.2 102.188 162.2 102.556C162.2 103.156 161.972 103.596 161.516 103.876C161.068 104.148 160.532 104.284 159.908 104.284C159.492 104.284 159.14 104.232 158.852 104.128C159.092 104.52 159.488 104.716 160.04 104.716C160.264 104.716 160.504 104.688 160.76 104.632C160.856 104.608 160.948 104.596 161.036 104.596C161.212 104.596 161.352 104.64 161.456 104.728C161.568 104.816 161.624 104.936 161.624 105.088C161.624 105.336 161.472 105.552 161.168 105.736C160.864 105.912 160.372 106 159.692 106ZM158.888 102.664C158.96 102.776 159.056 102.86 159.176 102.916C159.304 102.964 159.444 102.988 159.596 102.988C159.772 102.988 159.924 102.948 160.052 102.868C160.188 102.788 160.256 102.684 160.256 102.556C160.256 102.412 160.196 102.288 160.076 102.184C159.964 102.08 159.8 102.028 159.584 102.028C159.368 102.028 159.196 102.096 159.068 102.232C158.948 102.36 158.888 102.504 158.888 102.664ZM164.924 106C164.412 106 164.068 105.7 163.892 105.1C163.724 104.5 163.64 103.672 163.64 102.616C163.64 102.136 163.66 101.736 163.7 101.416C163.748 101.088 163.856 100.812 164.024 100.588C164.2 100.356 164.468 100.24 164.828 100.24C165.052 100.24 165.248 100.292 165.416 100.396C165.592 100.5 165.704 100.648 165.752 100.84C165.928 100.68 166.156 100.56 166.436 100.48C166.716 100.4 167.016 100.36 167.336 100.36C167.592 100.36 167.852 100.424 168.116 100.552C168.388 100.68 168.612 100.856 168.788 101.08C168.972 101.296 169.064 101.532 169.064 101.788C169.064 102.044 168.972 102.272 168.788 102.472C168.612 102.664 168.376 102.76 168.08 102.76C167.984 102.76 167.892 102.748 167.804 102.724C167.724 102.7 167.652 102.676 167.588 102.652C167.428 102.588 167.3 102.556 167.204 102.556C166.892 102.556 166.616 102.68 166.376 102.928C166.144 103.168 166.028 103.48 166.028 103.864C166.028 104.288 166.012 104.64 165.98 104.92C165.948 105.2 165.852 105.452 165.692 105.676C165.532 105.892 165.276 106 164.924 106ZM173.038 106C172.446 106 171.922 105.884 171.466 105.652C171.01 105.42 170.654 105.096 170.398 104.68C170.15 104.256 170.026 103.78 170.026 103.252C170.026 102.732 170.15 102.252 170.398 101.812C170.654 101.372 171.006 101.02 171.454 100.756C171.902 100.492 172.41 100.36 172.978 100.36C173.49 100.36 173.942 100.464 174.334 100.672C174.726 100.88 175.026 101.156 175.234 101.5C175.442 101.836 175.546 102.188 175.546 102.556C175.546 103.156 175.318 103.596 174.862 103.876C174.414 104.148 173.878 104.284 173.254 104.284C172.838 104.284 172.486 104.232 172.198 104.128C172.438 104.52 172.834 104.716 173.386 104.716C173.61 104.716 173.85 104.688 174.106 104.632C174.202 104.608 174.294 104.596 174.382 104.596C174.558 104.596 174.698 104.64 174.802 104.728C174.914 104.816 174.97 104.936 174.97 105.088C174.97 105.336 174.818 105.552 174.514 105.736C174.21 105.912 173.718 106 173.038 106ZM172.234 102.664C172.306 102.776 172.402 102.86 172.522 102.916C172.65 102.964 172.79 102.988 172.942 102.988C173.118 102.988 173.27 102.948 173.398 102.868C173.534 102.788 173.602 102.684 173.602 102.556C173.602 102.412 173.542 102.288 173.422 102.184C173.31 102.08 173.146 102.028 172.93 102.028C172.714 102.028 172.542 102.096 172.414 102.232C172.294 102.36 172.234 102.504 172.234 102.664Z" fill="white"/>
</g>
<path d="M11.6341 250C21.1641 250.6 24.9641 261.04 17.5741 267.1C11.8041 271.83 2.80414 271.17 0.284142 263.32C-1.41586 255.9 4.78412 250.68 11.6341 250ZM15.1814 254.894C15.1703 254.617 15.0717 254.346 14.8912 254.098C14.7107 253.849 14.4519 253.626 14.1295 253.443C13.8071 253.26 13.4274 253.12 13.0122 253.03C12.5969 252.941 12.1543 252.904 11.7094 252.922C10.8111 252.958 9.95843 253.215 9.33907 253.635C8.71972 254.056 8.38439 254.607 8.40682 255.166C8.41793 255.443 8.51655 255.714 8.69705 255.962C8.87754 256.211 9.13642 256.434 9.45883 256.617C9.78123 256.8 10.1608 256.94 10.5761 257.03C10.9913 257.119 11.434 257.156 11.8788 257.138C12.7772 257.102 13.6298 256.846 14.2492 256.425C14.8685 256.004 15.2039 255.453 15.1814 254.894Z" fill="#94DBDD"/>
<path d="M11.8786 257.138C13.7494 257.063 15.228 256.058 15.1812 254.894C15.1345 253.73 13.58 252.847 11.7093 252.922C9.83855 252.997 8.35993 254.002 8.4067 255.166C8.45347 256.33 10.0079 257.213 11.8786 257.138Z" fill="#DEF5EC"/>
<path d="M7.10042 218.734C5.27375 214.74 4.04041 211.247 3.40041 208.254C1.99374 201.72 3.34373 195.65 7.45039 190.044C8.82373 188.17 10.2871 186.244 11.8404 184.264C14.5765 182.719 17.5939 181.694 20.7089 181.25C23.824 180.807 26.9716 180.954 29.9604 181.684C34.6697 182.836 38.7817 185.387 41.6922 188.962C44.6027 192.536 46.1583 196.946 46.1304 201.544C46.0978 206.302 44.3709 210.994 41.2204 214.884C37.8001 219.107 32.9207 222.115 27.4768 223.357C22.0329 224.598 16.3892 223.99 11.5804 221.644C9.95329 220.853 8.44867 219.876 7.10042 218.734ZM19.3804 219.954C19.1004 218.567 19.0604 217.427 19.2604 216.534C19.332 216.208 19.503 215.912 19.7504 215.684C21.5437 214.03 22.5137 213.16 22.6604 213.074C25.8737 211.094 28.9604 211.06 31.9204 212.974C32.0066 213.027 32.0843 213.094 32.1504 213.174L34.1704 215.774C34.293 215.932 34.4465 216.064 34.6214 216.161C34.7964 216.258 34.9892 216.319 35.1883 216.339C35.3874 216.36 35.5887 216.34 35.7798 216.28C35.9709 216.221 36.1481 216.123 36.3004 215.994C44.9004 208.624 44.8604 195.624 37.9404 187.154C37.7489 186.922 37.5144 186.732 37.2504 186.594C36.5704 186.22 36.0171 185.73 35.5904 185.124C35.3047 184.714 34.8979 184.409 34.4304 184.254L28.8804 182.374C28.5386 182.255 28.1757 182.218 27.8204 182.264L17.7904 183.564C17.5917 183.59 17.3993 183.647 17.2204 183.734C9.00041 187.634 3.19042 196.574 4.73042 205.964C5.59709 211.264 7.93705 215.297 11.7504 218.064C13.6804 219.464 16.6804 220.444 18.8904 220.524C18.9626 220.526 19.0345 220.513 19.1008 220.484C19.167 220.455 19.2259 220.412 19.273 220.357C19.3201 220.302 19.3542 220.237 19.3728 220.167C19.3914 220.098 19.394 220.025 19.3804 219.954Z" fill="#94DBDD"/>
<path d="M19.3806 219.954C19.3942 220.025 19.3917 220.098 19.3731 220.167C19.3545 220.237 19.3203 220.302 19.2732 220.357C19.2261 220.412 19.1673 220.455 19.101 220.484C19.0348 220.513 18.9628 220.526 18.8906 220.524C16.6806 220.444 13.6806 219.464 11.7506 218.064C7.93729 215.297 5.59734 211.264 4.73067 205.964C3.19067 196.574 9.00066 187.634 17.2207 183.734C17.3995 183.647 17.5919 183.59 17.7907 183.564L27.8206 182.264C28.176 182.218 28.5388 182.255 28.8806 182.374L34.4307 184.254C34.8981 184.409 35.3049 184.714 35.5907 185.124C36.0173 185.73 36.5706 186.22 37.2506 186.594C37.5146 186.732 37.7491 186.922 37.9406 187.154C44.8606 195.624 44.9007 208.624 36.3007 215.994C36.1483 216.123 35.9712 216.221 35.78 216.28C35.5889 216.34 35.3877 216.36 35.1886 216.339C34.9894 216.319 34.7966 216.258 34.6217 216.161C34.4467 216.064 34.2933 215.932 34.1707 215.774L32.1507 213.174C32.0845 213.094 32.0069 213.027 31.9207 212.974C28.9607 211.06 25.874 211.094 22.6607 213.074C22.514 213.16 21.544 214.03 19.7506 215.684C19.5032 215.912 19.3322 216.208 19.2606 216.534C19.0606 217.427 19.1006 218.567 19.3806 219.954ZM29.7119 187.074C29.6106 186.553 29.3601 186.067 28.9745 185.642C28.5889 185.218 28.0759 184.864 27.4647 184.601C26.8535 184.337 26.1561 184.17 25.4123 184.107C24.6685 184.045 23.8929 184.089 23.1298 184.238C22.3666 184.386 21.6309 184.636 20.9646 184.972C20.2982 185.308 19.7145 185.725 19.2464 186.198C18.7784 186.671 18.4353 187.192 18.2368 187.73C18.0383 188.267 17.9882 188.812 18.0894 189.333C18.1907 189.854 18.4412 190.34 18.8268 190.765C19.2124 191.189 19.7254 191.543 20.3366 191.807C20.9478 192.07 21.6452 192.238 22.389 192.3C23.1328 192.362 23.9084 192.318 24.6716 192.169C25.4347 192.021 26.1704 191.772 26.8367 191.435C27.5031 191.099 28.0869 190.682 28.5549 190.209C29.023 189.736 29.366 189.215 29.5645 188.678C29.763 188.14 29.8131 187.595 29.7119 187.074Z" fill="#56BECA"/>
<path d="M24.6713 192.169C27.8808 191.546 30.1374 189.264 29.7117 187.074C29.286 184.884 26.339 183.614 23.1296 184.238C19.9201 184.862 17.6635 187.143 18.0892 189.333C18.515 191.523 21.4619 192.793 24.6713 192.169Z" fill="#DEF5EC"/>
<path d="M11.8404 184.264C10.2871 186.244 8.82375 188.17 7.45042 190.044C3.34375 195.65 1.99376 201.72 3.40043 208.254C4.04043 211.247 5.27377 214.74 7.10044 218.734C4.60702 216.624 2.68262 213.994 1.46934 211.04C0.256051 208.086 -0.215163 204.881 0.0904309 201.664C0.423201 198.16 1.66794 194.743 3.71604 191.71C5.76414 188.677 8.55337 186.121 11.8404 184.264Z" fill="#56BECA"/>
<defs>
<filter id="filter0_d_329_119" x="49.3" y="73.264" width="130.246" height="40.736" filterUnits="userSpaceOnUse" color-interpolation-filters="sRGB">
<feFlood flood-opacity="0" result="BackgroundImageFix"/>
<feColorMatrix in="SourceAlpha" type="matrix" values="0 0 0 0 0 0 0 0 0 0 0 0 0 0 0 0 0 0 127 0" result="hardAlpha"/>
<feOffset dy="4"/>
<feGaussianBlur stdDeviation="2"/>
<feComposite in2="hardAlpha" operator="out"/>
<feColorMatrix type="matrix" values="0 0 0 0 0 0 0 0 0 0 0 0 0 0 0 0 0 0 0.25 0"/>
<feBlend mode="normal" in2="BackgroundImageFix" result="effect1_dropShadow_329_119"/>
<feBlend mode="normal" in="SourceGraphic" in2="effect1_dropShadow_329_119" result="shape"/>
</filter>
</defs>
</svg>
